<svg xmlns="http://www.w3.org/2000/svg" width="131" height="34" fill-rule="evenodd"><path d="M38.4 15.35H44a2.7 2.7 0 0 0-2.75-2.1c-1.36 0-2.42.74-2.85 2.1m9.48 2.98h-9.43c.43 1.28 1.48 2.14 3.23 2.14a7.5 7.5 0 0 0 4-1.26l1.65 2.93C46 23.14 43.98 24 41.5 24c-4.93 0-7.3-3.38-7.3-7.1a6.8 6.8 0 0 1 7.06-7.15 6.4 6.4 0 0 1 6.77 6.8 11.5 11.5 0 0 1-.14 1.75m1.15 3.45l1.9-2.93c1.05.94 2.46 1.7 3.95 1.7.77 0 1.4-.27 1.4-.86 0-.27-.14-.52-.72-.76l-3.28-1.18c-1.55-.74-2.46-1.9-2.46-3.7 0-2.56 2.13-4.3 5.46-4.3a7.3 7.3 0 0 1 4.93 1.77l-1.82 2.86a5.9 5.9 0 0 0-3.18-1.16c-.7 0-1.2.32-1.2.76 0 .42.26.74 1.2 1 .8.22 2.06.62 3.1 1.18 1.6.84 2.25 1.9 2.25 3.45 0 2.6-2.13 4.53-5.67 4.53a8.3 8.3 0 0 1-5.86-2.34m23.55 1.18c-1.1.67-2.75 1.1-4.2 1.1-3.16 0-4.9-1.82-4.9-5.62V13.7h-2v-3.6h2.06V5.3h4.2v4.83h4.14v3.6H67.7v4.2c0 1.53.6 2.17 1.68 2.17.84 0 1.48-.3 2.08-.62l1.12 3.48zM74 10.12h4.04v1.68c.86-1.4 2.15-2.05 3.52-2.05a4.1 4.1 0 0 1 1.65.37l-.34 4.14c-.57-.2-1.17-.32-1.75-.32-1.65 0-2.92 1-2.92 3.92v5.87H74v-13.6zm20.06 6.78A3.1 3.1 0 0 0 91 13.74c-1.8 0-3.04 1.45-3.04 3.16 0 1.78 1.3 3.2 3.04 3.2s3.06-1.45 3.06-3.2zm4.02-6.78v13.6H94.1v-1.18a5.4 5.4 0 0 1-3.9 1.53c-3.83 0-6.46-3.18-6.46-7.2 0-4.1 2.73-7.1 6.46-7.1a5.4 5.4 0 0 1 3.9 1.58v-1.23h3.97zm12.28 6.78c0-1.73-1.22-3.16-3.02-3.16-1.75 0-3 1.43-3 3.16 0 1.78 1.27 3.2 3 3.2 1.8 0 3.02-1.43 3.02-3.2zm4.07-11.98v18.8h-4.12v-1.18a4.9 4.9 0 0 1-3.68 1.53c-3.66 0-6.46-2.98-6.46-7.15 0-4.14 2.82-7.15 6.46-7.15 1.55 0 2.73.6 3.57 1.4V4.92h4.23zM126.8 16.9a3.1 3.1 0 0 0-3.06-3.16c-1.8 0-3.04 1.45-3.04 3.16 0 1.78 1.3 3.2 3.04 3.2s3.06-1.45 3.06-3.2zm4.02-6.78v13.6h-3.97v-1.18a5.4 5.4 0 0 1-3.9 1.53c-3.83 0-6.46-3.18-6.46-7.2 0-4.1 2.73-7.1 6.46-7.1a5.4 5.4 0 0 1 3.9 1.58v-1.23h3.97z" fill="#fff"/><g fill="#0098ae"><path d="M29.48 31.65a20.8 20.8 0 0 1-5.46-10.37c-.78-3.83-.5-7.8.8-11.45l1.64.62a19.5 19.5 0 0 0-.73 10.46 18.9 18.9 0 0 0 5 9.47l-1.24 1.27zM3.5 31.64l-1.24-1.27a19.9 19.9 0 0 1 10.1-5.63 19.6 19.6 0 0 1 11.15.85l-.6 1.7a17.9 17.9 0 0 0-10.18-.78c-3.5.75-6.68 2.53-9.22 5.14m13-21.95a19.6 19.6 0 0 1-6.91-1.26l.6-1.7a17.9 17.9 0 0 0 10.14.74c3.48-.76 6.65-2.53 9.18-5.14l1.24 1.27A19.9 19.9 0 0 1 20.7 9.23a19.7 19.7 0 0 1-4.19.45M8.2 24.05l-1.64-.6a19.5 19.5 0 0 0 .69-10.42C6.5 9.45 4.8 6.2 2.27 3.6L3.5 2.32a20.8 20.8 0 0 1 5.45 10.32c.8 3.8.53 7.75-.75 11.4"/><path d="M16.5 12.97a22.9 22.9 0 0 1-5.52-.68l.4-1.75a21.1 21.1 0 0 0 10.77-.14c3.62-1 6.94-3 9.6-5.74L33 5.93c-2.88 2.97-6.47 5.1-10.38 6.2a22.8 22.8 0 0 1-6.11.83m0-6.58a16.5 16.5 0 0 1-11.96-5.1L5.76 0c2.87 2.95 6.68 4.58 10.73 4.58S24.36 2.95 27.22 0l1.24 1.27c-3.2 3.3-7.44 5.1-11.96 5.1"/><path d="M27.22 33.98a24.2 24.2 0 0 1-6.03-10.73 24.9 24.9 0 0 1-.12-12.02l1.7.43a23 23 0 0 0 .11 11.13 22.4 22.4 0 0 0 5.58 9.93L27.22 34zm4.53-4.68a17.6 17.6 0 0 1-4.96-12.32 17.6 17.6 0 0 1 4.96-12.32L33 5.93a16 16 0 0 0 0 22.1l-1.24 1.27z"/><path d="M1.24 29.3L0 28.04a23.2 23.2 0 0 1 10.4-6.2 22.8 22.8 0 0 1 11.67-.13l-.42 1.75a21.1 21.1 0 0 0-10.8.12 21.4 21.4 0 0 0-9.63 5.75m26 4.65a14.9 14.9 0 0 0-21.46 0L4.53 32.7c3.2-3.3 7.44-5.1 11.96-5.1a16.5 16.5 0 0 1 11.96 5.1l-1.24 1.27z"/><path d="M11.93 22.7l-1.7-.43c.86-3.64.82-7.48-.13-11.1a22.4 22.4 0 0 0-5.57-9.9L5.76 0a24.2 24.2 0 0 1 6.02 10.71 24.9 24.9 0 0 1 .14 12M1.24 29.3L0 28.04a16 16 0 0 0 0-22.1l1.24-1.27A17.6 17.6 0 0 1 6.2 16.99a17.6 17.6 0 0 1-4.96 12.32"/></g></svg>