<svg xmlns="http://www.w3.org/2000/svg" width="287" height="72" fill-rule="evenodd"><path d="M84.12 32.5H96.4a5.9 5.9 0 0 0-6.03-4.44 6.2 6.2 0 0 0-6.24 4.44m20.76 6.32H84.22c.94 2.7 3.25 4.54 7.08 4.54 3.04 0 6.5-1.15 8.76-2.66l3.62 6.2c-2.94 2.1-7.34 3.97-12.8 3.97-10.8 0-16-7.15-16-15.03 0-8.6 6.2-15.14 15.47-15.14 8.33 0 14.83 5.27 14.83 14.4a23.6 23.6 0 0 1-.31 3.71m2.53 7.25l4.14-6.2c2.3 1.98 5.4 3.6 8.65 3.6 1.68 0 3.1-.57 3.1-1.83 0-.57-.3-1.1-1.57-1.62l-7.18-2.5c-3.4-1.57-5.4-4.02-5.4-7.83 0-5.43 4.67-9.13 11.95-9.13 3.83 0 7.4 1 10.8 3.76l-3.98 6.06c-2.62-1.77-5.24-2.45-6.97-2.45-1.52 0-2.62.68-2.62 1.62 0 .9.58 1.57 2.62 2.1a35.9 35.9 0 0 1 6.81 2.51c3.5 1.77 4.93 4.02 4.93 7.3 0 5.53-4.67 9.6-12.43 9.6-5.03 0-9.54-1.83-12.84-4.96m51.6 2.53c-2.4 1.4-6.03 2.35-9.23 2.35-6.92 0-10.75-3.86-10.75-11.9V29.05h-4.4v-7.62h4.5V11.2h9.17v10.23h9.07v7.62h-9.07v8.93c0 3.24 1.3 4.6 3.67 4.6 1.84 0 3.25-.63 4.56-1.3l2.46 7.36zm3.1-27.2h8.86v3.55a8.9 8.9 0 0 1 7.71-4.33 9.3 9.3 0 0 1 3.62.78l-.73 8.77a12.3 12.3 0 0 0-3.82-.68c-3.62 0-6.4 2.1-6.4 8.3v12.42h-9.23v-28.8zm43.95 14.36a6.7 6.7 0 0 0-6.71-6.68c-3.93 0-6.66 3.08-6.66 6.68 0 3.76 2.83 6.8 6.66 6.8a6.7 6.7 0 0 0 6.71-6.79zm8.8-14.36v28.8h-8.7v-2.5a12.2 12.2 0 0 1-8.55 3.24c-8.4 0-14.16-6.73-14.16-15.24 0-8.67 5.98-15.03 14.16-15.03 3.72 0 6.5 1.4 8.55 3.34v-2.6h8.7zm26.93 14.36c0-3.65-2.68-6.68-6.6-6.68-3.82 0-6.6 3.03-6.6 6.68 0 3.76 2.78 6.8 6.6 6.8a6.5 6.5 0 0 0 6.61-6.79zm8.9-25.37v39.83h-9.02v-2.5c-1.9 1.88-4.46 3.24-8.07 3.24-8.02 0-14.16-6.32-14.16-15.14 0-8.77 6.2-15.14 14.16-15.14 3.4 0 5.98 1.25 7.8 2.97V10.4h9.28zm27.12 25.37a6.7 6.7 0 0 0-6.71-6.68c-3.93 0-6.66 3.08-6.66 6.68 0 3.76 2.83 6.8 6.66 6.8a6.7 6.7 0 0 0 6.71-6.79zm8.8-14.36v28.8h-8.7v-2.5a12.2 12.2 0 0 1-8.54 3.24c-8.4 0-14.16-6.73-14.16-15.24 0-8.67 5.98-15.03 14.16-15.03a12 12 0 0 1 8.54 3.34v-2.6h8.7z" fill="#00343e"/><g fill="#0098ae"><path d="M64.58 67.03a43.7 43.7 0 0 1-11.97-21.96 43.8 43.8 0 0 1 1.75-24.26l3.6 1.3a40 40 0 0 0-1.6 22.16 39.9 39.9 0 0 0 10.93 20.05l-2.7 2.7zM7.65 67l-2.7-2.7a44 44 0 0 1 22.12-11.93 44.4 44.4 0 0 1 24.43 1.8l-1.33 3.57a40.5 40.5 0 0 0-22.31-1.65C20.2 57.7 13.2 61.46 7.65 67m28.47-46.48a44.3 44.3 0 0 1-15.14-2.67l1.3-3.58c7.1 2.6 14.8 3.13 22.22 1.56 7.62-1.6 14.57-5.37 20.1-10.87l2.7 2.7a44 44 0 0 1-22 11.9c-3.04.64-6.1.96-9.18.96m-18.14 30.4l-3.6-1.3c2.56-7.07 3.08-14.7 1.5-22.06A39.9 39.9 0 0 0 4.98 7.62l2.7-2.7a43.7 43.7 0 0 1 11.94 21.85 43.8 43.8 0 0 1-1.65 24.15"/><path d="M36.13 27.47a51.5 51.5 0 0 1-12.1-1.44l.9-3.7a47.8 47.8 0 0 0 23.59-.3A47.3 47.3 0 0 0 69.56 9.88l2.7 2.7A51 51 0 0 1 49.52 25.7a51.4 51.4 0 0 1-13.4 1.77m.01-13.97A36.9 36.9 0 0 1 9.92 2.69l2.7-2.7a33.1 33.1 0 0 0 23.5 9.69A33.1 33.1 0 0 0 59.64 0l2.7 2.7a36.9 36.9 0 0 1-26.21 10.8"/><path d="M59.64 71.95a50.8 50.8 0 0 1-13.21-22.72 51 51 0 0 1-.27-25.46l3.72.9a47.2 47.2 0 0 0 .25 23.56 47 47 0 0 0 12.22 21.02l-2.7 2.7zm9.92-9.88a36.6 36.6 0 0 1-10.86-26.1 36.6 36.6 0 0 1 10.86-26.1l2.7 2.7c-12.96 12.9-12.96 33.9 0 46.8l-2.7 2.7z"/><path d="M2.7 62.07L0 59.38c6.33-6.3 14.22-10.85 22.82-13.15a51.7 51.7 0 0 1 25.56-.28l-.9 3.7a47.8 47.8 0 0 0-23.66.25 47.3 47.3 0 0 0-21.1 12.17m56.92 9.88a33.4 33.4 0 0 0-47.01 0l-2.7-2.7a36.9 36.9 0 0 1 26.21-10.81 36.9 36.9 0 0 1 26.21 10.81l-2.7 2.7z"/><path d="M26.13 48.08l-3.72-.9a47.2 47.2 0 0 0-.28-23.51A47 47 0 0 0 9.92 2.69l2.7-2.7a50.8 50.8 0 0 1 13.2 22.67 51 51 0 0 1 .31 25.41m-23.43 14L0 59.38c12.96-12.9 12.96-33.9 0-46.8l2.7-2.7a36.6 36.6 0 0 1 10.86 26.1A36.6 36.6 0 0 1 2.7 62.08"/></g></svg>