<svg xmlns="http://www.w3.org/2000/svg" xmlns:xlink="http://www.w3.org/1999/xlink" width="288" height="64"><g fill="none" fill-rule="evenodd"><g fill="#00343e"><path d="M89.94 37.27h12c-.77-2.67-2.87-4.36-5.9-4.36-2.92 0-5.18 1.54-6.1 4.36m20.3 6.2h-20.2c.92 2.66 3.18 4.46 6.92 4.46 2.97 0 6.36-1.13 8.56-2.6l3.53 6.1c-2.87 2.05-7.17 3.9-12.5 3.9-10.56 0-15.63-7.02-15.63-14.76 0-8.45 6.05-14.86 15.12-14.86 8.15 0 14.5 5.17 14.5 14.14a23.3 23.3 0 0 1-.3 3.64m2.46 7.1l4.05-6.1c2.26 1.95 5.28 3.54 8.46 3.54 1.64 0 3.02-.56 3.02-1.8 0-.56-.3-1.08-1.54-1.6l-7.02-2.46c-3.33-1.54-5.28-3.95-5.28-7.7 0-5.33 4.56-8.97 11.68-8.97 3.74 0 7.23.97 10.56 3.7l-3.9 5.95c-2.56-1.74-5.12-2.4-6.8-2.4-1.5 0-2.56.67-2.56 1.6 0 .87.56 1.54 2.56 2.05 1.7.46 4.4 1.28 6.66 2.46 3.43 1.74 4.82 3.94 4.82 7.17 0 5.43-4.56 9.43-12.15 9.43-4.92 0-9.33-1.8-12.56-4.87m50.46 2.5c-2.36 1.38-5.9 2.3-9.02 2.3-6.76 0-10.5-3.8-10.5-11.68v-9.84h-4.3V26.4h4.4V16.36h8.97V26.4h8.87v7.48h-8.87v8.76c0 3.18 1.28 4.5 3.6 4.5 1.8 0 3.18-.6 4.46-1.28l2.4 7.23zm3.04-26.7h8.66v3.5c1.84-2.92 4.62-4.25 7.54-4.25a9 9 0 0 1 3.53.77l-.72 8.6c-1.23-.4-2.5-.67-3.74-.67-3.54 0-6.26 2.05-6.26 8.15v12.2h-9.02V26.4z"/><use xlink:href="#B"/><path d="M244.08 40.5c0-3.6-2.62-6.56-6.46-6.56-3.74 0-6.46 2.97-6.46 6.56 0 3.7 2.72 6.66 6.46 6.66 3.84 0 6.46-2.97 6.46-6.66zm8.7-24.9v39.1h-8.8v-2.46c-1.84 1.84-4.36 3.18-7.9 3.18-7.84 0-13.84-6.2-13.84-14.86 0-8.6 6.05-14.86 13.84-14.86a10.8 10.8 0 0 1 7.64 2.92v-13h9.07z"/><use xlink:href="#B" x="70.15"/></g><use xlink:href="#C" fill="#0098ae"/><use xlink:href="#C" stroke="#0098ae" stroke-width=".5"/><path d="M34.37 55.03c-4.17 0-7.43-1.22-11.1-3.3l1.6-2.83c3.88 2.2 7.52 3.24 11.9 2.72 4.5-.54 8.57-2.5 11.76-5.68L67.7 26.8h2.18v2.4L50.82 48.26c-3.7 3.7-8.43 6-13.67 6.6-.92.1-1.86.16-2.8.16" fill="#0098ae"/><path d="M34.37 55.03c-4.17 0-7.43-1.22-11.1-3.3l1.6-2.83c3.88 2.2 7.52 3.24 11.9 2.72 4.5-.54 8.57-2.5 11.76-5.68L67.7 26.8h2.18v2.4L50.82 48.26c-3.7 3.7-8.43 6-13.67 6.6-.92.1-1.86.16-2.8.16z" stroke="#0098ae" stroke-width=".5"/><use xlink:href="#D" fill="#0098ae"/><use xlink:href="#D" stroke="#0098ae" stroke-width=".5"/><use xlink:href="#E" fill="#0098ae"/><use xlink:href="#E" stroke="#0098ae" stroke-width=".5"/></g><defs ><path id="B" d="M209.15 40.5c0-3.54-2.82-6.56-6.56-6.56-3.84 0-6.5 3.02-6.5 6.56 0 3.7 2.77 6.66 6.5 6.66s6.56-3.02 6.56-6.66zm8.6-14.1V54.7h-8.5v-2.46a11.9 11.9 0 0 1-8.35 3.18c-8.2 0-13.84-6.6-13.84-14.96 0-8.5 5.84-14.76 13.84-14.76 3.64 0 6.36 1.38 8.35 3.28V26.4h8.5z"/><path id="C" d="M1 60.5l43.15-43.25c.4-.4.42-.85.4-1.1a1.4 1.4 0 0 0-.59-1.04c-3.95-2.84-8.56-4.33-12.98-4.18-4.6.15-8.8 2-12.14 5.35-6.05 6.04-7.55 15.42-3.73 23.34l-2.93 1.4a24.1 24.1 0 0 1-2.15-14.14 23 23 0 0 1 6.51-12.9c3.94-3.94 8.9-6.1 14.33-6.3 5.14-.17 10.47 1.53 15 4.8 1.1.8 1.82 2.05 1.93 3.4a4.6 4.6 0 0 1-1.34 3.65l-43.2 43.3H1V60.5z"/><path id="D" d="M19.76 32.07a13 13 0 0 1 .27-4.59c.52-2.15 1.58-4.1 3.06-5.6a12.3 12.3 0 0 1 8.86-3.74 12.4 12.4 0 0 1 1.57.1L19.76 32.07zm12.2-27.82a26.2 26.2 0 0 1 18.33 7.42l.18.18c2.42 2.4 2.43 6.3.02 8.7L8.32 62.84h4.6l39.88-40a9.3 9.3 0 0 0 2.75-6.66c-.01-2.52-1-4.88-2.78-6.65l-.2-.2a29.2 29.2 0 0 0-9.66-6.26C39.4 1.7 35.73 1 31.96 1c-3.87 0-7.64.74-11.2 2.2-3.7 1.5-7 3.7-9.8 6.56a29.5 29.5 0 0 0-5.56 7.84 29.4 29.4 0 0 0-2.69 8.88 29.6 29.6 0 0 0 .18 9.2 29.4 29.4 0 0 0 3.05 8.8c.17.32.4.6.66.85L1 50.9v4.6l38.5-38.7a15.6 15.6 0 0 0-7.55-1.94 15.6 15.6 0 0 0-11.19 4.71c-3.93 4.03-5.2 9.9-3.8 15.13l-8.2 8.2a26.3 26.3 0 0 1 4.48-30.9c5.13-5.2 11.92-7.8 18.7-7.8z"/><path id="E" d="M57.86 26.8L43.83 40.82a12.3 12.3 0 0 1-8.75 3.63c-1.62 0-3.2-.3-4.68-.9-.4-.16-.8-.24-1.22-.24-.85 0-1.68.33-2.3.95l-7.9 7.9c-.7.7-1.04 1.7-.93 2.68s.68 1.87 1.52 2.4c4.62 2.84 9.96 4.34 15.43 4.34 3.87 0 7.66-.74 11.24-2.2a29.7 29.7 0 0 0 9.88-6.55L69.9 39.03v-4.6L53.82 50.5c-5.2 5.2-12 7.8-18.82 7.8a26.2 26.2 0 0 1-13.73-3.86l7.9-7.9c1.9.77 3.9 1.15 5.9 1.15a15.6 15.6 0 0 0 11.05-4.58L62.45 26.8h-4.6z"/></defs></svg>