<svg xmlns="http://www.w3.org/2000/svg" xmlns:xlink="http://www.w3.org/1999/xlink" width="1562.67" height="985.33" viewBox="0 0 1172 739" preserveAspectRatio="xMidYMid meet" xmlns:v="https://vecta.io/nano"><path d="M535.1 3.2C532 11.3 530.7 14 530 14c-.5 0-3.7-.9-7.2-2-3.4-1.1-6.4-2-6.6-2s1.3 2.9 3.3 6.3c1.9 3.5 3.5 6.7 3.5 7 0 .4-2.5 2.3-5.5 4.3s-5.5 4-5.5 4.4 2.5 1.1 5.7 1.5c8.9 1.1 8.6.8 7.8 9.3l-.7 7.5 5.8-5 5.8-5.1 11.6 10-.6-7.2c-.8-8.4-.7-8.5 7.8-9.5 3.2-.4 5.8-1 5.8-1.3 0-.4-2.3-2.3-5.1-4.2-2.8-1.8-5.3-3.8-5.5-4.2-.3-.5 1.1-3.8 3.1-7.5 2-3.6 3-6.3 2.3-6.1-5.2 2-13.2 3.8-13.8 3.1-.4-.4-1.7-3.4-3-6.6-1.2-3.1-2.4-5.7-2.6-5.7-.3 0-.8 1-1.3 2.2zM467.2 38c-2.7 3.8-4.8 5.8-5.5 5.4s-2.8-1.9-4.7-3.4c-3.5-2.7-10.6-5.8-11.4-4.9-1.2 1.2 1.9 10.5 5.1 15 2.9 4.2 3.4 5.7 2.8 8.3-.4 1.7-1 7.2-1.4 12.2-.6 7.7-1.3 10.2-4.9 17.5-6.7 13.8-13.9 23.6-26.9 36.7-19.7 19.7-25.4 28.3-26.8 40.3-.4 3.2-1.1 5.9-1.6 5.9-1.9 0-8-3-13.2-6.4-2.8-1.9-8.3-4.6-12.2-6.1-7.7-2.8-11.1-5.5-13-10-1.5-3.4-.8-6 3.2-11.8 1.9-2.7 2.7-5.1 2.7-8.5.1-5.2-1-10.2-2.2-10.2-.4 0-2.2 4.8-4.1 10.5-3.6 11.2-3.7 15.5-.5 21.7l1.6 3.1-4.9-.9c-9.8-1.7-27.4.3-32.9 3.7l-3.8 2.3 3.5.9c5.9 1.6 13.3.4 17.5-2.8 5.1-3.9 11-4.3 19.4-1.5 7.4 2.4 19.4 9.1 18.2 10.1-.4.3-2.8 1.4-5.3 2.4-5.2 1.9-11.9 8.3-13.9 13.2-1 2.8-1 3.8.8 7.5a116.2 116.2 0 0 1 2.7 6.3c.6 2 .7 2 2.1 0 1.1-1.5 1.3-3.8.8-10.6-.6-8.3-.6-8.8 1.8-11.2 1.3-1.3 4.8-3.2 7.7-4.2 6.4-2.1 9.7-1.4 18.4 4.1l5.8 3.6-.3 11.1c-.3 12.8.6 11.7-11.9 13.5-3.8.6-11.6 3.1-18.9 6.2-6.8 2.9-16 6-20.4 6.9-5.6 1.1-7.2 1.7-5.2 1.9 5.5.7 15.9-1.9 27.5-6.8 11.7-4.9 23.4-7.9 26.6-6.6 1.6.6 1.6.8 0 3.4-1 1.5-2.7 3.7-3.8 5-2 2.2-2.1 2.2-3.9.2-1-1-2.5-1.7-3.3-1.4-2 .8-1.9 4.1.1 5.2 1.5.8 1.4 1.3-1 4.5-2.7 3.5-5 4.8-12 6.6-3.9 1-10.6 5-10.6 6.3 0 1.2 6.8.9 11.3-.4 3.1-.9 6.5-3.7 14-11.5 5.5-5.6 10.4-10 10.8-9.7 1 .6.2 5.6-1.7 10.2-1.2 2.9-1.6 3.2-3.3 2.3a8.9 8.9 0 0 0-3.4-1.1c-1.9 0-3.1 3-1.7 4.4 1.7 1.7 1.2 2.5-2.2 3.9-9.8 4.1-29.5 6.3-63.6 7.2-19.7.5-24.8 1.3-23.9 3.8 1 3.1 7.3 3.5 53.7 3.3 52.5-.1 50.4.2 58.3-7.9 4.3-4.5 13.7-21.2 13.7-24.5 0-4.3 5.4-10.1 10.9-11.7l2.4-.7-.6 8.8c-.4 4.9-1.6 12.5-2.8 16.9-2.9 10.8-3.3 13.9-2 16.4 1.1 2.1 1.7 2.1 29.1 2.1 15.4 0 32.5.5 38 1.1 5.5.7 10.3.9 10.6.6 1.5-1.4-1.1-4.7-5.2-6.6-8.2-3.9-13.1-4.4-30.9-3.1-23.5 1.7-25.5.7-24.2-11.3.7-6.5 4.8-20.7 6-20.7 2 0 15 7.5 13.5 7.8-2 .4-2.9 2.4-1.8 4.2s3.8.6 4.2-2c.3-1.9 1.2-1.5 11.8 4.3 23.6 13.2 37.1 27.4 49.5 52.1 6.3 12.4 5.9 13.7-1.9 6.2-4.9-4.7-6.8-7.3-8-11.3-1.3-3.9-3-6.4-6.9-9.8-9.7-8.8 1.9-8-116.7-8.1-105.3 0-105.5 0-110.2-2.1-5.8-2.6-8.8-7.1-8.8-13 0-3.3.5-4.6 2.6-6.2 6.6-5.2 14.9.4 10.1 6.7-1.9 2.5.9 3.6 3.2 1.3 4.9-4.9.1-14.1-7.4-14.1-4.3 0-8.8 2.1-10.9 5.2-2 2.8-2.1 11-.2 14.7 2.2 4.1 8 8.9 12.3 10 2.3.6 45 1.1 106.3 1.4l107.4 1.8c5.3 1.3 13.6 8.2 13.6 11.2 0 1.5-.9 1.3-6.1-1.4-14.4-7.2-36.2-9.1-54-4.7-9.4 2.3-9.4 2.3-16.5-2.2-3.8-2.5-10.7-3.5-17.1-2.5-4.4.7-4.6.8-2.3 1.7l10 4.4c4.8 2.1 8.4 3.2 10 2.8 3-.6-11.8 7.3-17.2 9.2-3.5 1.2-4 1.1-6.6-1.1a23.3 23.3 0 0 0-5.6-3.5c-3.4-1.2-13.6-1.3-13.6-.1 0 1.9 7 5.2 12.6 5.9 3.2.4 5.8 1.1 5.7 1.6s-4.8 3.4-10.5 6.4l-10.3 5.4-8.5-.4c-10.3-.5-17.4-3.8-21.5-9.9-2.6-4.1-5.9-6.2-11.2-7.4-5.6-1.2-5.4.4.7 6 4.1 3.7 6.8 5.5 8.6 5.5a11.7 11.7 0 0 1 5.6 2.2c1.7 1.1 6.4 3.1 10.6 4.3 4.1 1.2 7.1 2.4 6.6 2.7s-4.5 1.4-8.9 2.4c-6.6 1.6-12.1 1.9-31.2 1.9-12.7 0-22.6.3-22 .7 1.7 1 .9 1.4-7.1 3.2a27.6 27.6 0 0 0-12.7 5.9c-5.8 4.6-6.7 6-3.2 5.3 1.2-.3 4.3-.8 6.8-1.1 3.6-.4 5.9-1.7 10.5-5.6 6.8-5.7 7.9-6.1 15.9-5.7 5.5.3 6 .5 5.8 2.5-.2 1.4.5 2.7 1.7 3.3 2.6 1.4 4 .5 4-2.4 0-2.2.5-2.4 9.5-3 5.2-.4 11.8-1.1 14.6-1.5 4.9-.8 5-.8 4.5 1.5-.8 3.1 2.5 5.2 4.5 2.8.9-1.1 1-2 .2-3.2-.9-1.5.4-2.2 10.1-5.4 6.1-2 11.3-3.5 11.5-3.3.2.3-.5 2.6-1.7 5.2-4 9.5-5.1 18.9-3.1 26.9 1.6 6.1 2.8 5.6 1.5-.6-1.1-5.4 0-13.8 3-23.9 2.2-7.3 7.9-12.9 18.5-17.9 4.6-2.2 8.5-3.9 8.7-3.7.2.1-.9 3.1-2.3 6.6-2.9 6.8-4.6 19.9-2.7 19.9.6 0 2-1.5 3.1-3.4 1.7-2.7 2.1-5 2.1-12 0-8 .2-8.8 2.8-11.5 4.5-4.8 29.4-13.8 39.2-14.2 6.5-.2 6.6 0 2.3 4.3-8.4 8.7-11.4 18.9-9.3 32.1l1.2 7.5-3.7 6.1c-2.1 3.3-3.5 6.7-3.2 7.5.6 1.4-2.9 3-4.5 2-1.4-.9-.9-5 1.3-10 2.1-4.6 2.1-4.9.5-7.9-4.8-8.9-18.9-8.5-23.8.6-2.4 4.4-2.3 6.7.8 19.4 2.9 12.1 2.7 14.4-.8 12.1-4.6-3-10.9-3.8-17.3-2.4-5.9 1.4-6 1.4-3.5 2.8 1.5.9 6.5 1.6 13 1.8 6.3.3 10.8.9 11.2 1.6.4.6.8 3.5.8 6.4 0 4.4.4 5.7 2.6 7.7 5.7 5.3 18.1 4.9 42.8-1.5 8.3-2.1 18.9-4.6 23.5-5.4 7.9-1.5 16.1-2.1 16.1-1.2 0 .2-1.2 2.7-2.6 5.5-4 8-4.2 11.3-.9 14 1.6 1.2 2.6 2.2 2.4 2.4-5.3 3-14.4 6.7-17.9 7.2-2.5.3-9.1 1.5-14.8 2.7-10.3 2.2-10.3 2.2-8 3.9 2.3 1.8 2.3 1.8.3 3.3-2.5 1.9-1.6 2 8.6 0 4.5-.8 11-2.9 14.3-4.6 5.1-2.6 20.2-6.3 21.4-5.3.2.2-2.4 4.7-5.7 10-3.4 5.3-6.1 10-6.1 10.6 0 .5 1.6.9 3.5.9 4.1 0 5.1-1.3 11.7-15 3.6-7.6 10.9-17 13-17 .5 0-1 2.7-3.2 6-5.9 8.5-6.5 15.5-2 20 1.8 1.8 2.9 1.9 12.7 1.4 7.1-.5 11.8-1.2 13.6-2.3 2.7-1.5 2.8-1.5 5 1.1 2.5 3.1 7.6 5.3 8.9 4 .6-.6-1.3-4.4-4.6-9.5-5.9-9-6.8-11.4-3.8-10.2.9.4 4.4 1.6 7.8 2.5 3.4 1 8.2 3.4 10.8 5.4 2.6 1.9 6.6 4 8.9 4.6l7.1 2c1.6.6 3.8 1 4.9 1 1.6 0 1.7-.2.7-1.6-1.1-1.3-1-1.6.8-2.1 4.1-1 2.2-2.1-9-4.8s-15-4.4-24-10.9l-4.6-3.3 3.1-3.2c5.8-5.8 3.8-13.6-4.2-16.2-2-.6-4-1.5-4.6-2-2.5-2.3 14.6.3 40 6.2 11.8 2.8 16 3.3 27 3.3 19 .1 21.4-1.5 24.4-16.9 1.1-5.5 3.1-12.9 4.4-16.5 3.9-10.3 4.2-13.9 1.5-18-1.3-2-4.4-4.5-7-5.8-6.3-3.2-11.8-2.4-16.7 2.5l-3.4 3.4.7 8.8c.4 4.9.4 9.1-.1 9.4-1.1.7-19.1-1.8-37.8-5.2-8.8-1.6-22.5-3.7-30.5-4.6-20.7-2.4-19.3-1.9-18.5-6.3 1.2-6.6 6.5-16.2 12.5-22.5l5.8-6.2 1.6 4c3.7 8.8 11.7 14 20.3 13.3 8.4-.7 14.4-6.6 14.6-14.4.2-8-11.2-12.6-16.8-6.9-2.5 2.4-3.4 6.5-1.4 6.5.6 0 2.2-1.4 3.6-3 2.9-3.5 5.5-3.8 8.3-1 5.5 5.5-.3 15-9.3 15-8.5 0-14.7-5.8-14.7-13.9 0-3.9.1-4.1 6.3-7 3.4-1.6 8.9-3.5 12.3-4.2 5.7-1.2 6.3-1.1 9.7.9 6.3 3.9 7.2 6.3 7.2 18.7 0 12 1.1 14.5 3.5 7.8 1.2-3.8 1.2-5-.3-11.1-.9-3.9-3-9.3-4.6-12.1-1.7-2.8-2.7-5.1-2.2-5.1 2 0 10.3 7.4 12 10.8 3.1 6.1 5.1 14.2 5.1 20.7 0 5.4-.3 6.4-2.7 8.7-1.6 1.4-4.2 3.3-5.8 4.1-3.4 1.7-7.1 5.4-6.2 6.3 1.3 1.4 6.9-1 10.2-4.4l3.5-3.6v2.9c0 2.3.3 2.7 1 1.5a8.5 8.5 0 0 0 1-3.8c0-3.7 1.7-2.5 2.9 2.1 1.3 5.3 4.6 9.7 7.2 9.7 1 0 1.9-.2 1.9-.5 0-1.8-3.4-8.2-5.9-11-3.5-4-4.7-7.5-6.1-18.3-1.3-10-3.6-15.7-8.5-21.1l-3.7-4.1h4.2c4.9 0 12.3 1.8 27.6 6.6 12.9 4 16.2 6.7 19.3 15.5 1.9 5.7 6.2 13.2 8.1 14.4.6.4 1-.4 1-1.8 0-5.8-1.5-9.1-6.8-14.8-3-3.3-5.2-6.3-4.8-6.6 1.2-1.3 17.4 4.7 21.8 8.1a35.9 35.9 0 0 1 13.8 28c0 7.2-3.1 20.4-6 25.3-1 1.8-1.5 3.3-1 3.3 1.4 0 5.5-8.5 7.5-15.4 1.7-5.9 1.7-20.2 0-25.5-.7-2-.5-2.2 1.2-1.7 2.4.8 4.8-1.6 3.9-3.9-.7-1.9-4-1.9-5.6 0-1.1 1.4-1.6 1.1-3.6-2.2-1.2-2.1-2.1-3.9-1.9-4.1s5.2 1.5 11.1 3.8c14.4 5.6 31 9.8 41.4 10.5l8.5.5-11-2c-9.4-1.7-27.2-6.4-28.4-7.6-.2-.1.4-1.1 1.3-2 2.2-2.2 1.5-3.9-1.5-3.9-1.9 0-2.4.5-2.4 2.6l.1 2.6-4.1-1.7-20.7-9.3c-17.8-8.1-40.9-16.1-58.4-20.3-9.4-2.3-12.4-2.5-22.8-2.2-11.7.4-14.2 1-23.8 5.2-3.3 1.4-3.8 1.4-3.8.1 0-2.5 6.6-8.2 11.7-10 4.3-1.5 13.5-1.8 86.8-2.5 117.4-1.3 122.2-1.4 127-3.4 7.6-3.2 11.5-8.8 11.5-16.7 0-7.5-5.4-12.9-13-12.9-3.9 0-10 5.6-10 9.2 0 2.9 2.6 6.8 4.5 6.8 2 0 2.9-2 1.6-3.3-2.9-2.9.3-8.7 4.8-8.7 1.2 0 3.6 1.4 5.3 3 2.7 2.8 3 3.6 2.5 7.6-.5 5.2-3.4 8.8-8.7 11.2-3.1 1.4-14.9 1.6-101 1.9l-103.9 1.4c-12.8 2.1-21 7.8-24.7 17.5-1.2 3.1-4 7-8.1 11.1-3.5 3.5-6.5 6.3-6.7 6.3-.4 0 1.9-7.3 5.4-17.4 4.4-12.3 20.6-32.8 28.7-36.2 4.3-1.8 11-1.8 16.4.2 5 1.8 18.8 2.4 18.8.9 0-.6-2.5-2.3-5.5-3.9-5.6-2.9-5.6-2.9-13.6-1.7-13 2-11.7.2 5.9-8.4 11.6-5.7 29.1-12.1 30.1-11 .8.8-5 12.5-10.1 20.4-5.2 8.1-9.5 10.8-20.5 12.8-9.5 1.7-14.4 3.9-12.1 5.4.8.5 8.5.9 17.1.9 14 0 15.8-.2 16.6-1.8.5-.9.7-2.2.5-2.8-.5-1.5 6.3-16.2 12.7-27.4 4.3-7.4 5.5-8.8 8.1-9.4 4.1-.8 11-.8 18.9.1l6.3.6-.6 11.9c-.9 17.6-2.3 19.2-20.2 23.2-6.6 1.6-9.5 2.9-8.3 4.1 1 1.1 16.6 1.8 24.1 1 7.7-.7 7.8-.7 9.6-4.3 1.4-2.7 1.7-5.1 1.4-9.2-.5-5.5 1-22.6 2-23.7.3-.3 1.9.4 3.5 1.6 3.3 2.3 5 1.7 2.5-1.1-1.5-1.7-1.4-1.8 2.3-1.8 4.9 0 6.2.9 6 4-.1 2 .4 2.5 2.4 2.5 1.9 0 2.5-.5 2.4-2.3 0-1.2.3-2.2.7-2.2 2.9 0 25.4 6.5 32.9 9.5 5 2 9.4 3.4 9.7 3.1.6-.5-6.9-4.3-16.2-8.1l-4-1.7 5.1-2.3c5.4-2.4 13.7-9.2 12.9-10.5-1.1-1.8-8.7 1.5-14.1 6.1-3.2 2.7-6.6 4.9-7.5 4.9-1 0-7.3-1.3-14.1-2.9-6.8-1.7-14.9-3.5-18-4.1-5.3-1.1-5.8-1.4-5.8-3.8 0-6.9 1.3-10.4 4.4-12.4 3.2-2 4.2-2 21.7-.2 7.5.8 9.3-.9 8.6-8-.4-5-.4-5.1 5.7-11.9 6.6-7.4 7.6-10.2 3.6-10.2-2 0-2.5.5-2.5 2.6 0 2.9-1.5 5.1-5.6 8l-2.8 2-3.6-7c-4.2-8.4-16.7-23.6-23.3-28.4-5.9-4.3-12.6-7.7-22.2-11.2-6.6-2.4-8.5-2.6-16-2.2-5.8.4-11.3 1.5-17.4 3.6l-8.8 3-2.9-2.9a8.3 8.3 0 0 1-2.9-7.3c0-4.8 3.1-16 6-21.7 2.5-4.9 6.9-20.2 8-27.9 1.1-7.6-.1-11.3-4.9-15.4-5.3-4.4-8.9-3.8-15.3 2.7-2.9 2.9-6 5.5-6.8 5.8-2.4.8-.7 1.8 4.6 2.4 8.6 1 9.4 1.3 9.4 3.7-.1 3.2-3.1 9.5-9 18.1-2.8 4.2-6.9 10.9-9 14.9l-4 7.2V97h-78l-5.7-3c-7-3.8-12.2-3.9-19.9-.5-3.1 1.4-6.9 2.5-8.5 2.5s-3.2.7-3.8 1.7c-.5 1-1.2 1.6-1.5 1.3-.2-.3-1.6-5.5-3-11.5l-2.5-11 2.1-1.8c1.4-1.1 3.7-1.7 7.3-1.7 9.6 0 11.6-6.2 4-12.4-2.5-2.1-4.5-4.3-4.5-5s-1.6-2.7-3.4-4.6c-3.4-3.2-3.5-3.5-3-9.4.4-4.3.2-6.6-.8-7.9-1.2-1.6-1.7-1.3-5.6 4.3zm34.8 63c1.3.7 2.1.7 2.5 0 .4-.6 15.9-1 43.6-1H591v42.5c0 45.1-.4 50.5-4.6 55.4-2.9 3.5-47.6 32.1-50.1 32.1-1 0-12.6-6.9-25.7-15.3-29.1-18.5-27.9-17-28.4-36.4-.3-12.2-.2-13.3 1.7-15.2 3-3 3-15.4.1-21.1-1.8-3.5-2-5.9-2-23v-19h9.1c5 0 9.9.5 10.9 1zm-23 22.2v9.2l-3.5-3.4c-1.9-1.9-3.5-4.1-3.5-4.9.1-3 3.9-10.1 5.5-10.1 1.2 0 1.5 1.6 1.5 9.2zm-1.8 22.4c1.4 1.6 1.7 5.1 2 24.9.4 28.8 0 28 15.9 38.1 10 6.3 10.9 7.1 10.4 9.4-.3 1.4-.8 5.1-1.2 8.2-.3 3.2-.7 5.8-.9 5.8s-3.4-2.2-7.1-4.8c-10.8-7.7-25.9-16.8-36.8-22.4l-10.2-5.2 2.4-7.3c1.2-4 2.6-11.3 2.9-16.1.6-7.9 4.4-20.7 10.4-35l1-2.2 4.7 2.4c2.7 1.3 5.6 3.2 6.5 4.2zm127.1 14.2a40.7 40.7 0 0 0 6.7 5.4l8.7 5.6c5.1 3.4 7.7 3.9 15.2 3 1.8-.2 2.9.5 4.2 2.7 2.4 4 2.2 8.8-.4 16l-2.2 6-9 3.1c-24.4 8.3-46 19.6-57.7 30.2l-3.9 3.5.7-4.2c.5-2.9.1-5.5-1.1-8.7-.9-2.5-1.4-4.8-1-5.2.3-.4 5.7-3.9 11.8-7.8 6.2-3.9 12.2-8.5 13.4-10.3 3.4-5 4.3-11.8 4.3-33.4v-20.2l3.6 5.5c2 3 5 7 6.7 8.8zm58.8 20.1c2.2 2.1 3.9 4.6 3.9 5.5 0 2.2-17.2 9.8-18.7 8.2-.3-.3 1.1-3.3 3.1-6.6 2.1-3.3 3.6-6.8 3.5-7.8-.2-2.8 0-3.2 2.2-3.2 1.2 0 3.9 1.7 6 3.9zm6.7 15.7l-.3 2.9-8.2.3c-4.6.2-8.3-.1-8.3-.6 0-1.3 15.3-7.1 16.3-6.2.5.4.7 2 .5 3.6zm-152.3 27.2l7.3 4.7c.2.2-.3 1.7-1.2 3.3-2.8 5.4-3 10.2-.6 17.1 2.1 5.9 8 17.4 10.1 19.5 1.3 1.4 1.1 4.8-.3 4.4-.6-.2-3.2-4.1-5.7-8.6s-6.8-11.2-9.6-14.8c-11.8-15.3-11.1-14.1-9.2-17.3 1.9-3.3 2.2-9.2.6-12.3-1.3-2.3-1.9-2.6 8.6 4zm42.8 2.2c-.3 3.4-.1 7.8.6 10.3 1.3 4.3 1.2 4.4-3.6 11.8-2.6 4.1-6.8 11.8-9.3 17.1-4.4 9.6-5.4 10.7-7.3 7.7-.7-1.2.1-3.4 3.2-8.5 7.6-12.5 9.9-23.4 7.6-34.9-.5-2.7-.1-3.3 4.2-6.2l5-3.2c0-.1-.1 2.6-.4 5.9zm-13.5 16.1c.2 12.5.1 13.3-2.4 18-3.2 5.9-5.8 8.3-7.9 7.6-.8-.4-3.3-3.4-5.5-6.8-4.3-6.7-4.9-10.2-2.9-17 .9-2.8.9-4.9 0-8.4-.7-2.6-1-4.9-.8-5.1s1.9.7 3.7 2.1c1.9 1.4 4.1 2.5 4.9 2.5 1.2 0 10.6-5.3 10.6-5.9 0-.1.1 5.8.3 13zm-72.6 21.6c-3.4 5-8.2 16.1-8.2 19 0 3.9 2.5 11.6 3.8 12.1 2.2.7 3.5-7.8 2.4-14.7-.8-5-.8-7.1.2-9.6a15.9 15.9 0 0 1 9.4-8.2c3.7-.9 12.1 1.4 21.1 5.7 7.9 3.9 8.1 4 8.1 7.6 0 2.9-.8 4.4-3.9 7.5-3.5 3.5-4.4 3.9-8.9 3.9-6.2 0-9.8-2.7-10.7-8.2-.6-3.2-.4-3.8 2-5.4 2.3-1.5 3.1-1.6 6.2-.5 2.7 1 3.8 1 4.6.1 1.6-1.6-3.5-6-6.9-6-6.7 0-11.1 5.7-10.1 13.1 1.9 14.2 22.7 16.1 31 2.7 1.6-2.6 3.4-4.8 3.9-4.8 1.9 0 10.7 10.2 13.2 15.2 1.4 2.9 2.7 7.3 2.8 9.8l.3 4.5-5.5.2c-23.1 1-40.2 3.2-60.2 7.8-15.9 3.7-15.8 3.6-15.8 2.6 0-.5.5-1.3 1.1-1.7.6-.3 2-2.5 3-4.8 1-2.2 1.9-3.5 1.9-2.9 0 .7.7 1.3 1.5 1.3 1.2 0 1.3-.4.6-1.9-1.6-2.8-.1-3.3 3.4-1.1 4.2 2.6 13 3.9 12.3 1.9-.6-2.1-8.7-5.9-12.5-5.9-4.5 0-6.4-3.3-7.1-11.9-.8-12.4 3.8-22.4 12.8-27.5 5.8-3.3 6.6-3.2 4.2.1zm66.1 14.5c1.9 2.6 1.9 2.7 0 8.9-1.7 5.5-2.1 6.1-2.7 3.9l-2.3-7.7c-1.4-4.3-1.4-5.4-.3-6.8 1.6-2 2.8-1.6 5.3 1.7zm105.3 20.7c7.2 3.3 8.3 11.8 2.2 16.4-3.6 2.7-4.2 1.9-2.2-2.8.8-2.1 1.3-4.8 1-6-.7-2.6-5.3-4.8-8.8-4.3-1.9.2-2.4 1.1-2.9 4.5-.7 5.3-1.7 6.4-3.5 3.9-2.3-3.2-1.7-7.4 1.5-10.7 3.5-3.4 6.8-3.7 12.7-1zm-203.2 1.2c2.8 2.2 3.5 6.6 1.4 8.7-2.2 2.2-3.1 1.2-2.5-2.7.3-2.2 0-4.4-.6-5-1.8-1.8-6.2-1.3-9.1 1-2.6 2.1-2.7 2.5-2.1 8.2.8 6.5-.2 7-3 1.6-2-3.7-.5-10.1 2.8-12.4 3.1-2.2 9.9-1.9 13.1.6zm-5.2 6.4c-.5 3.8-.8 4.1-2.7 2.5-2.7-2.2-1.7-6.4 1.5-5.8 1 .2 1.4 1.2 1.2 3.3zm205.1.7c.7 2.1-1.1 5.8-2.9 5.8-1.1 0-1.4-.5-1-1.6a12.8 12.8 0 0 0 .6-3.5c0-2.1 2.5-2.6 3.3-.7zm-80.6 6.8c7.7 1 18 2.6 22.9 3.4 36.8 6.3 48.7 7.3 57.7 4.7 2.6-.8 4.9-1.2 5.2-1 .9.9-4.6 22.5-6.3 24.9-1 1.3-3.4 2.8-5.3 3.3-6.6 1.8-27.4.1-44.9-3.6-32.2-6.9-54.4-8.9-75-6.8-11.9 1.2-39.4 6.6-51.5 10.1-14.1 4.1-29.2 3.9-32.1-.4-1.2-1.9-2.6-10.5-4.6-27.5-.2-1.9.6-2 4-.5 6.1 2.8 19.2 2.2 36.2-1.6 25.1-5.5 36.5-6.8 59.1-6.9 15.3-.1 24.1.4 34.6 1.9zm-121.1 0c.8 0 1.4 1 1.4 2.5 0 2-.5 2.5-2.6 2.5-3.7 0-6.4-1.8-6.4-4.2 0-1.8.4-2 3.1-1.4 1.7.3 3.8.6 4.5.6zm197.8 2.6c2.5 1 0 3.4-3.4 3.4-2.6 0-4.6-2.1-3.3-3.4.8-.8 4.7-.8 6.7 0zm-110 26.2c.2.4.2 1.3-.2 1.9-.5.8-1.5.6-3.2-.7l-2.5-2h2.7c1.5 0 2.9.4 3.2.8zm12.2 3.4c1 3 1 3.9-.2 5.7-1.7 2.3-5.3 2.8-7.2.9-1.6-1.6-1.5-3.1.3-7.4 2-4.8 5.3-4.4 7.1.8zm9.4-3.3c0 .9-2.4 2.1-4.1 2.1-.5 0-.9-.7-.9-1.5 0-.9.9-1.5 2.5-1.5 1.4 0 2.5.4 2.5.9zm-30.7 3.4c-5.7 2.1-7.4 4.3-7.1 9 .3 3.8.6 4.3 3.8 5.3 4.3 1.4 5.6 4 1.4 3-7.3-1.8-9.2-6.1-5.8-12.9 2.6-5.1 3.4-5.7 7.3-5.6l3.6.1-3.2 1.1zm41.2 3.7c2.6 5.1 2 7.9-2.1 9.6-5 2.1-7.7 1.2-9.2-3.1-1.5-4-1.1-5 3.2-7.6s6.3-2.4 8.1 1.1zm-34.9-.5c.8 1.9-.1 5.4-1.9 7.9-1.3 1.8-1.8 1.9-5.6.8-3.3-1-4.1-1.7-4.1-3.7 0-4.7 10.1-9.1 11.6-5zm40.4 4.6a14.3 14.3 0 0 1-1 5c-1.3 2.2-6.6 5.2-8.3 4.5-.7-.2-.5-.5.4-.5.9-.1 2.8-1 4.3-2.2 2-1.6 2.6-2.9 2.6-6 0-2.1.5-3.9 1-3.9.6 0 1 1.4 1 3.1zm-34 2.9a1 1 0 0 1-1 1c-.5 0-1-.5-1-1a1 1 0 0 1 1-1c.6 0 1 .4 1 1zm11.3 12.6c7.2 8.5 6.4 10.7-4.3 11.8-8.9.8-9.5.3-7.1-6.5 3.3-9.5 4-10.9 5.4-10.9.7 0 3.4 2.5 6 5.6zm2.2-4.5c1.1 1.7-.1 2.1-1.5.4-.8-.9-.8-1.5-.2-1.5s1.4.5 1.7 1.1zm17.8 4.6c3.6 1.9 4.7 2.8 3.4 3.1-1.6.3-10.7-4.2-10.7-5.3s2.4-.4 7.3 2.2zm-49.8-.2a14.9 14.9 0 0 1-5.5 1.4h-2.5l2.5-1.4a13.2 13.2 0 0 1 5.5-1.4l3 .1-3 1.3zm43.4 8.4c5.1 9.3 6.2 12.9 2.3 7.4a78.4 78.4 0 0 1-7.7-15.3c-1.1-3.6-.4-2.6 5.4 7.9zm-27.8-4.2c-1.1 2.1-2 3.2-2.1 2.5 0-1.6 3.2-7.3 3.8-6.8.2.2-.6 2.1-1.7 4.3zm-12.6 6.2c-2.4 4.9-4.9 9.3-5.5 9.6-2.5 1.5-1.9-.6 1.7-6.3 2.1-3.3 4.6-7.4 5.5-9.1s2-3.1 2.3-3.1-1.5 4-4 8.9zm-25-3.2c-4.9 2.7-13.6 4.4-15.3 3-1.1-.9-.3-1.5 4.4-2.8 3.3-1 7.7-1.8 9.9-1.8h4l-3 1.6zm91.2 2.4c1.5.6 5.7 1.7 9.3 2.4 5 .9 6 1.4 4.5 2-1.1.5-2.2 1.2-2.5 1.6-.7 1-11.8-3.5-13.9-5.6-1.8-1.8-1.2-1.9 2.6-.4zm-29 4.1c-.3.8-.6.5-.6-.6-.1-1.1.2-1.7.5-1.3.3.3.4 1.2.1 1.9zm-3.7 2.2c-.9.8-5.2 1.6-11.2 2-9 .7-9.7.6-10.7-1.3-1.6-2.9-1.4-3.4 1.2-2.8 1.2.2 6.3.2 11.2-.2 9.4-.7 11.9-.1 9.5 2.3z"/><use xlink:href="#B"/><use xlink:href="#B" x="25"/><use xlink:href="#C"/><use xlink:href="#C" x="25"/><use xlink:href="#C" x="50"/><path d="M489.2 147.7c.3 39.9.4 42 2.3 45.3 1.6 2.8 6.4 6.1 22.5 15.8 11.3 6.8 21.2 12.4 22 12.5.8 0 10.9-5.5 22.3-12.3 18.4-10.8 21.1-12.8 23-16.4 2.1-4 2.2-5.1 2.5-45.4l.3-41.2h-95.2l.3 41.7zm12.8-29.2v9.5h-10v-19h10v9.5zm19 0v9.5h-9v-19h9v9.5zm29 15.5v25h-27v-50h27v25zm31 0v25h-29v-50h29v25zm-72.2-19.3c-.5 2.6-3.8 2.9-3.8.4 0-1.5.6-2.1 2.1-2.1 1.4 0 1.9.5 1.7 1.7zm-2.7 17.5c0 1 .2 1 .6 0 .8-2 3.1-1.4 4.9 1.4 1.3 1.9 1.4 2.8.5 3.7-.8.8-1.1.8-1.1 0 0-1.3-6.8-1.1-9 .2-1.3.8-1.3.6-.1-.8 1-1.3 1.1-2 .2-3-.6-.8-.8-1.7-.4-2 1.1-1.2 4.3-.8 4.4.5zm-8.7.7c.4.5.3 1.6 0 2.5-.5 1.2-1 1.3-2.6.5-1.5-.8-1.7-1.3-.7-2.5 1.3-1.6 2.5-1.8 3.3-.5zm21.4.4c1.1 1.3.2 3.9-1.3 3.9-1.2 0-2.7-3.1-2-4.2.8-1.4 2-1.3 3.3.3zM502 150v9h-10v-18h10v9zm19 0v9h-9v-18h9v9zm-12.2 2.7c-.5 2.6-3.8 2.9-3.8.4 0-1.5.6-2.1 2.1-2.1 1.4 0 1.9.5 1.7 1.7zm12.2 32.8c0 14.2-.4 23.5-1 23.5-2.1 0-23.4-13.7-25.4-16.3-1.9-2.5-2.1-4.5-2.4-16.8l-.4-13.9H521v23.5zm29 .9v24.5l-5.9 3.5c-3.2 2-6.7 3.6-7.7 3.6-1.1 0-4.4-1.5-7.4-3.3l-5.5-3.3-.5-49.4h27v24.4zm31-12.2c-.1 17.5-.7 18.7-14.7 27.1-6.1 3.7-11.7 6.9-12.7 7.3-1.5.6-1.6-1.5-1.6-23V162h29v12.2zm-49.2-59.5c-3.1 1.6-3.3 2.3-1.6 7 1.1 2.9 1.6 3.3 4.9 3.3 4.4 0 4.6-.3 5.5-5.8.6-3.8.5-4.2-1.4-4.2-1.2 0-2.4-.5-2.7-1-.8-1.2-1.3-1.2-4.7.7zm7.7 3.3c0 1.1-1.2 1.5-4.2 1.7-3.7.1-4.3-.2-4.3-1.8 0-1.7.6-2 4.3-1.7 2.9.2 4.2.8 4.2 1.8zm-4.4 11.9c-1.2 2.1.7 3.5 3.4 2.5 1.1-.5 1.2-1.1.4-2.5-.5-1-1.4-1.9-1.9-1.9s-1.4.9-1.9 1.9zm5.5 7.7c-1.8 1.7-1.8 1.8.3 2.8 2.9 1.3 4.6-.4 2.8-2.8-1.3-1.8-1.4-1.8-3.1 0z"/><path d="M528.1 138.8c-.9 1.8-.1 4.4 1.4 4.4 1 0 2.5-2.3 2.5-3.8 0-2-2.9-2.4-3.9-.6zm13.9 8.8c0 .8.5 1.2 1 .9a1.9 1.9 0 0 0 1-1.6c0-.5-.4-.9-1-.9-.5 0-1 .7-1 1.6zm-10 .4c0 .5-.6 1-1.3 1-1.5 0-1.7 4.1-.2 5.5a5 5 0 0 0 6 .2c1.5-1.4.7-5.7-1.1-5.7-.8 0-1.4-.5-1.4-1 0-.6-.4-1-1-1a1 1 0 0 0-1 1zm26-32.7c0 .8.7 3.6 1.5 6.3l1.5 5.3c0 .2-1.6.1-3.6-.2l-3.5-.6.7 3.2c.9 3.7.9 6.6 0 10.3-.6 2.4-.5 2.5 2.9 1.8 1.9-.3 3.5-.5 3.5-.3s-.7 2.9-1.5 5.9c-2.2 8.1-2.2 8.1 3.1 6.3 4.1-1.4 4.9-1.4 8.7.1 2.2.9 4.2 1.5 4.3 1.3.1-.1-.3-3.3-1-7.1l-1.3-6.8 2.9.6c2.9.6 2.9.5 2.2-2.7-.9-3.8-.9-5.2.1-9.6.8-3.3.8-3.3-2.4-2.6-3.6.8-3.7.4-1.7-7.3.8-2.8 1.1-5.2.6-5.2-.4 0-2.4.7-4.5 1.6-3.4 1.4-4.1 1.4-7.6 0-4.8-1.9-4.9-1.9-4.9-.3zm12.6 14.7c2.6 0 3.6 2.2 2.8 5.6-.6 2.2-1.1 2.4-6.4 2.4s-5.8-.2-6.4-2.4c-.8-3.3.2-5.6 2.4-5.6 1.1 0 2.2-.5 2.6-1.1.4-.8.9-.8 1.7 0 .6.6 2.1 1.1 3.3 1.1zm-7.9 1.6c-1.7 1.7-.4 2.4 4.4 2.4 3.6 0 4.9-.4 4.7-1.3-.5-1.3-7.9-2.2-9.1-1.1zM495 167c.8 1.5.8 2-.1 2-.6 0-.9.7-.5 1.5.3.8.2 1.5-.2 1.5-1.2 0-1.3 7.2-.2 10.5 1.2 3.6 5.1 6 6.9 4.2.6-.6 1.4-.7 1.8-.3s.1 1.1-.7 1.7c-1.3.8-1.3 1.1.3 2.3a5.1 5.1 0 0 1 1.7 3.4c0 1.4.5 2 1.4 1.6.8-.3 1.7 0 2.1.6.5.8 1 .8 2 0 .8-.7 1.9-.8 2.6-.4.9.5 1 0 .6-1.8-.5-1.8-.2-2.8.9-3.2s1.2-1 .4-2.5c-1.4-2.7-1.3-2.9 1.4-2.4 1.9.4 2.5 0 3-2.3.5-1.7.3-3-.5-3.5-1-.6-1-1.1.2-2.5 1.2-1.5 1.2-1.7 0-.9-1.1.6-1.3.4-.7-1 .4-1.1.2-2.2-.6-2.6-.9-.6-.9-1.1.1-2.3 1-1.1 1-1.6.2-1.6-.9 0-.9-.5-.1-2.1 1.1-2 1.1-2-1.4-.4-1.4 1-2.6 2.5-2.6 3.5 0 1.1-.5 3.1-1.1 4.7l-1.1 2.8-1-2.8c-.8-2.3-1.5-2.7-4.6-2.7-2.8 0-3.3.3-2.4 1.2 1.6 1.6 1.6 5.1 0 4.6-.7-.3-1.7-2.3-2.3-4.5-1-4-3.9-8.3-5.7-8.3-.5 0-.4.9.2 2zm46.2 5.2c-1.6 1.6-1.5 4.4.3 10.3 1.6 5.6 1.3 6.6-1.5 4-1.6-1.4-12.3-6.5-13.8-6.5-.2 0-.1.9.3 2 .3 1.1.3 2.5-.1 3.2-1.3 2.1-1.4 6.2-.2 9.3 2.1 5.5 3.6 6.5 10 6.5 5.2 0 6.3-.4 8.9-2.9 3.4-3.4 3.6-6.2 1-12.2-2.8-6.4-3-9-.6-10.3l2.4-1.3c.2-.2-.2-.9-.9-1.8-1.5-1.8-4.1-2-5.8-.3zm21.1-2.5c-3 .6-4.8 2.9-3.5 4.6.7.8.7 1.8.2 2.7-.7 1.1-1.1.8-1.9-1.3-.6-1.5-1.7-2.7-2.6-2.7-2.6 0-1.7 4.2 1.6 7.6 2.6 2.7 3 3.7 2.4 6.2-.3 1.6-1.5 3.8-2.6 4.8-2.4 2.2-2.4 3.4.1 3.4 1.2 0 2.9-1.5 4.5-4 2.5-3.9 4.7-5 6-2.9.4.6-.2 2.1-1.4 3.3-4.4 4.7-1.2 5 3.8.3 1.9-1.7 3-2.5 2.3-1.6-1.4 1.9-.7 2.8 1.8 2.2 1.7-.5 3.2-3.6 3.5-7.3.1-.8.5-2.8.9-4.3.7-2.3.5-3.1-1.3-4.3-2.5-1.8-2-3.4.8-2.7 2 .5 3.9-1.4 2.5-2.6-1.3-1.2-7.1.7-7.8 2.4-.3.9.3 2.4 1.4 3.5 2.7 2.7 2.5 3.2-1.2 2.8-2.9-.3-3.3-.7-3.4-3.3-.2-8.1-.1-8-6.1-6.8zm-77.7-32.2c-.3.9 0 1.5.9 1.5.8 0 1.5-.7 1.5-1.5s-.4-1.5-.9-1.5-1.1.7-1.5 1.5zm101.4 0c0 .8.5 1.5 1 1.5.6 0 1-.7 1-1.5s-.4-1.5-1-1.5c-.5 0-1 .7-1 1.5z"/><use xlink:href="#B" y="68"/><use xlink:href="#B" x="101" y="68"/><use xlink:href="#B" x="4" y="94"/><use xlink:href="#B" x="97" y="94"/><use xlink:href="#B" x="25" y="108"/><path d="M561 210.9c0 1.2.5 2.1 1 2.1.6 0 1-.6 1-1.4s-.4-1.8-1-2.1c-.5-.3-1 .3-1 1.4zm-25.6 14.4c-.8 2.1.2 3.5 1.6 2.1.5-.5.6-1.5 0-2.4-.8-1.2-1-1.2-1.6.3zm-63.8-50.4c-.3.5-1.3 3.9-2.1 7.6-1.3 5.3-1.3 7.4-.5 10.1.7 1.9 1.5 3.4 1.8 3.4 1.2 0 4.2-10.5 4.2-14.8 0-6-1.7-9.1-3.4-6.3zm-11.7 23.7c-1.1 1.4-1.1 1.8.5 2.9 2.4 1.8 4.8.8 4.4-1.9-.4-2.6-3-3.2-4.9-1zm7.6 3.4c-.4.7-.3 1.6.3 2.2 1.4 1.4 4.7.6 4.7-1.2s-4-2.6-5-1zm145.2-27.3c-1.7 2.8-1.8 10.7-.2 15 1.7 4.3 1.9 4.5 3.1 2.8.8-1 1.4-3.8 1.4-6 0-6.1-2.9-14.1-4.3-11.8zm-8 14.9c-1.2 1.2-.8 4.2.6 4.7a2.5 2.5 0 0 0 3.5-2.9c-.3-1.9-2.9-3-4.1-1.8z"/><use xlink:href="#D"/><use xlink:href="#D" x="-20" y="2"/><use xlink:href="#E"/><path d="M517.5 314.7c-1.6.1-5.4.6-8.2.9-5.2.5-5.3.6-5.2 3.7 0 2.9.1 3 .9 1 .9-2.1 4.7-4.9 5.6-4 1 1 1.6 15.7.6 16.9-.8 1 .1 1.2 4.6.9 4-.2 5.1-.6 3.9-1.2-.9-.6-1.8-2.8-2.2-5.7-.3-2.6-.7-6.2-1-8-.3-2.8-.1-3.2 2-3.2 1.3 0 3.1 1 3.9 2.2 1.6 2.2 1.6 2.2 1.6-1 0-3.4.1-3.3-6.5-2.5zm10.3 0c.8.3 1.2 3.1 1.2 8.8 0 7.1-.3 8.4-1.7 8.8-1 .3.9.5 4.2.5s5.4-.2 4.8-.5c-.9-.3-1.3-3.1-1.3-8.9 0-7.6.2-8.4 1.9-8.4 4.4 0 5.7 7.2 1.4 7.8-3 .4-2.9 1 .7 5.9 2.5 3.4 3.7 4.1 7.6 4.7 6.5.8 9.2.8 7.6-.2-2.6-1.7-.2-4.2 3.9-4.2 3.2 0 4.1.4 4.8 2.2.6 1.7.4 2.4-.7 2.9-1.1.4-.5.8 1.7 1.2 5.4 1.1 7.5.9 6.3-.6-.6-.7-2.5-5.2-4.2-10-1.8-4.8-3.5-8.7-3.8-8.7-.4.1-3.2 3.8-6.2 8.3s-6 8.2-6.7 8.2c-.6 0-2.5-1.8-4.2-3.9l-3.2-4 2.7-2.1c3.4-2.7 2.6-5.9-1.8-7.4-3-1.1-17.6-1.5-15-.4zm31.5 13.1c-3.4.5-3.8-.2-1.7-3.4l1.8-2.7 1.2 2.9c1.1 2.7 1.1 2.9-1.3 3.2zm-65.8-9.7c-5.5.9-7.7 3-7.3 6.9.2 2 1.2 2.8 4.8 3.9 9.8 3 10.4 3.5 7.4 6.5-2.1 2.2-5.7 2-7.9-.4-2.5-2.8-3.5-2.5-2.6.7.7 2.5 1.1 2.8 4.7 2.5 6-.5 9.8-3.2 10.2-7 .3-2.9-.1-3.4-3.2-4.7-1.9-.8-4.6-1.5-5.9-1.5-2.5 0-4.7-1.7-4.7-3.7 0-2.1 5.1-2.8 8.2-1 2.6 1.5 2.8 1.5 2.8-.3 0-2.6-.7-2.8-6.5-1.9zm82.8.9c1.1.7 1.5 1.9 1.2 3.3l-1.5 7.9c-.8 3.9-1.6 5.8-2.8 6-.9.2 2.6 1.2 7.7 2.2 9.1 1.7 9.6 1.7 10.8 0 .7-1 1.3-2.4 1.3-3.3 0-1.1-.6-.9-2.3.7-1.5 1.4-3.6 2.2-6 2.2-4.3 0-4.4-.4-2.6-10.7.9-5.4 1.4-6.3 3.3-6.4s1.9-.1-.4-.8c-1.4-.4-4.3-1.1-6.5-1.5-3.1-.5-3.6-.4-2.2.4zm-97.1 1.7c-2.1.4-2.2.6-.9 2.1 1.7 2 3.7 8.5 3.7 12.4 0 3.2-2.8 5.1-6.8 4.6-2.4-.3-2.9-1-4.5-6.8-1.4-5-1.5-6.9-.6-8.4.9-1.6.8-1.8-.4-1.3-.9.3-3.2.9-5.3 1.3-2.7.5-3.3.9-2.1 1.5.8.5 2 3.3 2.7 6.1 1.9 8.2 3.3 9.8 8.4 9.8 8.5 0 11.4-5.1 8.5-15.3-.8-2.8-.7-4.2.2-5.3.6-.8.8-1.3.3-1.3-.5.1-1.9.4-3.2.6zm118 2.5c1.5 1.2 1.5 1.9.1 9-1.4 6.7-1.9 7.8-3.7 7.9s-1.8.2.4.8c1.4.4 4.3 1.1 6.5 1.5 3.5.7 3.8.6 2.2-.6-1.7-1.3-1.7-1.7-.1-9.1 1.2-5.6 2.1-7.7 3.3-7.8 1.8-.1-1.7-1.2-6.9-2.3-2.9-.5-3.2-.4-1.8.6zm16 8.9c-2.2 3.5-5 7.6-6.2 9.1l-2.2 2.8h2.6c1.6 0 2.4-.5 2.1-1.3-.9-2.3 1.1-3.9 4.5-3.5 3.7.3 6.4 3.3 4.2 4.7-1.4.8 2.8 2.1 6.9 2.1 1.8 0 1.8-.2.5-2.3-.8-1.2-2.7-5.4-4.1-9.2-1.5-3.9-3-7.4-3.5-7.9s-2.6 1.9-4.8 5.5zm3.8 4.6c0 .8-1.2 1.3-3.1 1.3h-3l1.8-3c1.6-2.8 1.9-2.9 3-1.3.7.9 1.3 2.3 1.3 3zm-166.4-8.6c-4.7 13.1-6.9 18.5-7.9 19.1-.8.5-.5.8.8.8 1.1 0 2.7-.5 3.5-1 1-.6 1.1-1 .3-1-1.8 0-1.6-1.5.3-3.4 2.2-2.2 7.1-2 8.3.3.6 1 .7 2.1.4 2.5-.3.3 1 .6 3 .6 3.3 0 5.8-1.4 3.9-2.2-.5-.1-3.4-4.1-6.5-8.7-3.5-5.3-5.8-7.9-6.1-7zm1.5 8.8c1.7 2.9 1.7 2.9-1.2 3.3-3 .5-3.3-.1-2.3-4 .8-2.9 1.6-2.8 3.5.7zm58.7-278.8c-1.9 1.1-2.4 5.4-.8 6.4 1.9 1.2 53.1.6 54.6-.6 1.8-1.5 1.8-3.4-.2-5.3-1.3-1.4-5.1-1.6-26.7-1.6-15.3 0-25.9.5-26.9 1.1zm17 2.1c2.4 2.4 1.3 3.8-3.1 3.8-4.3 0-6.7-1.3-6.7-3.7 0-1.7 8.1-1.8 9.8-.1zm20 0c2.4 2.4 1.3 3.8-3.1 3.8-4.3 0-6.7-1.3-6.7-3.7 0-1.7 8.1-1.8 9.8-.1zm16.2 1.3c0 2.7-2.6 3.5-4.8 1.3-2.1-2.1-1.3-3.8 1.8-3.8 2.5 0 3 .4 3 2.5zm169.4 32.2c-.9 3.3.7 11.2 3.4 17.3l2 4.5 1.1-2.8c1.8-4.6 1.3-9.7-1.6-15.9-1.6-3.2-3.1-5.8-3.5-5.8s-1.1 1.2-1.4 2.7zm-398 4c.3 2.1.6 5.7.6 8 0 3 .7 5 2.5 7l2.4 2.8.1-8.1c0-6.7-.4-8.6-2.1-10.8-2.9-3.7-4.3-3.3-3.5 1.1zm410 4.8c-.8 2.1.2 4.5 1.9 4.5 2 0 4-2.7 3.3-4.5-.7-1.9-4.5-2-5.2 0z"/><use xlink:href="#D" x="-292" y="-86"/><use xlink:href="#F"/><path d="M743.4 113.5c-1.6 4 2.6 6.2 4.7 2.4.9-1.7.8-2.3-.2-3-2.1-1.3-3.9-1.1-4.5.6zm-408.5 2.1c-1 1.2-.9 1.8.3 3.1 1.9 1.8 3.8 1 3.8-1.7 0-2.4-2.5-3.3-4.1-1.4zm9.5-.2c-.8 2.1 1.3 4.6 3.2 3.9 2-.8 1.3-4.7-.9-5.1-.9-.2-2 .4-2.3 1.2zm386.2.2c-.9 2.2 1.7 4.9 3.9 4 1-.3 1.5-1.5 1.3-2.8-.4-2.9-4.2-3.7-5.2-1.2zm-37.6 5.8c-1.4 7.3-1 9.5 2.1 14.5 1.6 2.7 2.3 3.1 3 2 2.1-3.4 0-19-3.1-22.2-.4-.5-1.3 2.1-2 5.7zm-366.6-2.9c-.9 2.3.3 4.5 2.5 4.5 2.3 0 3.5-2.8 2-4.6s-3.8-1.8-4.5.1zm389.7 3.2c-.6 2.1-1.1 4.4-1.1 5.2 0 1.8 6.1 13.1 7.1 13.1 1.2 0 2.2-6.7 1.5-10.3s-4.7-11.7-5.8-11.7c-.4 0-1.2 1.7-1.7 3.7z"/><use xlink:href="#G"/><path d="M334.2 124.2c-1.8 1.8-1.5 3.6.7 4.8a2.5 2.5 0 0 0 3.5-.6c2-1.9 2-1.9 0-3.8-1.9-1.9-2.6-2-4.2-.4z"/><use xlink:href="#H"/><path d="M741.9 127.3c-4.7 2.5-11.9 11-11.9 14 0 1.7.3 1.7 3.8-.4 2-1.2 4.7-3.1 6-4.3 2.3-2 7.5-10.6 6.9-11.3-.2-.1-2.4.7-4.8 2zm-416.9-.4c0 1.7 7.1 10 10.3 12 3.2 1.9 7.7 2.8 7.7 1.5 0-1.4-8.6-10.6-11.7-12.4-3.6-2.1-6.3-2.6-6.3-1.1zm419.3 12c-4.6 5.3-10.5 14.2-9.9 14.9 1.8 1.7 9.9-4.5 12.5-9.7 2.2-4.3 3.6-10.1 2.4-10.1-.4 0-2.7 2.2-5 4.9zm-31-1.2c-1.9.7-1.6 5 .3 5.7 2.2.9 4.6-1.3 4.2-3.8-.3-2.1-2.2-2.9-4.5-1.9zm-397.7 1.2c-2.8 1.1 12.5 10.1 17.3 10.1h3.5l-3.4-3.5c-5.1-5.2-13.1-8.3-17.4-6.6zm53.8 4.6c-.8 1.9.3 3.5 2.6 3.5 1.9 0 3.4-2.5 2.4-4.1-.8-1.4-4.4-1-5 .6zm-9.1.6c-1.7 1.7-.4 3.9 2.4 3.9 2 0 2.4-.4 2.1-2.2-.3-2.6-2.8-3.4-4.5-1.7zm-42.9 4.3c-.8 2.1.3 3.6 2.7 3.6 1.5 0 2-.6 1.7-2.2-.4-2.7-3.5-3.7-4.4-1.4zm397.3-.7c-1.2 1.2-.7 3.1 1 3.7 1.9.8 4.8-1.7 3.9-3.3-.8-1.2-3.9-1.5-4.9-.4zm9.3.8c-.9 1.1-1 1.9-.3 2.6 1.7 1.7 4.8.6 4.8-1.6 0-2.5-2.8-3.1-4.5-1zm-360 3.1c-1.1 1.2-1.1 1.8.2 3 1.6 1.6 4.8.9 4.8-1 0-1.3-2-3.6-3.1-3.6-.4 0-1.2.7-1.9 1.6zm8.3 0c-.3.8.1 2.3 1 3.1 1.3 1.3 1.9 1.4 3.1.3 2-1.6 2-3.6 0-4.4-2.5-.9-3.4-.7-4.1 1zm376.1.9c-1.8 1.3-1.8 1.5-.1 3.2 1.3 1.3 2.1 1.5 3.4.7 2.5-1.6 2.7-3.1.5-4.3-1.4-.7-2.4-.6-3.8.4zm11 2a2.6 2.6 0 0 0 .4 2.7c1.5 1.5 4.4.1 4-1.9-.4-2.3-3.6-2.9-4.4-.8zm-422.7 1.7c-2.1 1.1-2.1 2.2-.2 4.2 2 2 4.5 1 4.5-1.9 0-2.7-1.9-3.7-4.3-2.3zm7.3 2.8c0 2.6 2.5 3.6 4.5 2 1.2-1 1.3-1.6.4-2.6-1.8-2.2-4.9-1.7-4.9.6zm394.7-.6c-.9 2.2 1.9 4.1 3.8 2.6.8-.7 1.5-1.9 1.5-2.6 0-1.9-4.6-1.8-5.3 0zm12.7 2c-1 2.6.4 4.8 2.8 4.4 1.7-.2 2.3-1 2.3-2.8s-.6-2.6-2.3-2.8c-1.3-.2-2.5.3-2.8 1.2zm-421.2 3.8c.2 1.5 1 2.3 2.3 2.3 3 0 2.7-3.9-.3-4.3-2-.3-2.3 0-2 2zm399.6-1.5c-2.8.7-2.1 1.9 2.7 4.8 3.5 2 5.6 2.5 9.2 2.3 2.6-.2 4.8-.9 5.1-1.6.2-.6-.4-1.2-1.2-1.2-.9 0-3.9-1.1-6.6-2.5-4.9-2.5-5.9-2.7-9.2-1.8zm-391.4 2.8a2.6 2.6 0 0 0 .4 2.7c1.5 1.5 4.4.1 4-1.9-.4-2.3-3.6-2.9-4.4-.8zm13.7.8c-.8 1.1-.6 1.8.9 3.2 1.9 1.7 2.2 1.7 3.7.2 1.3-1.3 1.4-1.9.3-3.1-1.5-2-3.4-2-4.9-.3zm15.9 6.2c-1 1.1-1 1.9-.2 2.7 1.5 1.5 4.4.2 4-1.9-.4-2.3-2.2-2.7-3.8-.8zm4 7.4c-1.9 1-4.4 2.8-5.4 4l-1.9 2.1h4.9c5 0 14.9-4.4 14.9-6.5 0-1.9-8.8-1.6-12.5.4zm-56 8.8c0 3.7 3.6 10.8 6.4 12.7 3.3 2.1 7.6 3.1 7.6 1.7 0-.6-.4-1.1-.8-1.1s-1.8-2.1-3.1-4.6c-4.8-9.9-10.1-14.5-10.1-8.7zm438 5.4a20.6 20.6 0 0 0-4.9 3.2c-3.1 2.9-10.1 12.3-10.1 13.6 0 1.5 4.7-.4 8.8-3.5 3.1-2.4 11.2-12.3 11.2-13.7 0-1-2-.8-5 .4zm-448.7 4.6c-1.8.6-1.6 4 .1 4.6.8.3 2-.1 2.7-.9 1-1.2.9-1.8-.2-2.8-.8-.8-2-1.2-2.6-.9zm30.7 1.2c0 .5 1.4 2 3.2 3.2 3.7 2.7 12.4 3.7 15.8 1.9l2.3-1.3-2.4-1.3c-1.3-.7-4.9-1.6-7.9-1.9s-6.7-.9-8.2-1.1c-1.6-.3-2.8-.1-2.8.5zm-22.7 1.2c-1.7 1.7-.4 3.9 2.2 3.9 3 0 4.1-1.6 2.5-3.5-1.5-1.8-3.2-1.9-4.7-.4zm447.8.8c-1.9 1.2-.6 4.1 1.9 4.1s3.8-2.9 1.9-4.1a5.9 5.9 0 0 0-1.9-.9 5.9 5.9 0 0 0-1.9.9zm10.9.6c-1.1 1.3-1.1 1.9.3 3.2 2.1 2.1 4.9.9 4.5-1.9s-3-3.5-4.8-1.3z"/><use xlink:href="#D" x="-321" y="11"/><path d="M324.7 206.7c-1.1 1-.8 4.1.4 4.9.6.3 1.8-.1 2.7-.9 1.3-1.3 1.3-1.9.2-3.1-1.4-1.7-2.3-2-3.3-.9z"/><use xlink:href="#E" x="40" y="4"/><path d="M308.2 208.2c-1.7 1.7-1.5 3.6.7 4.7a2.6 2.6 0 0 0 3.5-3.7c-1.4-2.1-2.7-2.5-4.2-1zm7.5 1.2c-.6 1.5 1.1 3.6 2.9 3.6 1.4 0 2.3-2 1.7-3.8-.6-1.6-4-1.5-4.6.2z"/><use xlink:href="#D" x="38" y="14"/><use xlink:href="#G" x="14" y="89"/><path d="M763.7 211.4c-.8 1.9 1.6 3.8 3.7 3 .9-.3 1.6-1.5 1.6-2.5 0-2.3-4.5-2.7-5.3-.5zm-77.5 2.8c.2 1.5 1 2.3 2.3 2.3 3 0 2.7-3.9-.3-4.3-2-.3-2.3 0-2 2zm-44.8 1.3c-.4.9-.2 2.1.3 2.6 1.4 1.4 4.5-.1 4.1-2-.4-2.2-3.7-2.6-4.4-.6zm-272 1c-.4.8-.3 2.2 0 3.1.8 2.1 5 1.4 5.4-1 .6-3.1-4.3-5-5.4-2.1zm281.3-.9c-1.6 1.6-.6 3.5 1.6 3.2 1.2-.2 2.2-1 2.2-1.8 0-1.6-2.6-2.5-3.8-1.4zm44.3.9c-1.5 1.8-.6 4.5 1.3 4.5.8 0 2-.7 2.7-1.5 1-1.2 1-1.8 0-3-1.6-1.9-2.4-1.9-4 0zm8.4 0c-1.2 2.9 1.5 4.5 4.5 2.6 1.2-.8 1.2-1.2.2-2.5-1.7-2-4-2.1-4.7-.1zm-393.7.6c-2.1.5-5.2 1.6-6.9 2.5-6.9 3.6 4.6 4.7 13.7 1.3 5.9-2.2 6.8-3.3 3.3-4.3-2.9-.7-5.3-.6-10.1.5zm441.3.6l-3.5 1.6 5.5 1.8c3 1 7 1.8 8.7 1.8 3.9.1 12.3-2 12.3-3.1s-7-2.9-13.5-3.3c-4.2-.3-7 0-9.5 1.2zm-415.7.8c-1.7 1.3-1.7 1.5-.1 3.1 2 2 4.8 1.2 4.8-1.5 0-2.5-2.3-3.3-4.7-1.6z"/><use xlink:href="#D" x="-271" y="23"/><path d="M720.7 217.7c-1.2 1.2-.7 3.1 1 3.7 1.9.8 4.8-1.7 3.9-3.3-.8-1.2-3.9-1.5-4.9-.4z"/><use xlink:href="#D" x="-162" y="25"/><use xlink:href="#E" x="-140" y="18"/><path d="M732 222.6c-1.1 1.2-1 1.8.3 3.2 1.6 1.5 1.8 1.5 3.3 0 1.9-1.8 1.2-4.8-.9-4.8-.8 0-2 .7-2.7 1.6zm-410.3 2.5c-4.9 3.3-10.9 9.7-10.2 11 .6.8 6.2-.3 9.2-1.9 3.3-1.8 8.9-12.2 6.5-12.2-.5 0-3 1.4-5.5 3.1z"/><use xlink:href="#H" x="382" y="100"/><path d="M341.6 225.6c-.4 1-.2 2.2.3 2.7 1.5 1.5 4.6.3 4.6-1.8 0-2.6-4-3.3-4.9-.9zm406.4-1.2c0 2.2 5.8 9.2 9.7 11.6 4.3 2.7 7.9 3.2 5.4.7-1.7-1.7-1.3-2.4 1.4-3.1 1.6-.4 2.5-1.3 2.5-2.7 0-2.6-2.5-3.5-5.6-1.9-2.2 1.2-2.7 1.1-5.2-1.3s-8.2-4.7-8.2-3.3z"/><use xlink:href="#F" x="18" y="113"/><path d="M701 225.4c0 1.9 5.6 9 9.1 11.6 4.1 2.9 7.7 4.5 8.4 3.8.9-.9-5.9-10.6-8.9-12.5-3.2-2.2-8.6-4-8.6-2.9zm-368 2.1c-1.5 1.8-.5 3.5 2 3.5 1 0 2.2-.5 2.5-1 .7-1.1-1.2-4-2.5-4-.4 0-1.3.7-2 1.5zm397.7 3.1c-1.7 1.8-.6 3.5 2.1 3.2 1.6-.2 2.7-.9 2.7-1.8 0-1.6-3.6-2.6-4.8-1.4zm40.8 3c-1.9 1.9-.4 4.4 2.7 4.4 2.4 0 3.4-2.6 1.8-4.5s-2.5-1.9-4.5.1zm-123.3 23.9c-7.3 2.3-9.7 5.5-3.9 5.5 4.1-.1 10.2-1.5 15.2-3.6 3.5-1.5 3.8-1.8 2-2.5-3-1.2-8.5-.9-13.3.6zm-230.8 6c-.7 1.8.3 3.5 2.1 3.5 2.1 0 2.8-1.9 1.5-3.5-1.6-1.9-2.9-1.9-3.6 0zm236.6 2c-1.1 1.3-1.1 1.9.4 3.3 2 2 5.1.6 5.1-2.4 0-2.4-3.7-3-5.5-.9zm20.4 2.4c-5.9 2.7-6.1 3.8-.9 4.6 5.3.7 13.6-1.4 17.5-4.5l2.5-2H686c-5.2 0-8.8.6-11.6 1.9zm-302.1.8c-1.8.6-1.6 4.2.2 4.9.8.4 2.2.1 3-.6 2.4-2-.1-5.4-3.2-4.3zm7.9 4c.4 2.2 4.3 2.5 4.3.3 0-.8-1.1-1.6-2.3-1.8-1.9-.3-2.3 0-2 1.5zm-75.2.7c0 1.4 8.7 12.9 11 14.6 2.9 2 5 2.6 5 1.2 0-1.1-4-7.5-6.4-10-1.9-2.2-9.6-6.8-9.6-5.8zm402.9 2.5c-5.1 1.6-11.9 6.2-11.9 8.1 0 .4 3 .3 6.8-.2 7.7-1 17.6-5.1 17-7-.5-1.5-8.1-2.1-11.9-.9zm-19.2 1.3c-2.1 1.1-2.2 3.2-.2 4.8 1.2 1 1.8 1 3 0 3.3-2.7.8-6.9-2.8-4.8zm-314.6 1.1c-1.7 2.1-.3 4.9 2.3 4.5 1.5-.2 2.1-1 2.1-2.8 0-2.8-2.6-3.8-4.4-1.7zm-44.1.2c0 .2 2.5 2.9 5.6 5.9 5.3 5.3 11.3 8.1 13.2 6.1.8-.8-6.9-7.9-10.8-9.9-2.9-1.5-8-2.9-8-2.1zm410.5.7c-5 2.7-13.5 13.1-12 14.6 1.4 1.4 8.2-3.6 11.7-8.7 4.9-7 5-8.5.3-5.9zM384 281c0 1.6.5 2.1 2.3 1.8 1.2-.2 2.2-1 2.2-1.8s-1-1.6-2.2-1.8c-1.8-.3-2.3.2-2.3 1.8zm377.2 1.5c-2.1 1.5-9.2 12.7-9.2 14.6 0 3.7 10.6-5.9 12-11 1.6-5.8 1.2-6.3-2.8-3.6z"/><use xlink:href="#D" x="-324" y="88"/><path d="M284.6 284.6c-.8.8-1.3 2.1-.9 3 .8 2.2 4.7 1.3 5.1-1.2.4-2.7-2.2-3.8-4.2-1.8zm18.1 1.8c-.3.8 0 2 .8 2.6 2 1.7 5 .8 5-1.5 0-2.5-4.9-3.4-5.8-1.1zm27.6 2.2c-.3.8-.1 2 .5 2.6 1.6 1.6 4.2.2 4.2-2.2s-3.8-2.8-4.7-.4zm415.1-.2c-1.6 1.2-1.6 1.6-.4 3 1.7 2.1 5.4 1.7 5.8-.6.5-2.5-3.1-4.1-5.4-2.4zm29.9.1c-.7 1.9 1.3 3.6 3.7 3.2.8-.1 1.5-1.1 1.5-2.2 0-2.6-4.2-3.4-5.2-1zm-9 1.1c-.3.8-.1 2 .5 2.6 1.6 1.6 4.2.2 4.2-2.2s-3.8-2.8-4.7-.4zM289 293.3c0 2.6 2.7 4.4 4.3 2.8 1.5-1.5.3-4.6-2.1-4.9-1.8-.3-2.2.1-2.2 2.1zm10.2-1.4c-2 1.2-1 4.6 1.4 4.9 2.5.4 4-2.4 2.3-4.4-1.3-1.6-1.9-1.7-3.7-.5zm438.5 1.8c-1.3 1.2-.7 4.1 1 4.7 2.1.8 4.8-1.7 4-3.8-.6-1.6-3.8-2.2-5-.9z"/><use xlink:href="#H" x="36" y="171"/><path d="M773 296.6c-1.1 1.2-1.1 1.8.2 3 .8.8 2.2 1.2 3.1.8 2.1-.8 2.2-4 .1-4.8s-2-.8-3.4 1zm-77.9.8c-.9 1.1-.8 1.8.4 3 .9.9 1.8 1.6 2 1.6s1.1-.7 2-1.6c1.2-1.2 1.3-1.9.4-3-.6-.8-1.7-1.4-2.4-1.4s-1.8.6-2.4 1.4zm67.4-.4c-.3.5-.3 1.9 0 3 .5 1.6.2 2-1.7 2-3 0-6.8 1.1-6.8 1.9 0 .7 1.1 1.3 9 5.3 5.4 2.7 11 3.7 11 1.9 0-.5-2.3-2.9-5.1-5.4-4.6-4-4.9-4.5-2.9-5 1.4-.4 2.1-1.2 1.8-2.4-.4-2-4.2-3-5.3-1.3zm-435.8 4.6c-.4.4-.7 1.6-.7 2.6 0 1.3.7 1.8 2.6 1.8 2.1 0 2.5-.4 2.2-2.2-.3-2.3-2.7-3.5-4.1-2.2zm12 3.9c-4.3 3.3-11.3 12.2-10.3 13.2s7.8-3.2 10-6.1c3.9-5.3 6.8-10.6 5.8-10.6-.5 0-3 1.6-5.5 3.5zm352-2.8c-1.3 1.2-.7 4.1.9 4.7 2.1.8 2 .8 3.9-1 1.2-1.2 1.3-1.9.4-3-1.2-1.5-4.1-1.9-5.2-.7zm-324.4 1c-1.8.7-1.6 4 .1 4.6 1.9.7 4-1.8 3.2-3.8-.6-1.5-1.2-1.7-3.3-.8zm11 0c-.7.2-1.3 1.3-1.3 2.4 0 1.3.7 1.9 2.4 1.9 2.7 0 4-2.2 2.3-3.9-1.2-1.2-1.5-1.2-3.4-.4zm323.7.9c-1.1 1.2-1 1.8.3 3.1 1.8 1.8 4.4 1.2 5.4-1.3 1.1-3-3.5-4.5-5.7-1.8zm28 .8c0 2.7 6.6 11.1 10.2 13.1 2 1.1 4 1.7 4.3 1.3.8-.8-2.7-6-7.9-11.6-4.1-4.2-6.6-5.4-6.6-2.8z"/><path d="M743.5 305.4c-2 1.5-1.5 4.3 1 5.2 1.8.7 4.5-1.2 4.5-3.2 0-2.2-3.5-3.5-5.5-2zm-351.1 5c-.8 2.1.3 3.6 2.7 3.6 1.5 0 2-.6 1.7-2.2-.4-2.7-3.5-3.7-4.4-1.4zm7.4 5.4c-2.7.8-4.8 1.9-4.8 2.3 0 1.4 8.2 3.1 11.9 2.4a35.7 35.7 0 0 0 7.6-2.8c3.9-2 3.9-2.1 1.5-2.8-4.1-1.2-11.2-.8-16.2.9zm300.3 5.5c3 7.3 8.1 14.7 10.1 14.7 1.4 0 .2-7.2-1.8-11.4-2-3.8-8.4-10.6-10-10.6-.8 0-.2 2.5 1.7 7.3zm-328.6-3.9c-5.1 2.3-11.5 8.5-11.5 11 0 2.1 7.3-1.7 14.8-7.7 3.4-2.8 6.2-5.2 6.2-5.4 0-1.1-5.2.1-9.5 2.1zm319.9 6.1c-1 2.4 1.4 4.7 3.7 3.4 2.3-1.2 2.5-3.5.3-4.3-2.4-.9-3.4-.7-4 .9zm-25.9 1.2c-3.7.9-3.7 2.1 0 3.3 5.2 1.7 13.1.8 15.8-1.9l2.1-2.1-7.9.1c-4.4.1-8.9.3-10 .6zm-289.2 2c-1.8.6-1.6 4.2.2 4.9 1.6.6 4.5-1.2 4.5-2.7 0-1.2-3.3-2.7-4.7-2.2zm8.1 2.8c-.4.9 0 2.3.9 3.2 2.1 2.1 4.9.9 4.5-1.9s-4.5-3.8-5.4-1.3zm303 1.9c-1 2.6.4 4.8 2.8 4.4 1.7-.2 2.3-1 2.3-2.8s-.6-2.6-2.3-2.8c-1.3-.2-2.5.3-2.8 1.2zm7.9 1.2c-.3.8.2 2.3 1.1 3.2 1.5 1.5 1.7 1.5 3.2 0 2.1-2.1 1.1-4.8-1.6-4.8-1.1 0-2.3.7-2.7 1.6zm-316.9 3.9a3 3 0 0 0 3 4.5c2.5 0 3.9-2 3-4.5-.4-.8-1.7-1.5-3-1.5-1.4 0-2.7.7-3 1.5zm8 6.9c-3.8 3.5-6.6 6.7-6.2 7.1 1 1.1 6.5-.4 9.2-2.6 2.3-1.8 5.4-9.4 4.3-10.5-.2-.3-3.5 2.4-7.3 6zm276.3-4.7c-.4.3-.7 1.5-.7 2.5 0 2.2 4.5 2.6 5.3.4.9-2.4-2.8-4.7-4.6-2.9zm-259.2 6.6c.6 3.4 1.7 7.3 2.5 8.7 1.4 2.8 5 7 6 7 .8 0-.4-10.9-1.5-13.5-1.3-3-5.9-8.5-7.1-8.5-.8 0-.8 1.8.1 6.3zm267.6-4.9c-.9 1-.8 1.6.4 2.6 2.1 1.7 5.1-.6 3.4-2.6-.6-.8-1.5-1.4-1.9-1.4s-1.3.6-1.9 1.4zm13.9 2.3c0 3.4 1.6 6.7 5 10.7 3.9 4.4 5 4.5 5 .5 0-2.3-1.2-4.3-5-8.2-4.2-4.4-5-4.9-5-3zm-7 6.8c-1.7 2-.5 4.5 2 4.5 1.1 0 2.3-.7 2.6-1.5.6-1.5-1.1-4.5-2.6-4.5-.4 0-1.3.7-2 1.5z"/><path d="M666.7 354.1c-3.8 3.1-7.7 9.4-7.7 12.4 0 1.2 1.2.6 4.5-2.1 5-4 7.8-7.6 8.9-11.2 1-3.2-1.2-2.8-5.7.9zm13.3 4.4c-1.3 1.6-.6 3.5 1.4 3.5.8 0 1.9-.6 2.5-1.4 1-1.2.8-1.7-.7-2.5s-2.3-.7-3.2.4zM122.1 479c-13 29.1-17 36.2-21.1 37.5-4.8 1.5-1.2 2.5 9.5 2.5 11.9 0 14.6-.9 7.3-2.6-3.9-.8-4.3-1.2-4.6-4.1-.2-1.8.6-5.3 1.7-7.8l2-4.6 24.5.6 3 6.8c3 6.7 3 6.9 1.1 8.3-1 .8-2.9 1.4-4.2 1.4s-2.3.4-2.3 1 6.2 1 16.5 1c9.1 0 16.5-.4 16.5-.8s-1.3-1.3-2.9-1.9c-3.4-1.3-7.2-8.6-23.2-45.5-5.2-12-9.6-21.8-9.9-21.8s-6.6 13.5-13.9 30zm12.3 5.2c2.6 5.9 4.6 10.9 4.6 11.2s-4.5.6-10 .6-10-.2-10-.4 1.6-3.9 3.6-8.2l5-11.3c.8-1.9 1.6-3.2 1.9-3 .2.3 2.4 5.3 4.9 11.1zm300.1-32.7c-1.4 1.3-2.5 3.3-2.5 4.5 0 3.2 4.4 7 8 7s8-3.8 8-7-4.4-7-8-7a7.8 7.8 0 0 0-5.5 2.5zm-35.5-.6c0 .5 1.1 1.2 2.4 1.5s2.6 1.6 3 2.8c.3 1.3.6 15 .6 30.5 0 24.3-.2 28.4-1.6 29.7-.8.9-2.2 1.6-3 1.6s-1.4.4-1.4 1 5 1 13 1 13-.4 13-1-.6-1-1.4-1-2.2-.7-3-1.6c-1.4-1.3-1.6-5.8-1.6-33.5V450h-10c-5.5 0-10 .4-10 .9zm187 .1c0 .5 1.4 1 3 1a8 8 0 0 1 5 2c2 2 2.1 3 1.8 31.1-.3 27.4-.4 29.1-2.2 30.5-1.1.8-3.2 1.4-4.8 1.4-1.5 0-2.8.4-2.8 1s10.6 1 29.8 1h29.8l1.5-11c.8-6.1 1.2-10.9.8-10.8-.4.2-2.1 2.8-3.6 5.8-4.5 8.6-11 12-23 12-8.7 0-9.3-1-9.3-16.7V486h2.5c6 0 10.5 4.8 12.1 12.9 1.5 7.4 2.4 1.8 2.4-14.9 0-17.1-.9-22.5-2.5-14.3-1.4 7.8-5.8 12.3-12 12.3H612v-28h7.3c3.9 0 8.9.5 10.9 1 4.8 1.4 9.1 5.7 10.6 10.9 2.1 6.8 3.2 4.8 3.2-5.9v-10h-29c-18.7 0-29 .4-29 1zm154 0c0 .5.6 1 1.4 1s2.2.7 3 1.6c1.4 1.3 1.6 5.8 1.6 34 0 17.8.3 32.4.8 32.4.4 0 2.4-1.1 4.5-2.4l3.7-2.3 4.7 2.3c8.1 4.2 17.1 2.6 23.9-4.1 5-5.1 7.4-11.6 7.4-20.4 0-8-2.3-13.4-7.3-17.8-6.1-5.3-14.8-5.6-20.7-.7l-3 2.6V450h-10c-6 0-10 .4-10 1zm33 28.5c2.2 2.3 2.5 3.7 2.8 12.5.3 5.5.1 12.1-.3 14.6-1.2 8.5-7.9 12-13 6.9-2.4-2.3-2.5-2.8-2.5-17.4v-15l2.6-2c3.6-2.8 7.5-2.7 10.4.4zm-487-20.4c-1.4 2.3-5.5 7-9.2 10.4-3.8 3.5-6.8 6.6-6.8 6.9s1.4.6 3 .6h3v16.6c0 19 .8 22.1 6.7 24.9a12.2 12.2 0 0 0 15-2.9c4.3-4.6 4.6-8.2.5-4.3-3.5 3.4-6 3.4-7.2.1-.6-1.4-1-9.7-1-18.5V477h6c5.7 0 6-.1 6-2.5s-.3-2.5-6-2.5h-6v-8.5c0-4.7-.3-8.5-.7-8.5-.5 0-1.9 1.9-3.3 4.1z"/><use xlink:href="#I"/><path d="M333.4 472.9c-1.7 1-4.5 3.6-6.2 5.7l-3.2 3.9V472h-9.5c-5.7 0-9.5.4-9.5 1 0 .5.4 1 .9 1s1.7.7 2.5 1.6c1.3 1.3 1.6 4.6 1.6 20.5V515l-2.5 1.2c-1.4.6-2.5 1.5-2.5 2 0 .4 5.6.8 12.5.8 7.7 0 12.5-.4 12.5-1s-.6-1-1.4-1c-3.5 0-4.6-2.9-4.6-12.4 0-11.8 1.4-19.4 4.2-22.3 2.7-2.9 3.3-2.9 7 .2 1.6 1.4 3.7 2.5 4.7 2.5 2.8 0 5.1-3.3 5.1-7.2 0-6.3-5.4-8.7-11.6-4.9z"/><use xlink:href="#J"/><use xlink:href="#J" x="106"/><path d="M533.5 472.6a28.2 28.2 0 0 0-5.2 3.6l-2.3 2.1V472h-9.5c-5.2 0-9.5.2-9.5.5 0 .2 1.1 1.5 2.5 2.9 2.5 2.5 2.5 2.7 2.5 20.1s0 17.6-2.5 20.1c-1.4 1.4-2.5 2.7-2.5 2.9 0 .3 5.4.5 12 .5 7.3 0 12-.4 12-1s-.4-1-.9-1-1.7-.7-2.5-1.6c-1.3-1.3-1.6-4.2-1.6-16.5v-15.1l2.9-2.9c3.1-3.1 5.9-3.7 7.9-1.7.8.8 1.2 6.4 1.2 18.5 0 16.2-.1 17.4-2 18.5-1.1.7-2 1.6-2 2 0 .5 5.4.8 12 .8 11.9 0 14.1-.6 9.8-2.5-2.2-1-2.3-1.6-2.9-18.5-.4-13.8-.9-18.2-2.2-20.7-3.1-5.9-10.9-8-17.2-4.7zm151-.2c-1.6.7-3.9 2.3-4.9 3.5-2.6 2.9-3.6 2.6-3.6-.9v-3h-9.5c-5.7 0-9.5.4-9.5 1 0 .5.4 1 .9 1s1.7.7 2.5 1.6c2.4 2.3 2.4 37.5 0 39.8-.8.9-2 1.6-2.5 1.6s-.9.4-.9 1 4.7 1 12 1c11.1 0 14.9-.9 10.1-2.5-2.7-.8-3.1-3.2-3.1-18.7v-13.6l3.1-3.2c2.2-2.2 3.9-3 5.8-2.8 4.2.5 5.1 3.7 5.1 20.1 0 14.5-.1 14.8-2.5 17.3-1.4 1.4-2.5 2.7-2.5 2.9 0 .3 5.4.5 12 .5 7.3 0 12-.4 12-1s-.4-1-.9-1-1.7-.7-2.5-1.6c-1.3-1.3-1.6-4.2-1.6-16.6v-15l3.1-2.9c1.7-1.6 4.1-2.9 5.4-2.9 4.2 0 4.9 2.4 5.3 16.9.4 15.3-.4 20.1-3.6 21.6-4.3 1.9-2 2.5 10.3 2.5 12.4 0 14.8-.7 10.1-2.8-2.4-1.1-2.4-1.2-2.8-18.9-.4-19.4-.8-21.1-6.1-24.3-5.8-3.6-13.5-2.1-19.3 3.8l-3.1 3-1.7-2.9c-3.2-5.4-10.6-7.4-17.1-4.5z"/><use xlink:href="#J" x="449"/><use xlink:href="#I" x="616"/><use xlink:href="#I" x="656"/><path d="M175 472.8c0 .4 1 1.2 2.3 1.7 2.1 1 2.2 1.6 2.8 18.5.6 19.2 1.3 21.9 6.4 25 5.5 3.4 12.5 2.3 17.8-2.8l2.7-2.6v6.4h9.5c5.2 0 9.5-.3 9.5-.6s-1-1.4-2.2-2.4c-2.2-1.8-2.3-2.4-2.6-22.9l-.3-21.1h-9.5c-9.5 0-11.4.8-6.9 2.8l2.5 1.2v32.2l-2.9 2.9c-3.1 3.1-5.9 3.7-7.9 1.7-.9-.9-1.2-6.9-1.2-21V472h-10c-5.5 0-10 .3-10 .8zm252 .2c0 .5.6 1 1.4 1s2.2 1 3 2.2c1.3 1.8 1.6 5.5 1.6 19.3s-.3 17.5-1.6 19.3c-.8 1.2-2.2 2.2-3 2.2s-1.4.4-1.4 1 5 1 13 1 13-.4 13-1-.6-1-1.4-1-2.2-.7-3-1.6c-1.4-1.3-1.6-4.8-1.6-22.5V472h-10c-6 0-10 .4-10 1zm498 0c0 .5.9 1.4 2 2 2.3 1.2 5.9 8.1 15.5 29.8l6.8 15.2-1.7 4.3c-2.3 5.9-5.3 10.7-6.9 10.7-.7 0-1.7-1.4-2.2-3.2-1.2-3.9-3.4-5.3-6.9-4.4-5.5 1.4-6 9.3-.6 12.1 6.4 3.3 12.2.9 16.1-6.8 1.2-2.2 6.5-15.2 12-28.8 10.6-26.8 11.5-28.6 14.1-29.5 4.1-1.3 1.2-2.4-6.2-2.4-4.7 0-8 .4-8 1 0 .5.6 1 1.4 1s2.2.7 3.1 1.6c2 2.1 1.5 4.8-3.5 17.3l-3.7 9.3-5.1-11.7c-5.7-13-6.1-15.1-3.2-16 5-1.6 1.1-2.5-10.5-2.5-7.4 0-12.5.4-12.5 1zM97 572.5v2.5l879-2.5V570l-879 2.5zm249.5 50c-1.4 1.3-2.5 3.3-2.5 4.5 0 2.9 4.4 7 7.5 7s7.5-4.1 7.5-7-4.4-7-7.5-7c-1.4 0-3.7 1.1-5 2.5zm-68.4 7.7v9.3l2.3-5c3.3-7.1 5.6-8.8 12.6-9.3l6-.4v29.5c0 28.3-.1 29.7-1.9 30.7a12.9 12.9 0 0 1-4.5 1c-1.4 0-2.6.4-2.6 1s6.3 1 17 1 17-.4 17-1-1.1-1-2.5-1a7.4 7.4 0 0 1-4.5-2c-1.9-1.9-2-3.3-2-30.5V625h5.1c3 0 6.3.7 8 1.7 2.7 1.6 6.9 8.4 6.9 11.1 0 .7.5 1.2 1 1.2.6 0 1-3.7 1-9v-9h-59l.1 9.2zM561 622c0 .5 1.3 1 2.8 1 6 0 6.2.8 6.2 31.8 0 30.9-.1 31.2-6.1 31.2-1.6 0-2.9.4-2.9 1s10.5 1 29.4 1h29.3l.7-7.3c.3-3.9.9-9.3 1.2-12 .9-6.2-.9-6.2-3 .1-2.2 6.7-5.9 11.6-9.9 13.6-4.8 2.2-18.9 2.3-21.1 0-1.4-1.3-1.6-5.4-1.6-28.8 0-25.2.1-27.4 1.8-28.9 1-1 3.3-1.7 5-1.7 1.8 0 3.2-.5 3.2-1 0-.6-6.5-1-17.5-1s-17.5.4-17.5 1zm157.2 9.9c-2.3 3.3-6.4 7.9-9.2 10.3-2.7 2.4-5 4.6-5 5 0 .5 1.4.8 3 .8h3v34.2l2.9 2.8c5.8 5.8 14.2 4.9 18.8-2.1 3-4.6 2.4-6.3-1.1-3-1.3 1.3-3.2 2.1-4.3 1.9-1.6-.3-1.8-1.7-2.1-17.1L724 648h5c4.7 0 5-.2 5-2.5s-.3-2.5-5-2.5h-5v-8.5c0-4.7-.4-8.5-.8-8.5s-2.7 2.7-5 5.9zm-325.7 11.5c-1.6.7-3.9 2.3-4.9 3.5-2.6 2.9-3.6 2.6-3.6-.9v-3h-9c-8.4 0-11.5 1.1-7.1 2.5 2.7.8 3.1 3.2 3.1 20s-.4 19.2-3.1 20c-4.8 1.5-1 2.5 9.6 2.5s14.4-1 9.6-2.5c-2.6-.8-3.1-3.2-3.1-17.8v-12.9l2.9-2.9c3.1-3 6.8-3.8 8.9-1.7.8.8 1.2 6.2 1.2 17.5 0 15.2-.1 16.4-2 17.5-1.1.7-2 1.6-2 2 0 .5 5.2.8 11.5.8 7 0 11.5-.4 11.5-1s-.7-1-1.5-1c-2.7 0-3.5-3.9-3.5-17.8v-14l3.1-2.6c3.6-3.1 7.4-3.4 8.9-.7.5 1.1 1 8.5 1 17 0 12.3-.3 15.2-1.6 16.5-.8.9-2 1.6-2.5 1.6s-.9.4-.9 1 4.7 1 12 1c11.9 0 14.1-.6 9.8-2.5-2.2-1-2.3-1.6-2.8-18-.3-9.4-.9-17.7-1.4-18.5-5-8.5-15-9.2-22.7-1.6l-3.5 3.3-1.7-2.9c-1.7-3-7-5.8-10.9-5.8-1.3.1-3.6.7-5.3 1.4zm68 .1c-4.9 1.7-10.7 8-12.3 13.3-2.9 9.6-1 19.3 5.1 25.6 7.9 8.2 19.9 8.8 28.4 1.3 4.9-4.3 7.3-9.9 7.3-17.2 0-8.7-1.6-13.4-6.4-18.1-6.1-6.1-13.8-7.8-22.1-4.9zm12.6 4.7c1.8 3 2 4.7 1.7 17.8-.2 12.1-.6 15.1-2.1 17.4-1.5 2.2-2.5 2.7-5 2.4-5.2-.5-6.7-4.8-6.7-19.3 0-17.1 1.6-21.4 7.8-21.5 1.5 0 2.9 1.1 4.3 3.2zm48.4-4.6c-1.6.8-4.4 3.2-6.2 5.2l-3.2 3.7-.1-4.8V643h-9c-5.3 0-9 .4-9 1 0 .5.4 1 .9 1s1.7.7 2.5 1.6c1.3 1.3 1.6 4.5 1.6 18.9s-.3 17.6-1.6 18.9c-.8.9-2 1.6-2.5 1.6s-.9.4-.9 1 4.7 1 12 1c11.3 0 15.2-1 9.5-2.4-3.3-.8-3.9-3.6-3.3-15.9.8-16.2 4.7-22.1 10.8-16.2 2.2 2.1 3.5 2.6 5.5 2.1 3.1-.8 4.9-4.7 4-8.8-1.1-4.7-5.6-6-11-3.2zm121.3-.6c-8 2.4-13.7 10.5-14.6 20.5-1 12.7 4.4 22.2 13.8 24.5 5.8 1.4 10.2.8 14.8-2 3.3-2 9.5-10.7 8.7-12-.3-.4-2.2 1-4.4 3.1-3 3.1-4.6 3.9-7.4 3.9-4.6 0-9.7-4.8-11.5-10.7-2.3-7.6-2.7-7.3 11.4-7.3h12.7l-.7-4.3c-1.9-11.9-12.1-19-22.8-15.7zm8.7 4c1.1 1.3 2 4.1 2.3 7.5l.4 5.5H641v-3.4c0-9.2 5.9-14.6 10.5-9.6zm26.8-3.9c-3.9 1.1-7.3 5.7-8 10.8-.9 6.3 1.8 10.3 11.3 17.2 9.1 6.6 10.9 9.5 7.9 12.9-3.9 4.3-11.5.7-15.8-7.3l-2.2-4.2-.3 7.9c-.3 8.5.2 10.1 2.3 7.2 1.4-1.8 1.6-1.8 7-.1 6.6 2 11.2 1.5 15.3-2 4-3.3 5.6-7.6 4.9-13.1-.6-5.4-2.6-7.8-12.5-14.6-7.4-5.2-9.5-8.5-7.2-11.3 3.3-4 11.1 0 14.5 7.4 2.8 6.3 3.8 5.1 3-3.7-.4-4.2-.9-7.9-1.1-8.1-.2-.3-1 .4-1.8 1.4-1.2 1.7-1.5 1.7-5.5.2-4.6-1.9-7-2-11.8-.6zm73.5-.1c-8 2.4-13.7 10.5-14.6 20.5-1 12.7 4.4 22.2 13.8 24.5 5.8 1.4 10.2.8 14.8-2 3.3-2 9.5-10.7 8.7-12-.3-.4-2.2 1-4.4 3.1-3 3.1-4.6 3.9-7.4 3.9-4.6 0-9.7-4.8-11.5-10.7-2.3-7.6-2.7-7.3 11.4-7.3h12.7l-.7-4.3c-1.9-11.9-12.1-19-22.8-15.7zm8.7 4c1.1 1.3 2 4.1 2.3 7.5l.4 5.5H750v-3.4c0-9.2 5.9-14.6 10.5-9.6zM339 643.8c0 .4 1 1.2 2.2 1.7 3 1.3 3.6 4.4 3.6 20s-.6 18.7-3.6 20c-4.4 1.9-2 2.5 10.3 2.5 7.7 0 12.5-.4 12.5-1s-.6-1-1.4-1-2.2-.7-3-1.6c-1.4-1.3-1.6-4.7-1.6-21.5V643h-9.5c-5.2 0-9.5.3-9.5.8zM531 665v5h29v-10h-29v5z"/><defs ><path id="B" d="M484.7 102.4c-.6 1.5.1 2.6 1.5 2.6 1.1 0 1-2.7-.1-3.4-.5-.3-1.1 0-1.4.8z"/><path id="C" d="M534.6 102.5c-.9 2.3-.8 2.5.9 2.5s1.9-.9.6-2.8c-.7-1.1-1-1-1.5.3z"/><path id="D" d="M617.4 195.5a2.6 2.6 0 0 0 .4 2.7c1.6 1.6 4.7.5 4.7-1.7 0-2.6-4.2-3.4-5.1-1z"/><path id="E" d="M604.4 203.1c-.9 1.6 2.1 4.3 4 3.6.9-.4 1.6-1.6 1.6-2.7 0-1.5-.7-2-2.4-2-1.4 0-2.8.5-3.2 1.1z"/><path id="F" d="M752 112.5c-1 1.2-1 1.8 0 3 .7.8 1.8 1.5 2.5 1.5s1.8-.7 2.5-1.5c1-1.2 1-1.8 0-3-.7-.8-1.8-1.5-2.5-1.5s-1.8.7-2.5 1.5z"/><path id="G" d="M737.4 120.5c-.8 2.1.2 4.5 1.9 4.5.8 0 2-.7 2.7-1.5 1-1.2 1-1.8 0-3-.7-.8-1.9-1.5-2.7-1.5-.7 0-1.6.7-1.9 1.5z"/><path id="H" d="M342 124.6c-1.1 1.2-1 1.8.3 3.2 1.6 1.5 1.8 1.5 3.4 0 1.3-1.4 1.4-2 .3-3.2-.7-.9-1.6-1.6-2-1.6s-1.3.7-2 1.6z"/><path id="I" d="M240.3 473c-6.2 3.8-8.7 10.8-6 17.3 1.2 2.6 4 5.4 10.6 10.3 9.9 7.1 11.7 10 8.6 13.4-3.8 4.3-11.7.9-15.7-6.8-1.3-2.3-2.6-4.2-3-4.2-1.1 0-.9 14.2.2 16 .8 1.3 1.1 1.2 2.3-.4 1.3-1.8 1.6-1.8 6.2-.2 6.3 2.1 9 2 14-.4 5.1-2.5 7.8-7 7.9-13.1.1-6.2-1.9-8.8-12.2-16.2-9.5-6.7-10.8-8.5-8.6-11.5 3.1-4.5 11-1.1 14.6 6.3 1.2 2.5 2.6 4.5 3 4.5s.8-3.8.8-8.5c0-8.6-.9-10.4-3.5-6.8-1.1 1.5-1.5 1.5-5.4 0-5.5-2.2-9.9-2.1-13.8.3z"/><path id="J" d="M363 472.9c-6.8 2.4-11 6.8-11 11.6 0 5.9 7.7 8.8 12 4.5 2.4-2.4 2.5-3.4.4-7-2.1-3.4-1.3-5.7 2.1-6.6 6.3-1.6 9.5 1.7 9.5 9.9v4.2l-9.4 4.8c-11.7 5.9-15.6 10-15.6 16.1 0 3.7.5 4.8 3.1 7 1.7 1.4 4.2 2.6 5.5 2.6 3.2 0 9-2.4 13-5.5l3.2-2.4.6 2.4c1.6 6.2 11.1 7.2 16.7 1.9 3.6-3.5 3.6-4.3.2-4.1l-2.8.2-.5-16c-.5-17.3-1.2-19.6-6.5-23.1-3.9-2.6-14-2.8-20.5-.5zm10.9 36.7c-4.2 4.4-8.9 2.6-8.9-3.4 0-2.9.9-4.4 5.3-8.6l5.2-5.1.3 7.4c.3 6.5 0 7.7-1.9 9.7z"/></defs></svg>