<svg xmlns="http://www.w3.org/2000/svg" width="80" height="36" fill-rule="nonzero" xmlns:v="https://vecta.io/nano"><path d="M66.86 21.15a13.8 13.8 0 0 0-2.63-2.1c-.14-.05-.5-.1-.97-.14l-.85-.12-.07-.33-.14-.9c-.07-.63-.12-.82-.24-.82h0c-.07 0-.17.07-.28.2-.24.23-.5.7-.47 1.15 0 .16.14.4.28.63v.02c.05.07.1.16.12.23l.12.23s-.28 1.2-1.57 1.12c-.76-.05-2-.72-3.5-1.87-2.32-1.8-4.5-3.44-7.4-3.44-2.66 0-5.12 2.06-7.57 4.75-.95 1.03-3.18 3.58-6 3.84s-3.63-1.26-5.03-2.4c-.4-.33-.8-.35-.62-.02a17.5 17.5 0 0 0 1.64 2.34 6.5 6.5 0 0 0 4.39 2.03c4.22.12 8.02-3.27 8.14-3.1.3.56.5 1.12 1.2 1.64.66.5 3.25 1.2 3.63 1.85.66 1.22.64 2.34.85 4.07.1.75.36 1.54.6 2.15.26.65.43.9.55.9 2.32.35 5.9 1.68 7.7 2.32l1.92.6c.1 0 .12-.02.17-.07.05-.07.02-.14 0-.2-.12-.4-1.02-1.05-1.42-1.22-1.4-.63-2.94-1.08-4.17-1.45-1.1-.33-2.73-.84-3.06-1.24-.28-.33-.62-.9-.5-2.13.1-.84.2-1.57 1.2-3.1a4.6 4.6 0 0 0 .85-2.6c1.1.37 2.37.5 2.37.5.26.68.14 2.4-.4 2.88l-.07.07-.1.05c-.05.02-.12.05-.17.07-.78.26-.7.54-.62.7.05.12.2.2.47.2.36 0 1.04-.16 1.42-.75.2-.3.47-.98.7-1.66.26-.65.36-.84.57-1.2l.14-.26s1.23.02 2.5-.65c.64-.35 1.16-.84 1.6-1.22l.76-.6c.3-.2.6-.26.97-.26a5 5 0 0 1 1.33.23h.02l.83.2c.36.07.76-.16.93-.5.05-.26.02-.47-.12-.63z" fill="#eb0029"/><g fill="#022169"><path d="M4.4.05h3.5l4.24 11.6h-3.7L7.93 10h-3.7l-.52 1.66H.1L4.4.05zM7.2 7.5L6.14 3.93 5.02 7.5h2.2zM21 11.65h-3.12V10.6h-.02a3.1 3.1 0 0 1-2.76 1.28 2.7 2.7 0 0 1-2.9-2.87v-5.8h3.24v4.43c0 .97.12 1.66 1.07 1.66.55 0 1.3-.28 1.3-1.63V3.22h3.24L21 11.65zm5.95-6c-.02-.28-.17-.5-.38-.64-.2-.17-.45-.24-.7-.24-.45 0-.98.1-.98.64 0 .24.2.36.38.45.55.24 1.76.28 2.83.64 1.07.33 2.02.97 2.02 2.34 0 2.34-2.26 2.96-4.3 2.96-2 0-4.2-.8-4.24-2.96h3.1c.02.28.14.54.38.76a1.4 1.4 0 0 0 .86.24c.43 0 1.1-.17 1.1-.64 0-.5-.3-.64-1.8-.9-2.48-.43-3.45-1.2-3.45-2.65 0-2.13 2.3-2.68 4-2.68 1.83 0 4.02.5 4.12 2.65h-2.93v.02z"/><path d="M34.8 3.22h1.74v2H34.8v2.94c0 .78.2 1.1 1 1.1a7.7 7.7 0 0 0 .74-.05v2.44l-2.07.1c-1.38 0-2.88-.2-2.88-2.5V5.2h-1.43v-2h1.43V.64h3.24v2.58h-.02zm2.37 0h3.1v1.35h.02C40.8 3.55 41.5 3 42.67 3a4.2 4.2 0 0 1 .95.12v2.84c-.33-.12-.62-.2-1.3-.2-1.26 0-1.95.73-1.95 2.56v3.34h-3.24l.02-8.43zm15.26 6.54c0 .64.02 1.35.38 1.9h-3.3c-.07-.24-.12-.57-.12-.8h-.02c-.7.78-1.7 1-2.7 1-1.62 0-2.98-.78-2.98-2.56 0-2.65 3.14-2.56 4.8-2.87.45-.07.88-.2.88-.73 0-.57-.52-.78-1.05-.78-1 0-1.2.5-1.2.85h-3.05c.05-1.18.64-1.9 1.48-2.27a7.1 7.1 0 0 1 2.88-.5c4.05 0 4.02 1.68 4.02 3.3v3.48zm-3.1-1.9a5.8 5.8 0 0 1-1.29.4c-.7.17-1.1.33-1.1.9 0 .38.43.78 1 .78.74 0 1.3-.45 1.36-1.33v-.76h.02zm4.05-7.8h3.24v11.6h-3.24zm7.48 2.25h-3.24V.05h3.24V2.3zm-3.2.92h3.24v8.43h-3.24V3.22zm12.48 6.54c0 .64.02 1.35.4 1.9h-3.3c-.07-.24-.12-.57-.12-.8h-.02c-.7.78-1.7 1-2.74 1-1.62 0-2.98-.78-2.98-2.56 0-2.65 3.14-2.56 4.8-2.87.45-.07.88-.2.88-.73 0-.57-.55-.78-1.05-.78-1 0-1.2.5-1.2.85h-3c.05-1.18.64-1.9 1.48-2.27a7.1 7.1 0 0 1 2.88-.5c4.05 0 4.02 1.68 4.02 3.3v3.48h-.05zm-3.1-1.9a5.8 5.8 0 0 1-1.29.4c-.7.17-1.1.33-1.1.9 0 .38.43.78 1 .78.74 0 1.3-.45 1.36-1.33v-.76h.02zm4.16-4.64h3.12V4.3h.02c.6-.87 1.46-1.3 2.76-1.3A2.7 2.7 0 0 1 80 5.87v5.78h-3.24V7.22c0-.97-.12-1.66-1.05-1.66-.55 0-1.3.28-1.3 1.63v4.45h-3.2V3.22zM4.4 15.02h3.5l4.24 11.6h-3.7l-.5-1.66h-3.7l-.52 1.66H.1l4.3-11.6zm2.8 7.46L6.14 18.9l-1.12 3.58h2.2zm8.6-5.18h-3.2v-2.25h3.24v2.25h-.02zm-3.2.9h3.24v8.43H12.6V18.2zm13.26 8.42h-3.12v-.92h-.02c-.4.54-.9 1.14-2.48 1.14-2.4 0-3.55-2.34-3.55-4.48 0-2 .76-4.38 3.62-4.38.95 0 1.83.43 2.3 1.14h.02v-4.1h3.24l-.02 11.6zm-4.55-6.3c-1.17 0-1.43 1.1-1.43 2.08s.26 2.08 1.43 2.08 1.43-1.1 1.43-2.08-.26-2.08-1.43-2.08z"/></g></svg>