<svg xmlns="http://www.w3.org/2000/svg" xmlns:xlink="http://www.w3.org/1999/xlink" width="14" height="14"><defs><path id="A" d="M0 0h12v12H0z"/></defs><g transform="translate(0 -.583)" fill="none" fill-rule="evenodd"><g transform="translate(0 .583)"><path d="M1 1v12h12V1H1zm0-1h12a1 1 0 0 1 1 1v12a1 1 0 0 1-1 1H1a1 1 0 0 1-1-1V1a1 1 0 0 1 1-1z" fill="#c6cbd4" fill-rule="nonzero"/><use fill="#00a69a" xlink:href="#A" transform="translate(1 1)"/></g><path d="M6.64 10.954c-.394.394-1.027.4-1.422.005L2.88 8.62a1.6 1.6 0 0 1 .002-2.262l-.444.444c.625-.625 1.632-.632 2.27.005l1.22 1.22L9.884 4.07a1.6 1.6 0 0 1 2.261.003l-.444-.444a1.6 1.6 0 0 1 .007 2.257L6.64 10.954z" fill="#fff"/></g></svg>