<?xml version="1.0" encoding="UTF-8"?>
<svg width="28px" height="29px" viewBox="0 0 28 29" version="1.1" xmlns="http://www.w3.org/2000/svg" xmlns:xlink="http://www.w3.org/1999/xlink">
    <!-- Generator: sketchtool 55.2 (78181) - https://sketchapp.com -->
    <title>0746434F-05F5-414C-81DE-1D4A5B7E2A08@2x</title>
    <desc>Created with sketchtool.</desc>
    <g id="Estrada-web" stroke="none" stroke-width="1" fill="none" fill-rule="evenodd" stroke-linecap="round" stroke-linejoin="round">
        <g id="Edit-Road-Asset-Data/Traffic/Add-traffic-data/ADT" transform="translate(-471.000000, -831.000000)" stroke="#434D5D">
            <g id="form" transform="translate(420.000000, 100.000000)">
                <g id="form/road">
                    <g id="Technical-Class-Copy-3" transform="translate(40.000000, 583.000000)">
                        <g id="icons" transform="translate(11.000000, 32.000000)">
                            <g id="Large-bus" transform="translate(1.000000, 117.000000)">
                                <path d="M20.84418,23.85 L5.25618,23.85 C4.05378,23.85 3.09528,22.7862 3.15198,21.5154 L3.95748,3.6342 C4.03758,1.8513 5.42628,0.45 7.11198,0.45 L18.98748,0.45 C20.67408,0.45 22.06278,1.8513 22.14288,3.6342 L22.94748,21.5154 C23.00508,22.7862 22.04658,23.85 20.84418,23.85 L20.84418,23.85 Z" id="Stroke-1"></path>
                                <path d="M3.6,4.95 L2.97,4.95 C1.5786,4.95 0.45,5.9571 0.45,7.2 L0.45,8.325 C0.45,8.946 1.0143,9.45 1.71,9.45 L3.6,9.45" id="Stroke-3"></path>
                                <path d="M22.5,4.95 L23.13,4.95 C24.5214,4.95 25.65,5.9571 25.65,7.2 L25.65,8.325 C25.65,8.946 25.0857,9.45 24.39,9.45 L22.5,9.45" id="Stroke-5"></path>
                                <path d="M19.87731,3.34116 C19.85121,2.72916 19.40031,2.25036 18.85041,2.25036 L7.24941,2.25036 C6.69951,2.25036 6.24861,2.72916 6.22251,3.34116 L5.84991,12.55896 C5.84991,13.82436 9.07371,14.85036 13.04991,14.85036 C17.02611,14.85036 20.24991,13.82436 20.24991,12.55896 L19.87731,3.34116 L19.87731,3.34116 Z" id="Stroke-7"></path>
                                <path d="M8.55,19.8 C8.55,20.5452 7.9452,21.15 7.2,21.15 C6.4548,21.15 5.85,20.5452 5.85,19.8 C5.85,19.0548 6.4548,18.45 7.2,18.45 C7.9452,18.45 8.55,19.0548 8.55,19.8 L8.55,19.8 Z" id="Stroke-9"></path>
                                <path d="M20.25,19.8 C20.25,20.5452 19.6452,21.15 18.9,21.15 C18.1548,21.15 17.55,20.5452 17.55,19.8 C17.55,19.0548 18.1548,18.45 18.9,18.45 C19.6452,18.45 20.25,19.0548 20.25,19.8 L20.25,19.8 Z" id="Stroke-11"></path>
                                <path d="M4.95,23.85 L4.95,25.2 C4.95,25.9452 5.454,26.55 6.075,26.55 L8.325,26.55 C8.946,26.55 9.45,25.9452 9.45,25.2 L9.45,23.85" id="Stroke-13"></path>
                                <path d="M16.65,23.85 L16.65,25.2 C16.65,25.9452 17.154,26.55 17.775,26.55 L20.025,26.55 C20.646,26.55 21.15,25.9452 21.15,25.2 L21.15,23.85" id="Stroke-15"></path>
                                <path d="M10.35,16.65 L15.75,16.65" id="Stroke-17"></path>
                                <path d="M10.35,19.35 L15.75,19.35" id="Stroke-19"></path>
                                <path d="M10.35,22.05 L15.75,22.05" id="Stroke-21"></path>
                            </g>
                        </g>
                    </g>
                </g>
            </g>
        </g>
    </g>
</svg>