<?xml version="1.0" encoding="UTF-8"?>
<svg width="28px" height="30px" viewBox="0 0 28 30" version="1.1" xmlns="http://www.w3.org/2000/svg" xmlns:xlink="http://www.w3.org/1999/xlink">
    <!-- Generator: sketchtool 55.2 (78181) - https://sketchapp.com -->
    <title>CABE6F31-0727-446B-9BF2-2DBF5BE5AA6D@2x</title>
    <desc>Created with sketchtool.</desc>
    <g id="Estrada-web" stroke="none" stroke-width="1" fill="none" fill-rule="evenodd" stroke-linecap="round" stroke-linejoin="round">
        <g id="Edit-Road-Asset-Data/Traffic/Add-traffic-data/ADT" transform="translate(-471.000000, -926.000000)" stroke="#434D5D">
            <g id="form" transform="translate(420.000000, 100.000000)">
                <g id="form/road">
                    <g id="Technical-Class-Copy-3" transform="translate(40.000000, 583.000000)">
                        <g id="icons" transform="translate(11.000000, 32.000000)">
                            <g id="Large-Truck" transform="translate(1.000000, 212.000000)">
                                <path d="M24.7333333,21 L24.7548,16.8 C24.7548,16.2390667 24.3553333,15.7565333 23.8,15.6464 L19.9602667,14.588 L18.9494667,12.0838667 C18.8346667,11.8001333 18.6190667,11.5742667 18.3390667,11.4492 C17.304,10.9890667 14.7877333,9.8 13.5333333,9.8 L12.3452,9.8 C11.0908,9.8 8.36266667,10.9890667 7.3276,11.4492 C7.0476,11.5742667 6.832,11.8001333 6.7172,12.0838667 L5.7064,14.588 L2.3548,15.4233333 C1.79946667,15.5325333 1.4,16.016 1.4,16.5769333 L1.4,20.3102667 L24.7333333,21 L24.7333333,21 Z" id="Stroke-804"></path>
                                <polygon id="Stroke-806" points="19.1333333 20.0666667 22.8666667 20.0666667 22.8666667 17.2666667 19.1333333 17.2666667"></polygon>
                                <path d="M20.0666667,7.93333333 L18.7730667,2.98293333 C18.7730667,2.98293333 17.6344,2.33333333 13.4269333,2.33333333 L12.2397333,2.33333333 C8.03226667,2.33333333 6.8936,2.98293333 6.8936,2.98293333 L5.13333333,7.46666667" id="Stroke-808"></path>
                                <path d="M19.85452,9.11017333 C19.85452,9.11017333 15.8822533,7.93324 13.3211867,7.93324 L12.1330533,7.93324 C9.57198667,7.93324 5.13305333,9.79990667 5.13305333,9.79990667" id="Stroke-809"></path>
                                <path d="M17.2666667,21.9333333 L17.2666667,14.7 C17.2666667,14.1894667 14.5982667,13.5333333 13.7666667,13.5333333 L12.3666667,13.5333333 C11.5350667,13.5333333 8.86666667,14.1894667 8.86666667,14.7 L8.86666667,22.4" id="Stroke-810"></path>
                                <path d="M12.6,2.33333333 L12.6,7.93333333" id="Stroke-811"></path>
                                <polyline id="Stroke-812" points="20.0666667 14.4666667 20.0666667 7 21.9333333 7 21.9333333 14.9333333"></polyline>
                                <path d="M21,7 L21,0.466666667" id="Stroke-813"></path>
                                <path d="M20.0666667,25.6666667 L20.0666667,26.6 C20.0666667,27.1152 20.4848,27.5333333 21,27.5333333 L22.8666667,27.5333333 C23.3818667,27.5333333 23.8,27.1152 23.8,26.6 L23.8,25.2" id="Stroke-814"></path>
                                <path d="M2.33333333,25.2 L2.33333333,26.6 C2.33333333,27.1152 2.75146667,27.5333333 3.26666667,27.5333333 L5.13333333,27.5333333 C5.64853333,27.5333333 6.06666667,27.1152 6.06666667,26.6 L6.06666667,25.6666667" id="Stroke-815"></path>
                                <polygon id="Stroke-797" points="3.26666667 20.0666667 7 20.0666667 7 17.2666667 3.26666667 17.2666667"></polygon>
                                <path d="M8.86666667,15.4 L17.2666667,15.4" id="Stroke-798"></path>
                                <path d="M8.86666667,18.2 L17.2666667,18.2" id="Stroke-799"></path>
                                <path d="M8.86666667,21 L17.2666667,21" id="Stroke-800"></path>
                                <polyline id="Stroke-801" points="3.26666667 14.9333333 3.26666667 7 5.13333333 7 5.13333333 14.4666667"></polyline>
                                <path d="M4.2,7 L4.2,0.466666667" id="Stroke-802"></path>
                                <polygon id="Stroke-803" points="22.4 25.6666667 25.6666667 24.2666667 25.6666667 21 22.3365333 21.9408 17.7333333 21.9333333 16.8 22.8666667 13.5333333 22.8666667 12.3452 22.8666667 9.33333333 22.8666667 8.08173333 21.9408 3.26666667 21.9333333 0.466666667 20.3102667 0.466666667 23.5769333 3.26666667 25.6666667"></polygon>
                            </g>
                        </g>
                    </g>
                </g>
            </g>
        </g>
    </g>
</svg>