<?xml version="1.0" encoding="UTF-8"?>
<svg width="27px" height="24px" viewBox="0 0 27 24" version="1.1" xmlns="http://www.w3.org/2000/svg" xmlns:xlink="http://www.w3.org/1999/xlink">
    <!-- Generator: sketchtool 55.2 (78181) - https://sketchapp.com -->
    <title>D0F32395-F4C1-45CF-9446-32A9B19B229B@2x</title>
    <desc>Created with sketchtool.</desc>
    <g id="Estrada-web" stroke="none" stroke-width="1" fill="none" fill-rule="evenodd" stroke-linecap="round" stroke-linejoin="round">
        <g id="Edit-Road-Asset-Data/Traffic/Add-traffic-data/ADT" transform="translate(-471.000000, -867.000000)" stroke="#434D5D">
            <g id="form" transform="translate(420.000000, 100.000000)">
                <g id="form/road">
                    <g id="Technical-Class-Copy-3" transform="translate(40.000000, 583.000000)">
                        <g id="icons" transform="translate(11.000000, 32.000000)">
                            <g id="Light-truck-1" transform="translate(1.000000, 152.000000)">
                                <path d="M1.25,10.5833333 L1.25,1.75969697 C1.25,1.10969697 1.73,0.583333333 2.32166667,0.583333333 L22.6783333,0.583333333 C23.27,0.583333333 23.75,1.10969697 23.75,1.75969697 L23.75,10.5833333 L1.25,10.5833333 L1.25,10.5833333 Z" id="Stroke-759"></path>
                                <path d="M23.75,9.97916667 L23.75,14.6666667" id="Stroke-761"></path>
                                <path d="M1.66666667,13 L4.58333333,13.4166667 C5.68833333,13.4166667 6.66666667,14.9525 6.66666667,16.3333333 L1.58333333,15.5" id="Stroke-768"></path>
                                <path d="M23.3333333,13.4166667 L20.4166667,13.8333333 C19.3116667,13.8333333 18.3333333,15.3691667 18.3333333,16.75 L23.4166667,15.9166667" id="Stroke-769"></path>
                                <polygon id="Stroke-770" points="15.71425 16.75 16.2500833 13.4166667 8.75008333 13.4166667 9.28591667 16.75"></polygon>
                                <path d="M2.63891667,10.0833333 C2.63891667,10.0833333 0.416416667,9.75 0.416416667,9.11416667 C0.416416667,7.07583333 2.63891667,7.66166667 2.63891667,7.66166667 L3.33308333,9.66666667 L2.63891667,10.0833333 L2.63891667,10.0833333 Z" id="Stroke-771"></path>
                                <path d="M22.3610833,10.0833333 C22.3610833,10.0833333 24.5835833,9.75 24.5835833,9.11416667 C24.5835833,7.07583333 22.3610833,7.66166667 22.3610833,7.66166667 L21.6669167,10.0833333 L22.3610833,10.0833333 L22.3610833,10.0833333 Z" id="Stroke-772"></path>
                                <path d="M19.5833333,20.0833333 L19.5833333,21.3333333 C19.5833333,22.0233333 20.1433333,22.5833333 20.8333333,22.5833333 L21.6666667,22.5833333 C22.3566667,22.5833333 22.9166667,22.0233333 22.9166667,21.3333333 L22.9166667,19.25" id="Stroke-773"></path>
                                <path d="M5.41666667,20.0833333 L5.41666667,21.3333333 C5.41666667,22.0233333 4.85666667,22.5833333 4.16666667,22.5833333 L3.33333333,22.5833333 C2.64333333,22.5833333 2.08333333,22.0233333 2.08333333,21.3333333 L2.08333333,19.25" id="Stroke-774"></path>
                                <path d="M21.6666667,10.1626667 C20.9225,7.83683333 18.8041667,4.396 17.7533333,3.906 C17.2283333,3.66183333 14.8641667,3.41683333 12.5,3.41683333 C10.1358333,3.41683333 7.77166667,3.661 7.24666667,3.906 C6.19583333,4.396 4.0775,7.83683333 3.33333333,10.1626667 C1.9325,11.4276667 1.25,12.8618333 1.25,14.6568333 C1.25,16.4518333 1.33916667,18.596 2.08333333,19.2893333 L5.67,19.5735 C5.67,19.5735 7.39583333,20.0835 12.5,20.0835 C17.9691667,20.0835 19.5833333,19.6868333 19.5833333,19.6868333 L22.9166667,19.2893333 C23.6608333,18.596 23.75,16.4518333 23.75,14.6568333 C23.75,12.8618333 23.0675,11.4276667 21.6666667,10.1626667 L21.6666667,10.1626667 Z" id="Stroke-775"></path>
                                <path d="M2.5,10.0833333 L22.5,10.0833333" id="Stroke-776"></path>
                                <path d="M1.25,14.6666667 L1.25,9.97916667" id="Stroke-758"></path>
                            </g>
                        </g>
                    </g>
                </g>
            </g>
        </g>
    </g>
</svg>