<?xml version="1.0" encoding="UTF-8"?>
<svg width="25px" height="25px" viewBox="0 0 25 25" version="1.1" xmlns="http://www.w3.org/2000/svg" xmlns:xlink="http://www.w3.org/1999/xlink">
    <!-- Generator: sketchtool 55.2 (78181) - https://sketchapp.com -->
    <title>09B3C235-5A53-486E-9BC4-A71B1128E030@2x</title>
    <desc>Created with sketchtool.</desc>
    <g id="Estrada-web" stroke="none" stroke-width="1" fill="none" fill-rule="evenodd">
        <g id="Edit-Road-Asset-Data/Traffic/Add-traffic-data/ADT" transform="translate(-473.000000, -897.000000)" stroke="#434D5D">
            <g id="form" transform="translate(420.000000, 100.000000)">
                <g id="form/road">
                    <g id="Technical-Class-Copy-3" transform="translate(40.000000, 583.000000)">
                        <g id="icons" transform="translate(11.000000, 32.000000)">
                            <g id="Light-truck-2" transform="translate(2.000000, 182.000000)">
                                <path d="M3.5,15.5 L3.5,4.022 C3.5,2.629 4.64,1.5 6.045,1.5 L18.954,1.5 C20.36,1.5 21.5,2.629 21.5,4.022 L21.5,15 L3.5,15.5 L3.5,15.5 Z" id="Stroke-857" stroke-linecap="round" stroke-linejoin="round"></path>
                                <polygon id="Stroke-861" fill="#FFFFFF" stroke-linecap="round" stroke-linejoin="round" points="5.5 17.5 19.5 17.5 19.5 12.5 5.5 12.5"></polygon>
                                <path d="M23.5,19.5 L23.5,1.49829167 C23.5,0.947291667 22.9775,0.5 22.3330833,0.5 L2.66691667,0.5 C2.0225,0.5 1.5,0.947291667 1.5,1.49829167 L1.5,19.5" id="Stroke-863" stroke-linecap="round" stroke-linejoin="round"></path>
                                <polygon id="Stroke-865" fill="#FFFFFF" stroke-linecap="round" stroke-linejoin="round" points="0.5 10.5 2.5 10.5 2.5 5.5 0.5 5.5"></polygon>
                                <polygon id="Stroke-867" fill="#FFFFFF" stroke-linecap="round" stroke-linejoin="round" points="22.5 10.5 24.5 10.5 24.5 5.5 22.5 5.5"></polygon>
                                <polyline id="Stroke-868" stroke-linecap="round" stroke-linejoin="round" points="1.5 21.5 1.5 24.5 5.5 24.5 5.5 21.5"></polyline>
                                <polyline id="Stroke-869" stroke-linecap="round" stroke-linejoin="round" points="19.5 21.5 19.5 24.5 23.5 24.5 23.5 21.5"></polyline>
                                <rect id="Rectangle" fill="#FFFFFF" x="0.5" y="19.5" width="24" height="2"></rect>
                                <path d="M23.5,17.5 C23.5,18.605 22.605,19.5 21.5,19.5 C20.395,19.5 19.5,18.605 19.5,17.5 C19.5,16.395 20.395,15.5 21.5,15.5 C22.605,15.5 23.5,16.395 23.5,17.5 L23.5,17.5 Z" id="Stroke-871"></path>
                                <path d="M5.5,6.5 L5.5,9.5 L19.5,9.5 L19.5,6.5 C19.5,5.395 18.605,4.5 17.5,4.5 L7.5,4.5 C6.395,4.5 5.5,5.395 5.5,6.5 L5.5,6.5 Z" id="Stroke-872" stroke-linecap="round" stroke-linejoin="round"></path>
                                <path d="M5.5,17.5 C5.5,18.605 4.605,19.5 3.5,19.5 C2.395,19.5 1.5,18.605 1.5,17.5 C1.5,16.395 2.395,15.5 3.5,15.5 C4.605,15.5 5.5,16.395 5.5,17.5 L5.5,17.5 Z" id="Stroke-870"></path>
                            </g>
                        </g>
                    </g>
                </g>
            </g>
        </g>
    </g>
</svg>