<?xml version="1.0" encoding="UTF-8"?>
<svg width="25px" height="25px" viewBox="0 0 25 25" version="1.1" xmlns="http://www.w3.org/2000/svg" xmlns:xlink="http://www.w3.org/1999/xlink">
    <!-- Generator: sketchtool 55.2 (78181) - https://sketchapp.com -->
    <title>07BB8F14-7DA3-4C9C-998E-F5AC5A78534B@2x</title>
    <desc>Created with sketchtool.</desc>
    <g id="Estrada-web" stroke="none" stroke-width="1" fill="none" fill-rule="evenodd">
        <g id="Edit-Road-Asset-Data/Traffic/Add-traffic-data/ADT" transform="translate(-472.000000, -803.000000)">
            <g id="form" transform="translate(420.000000, 100.000000)">
                <g id="form/road">
                    <g id="Technical-Class-Copy-3" transform="translate(40.000000, 583.000000)">
                        <g id="icons" transform="translate(11.000000, 32.000000)">
                            <g id="Mini-bus" transform="translate(2.000000, 89.000000)">
                                <path d="M11.5,18.637931 C14.0125517,18.637931 18.7687931,18.3865172 21.4502759,17.8614828 C22.0554138,17.7433103 22.6034483,18.2691379 22.6034483,18.9662759 L22.6034483,18.9757931 C22.6034483,19.5087586 22.2774828,19.9743103 21.8166897,20.0750345 C19.2240345,20.6428966 14.1315172,21.0172414 11.5,21.0172414 C8.86848276,21.0172414 3.77596552,20.6428966 1.18331034,20.0750345 C0.722517241,19.9743103 0.396551724,19.5087586 0.396551724,18.9757931 L0.396551724,18.9662759 C0.396551724,18.2691379 0.943793103,17.7433103 1.54972414,17.8614828 C4.2312069,18.3865172 8.98744828,18.637931 11.5,18.637931 L11.5,18.637931 Z" id="Stroke-56" stroke="#434D5D" stroke-linecap="round" stroke-linejoin="round"></path>
                                <path d="M5.39651379,15.0328793 C5.39651379,15.8688103 4.72475517,16.5469138 3.89675517,16.5469138 C3.06796207,16.5469138 2.39620345,15.8688103 2.39620345,15.0328793 C2.39620345,14.1969483 3.06796207,13.5188448 3.89675517,13.5188448 C4.72475517,13.5188448 5.39651379,14.1969483 5.39651379,15.0328793 L5.39651379,15.0328793 Z" id="Stroke-58" stroke="#434D5D" stroke-linecap="round" stroke-linejoin="round"></path>
                                <path d="M20.3965586,15.0328793 C20.3965586,15.8688103 19.7248,16.5469138 18.8968,16.5469138 C18.0680069,16.5469138 17.3962483,15.8688103 17.3962483,15.0328793 C17.3962483,14.1969483 18.0680069,13.5188448 18.8968,13.5188448 C19.7248,13.5188448 20.3965586,14.1969483 20.3965586,15.0328793 L20.3965586,15.0328793 Z" id="Stroke-60" stroke="#434D5D" stroke-linecap="round" stroke-linejoin="round"></path>
                                <path d="M1.40593448,17.8448276 C0.754003448,17.4815862 0.396313793,16.1555172 0.396313793,13.7397241 C0.396313793,11.3231379 1.76362414,3.96789655 2.41555517,2.44910345 C3.06748621,0.931103448 8.87141724,0.396551724 11.4997621,0.396551724" id="Stroke-62" stroke="#434D5D" stroke-linecap="round" stroke-linejoin="round"></path>
                                <path d="M21.5940655,17.8448276 C22.2459966,17.4815862 22.6036862,16.1555172 22.6036862,13.7397241 C22.6036862,11.3231379 21.2363759,3.96789655 20.5844448,2.44910345 C19.9325138,0.931103448 14.1285828,0.396551724 11.5002379,0.396551724" id="Stroke-64" stroke="#434D5D" stroke-linecap="round" stroke-linejoin="round"></path>
                                <path d="M20.896531,11.5 C20.896531,11.7791724 20.6728759,12.0044138 20.3968759,12.0044138 C20.1200828,12.0044138 19.8964276,11.7791724 19.8964276,11.5 C19.8964276,11.2208276 20.1200828,10.9955862 20.3968759,10.9955862 C20.6728759,10.9955862 20.896531,11.2208276 20.896531,11.5" id="Fill-70" fill="#000000"></path>
                                <path d="M2.89657241,11.5 C2.89657241,11.7791724 2.67291724,12.0044138 2.39691724,12.0044138 C2.12012414,12.0044138 1.89646897,11.7791724 1.89646897,11.5 C1.89646897,11.2208276 2.12012414,10.9955862 2.39691724,10.9955862 C2.67291724,10.9955862 2.89657241,11.2208276 2.89657241,11.5" id="Fill-72" fill="#000000"></path>
                                <path d="M5.37311724,2.77586207 L17.6265655,2.77586207 C18.0992552,2.77586207 18.5061172,3.09627586 18.5989103,3.5412069 L19.4308759,7.53448276 L3.5688069,7.53448276 L4.40077241,3.5412069 C4.49356552,3.09627586 4.90042759,2.77586207 5.37311724,2.77586207 L5.37311724,2.77586207 Z" id="Stroke-74" stroke="#434D5D" stroke-linecap="round" stroke-linejoin="round"></path>
                                <path d="M21.8103448,5.94827586 C21.8103448,5.94827586 23.3965517,5.85389655 23.3965517,7.46231034 C23.3965517,9.07151724 21.8103448,7.93103448 21.8103448,7.93103448" id="Stroke-76" stroke="#434D5D" stroke-linecap="round" stroke-linejoin="round"></path>
                                <path d="M1.18965517,20.2241379 L1.18965517,21.4137931 C1.18965517,22.0704828 1.72262069,22.6034483 2.37931034,22.6034483 C3.036,22.6034483 3.56896552,22.0704828 3.56896552,21.4137931 L3.56896552,20.6206897" id="Stroke-82" stroke="#434D5D" stroke-linecap="round" stroke-linejoin="round"></path>
                                <path d="M19.4310345,20.6206897 L19.4310345,21.4137931 C19.4310345,22.0704828 19.964,22.6034483 20.6206897,22.6034483 C21.2773793,22.6034483 21.8103448,22.0704828 21.8103448,21.4137931 L21.8103448,20.2241379" id="Stroke-84" stroke="#434D5D" stroke-linecap="round" stroke-linejoin="round"></path>
                            </g>
                        </g>
                    </g>
                </g>
            </g>
        </g>
    </g>
</svg>