<?xml version="1.0" encoding="UTF-8"?>
<svg width="24px" height="18px" viewBox="0 0 24 18" version="1.1" xmlns="http://www.w3.org/2000/svg" xmlns:xlink="http://www.w3.org/1999/xlink">
    <!-- Generator: sketchtool 55.2 (78181) - https://sketchapp.com -->
    <title>79051B22-D9E1-4273-9B8E-BAF1D3EEA34C@2x</title>
    <desc>Created with sketchtool.</desc>
    <g id="Estrada-web" stroke="none" stroke-width="1" fill="none" fill-rule="evenodd" stroke-linecap="round" stroke-linejoin="round">
        <g id="Edit-Road-Asset-Data/Traffic/Add-traffic-data/ADT" transform="translate(-473.000000, -714.000000)" stroke="#5C6472">
            <g id="form" transform="translate(420.000000, 100.000000)">
                <g id="form/road">
                    <g id="Technical-Class-Copy-3" transform="translate(40.000000, 583.000000)">
                        <g id="icons" transform="translate(11.000000, 32.000000)">
                            <g id="Motocicle" transform="translate(2.000000, 0.000000)">
                                <path d="M6.5,13.5 C6.5,14.052 6.052,14.5 5.5,14.5 C4.948,14.5 4.5,14.052 4.5,13.5 C4.5,12.948 4.948,12.5 5.5,12.5 C6.052,12.5 6.5,12.948 6.5,13.5 L6.5,13.5 Z" id="Stroke-659"></path>
                                <path d="M17.5,13.5 C17.5,11.843 18.843,10.5 20.5,10.5 C22.157,10.5 23.5,11.843 23.5,13.5 C23.5,15.157 22.157,16.5 20.5,16.5 C18.843,16.5 17.5,15.157 17.5,13.5 L17.5,13.5 Z" id="Stroke-661"></path>
                                <path d="M21.5,13.5 C21.5,14.052 21.052,14.5 20.5,14.5 C19.948,14.5 19.5,14.052 19.5,13.5 C19.5,12.948 19.948,12.5 20.5,12.5 C21.052,12.5 21.5,12.948 21.5,13.5 L21.5,13.5 Z" id="Stroke-663"></path>
                                <path d="M13.5,12.5 L1.5,12.5 C0.948,12.5 0.5,12.052 0.5,11.5 L0.5,11.5 C0.5,10.617 0.781,9.749 1.338,9.064 C1.964,8.293 2.979,7.5 4.5,7.5" id="Stroke-665"></path>
                                <path d="M10.5,7.5 L3.5,7.5 C2.948,7.5 2.5,7.052 2.5,6.5 C2.5,5.948 2.948,5.5 3.5,5.5 L10.5,5.5 C11.052,5.5 11.5,5.948 11.5,6.5 C11.5,7.052 11.052,7.5 10.5,7.5 L10.5,7.5 Z" id="Stroke-667"></path>
                                <path d="M9.5,12.5 C9.5,12.5 9.865,8.135 10.5,7.5" id="Stroke-669"></path>
                                <path d="M13,12.5 L15.5,6.5 L13.865,1.593 C13.668,1.004 14.015,0.371 14.618,0.22 C15.126,0.093 15.652,0.354 15.858,0.836 L18.5,7 C18.5,7 19.042,8.5 20.5,8.5 C21.958,8.5 23.5,9.417 23.5,10 C23.5,10.583 20.5,10.5 20.5,10.5" id="Stroke-671"></path>
                                <path d="M15.5,6.5 L16.397,7.621 C16.969,8.336 16.99,9.351 16.429,10.075 C16.203,10.366 15.982,10.709 15.812,11.093 C15.52,11.754 16.008,12.5 16.731,12.5 L17.5,12.5" id="Stroke-673"></path>
                                <path d="M18.5,0.5 L18,2.5 L17.113,2.5 C16.747,2.5 16.422,2.266 16.306,1.919 L16.304,1.914 C16.143,1.428 16.443,0.911 16.944,0.811 L18.5,0.5 L18.5,0.5 Z" id="Stroke-675"></path>
                                <path d="M15,2 L12.5,3.5" id="Stroke-677"></path>
                                <path d="M2.6837,12.5 C2.5717,12.814 2.4997,13.147 2.4997,13.5 C2.4997,15.157 3.8427,16.5 5.4997,16.5 C7.1567,16.5 8.4997,15.157 8.4997,13.5 C8.4997,13.147 8.4277,12.814 8.3167,12.5 L2.6837,12.5 L2.6837,12.5 Z" id="Stroke-679"></path>
                            </g>
                        </g>
                    </g>
                </g>
            </g>
        </g>
    </g>
</svg>