<svg xmlns="http://www.w3.org/2000/svg" xmlns:xlink="http://www.w3.org/1999/xlink" width="567" height="269"><style><![CDATA[.B{fill:#3d4758}.C{fill:#fff}.D{fill:#e5f4f4}.E{fill:#4c5665}]]></style><defs><path id="A" d="M.2.4h29.7v29.3H.2z"/><path id="B" d="M.3.2h33.3v5.4H.3z"/><path id="C" d="M.1.1h10.2v3.2H.1z"/><path id="D" d="M.1.1h3v9.7h-3z"/><path id="E" d="M.3.4h37.3v86H.3z"/><path id="F" d="M.3.3h10v63.5H.3z"/><path id="G" d="M.4.3h4.2v30.6H.4z"/><path id="H" d="M.1.1h2v11.2h-2z"/><path id="I" d="M.5.2h1.8V5H.5z"/><path id="J" d="M0 .1h150v90H0z"/></defs><g transform="translate(1)" fill="none" fill-rule="evenodd"><path d="M91.2 213.8C54.7 203.6 28 170.2 28 130.5 28 82.7 66.7 44 114.5 44c2.2 0-22.6 3-24.5 4-3.4 1.8-12.6 6.6-11 9 .6.8 11 0 41-7-6 3-37 20-34 31 2 7 41-20 44-21 0 1-1.7 4.4 1 7 1 .8 2.4.8 4 .5l.2-1c.6-2.4 7-.1 7.7-2.4 1-3-4.2-6-3-9 7 0 47 1 48-6s-26-11-45-8c1-2.6 40-11 39-17s-32.6 6.7-31.4 5.4c1.7-1.8 2.3-3.7 4.4-5.4 16.6-13.8 45.2-24 64.5-24a86 86 0 0 1 55.6 20.2A107 107 0 0 1 333.5 3c37 0 69.4 18.5 88.7 46.8 30 19 49.8 52.6 49.8 90.7C472 200 424 248 364.5 248a107 107 0 0 1-62.8-20.3c-9.3 24-32.8 41.3-60.2 41.3-22 0-41.7-11.2-53.3-28.2a64 64 0 0 1-37.7 12.2c-26.6 0-49.5-16-59.3-39.2z" class="D"/><g stroke="#3d4758"><path d="M148 135c-4 0-11 8-11 8s3 13-26 20c-19.3 4.7-56.3 8-111 10" stroke-width="2"/><path d="M137 145H0m48.7 9h-21m52.3 4H68.6m22 0h-5.8"/></g><g transform="translate(76 1)"><path d="M88 227.5l-.4.5c-.2-.2-.6-.4-.6-.7l-1-7.5c0-.3.2-.5.4-.8.2.2.5.4.6.6l.4 2.7c.2 1.7.4 3.3.6 5.2" class="B"/><g transform="translate(332 152)"><mask id="K" class="C"><use xlink:href="#A"/></mask><path d="M12.8 11.3c1-1.3 2-2.6 3.3-3.7C17.8 6 19.8 6 22 6.6c1 .3 1.5 1.2 1.5 2-.1 1.6-.3 3.2-.8 4.6-1.2 3-2.6 5.8-4 8.8-.2.5-.4 1-.5 1.7l6.3-6.3c.6-.6 1.5-1 2.3-1.2 2-.6 3.3.5 3 2.5-.1 1-.4 2-.7 3l-1.4 4c-.2.5-.3 1-.4 1.5-.1 1 0 1.3 1.5 1-.3.6-.4 1.2-.7 1.3-.7.3-1.5.1-1.8-.6-.3-.7-.4-1.6-.2-2.4l1.4-4.3c.3-1 .7-2 1-3 .3-1.6-.5-2.3-2-1.6-1 .5-2 1.2-2.8 2-1.7 1.7-3.2 3.4-5 5.2-.4.4-.8 1-1.3 1.2-.3.2-.8.2-1 .1-.2-.1-.4-.6-.4-1 0-.5.2-1 .4-1.5l4-8.6 1.7-5c.4-2-.3-3-2.8-2.6-2.4.3-3.8 2-4.8 4-1 1.7-1.2 3.6-1.8 5.4-.1.3 0 .6-.2.8-.1.2-.4.5-.6.5-.2-.1-.6-.3-.6-.6-.1-.4 0-1 0-1.4.4-4 .1-8-.7-12-.1-.5-.2-1-.5-1.5-.2-.3-.5-.6-.8-1-.3.3-.7.5-.8.8C8 4.3 7.5 6 7 8c-.6 3.3-.2 6.5.3 9.8 0 .3.2.6.1.8-.1.3-.3.6-.4 1-.3-.2-.7-.3-1-.6-.4-1-.7-2-1-3l-1.6-4c-.2-.4-.7-.8-1-1-.3.5-.8 1-.8 1.4l-.1 6.2c.1 1.6.7 3.2 1 4.8.1.3-.2.6-.3 1-.3-.2-.8-.3-1-.5a24 24 0 0 1-.9-11.9c.1-.3.2-.6.3-1C1.7 9 3 9 4 10.2c.6.7 1 1.6 1.6 2.6v-1.3l1-7.8C7 3 7.5 2 8 1.3 9 0 10.5.1 11 1.6c.6 1.7 1 3.5 1.3 5.3.3 1.5.3 3 .5 4.4" mask="url(#K)" class="B"/></g><g transform="translate(118 22)"><path d="M172.8 123a348 348 0 0 0-44.3 1.7L97 128.5a168 168 0 0 0-39.1 9.8c-5.4 2.2-10 5.8-13.5 10.4-1 1-1.4 2.8-1.4 4.2 0 3.4 1 6.7 2.7 9.7 3.8 6 9.3 10.3 15 14.5a111 111 0 0 0 28 14.1c10.6 4 21 8.7 32.2 11.5 10.5 2.7 21 5.5 31.6 8l40.6 9c4 1 8.3 1 12.5 1.6 1 .1 1.7.2 2.5.5.4.1.7.6 1 1-.5.2-1 .7-1.4.7-.7 0-1.4-.3-2-.3-12.7-1-25-4-37.5-7L109 201l-31.5-12.2A88 88 0 0 1 49.4 170c-4.8-4.5-8-10-8.2-17 0-2.5.8-4.4 2.3-6.2 5.3-6 12-10 19.5-12.3 14.6-4.7 29.5-7.4 44.6-9.3l57.5-4 37.8.6c.6 0 1 .5 1.7.8-.5.3-1 .8-1.6.8l-30.2-.3" class="B"/><path d="M204.8 129.2c.4 0 1 0 1.2.2.4.2.6.7 1 1-.4.2-.8.6-1.2.6l-25.5-.3c-10 .5-20.2 1.8-30.2 3l-13.6 2.6c-1.4.3-2.6 1.2-4 1.5-3.5.8-3.7 5.2-1 7.2 3.5 2.7 7.2 4.5 11.4 5.5l74.7 11.8c.5.1 1 .7 1.5 1-.5.2-1 .6-1.6.6l-56.4-7.8c-7.3-1.3-14.5-3-21.6-4.8a22 22 0 0 1-9.6-5.7c-3-2.8-2.5-7.3 1.2-9 4.8-2.4 9.8-3.5 15-4l30.4-3.4c4.2-.4 8.5-.1 12.7-.1v-.5l16 .6z" fill="#353f4e"/><path d="M96.2 124.6c-1 0-1.8-.1-2.8 0-2.5.3-4.5-.6-6.6-2-1.4-1-3.3-1-5-1.6-2.6-1-5-1.5-7.6-.1-.8.4-1.7.8-2.4 1.3-1.5 1-2.8.7-4-.5-4.7-4.8-9.7-4-14.2-1.7-2.2 1.2-4.4 2.3-6.6 3.5-2.3 1.3-4.4.4-6.5-.7l-11.2-5.6a2 2 0 0 0-1.3-.1l-26.3 9c-.5.2-1-.3-1.7-.5.4-.4.8-1 1.3-1l16.7-6.2 10-2.7c.8-.2 1.8.1 2.6.5l11.2 5.7c1.5.8 3 1 4.6.3 3.5-1.8 7-3.6 10.5-5 4.3-1.6 8.2-.2 11.6 3 1 1 1.8 1.3 3.2.5 1.4-1 3-1.6 4.6-2 1.3-.3 2.7 0 4 .2 1.2.2 2.4.6 3.5 1l5 2c1 .4 2.3 1 3.4 1 3.3.2 6.5.1 9.8.3.5 0 1 .6 1.5.8-.5.3-1 1-1.5 1h-5.7v-.1zM152.7 42c8.3.6 14.5-6.8 15-13 .3-3.7.2-7.4-3.3-9.6-5.2-3.3-11-5-17.2-4-4.7 1-9.4 2.6-10.7 8.4l-.7 4c-.8 6.4 3.6 11.8 8.8 13 2.7.6 5.4.8 8 1.2m-.1 1.8c-3.4-.6-7-.6-10-2-5.7-2.4-9-7.6-8.4-14.4.2-1.5.4-3 1-4.4.8-2.2 1.4-4.5 3.5-5.8 3.8-2.3 7.8-4.2 12.4-4a28 28 0 0 1 14.4 4.5c2.5 1.7 4 4.2 4 7 .6 6.6-1.8 12-7 16-2.5 2-5 2.6-9.8 3M196 58v-.3c-1 .3-2.3.4-2.6 1-.6 1-1 2.7-.5 4 .3.8 2 1.6 3 1.5 2-.2 3.7-1 5.5-1.5 1.5-.5 2.8-.4 4 .7a3 3 0 0 0 4.3.5c1.8-1 3.6-1.7 5.7-.3 1.3 1 3 .7 4.2-.2 1.2-.8 1.3-2.2 1-3.5-.5-2.5-3.2-3.8-5.6-2.6-2.4 1.3-4.7 2-7-.1-1-.7-2-.8-3 .1-1 .7-2.3 1-3.5 1-1.7.1-3.4-.2-5-.3m-.3-1.7l4.2.3c1.6.1 3-.2 4.4-1.4 1.3-1.3 3-.6 4.2.4 1.8 1.5 3.4 1 5.2.1 1.6-1 3.3-1 5-.5 3 1 4.3 4.8 3 7.6-1.2 2.6-5 3.7-7.5 2-1.4-1-2.5-.6-3.8.1-2.6 1.6-4 1.4-6.5-.5-.5-.4-1.6-.4-2.3-.3l-6.2 1.4c-1.8.2-3.7-.7-4.3-2.4-.7-2-.6-4.2 1-5.8.8-1 2.3-1 3.5-1.6l.2.4m-94.4 149l-1 5.5c-.1.4 0 1-.1 1.2-.3.8-.7 1.7-1 2.5-.8-.4-1.6-.7-2.3-1.3l-6-5 .6 3.8c.1.7.5 1.5.5 2.2 0 .3-.4.7-.6 1-.3-.2-1-.4-1-.6-.4-2.6-1-5.3-1-8-.1-1.3 1-1.4 2-.8s1.8 1.4 2.7 2.2c1.4 1.3 2.7 2.6 4.3 4.2l1.3-6.2c.1-.7.3-1.4.6-2 .4-.7 1-1.4 1.4-2 .6.6 1.3 1 1.6 2l2 5.8.8 3.3 3.7-4.7c.4-.5 1.2-.7 1.8-1 .1.7.4 1.4.4 2 0 1-.2 2.2-.4 3.3-.1.5-.6 1-1 1.4l-.7-1.4c-.1-.4 0-.8-.4-1.3-.8 1.2-1.5 2.4-2.3 3.5-.4.5-1 .8-1.4 1.2-.3-.5-.8-1-1-1.5-.8-2.6-1.5-5.3-2.2-8-.1-.4-.3-.8-.5-1.3h-.5m79.3-20.6l-13-2.4a166 166 0 0 1-26.4-6.6c-1.2-.4-2.5-.5-3.7-1-.4-.1-.7-.6-1-.8.5-.3 1-1 1.5-.8 2.3.5 4.5 1.2 6.8 1.8l36 8c.4.1.8.6 1.2 1l-1 .7" class="B"/><g transform="translate(205.1 186.3)"><mask id="L" class="C"><use xlink:href="#B"/></mask><path d="M32.3 5.5L2.7 2c-.5-.1-1 0-1.3-.2C1 1.5.7 1 .3.6.8.5 1.3.1 1.7.2 3.5.4 5.3.7 7 1l24.8 3c.6.1 1 .6 1.7 1l-1.3.8" mask="url(#L)" class="B"/></g><path d="M185 139.8l1.8-3.2c.2-.4.8-.7 1.2-.7.2 0 .6.6.7 1l1 4c2.6-2 3.2-1.7 3.7 1.5l.4 3c0 .4-.4 1-.6 1.3-.3-.4-.8-.7-1-1-.3-1-.4-2.3-.5-3.4-.2-.2-.4-.3-.6-.5-.2.4-.2 1-.5 1.2-.5.4-1 .7-1.6 1-.3-.6-.8-1.2-1-1.8-.2-.8-.2-1.7-.3-2.6l-.4-.1-1 2.6c-.2.4-.5 1-1 1-.4 0-1-.4-1-.8-.4-.6-.7-1.2-1.5-2l-.4 2.5c-.1.4-.5.7-.8 1-.3-.4-.8-.8-.7-1 .3-1.5.5-3 1-4.3.4-1 1.4-1 2-.1.3.4.6 1 1 1.6m-71 25.7c-1.6 1.6-2.8.4-4-.3-4.8-3-7.8-7.6-10-12.8-.4-1-.4-2-.6-3.2 1.2-.4 1.6-.3 2 .8a23 23 0 0 0 1.8 5 23 23 0 0 0 10.5 10.2c.1 0 .1.2.3.4M110.6 43l-.8-.8c.3-.4.6-1 1-1l15.5-4c.4-.1 1 .3 1.4.5-.3.4-.6 1-1 1.2l-16 4m34.3 7.3c.1.6.4 1.3.2 2l-4 9.4c-.6 1.3-1 2.7-1.5 4-.2.5-.8.8-1.3 1-.1-.5-.5-1.2-.3-1.6l5.6-13.8c.2-.4.4-.7.7-1h.7m34-20.7h-3c-.6-.1-1-.6-1.7-1 .5-.3 1-.8 1.5-1 3.3-.2 6.6-.3 10-.4 1 0 2-.3 2.8-.2.4 0 .7.6 1 1-.3.3-.6.8-1 .8-3.2.3-6.4.5-9.6.8v-.1M121 131s-.3-.2-.6-.5c.3-.4.5-1 1-1a62 62 0 0 1 4.6-1l8-1c.4 0 .8.4 1.2.6-.3.3-.5 1-1 1l-13 1.7M114.6 8.2c1.2.5 2.2.8 3.2 1.3l8 4.5c.4.2.6 1 .8 1.4-.6 0-1.2.3-1.7.1-2.5-1.3-5-2.7-7.4-4-1-.6-2.2-1-3.3-1.6-.3-.2-.6-.7-.6-1 0-.2.5-.4.8-.6m0 125L109 135c-2.4.7-4.2 2.3-5.7 4.3-.4.5-1 .7-1.7 1-.1-2.4 1.4-4 3-4.8 2.6-1.5 5.5-2.4 8.3-3.5.4-.2 1 .4 1.7.7l-.2.6M60.4 72c1.5-1 2.7-2.2 4-3 .4-.3 1.2 0 1.8 0-.3.5-.5 1-1 1.5-1 1-2.2 1.8-3.2 2.7-1.8 1.6-2.8 1.4-3.5-1-.3-1.3-.8-2.5-1.2-3.8-.1-.5 0-1-.1-1.6.6.3 1.3.4 1.6.8.4.6.5 1.4.7 2.2L60 72M43.5 82l3-3.8c.4-.4 1.3-.4 2-.7-.2.6-.3 1.2-.6 1.7-1 1.6-2.2 3-3.2 4.8-.7 1.2-1.4 1.3-2.2.1l-2-3.8c-.2-.3.1-1 .2-1.4.4.2 1 .2 1.2.5.6.7 1 1.6 1.6 2.6M172 40.4l.6.2 10.3 4c.5.2.8 1 1.2 1.3-.6.1-1.2.5-1.7.3l-10-3.6c-.4-.1-.8-.4-1-.7-.2-.2-.2-.6-.1-.8.1-.3.5-.4.7-.6" class="B"/><g transform="translate(211.5 221.7)"><mask id="M" class="C"><use xlink:href="#C"/></mask><path d="M9.2 3.3L1.2 2C.8 2 .5 1.4.1 1c.4-.3.8-1 1-1l8.2 1c.3.1.6.8.8 1.2l-1 .8" mask="url(#M)" class="B"/></g><path d="M138.3 126h9.2c.4 0 .7.4 1 .6-.3.3-.6.8-1 .8l-8.2.2c-.5 0-1-.7-1.5-1l.2-.6" class="B"/><g transform="translate(159.9)"><mask id="N" class="C"><use xlink:href="#D"/></mask><path d="M3 1L1.6 9c-.1.3-.6.5-1 .8-.2-.4-.6-.8-.6-1l1.4-8c.1-.3.7-.7 1-.6.3.1.5.6.6.8" fill="#000" mask="url(#N)"/></g><path d="M75.2 78c1-.5 2-1 2.8-1.3.3-.1.7.2 1 .4-.1.3-.2.8-.4 1-1 .7-2 1.5-3 2-.5.2-1.3-.3-2-.6-.2-.1-.2-.5-.3-.8-.3-.6-1.3-1-.3-1.7.3-.2 1.2.6 2 1 .1.1.2.1.2.2m86.6-19.7c-.6-.8-1-1.2-1.2-1.6l-1.5-4.3c-.1-.4.3-1 .4-1.5.4.3 1 .5 1 1l1.7 4.6c.1.4-.2 1-.5 2m-7.7 66.6l1.7.8-1.7.7c-.2.1-.5.1-.7.1l-1.7-.7c.5-.2 1-.5 1.5-.7.2-.1.5 0 .7 0v-.2" class="B"/><path d="M152.7 42l-8-1.2a12 12 0 0 1-8.8-13.1l.7-4c1.3-5.8 6-7.5 10.8-8.4 6-1.3 12 .6 17.2 4 3.5 2.2 3.7 6 3.3 9.7a15 15 0 0 1-15.2 13m43 16.5l5.2.3c1.2-.1 2.6-.4 3.5-1.2 1.2-1 2.2-1 3-.2 2.5 2 4.8 1.4 7.2.1s5 .1 5.6 2.7c.3 1.4.2 2.8-1 3.7-1.3 1-3 1.2-4.3.2-2-1.5-4-1-5.8.3-1.7 1-2.8 1-4.3-.5-1.2-1-2.5-1.2-4-.7-1.8.6-3.7 1.4-5.6 1.5-1 .1-2.7-.7-3-1.5-.4-1.2 0-2.8.5-4 .3-.6 1.8-.7 2.7-1l.1.3" class="C"/></g><path d="M162.2 69l-.2-.1c.1-.4.2-.8.2-1.2 0-.3-.2-.7-.3-1-.3.2-.7.3-.8.6-.7 2.7-2 5.2-2 8 0 2-.1 3.8 0 5.6.1 1.3.1 2.4-1.4 2.7-.2.1-.3.6-.5 1 .4.1.7.2 1 .2 1-.1 2-.6 2.8-.4 1 .2 2 1 3 1.3.3.1.7.1 1 .1-.2-.4-.3-.8-.5-1-.1-.1-.3-.2-.4-.3-.7-.3-.8-.8-.6-1.5l.7-3.7c.3-2 .6-4.2.6-6.3 0-1.2-.5-2.5.4-3.6.1-.1-.1-.6-.2-.8-.3.1-.6.1-.8.3-.2.2-.4.5-.5.8l-.3-.2c.2-.4.4-.8.6-1.2.1-.4.1-1 .1-1.3-.4.2-1 .4-1.2.7-.4.4-.6 1-1 1.5M151 80.6l-.3-1-2.2-7.4c-.1-.4-.6-.6-1-1-.3.3-.6.6-.8 1l-1.3 4.5c-.3 1-.8 1.6-1.8 1.8l-3 .8c-1.6.7-2.8.4-4-1-.1-.1-.2-.2-.4-.3l-2.6-2c-.3-.2-.8-.2-1 0-.2.1-.2.6-.2 1 0 .4.2.8.2 1l1.3 6c-1.3 0-2.5 0-3.7 0-.3 0-.5.4-.8.6.3.2.5.6.8.6 1 .1 2.2.1 3.3.2.3 0 .6.4.8.5-.2.2-.4.5-.7.6l-3.3 1c-.2.1-.3.6-.5 1 .3.1.7.3 1 .2l3-1c.3-.1.7.2 1 .2-.1.3-.2.8-.5 1-1 .6-2 1.2-2.8 1.8-.5.3-1.4.5-1 1.3.5.8 1 0 1.6-.3l3-2c.2.6.2 1 .4 1.4.4 1 .2 1.5-.7 2-.5.3-1 .8-1.2 1.3-.1.2 0 .6 0 .8.3 0 .6 0 .8-.1.2-.1.3-.3.4-.4 2.6-2.5 5-2.5 8-.8 1 .5 1.3.5 1.7-.4a9 9 0 0 1 .5-.8c1.3-1.8 2.3-2 4-.7.1.1.3.2.4.3.7.5 1 .3 1.3-.5.4-1.7.8-2 2.4-2 .3 0 .7-.3 1-.5-.3-.2-.7-.6-1-.7-.7 0-1.5.1-2.2.2 0-.8-.1-1.7.1-2.4.1-.2 1-.1 1.6-.3.3-.1.5-.4.7-.6-.2-.2-.4-.5-.6-.5-.4-.1-1 0-1.3-.1-.2 0-.4-.3-.6-.4.2-.2.3-.5.5-.6l2-1c.5-.3 1.6-.3 1.3-1-.3-1-1-.2-1.7 0l-2.5 1c.1-.8 0-1.4.3-1.7 1-1 2-1.6 3-2.5.3-.2.3-.7.5-1-.4 0-.8-.1-1 .1l-2.7 2.2M76.7 92c.3-8.4 4-13.7 10.4-16.8 4-2 8-1.4 11.7 1 1.2.7 2.4 1.6 3.7 2.3 2.4 1.4 4 1 5.6-1.3l2-2.5c2.7-3 6.2-3.6 9.6-1.3.2.2.7.3.8.2.2-.2.4-.7.4-1 0-2.4.5-4.5 2-6.4 2-2.5 4.5-4 7.6-3.7 4 .2 7.6 1.5 10 5 .6 1 1 2 1.6 2.8.2.3.6.5.8.8.2-.3.5-.6.6-1 .7-2 2.2-3.7 3.6-5.4 3-3.6 7-5.3 11.5-5.3 5.3 0 10 4 11 9.3l.5 3c.1.4.3 1 .6 1 .4.1 1-.2 1.2-.5 3.4-3 7.3-4.2 11.7-3 1 .3 1.8.8 2.7 1.3.7.4 1 .3 1.4-.6 2.4-7 9.4-12 16.5-11.6 5.4.2 10 4.6 10 9.8 0 1.3-.6 2.5-.8 3.8-.1.4 0 1 0 1.4.4-.1 1 0 1.2-.2C220 69.7 228.2 72 232 78c1.8 2.8 3.4 5.7 3.7 9.2a15 15 0 0 1-9.7 15.8c-2.5 1-5 1.2-7.7 1.2-1.4 0-1.4.1-1.5 1.5a25 25 0 0 1-1.7 8.4c-1.7 4.4-7.4 7-11.8 5.3-2.2-1-4.2-2.2-6.3-3.3-.2-.1-.4-.3-.7-.5-1-.7-1.5-.5-1.7.8-.2 1.2-.4 2.3-.7 3.4-1.3 5-5 7.7-9.7 9-1.8.5-3.6.6-5.5.7-1 .1-1.7.5-2.3 1.4-2.8 4.8-7 7.6-12.3 8.8-9.7 2.2-17.7-5.7-19-13.7-.3-1.7-.1-3.6.1-5.4.2-2.4-.3-3.2-2.7-3.6-3.6-.5-6.7 1-10 2.2l-8.5 3c-2 .4-4 .2-6-.1-2.3-.4-3.4-2.5-4-4.7-.5-2.2.1-4.3.5-6.4.3-1.6 1-3.2 1.2-4.8.5-3-1-5-4-5.2-2.5-.2-4.8.5-7 1.6l-5.5 3c-3.6 2.2-7.3 2.3-11.3 1.4-3-.7-5.8-2-8-4.4-1-1-1.7-2-2-3.3-.8-2.5-1.2-5-1.6-6.8" class="C"/><path d="M74.5 205.3c0 .3-.1.7 0 1 .1.3.4.6.6 1 .2-.3.5-.6.5-1 .1-.6 0-1.3-.1-2-.1-.3-.4-.6-.6-1-.2.4-.4.7-.5 1-.1.2 0 .4.1.8m5-2l-.6-1c-.2.3-.5.6-.7 1-.2.6-.3 1.2-.3 1.8 0 .3.2.6.3 1 .3-.2.7-.4.8-.6.2-.6.3-1.3.5-2.2m79-9.7l-1.2-8.2c-.1-.2-.4-.4-.7-.6-.2.3-.4.6-.4.8 0 .7.2 1.4.3 2l1 5.8c0 .3.5.5.7.7l.4-.6m-76.5-24.4c-1 0-2 0-3 0-.3 0-.7.3-1 .5.3.2.6.6 1 .6l7.2-.1c1-.1 2-.5 3.2-1 .3-.1.5-.6.7-1-.4-.1-.8-.3-1-.2-2.3.8-4.6 1.2-7 1m29.5 22.8c1 1.3 1 2.6 1 3.8 0 1 0 2.2 0 3.2 0 .3.3.8.4.8.3 0 .7-.2 1-.5.2-.2.2-.6.4-.8l2-3.7c.3-.5.7-1 1-1.3l.4.1c0 1 .2 2.2 0 3.2-.2 1.6-.7 3.2-1 4.8-.1.4.2 1 .3 1.4.4-.2 1-.3 1.3-.6l2.4-3c.5-.6 1-1 1.7-1.7l.3.2c0 .6.1 1.2 0 1.8-.1.6-.3 1-.4 1.7 0 .3.1.8.2 1 .3.1.7.1 1-.1.5-.4 1-.8 1.2-1.3.1-.2-.1-.7-.2-1-.1-.3-.4-.5-.4-.8-.1-1 .1-2-1-2.4-1-.4-1.7.4-2.4 1l-2.3 2.7c.2-1 .4-1.5.5-2.2.1-1.5.2-3 0-4.6-.2-1.4-1.4-1.7-2.4-.8-.5.5-1 1.2-1.4 1.8-.3.5-.6 1-1 1.5-.3-1.2-.4-2.4-.7-3.5-.2-.8-.6-1.6-1.5-1.6-1-.1-1.5.6-2 1.4-1.2 2.3-1.4 4.8-1 7.3.1.4.6.6 1 1 .1-.4.3-.8.3-1.2-.3-2-.2-3.8.4-5.6.2-.6.6-1 1-2m-2.4-59.4l-.3.1-2-2.5c-.2-.2-.5-.2-.8-.3-.1.3-.3.6-.3.8 0 .3.2.6.4.8l1.4 1.8c.6.8 1 1.7 1 2.8l-.8 6.3c0 .4.2 1 .4 1.3l.8-1.2c.1-.1 0-.2 0-.3L111 130c.2-1.7.3-1.7 2-2 .5-.1 1.5.2 1.4-.8 0-.2-1-.4-1.6-.4-3.6.4-4 .1-5-3.5-.2-.8-.7-1-1.4-.4-.5.4-1 1-1.4 1.2l-4.6 2.5c-3.5 1.2-7.6-1.3-8.6-5-1-4 .6-8 4-10 .2-.1.3-.5.4-.7-.3-.1-.6-.4-.8-.4-.8.4-1.6.7-2.2 1.3-2.6 2.5-3 5.7-3 9 .1 3.7 5.2 8.8 10 7 1.8-.7 3.4-1.8 5-2.7.3-.2.6-.5 1-.8.5 1.8 1.3 3.2 3 3.7.1 0 .2.4.2.5l-.7 4m-25.8 56.6l.4-.2 2.6 4.7c.2.3.6.6 1 .8.2-.4.5-.8.5-1.2l-.1-6c0-1 .3-2 .5-3.2.1-.3.4-.7.6-.7s.6.3.7.6c.5 1.3 1 2.7 1.3 4 .3 1.7.3 3.5.5 5.2.1.5.5 1 .8 1.4.3-.4.8-.7 1-1 .4-1 .5-2 1-2.7.6-1.2 1.3-2.3 2.2-3.3.7-.8 1.5-.6 1.6.5.2 1.3.3 2.6.1 3.8-.3 2-1 4.2-1.3 6.4-.1.4.2.8.4 1.3.3-.2.8-.4 1-.7.7-1 1.2-2.4 2-3.4 2-2.8 4-5.5 6-8.3.2-.3.1-.8.2-1.2-.4.1-.8.1-1 .3a14 14 0 0 0-1.5 1.8l-4.8 6.6.2-1.4c0-1.8.2-3.6 0-5.4-.3-2.2-2-2.8-3.6-1.2-1 1-1.7 2.3-2.5 3.5-.2.3-.3.7-.5 1-.1-.2-.2-.2-.2-.3l-.1-1c-.3-2.4-.6-4.7-2-6.8-1-1.5-2.6-1.4-3.2.4-.5 1.3-.6 2.8-.8 4.2-.1 1 0 2 0 3-.7-.6-1.2-1.4-1.7-2-.5-.6-1-1.5-2-1-1 .4-.7 1.3-.6 2 .4 1.8.8 3.7 1.3 5.5.1.5.3 1.5 1 1.2 1-.4.2-1 0-1.6-.6-1.7-1-3.5-1.3-5.3M67.3 226c-.1-1.4-.2-3-.4-4.4a31 31 0 0 0-1.3-5.3c-.5-1.5-2-1.6-3-.3-.5.7-1 1.6-1.2 2.4l-1 7.8c0 .3 0 .7 0 1.3l-1.5-2.6c-1-1.3-2.3-1-3 .4-.1.3-.2.6-.3 1-1 4-.1 8 1 11.8.1.2.5.4.8.5.1-.3.4-.7.3-1l-1-4.7.1-6c0-.5.5-1 .8-1.4.3.4.8.7 1 1l1.5 4c.4 1 .6 2 1 3 .1.3.5.4.8.6.1-.3.3-.6.4-1 0-.3-.1-.5-.1-.8-.4-3.2-.8-6.5-.2-9.7.3-1.8 1-3.6 1.5-5.4.1-.3.5-.5.8-.8.3.3.6.6.8 1 .2.5.4 1 .4 1.5a42 42 0 0 1 .7 11.9c0 .5-.1 1 0 1.4 0 .2.4.5.6.6.2 0 .5-.3.6-.5.1-.2.1-.6.2-.8.6-1.8 1-3.7 1.8-5.3 1-2 2.4-3.6 4.7-4 2.5-.3 3 .7 2.7 2.6a27 27 0 0 1-1.6 4.9L71 238c-.2.5-.4 1-.4 1.5 0 .3.1.8.4 1 .3.1.8.1 1-.1.5-.3 1-.8 1.3-1.2l4.7-5c.8-.8 1.8-1.5 2.7-2 1.4-.7 2.2 0 2 1.6l-1 3-1.4 4.3c-.2.7-.1 1.6.2 2.3.3.7 1 1 1.7.6.3-.1.4-.8.7-1.3-1.4.2-1.6.1-1.5-1 .1-.5.2-1 .4-1.5l1.3-4c.3-1 .6-2 .6-3 .1-2-1.2-3-3-2.4a6 6 0 0 0-2.2 1.2l-5.4 5.4-.7.8c0-.6.2-1.2.5-1.6 1.3-3 2.7-5.7 4-8.7.6-1.4.7-3 .8-4.6.1-1-.4-1.8-1.4-2-2-.7-4-.5-5.6 1-1 1-2 2.4-3.2 3.6" class="D"/><path d="M159.5 152.3v.1c1.2-.2 2.4-.3 3.5-.6a20 20 0 0 0 7-2.8c.5-.3.8-.7.3-1.2-.2-.2-.7-.1-1-.1-.2 0-.5.3-.7.4-1.8 1.3-3.8 2-6 2.5l-4.2.6c-.3 0-.5.3-.8.5.3.2.5.4.8.5.4.1.7 0 1 0h0zm-94.2-60l2.8 11c.2.8.5 1 1.3 1l9.5-1.5c-3.4-3.5-4-7.8-3.8-12.3l-9.8 2zm-8.5-25l3.6 10c.2.7.7.6 1.2.5L69 76c.6-.1 1-.4 1.8-.7l-4-10.6c-.1-.2-.5-.3-.7-.3l-9.2 3zm26.4 47v-.5l-2.7-9.2c-.2-.7-.7-.8-1.3-.7l-10.7 1.7 2 10c.1.7.7.6 1 .5l11.5-2zm-22-35.3l3.4 10.6c.4 1.4.4 1.4 2 1.2l7.3-1.5c1.5-.3 2-1.2 1.6-2.7-.1-.4-.2-.8-.4-1.2l-3.7-9-10 2.5zm10 38.5l1.2 8.6c.1 1.2.7 1.7 1.7 1.7 4 .1 7.7-.1 11.3-2 .5-.3.7-.6.6-1.2l-1.6-7c-.5-2-.5-2.2-2.6-2L71 117.7zm15.2 9.2c-4.3 2.3-8.8 2.5-13.5 2.3 0 .2 0 .3 0 .4l2 11.5c.1.8.6 1 1.2 1 2-.1 4-.1 5.8-.4L89 140l-2.5-13zm56.8 25l.4-1.4 2.7-16.8c.2-1 0-2-.5-3-1.2-2-2-4-2-6.5V119c0-.6-.1-1-.8-1-1.3-.1-2.7-.3-4-.1-4 .6-7.5 2.6-11 4-.3.1-.6.7-.6 1v6c.2 4 1 8 3.3 11.5 2.3 3.8 5.5 6.5 9 9l3.6 2.6zM46.4 32.5c-.7.8-1 .7-1.5-.2a42 42 0 0 0-7.1-10.8c-2.6-2.8-5.6-5-9-6.6-.8-.3-2-.5-2.6-.1-1 .6-.3 1.8 0 2.7a32 32 0 0 0 6.1 10.4c2 2.5 4.3 4.8 6.5 7.2.3.3.3.8.4 1.2-.4-.1-.8-.2-1-.4-1-.6-1.6-1.3-2.5-1.8-4-2-8-3.8-12.2-4.8-5.5-1.4-11-2-16.6-1-1.6.3-3.2 1-4.7 1.6C1 30.3.8 31 1.4 32c.4.6.8 1.2 1.4 1.5 2 1 4 2.2 6.2 2.8 4.7 1.3 9.5 2.4 14.4 3.4 4.5 1 9 2.4 13.5 2.5.3 0 .6.4.8.5-.3.2-.6.5-1 .5-1.6.1-3.2-.1-4.8 0a49 49 0 0 0-13.6 2.9 50 50 0 0 0-12.2 5.8 14 14 0 0 0-2.7 2.6c-.6.8-.3 1.4.6 1.7.6.2 1.2.3 1.7.2 3-.5 6.3-.8 9.4-1.6l22-6c2.5-.7 5.2-1 7.8-1.3.3 0 .6.2 1 .4-.2.3-.4.7-.7 1-.4.3-.8.5-1.3.6-4.3 1.6-8.3 3.8-12.2 6a65 65 0 0 0-13.1 10.1l-7 8c-.8 1-1.3 2.3-1.7 3.5-.7 2 .2 3.2 2.3 3.2.7 0 1.4-.1 2-.2a38 38 0 0 0 11.9-4.9c5.6-3.4 11-7 16.4-10.7l9.4-6c.6-.4 1.3-.7 2-1 .2-.1.5 0 .7.1.1.1.1.5 0 .6-.7.6-.4 1.4-.2 2l1.3 4.7c.2.7.4.8 1 .6l8.4-2.6c.6-.2.6-.5.4-1L64 56c-.2-.7-.4-1.4-1.3-1.5-.1 0-.3-.3-.3-.5 0-.2.2-.4.4-.5.2-.1.5-.1.8-.1l33.6-.5c3.7-.1 7.5-.8 11-2.2 1-.4 1.8-1 2.6-1.4 1-.8 1.2-1.8.3-3-.6-.7-1.3-1.4-2-1.8-2.4-1-4.8-2-7.4-2.8a75 75 0 0 0-33.6-.8l-2 .3c-.3 0-.7-.3-.8-.5-.1-.2.2-.6.4-.8.4-.3 1-.5 1.4-.7 6-3 12.4-4.6 18.6-6.7l15.2-5.3c1.2-.4 2.3-1.3 3.4-2 .4-.3 1-1 .8-1.4-.1-.4-.8-1-1.3-1-2-.2-3.8-.6-5.7-.4-9.8 1-19.3 3.3-27.5 9.3-.3.2-1 .1-1.3.1.2-.4.3-1 .6-1.2 1-1 2.3-1.7 3.3-2.8l17-17.6c1.6-2 3-4 3.8-6.4.5-2-.2-3-2.2-2.5-1.3.2-2.7.5-4 1-10.4 5.2-18 13-22.5 24-.1.3-.5.4-.7.6-.2-.3-.5-.6-.5-1-.1-.4.1-.7.2-1 1-5.4 2.2-10.8 1.8-16.3-.1-2-.6-4.2-1.2-6.2-.3-1.2-1-1.3-2-.4-.3.3-.6.6-.8 1-1 1.7-2 3.4-2.7 5.2-2.4 6-2.5 12-2 18.3 0 .4 0 1-.2 1.2-.1.2-.7-.1-1.2-.1-.1.4-.2.8-.4 1.2-.1.2-.5.4-.7.5-.1-.3-.2-.6-.2-.8 0-1 .2-2 .1-2.8a52 52 0 0 0-1.2-6.3c-1.4-5-3.7-9.5-7.4-13-1.8-1.7-3.7-3-6.2-3.6-1.8-.4-2.8.1-3.4 2-.6 2-.4 4 .3 5.7l3.6 8c2.8 5 4.6 10.4 8.4 14.8.2.2 0 .7 0 1-.3 0-.7.1-1-.1-.7-.6-1.2-1.4-2-2.2h0zM76.3 92c.4 1.7.8 4.3 1.6 6.7.4 1.2 1.2 2.3 2 3.3 2 2.3 4.8 3.6 8 4.3 4 1 7.7.8 11.3-1.4l5.5-2.8c2.2-1 4.5-1.8 7-1.6 3 .2 4.6 2.2 4 5.2-.3 1.6-.8 3.2-1.2 4.8-.4 2-1 4-.5 6.3.5 2.2 1.6 4.2 4 4.6 2 .4 4 .6 6 .1 3-.6 5.7-1.8 8.5-3 3.2-1.2 6.4-2.7 10-2.2 2.4.3 3 1 2.7 3.5a21 21 0 0 0-.1 5.3c1.3 7.8 9.2 15.7 19 13.5 5.3-1.2 9.4-4 12.3-8.6.5-1 1.2-1.4 2.3-1.4l5.5-.7c4.7-1.2 8.3-3.7 9.7-8.8.3-1 .5-2.2.7-3.4.2-1.3.6-1.5 1.7-.8.2.1.4.3.7.5l6.3 3.3c4.4 1.8 10-.8 11.8-5.2 1-2.6 1.6-5.4 1.7-8.3 0-1.4.1-1.5 1.5-1.5 2.6 0 5.2-.2 7.7-1.2 6.4-2.5 10.3-8.2 9.7-15.6-.3-3.4-1.8-6.3-3.7-9-4-6-12-8-17.6-4.6-.3.2-.8.1-1.2.2 0-.5-.1-1 0-1.3.3-1.3.8-2.5.8-3.7.1-5-4.5-9.5-10-9.7-7-.2-14 4.6-16.5 11.5-.3.8-.7 1-1.4.5-1-.5-1.8-1-2.7-1.3a12 12 0 0 0-11.7 3c-.3.3-1 .6-1.2.5-.3-.1-.5-.7-.6-1-.2-1-.3-2-.5-3-1-5.3-5.6-9.2-11-9.2-4.6 0-8.5 1.7-11.5 5.2-1.4 1.6-3 3.2-3.6 5.3-.1.3-.4.6-.6 1-.3-.3-.6-.5-.8-.8-.6-1-1-2-1.6-2.8-2.5-3.4-6-4.7-10-5-3-.2-5.6 1.2-7.6 3.7-1.4 2-2 4-2 6.4 0 .3-.2.7-.4 1-.1.1-.6 0-.8-.2-3.4-2.2-7-1.8-9.6 1.3-.7.8-1.3 1.6-2 2.5-1.6 2.2-3.2 2.6-5.6 1.3l-3.7-2.3a12 12 0 0 0-11.7-.9c-6.4 3-10 8.3-10.4 16.6h0zM133 208.2l5.7-31c0-.2 0-.5 0-.8-.8.3-1 .8-1.2 1.5l-1 3.3c-.1.3-.6.5-1 .7-.2-.4-.6-.8-.5-1 .2-1.2.5-2.3 1-3.4.5-1.3.2-2.6-.1-3.8l-.3-.1c-.2.5-.6 1-.7 1.4l-1.2 6c-.1.4-.4 1-.6 1.2-.8.1-.7-.7-.8-1.2l-1-4c-.1-.4-.3-.7-.4-1h-.3c-.2 1-.4 2-.4 3.2 0 1.3.2 2.6.2 4 0 .4-.2.8-.4 1.2-.3-.3-.7-.6-.8-1-.4-2.4-.4-5 .1-7.3.1-.4.2-.7.4-1 .5-1 1.4-1 2-.1.2.4.4.8.6 1.2l.5 1.3.8-2.8c.3-.7.7-1.5 1-2 .7-1 1.6-.7 2 .4.2.4.3.8.3 1.2.1.4.1.7.2 1 1-.2 1.7-.6 2-1.8L142 163c.4-1.7.3-1.8-1.2-2.8-4.5-3-9-6-12.8-10a32 32 0 0 1-8-16.9c-.5-3-.3-6-.3-9.2 0-1-.1-1.2-1-1.3-4.6-.6-6.6-4.6-6-9.3l1.6-7c.8-2.8-.4-4.6-3.3-4.7-2.2-.1-4.2.6-6.2 1.6l-5.4 2.8a14 14 0 0 1-10.7 1.6l-6.6-2c6 18.8 9 38.4 12.2 58l.6-8 1.5-6.8c.1-.4.2-.8.5-1.2.3-.4.7-.8 1-.8s.8.5 1 1c.3 1.6.7 3 .8 4.7.1 2.2 0 4.4.2 6.6l.4-1c1-3 2-5.8 3.6-8.4.4-.5.8-1 1.2-1.5.8-.7 1.7-.5 2 .6a13 13 0 0 1 .2 3.7l-1.3 9.8c0 .2-.1.5.1.8l.6-.8 4.5-5.7c.2-.3.5-.6 1-.7.6-.2 1.3-.6 1.8-.4.4.2.7 1 .7 1.7-.1 1-.3 2.3-.7 3.4l-5 11.5c-.2.4-.4.7-.4 1.2l3.2-2.5a21 21 0 0 1 3.4-1.9c.5-.2 1.5-.2 1.8.2.4.4.5 1.4.3 2-1 1.8-2 3.5-3 5.3-.3.5-.7 1-1.2 1.6 1.2-.3 2-.5 3-.7.5-.1 1-.1 1.5-.1.2 0 .5.3.5.4 0 .2-.2.5-.4.6-.2.1-.5.2-.8.2-2.7.4-5 1.4-7.2 3-.2.2-.4.4-.7.5-.2.1-.6 0-.7-.1-.1-.2-.2-.6 0-.8.2-.4.6-.6 1-1 2.6-2.2 4.6-5 6.3-8 .3-.6.4-1.2.7-2l-.3-.3c-.6.3-1.2.5-1.8.8-3.5 2-6.5 5-9 8.2-.4.5-.7 1.4-1.5 1-.8-.6 0-1.2.3-1.7a93 93 0 0 0 8.7-17.7c.4-1 .6-2.3.8-3.4l-.4-.2c-.4.3-.8.6-1.2 1-3.7 3.6-6 8-7.8 13-.4 1-.5 2-1 3-.2.4-.7 1-1 1-.8-.2-.5-1-.4-1.5l.7-2.5a83 83 0 0 0 3.7-18.2c.1-1 0-2.3 0-3.4l-.4-.1c-.3.4-.7 1-1 1.3-2.4 4-3.8 8.7-4.6 13.4l-.7 6.6c0 .4-.4.7-.5 1-.3-.3-.8-.7-.8-1 0-3 .1-5.8.2-8.7.2-3.8.5-7.7-.1-11.5-.1-.4-.2-.8-.2-1.2 0-.1-.1-.1-.3-.2l-.4 1.2a40 40 0 0 0-1.6 10.7l.1 12.2c0 .1 0 .1 0 .2-.2.5-.4 1.4-.6 1.4-.8.1-.7-.8-.7-1.3l-3-18.7c0-.3-.1-.6-.2-.8-1.7.7-3.4 1.5-5 2-.8.3-1.6.4-2.4.5-.3 0-.6-.3-1-.5.3-.2.5-.6 1-.7l5.7-2c1.6-.7 1.7-1.2 1.4-3l-1.5-9c0-.3-.1-.5-.2-.8-4.5 1.8-9 2.6-14 2.3.1.5.1.8.1 1l1.7 10c.1.5.3 1 .4 1.6 0 .3 0 .7-.1.8s-.6.1-.8 0c-.4-.2-.7-.5-1-.7l-2.5-1.4-.3.2 1 12.8.3-1a36 36 0 0 1 3.5-8.9c.3-.6.8-1 1.2-1.5.7-.7 1.4-.5 1.6.5.1 1 .1 2-.1 3l-4 17 2-1.5c.5-.3 1-.2 1.7-.3.1.5.3 1 .2 1.6-.2 1.2-.5 2.4-1 3.5-.1.3-.5.5-.7.8-.1-.3-.3-.7-.2-1 .2-1.3.6-2.5 1-4-.5.2-.8.3-1 .5l-2.6 3c-.2.3-.5.5-.8.7-.1-.4-.3-.8-.3-1 .4-1.8 1-3.6 1.3-5.5l3.2-14c.1-.6.2-1.3.2-2l-.3-.1c-.4.7-1 1.4-1.3 2-2 4-3 8.3-4 12.7-.1.5 0 1-.1 1.5 0 .2-.3.4-.5.6-.2-.2-.4-.3-.5-.6-.1-.2-.1-.5-.1-.8l-1.2-20c0-.4-.2-.8-.2-1.2h-.3l-.5 4.6-.1 14.6c0 .6-.3 1.7-.4 1.7-1-.1-.8-1-1-1.6L66.4 156c-.2-1.3-.8-2.6-1-4H65v3l2.3 18c.1.4-.1 1-.2 1.3-.4-.2-1-.3-1.3-.5-1.2-.8-2.3-1.6-3.6-2.2l.4 1c1.2 2 2.5 4.3 3.7 6.4.2.4.2.8.3 1.3-.4-.3-1-.4-1-.8l-3.2-5.5c-.4-.8-1-1.6-1.2-2.4-.1-.4 0-1 .1-1.4.4.1 1 .1 1.2.3 1.2.7 2.4 1.5 3.8 2L64 151.7c0-.4 0-.8.2-1.2.1-.3.3-.6.5-.6.2 0 .6.3.7.5l2.2 6.5c.6 2.6 1 5.4 1.3 8 .1.4.2.7.4 1v-11c-1-.1-1-1-1-1.8-.1-1.8-.5-3.4-1.4-5-.5-1-1.2-1.6-2.3-1.7-1 0-1.7.8-2.2 1.7-.4.7-.7 1.5-1 2.2-.7-.3-.8-.7-.5-1.3.4-.7.8-1.6 1.3-2.2 1.4-2 3.6-2 5-.1 1.3 1.6 1.8 3.6 2 5.6v.7c0 .1.1.2.3.3l.6-3c.1-.4.5-.8.7-1 .3.3.7.6 1 1 .3.8.5 1.7.6 2.5.1.6.3 1 1 1.2.8.2 1.6.7 2.6 1l-5.5-34C68 107.5 65 94.2 60.6 81.3L56 68.5c-1-2.7-1.5-5.5-2.3-8.2l-.3-1-2.3 1.2-18.4 12.2A63 63 0 0 1 18 80.4c-1.7.6-3.5 1-5.3 1-3 .3-4.4-1.5-3.6-4.5.7-2.6 2.2-4.7 4-6.7 5.8-7 12.7-12.3 20.4-16.7l7.3-4c-.5.1-1 0-1.6.2l-31.4 8c-1.3.3-2.7.1-4-.2-1.6-.3-2.2-1.7-1.3-3a10 10 0 0 1 2.3-2.5c4-3 9-5 13.7-6.6l10.5-3L9 37.4c-2.4-.7-4.6-2-6.8-3-.8-.4-1.4-1.4-2-2.3-.6-1.2-.2-2.2 1-3 2-1.3 4-1.8 6.4-2a48 48 0 0 1 25.6 4.8l1 .4h.2L32.8 30c-3-3.5-5.8-7.2-7.4-11.7-.3-1-.5-2-.6-3-.1-1.6.8-2.3 2.3-2.2 2 .2 3.4 1 5 2a32 32 0 0 1 11 11.4l.6 1c0 0 .1 0 .3.2l-7.4-15c-1-2.3-1.4-4.7-.8-7.3.7-2.8 2.6-4 5.4-3.4 2.5.6 4.6 2 6.4 4 4 4 6.4 9 7.7 14.7l.5 2.3h.4v-1.7C56 15.7 57.2 10.2 60 5c.7-1.3 1.5-2.6 2.5-3.6 1.4-1.5 3-1.2 3.8.7a21 21 0 0 1 1.2 5.1c.5 4.2 0 8.4-.7 12.6 0 .3-.1.5.1 1 .2-.3.4-.6.6-1 4.5-7 10-13 17.3-17 2-1 4-1.7 6-2.5.4-.2 1-.2 1.4-.2 2.6-.2 3.8 1.2 3.3 4a15 15 0 0 1-3.8 6.8l-15 16c.2-.1.4-.1.5-.2 7-3 14.2-5 21.8-5.4a18 18 0 0 1 5.6.6c2.4.6 2.8 2.6 1 4.2-1 1-2.4 2-3.8 2.4l-30 10.3c-.4.1-.8.3-1 .7l4.8-.6c10-1 19.7-.5 29.2 2.4 2.3.7 4.5 1.7 6.5 3 3.4 2.3 3 5-.5 7-3 1.6-6.3 2-9.6 2.6-7.5 1-15 .6-22.5.5-4 0-8 0-12.2 0-.3 0-.6.1-1 .1C67.7 65 72 74.8 76 85c1-1.7 1.8-3.2 3-4.6a17 17 0 0 1 8.2-6.4c4.5-1.5 8.8-.8 12.8 1.8 1 .7 2 1.4 3.3 2 1.6.8 2.4.5 3.5-.8l3.3-4c2.4-2.2 5.3-2.6 8.3-1.4.3.1.6.2 1 .3v-1c1-6.7 6.8-10.6 13.3-9 4.2 1 7.6 3 9.6 7l3.3-4.2c2.8-3.5 6.4-5.5 10.8-6 2.3-.2 4.7-.2 6.8 1 4.3 2.2 7 5.6 7.5 10.6 0 .4.1.7.2 1l3-1.8c3-1.8 6-1.6 9.2-1.3.7.1 1.4 0 2 0l1 1.2 3.5-5c4-4.4 8.8-7 14.8-6.7 5 .2 9.7 4 10.6 9 .3 1.6 0 3.4 0 5-.1 0 0 0 .1 0 5.8-2.6 14-.5 18 6a20 20 0 0 1 3.7 10.7c.1 9-6.4 15.3-14 16.4-1.6.2-3.2.3-4.7.4-.4 2.3-.8 4.5-1.3 6.7a11 11 0 0 1-10.3 8.7c-1.6.1-3.2-.2-4.7-1-1.7-.8-3.4-1.8-5-2.7l-1-.7-.4 1.8c-1 5-3.6 8.4-8.3 10.2a23 23 0 0 1-7.8 1.6c-1 0-1.6.4-2 1.3-1.6 2.8-3.8 5-6.6 6.6-2 1-4 1.5-6.2 2-1.3.3-2.6.3-4 .6-.3.1-.8.4-1 .7l-1.4 7.5c-.2 1.2 0 1.4 1.2 1.4 3.7-.2 7-1.4 10-3.6.7-.5 1.2-.6 1.8.1 1.4 2 2 2.2-.6 4-3.7 2.4-7.8 3.2-12 3.3-1 0-1.3.1-1.5 1.2l-5 30 3-26.3 3-17c.2-1 0-1.6-1-1.8-3.5-.7-6.2-2.8-8.7-5.2-.2-.2-.5-.4-.8-.6-.1.3-.1.3-.2.4l-3 17.6c-.2 1.4-.7 1.7-1.8 1l-7.5-5.4c-4.3-3.4-7-8-8.4-13.4-.8-3.5-1-7-.8-10.7 0-.3 0-.6-.1-1l-3.7.5c-.8 0-1 .4-1 1-.5 3.5-.3 7 .5 10.5a32 32 0 0 0 13.4 20l7.4 5c1 .6 1.4 1.4 1 2.6l-7.8 38.7c-.5 2.4-.8 4.8-1.2 7.2H133z" class="B"/><g transform="translate(120.3 122.6)"><mask id="O" class="C"><use xlink:href="#E"/></mask><path d="M20.2 72.5l.6.8c.2-.3.5-.5.6-.8l1-5c0-.3-.3-.7-.5-1-.2.2-.6.5-.7.8l-1 5.5zM31 38l-.6-1c-.2.3-.6.6-.7 1-.3 1-.4 1.8-.6 2.8l-1.5 7.8c-.1.3.3.7.5 1 .2-.3.6-.5.6-.8.3-1.3.6-2.6.8-4l1.4-7zm-17 48.3l9-46.2c.3-1.2-.1-2-1-2.7-2.5-1.7-5-3.3-7.4-5C7.4 27.7 3 21 1 12.5A30 30 0 0 1 .6 2c.1-.7.3-1 1-1C3 .8 4 .6 5.4.4l.1 1c-.2 3.6 0 7.2.8 10.8 1.3 5.5 4 10 8.4 13.4a122 122 0 0 0 7.5 5.4c1 .8 1.6.5 1.8-1l3-17.7c0-.1.1-.2.2-.4.3.2.6.4.8.6 2.5 2.4 5.2 4.5 8.7 5.2 1 .2 1.2 1 1 1.8L31.7 52l1.7-12.6c.5-3.8.8-7.6 1.2-11.4.2-1.7.5-3.4.6-5 0-.3-.3-.6-.5-1-.2.2-.6.4-.6.7L23.4 86.4 27 56.6c.1-.6.2-1.2-.8-1.5a230 230 0 0 0-4 31.3h-2l.8-9.7c0-.6.4-1.5-.5-1.6-1-.1-.6 1-.7 1.5l-1 9.8h-5z" mask="url(#O)" class="D"/></g><g transform="translate(145.4 144.8)"><mask id="P" class="C"><use xlink:href="#F"/></mask><path d="M.3 63.7l5.4-35.5c.7-5.5 1.3-11 2-16.5L9.2 1c0-.2.4-.4.6-.7.2.3.5.6.5 1L.3 63.7z" mask="url(#P)" class="B"/></g><g transform="translate(142.9 177.7)"><mask id="Q" class="C"><use xlink:href="#G"/></mask><path d="M.4 30.8L3.8.3c1 .3.8 1 .7 1.5L2 21.5c-.3 3-.5 6.2-.7 9.3h-1z" mask="url(#Q)" class="B"/></g><g transform="translate(139.7 196.7)"><mask id="R" class="C"><use xlink:href="#H"/></mask><path d="M.1 11.3l1-9.7C1 1 .8 0 1.6.1c.8.1.5 1 .4 1.6-.2 3.2-.5 6.4-.8 9.6H.1z" mask="url(#R)" class="B"/></g><g transform="translate(71.9 203.2)"><mask id="S" class="C"><use xlink:href="#I"/></mask><path d="M.5 5l.2-4c0-.2.5-.4.8-.6.3.2.8.4.8.6L2 5H.5z" mask="url(#S)" class="B"/></g><g class="B"><path d="M83.6 189c.2 1.8.7 3.5 1.3 5.2.2.5 1 1.2 0 1.6-.8.3-1-.6-1-1.2l-1.3-5.4c-.1-.7-.3-1.7.6-2 1-.4 1.4.5 2 1l1.7 2v-2.8c.2-1.4.3-2.8.8-4 .6-1.8 2-2 3.2-.4 1.4 2 1.7 4.3 2 6.7v1c0 .1.1.1.2.3.2-.4.3-.8.5-1l2.5-3.5c1.5-1.5 3.3-1 3.6 1.2.3 1.7.1 3.6 0 5.3 0 .4-.1.8-.2 1.4l6.3-8.3c.2-.2.7-.2 1-.3-.1.4 0 1-.2 1l-6 8.2c-.8 1-1.3 2.3-2 3.4-.2.3-.7.5-1 .7-.1-.4-.4-1-.4-1.2.4-2 1-4.2 1.3-6.3.2-1.2.1-2.6-.1-3.8-.2-1-1-1.4-1.6-.5-1 1-1.6 2-2.2 3.2-.5.8-.6 1.8-1 2.7-.2.4-.7.8-1 1-.3-.5-.7-1-.8-1.4-.2-1.7-.2-3.5-.5-5-.3-1.4-.8-2.7-1.3-4-.1-.3-.5-.6-.7-.6s-.5.4-.6.7c-.2 1-.5 2-.5 3 0 2 .1 4 .1 6 0 .4-.3.8-.5 1.2-.3-.3-.7-.5-1-.8l-2.6-4.6-.4.2m25-56l.7-4c0-.2-.1-.5-.2-.5-1.7-.5-2.5-2-3-3.7-.4.3-.6.6-1 .8l-5 2.7c-4.8 1.8-9.7-3.2-10-7-.1-3.3.3-6.5 2.8-9 .6-.6 1.4-1 2-1.3.2-.1.5.2.8.4-.1.2-.2.6-.4.7-3.4 2-5 6-4 10 1 3.6 5 6 8.4 5 1.6-.6 3-1.6 4.5-2.5.5-.3 1-.8 1.4-1.2.7-.5 1-.4 1.3.4 1 3.5 1.4 3.8 5 3.4.5-.1 1.5.2 1.5.4 0 1-1 .7-1.4.8-1.7.3-1.7.2-2 2l-1.7 12.6c-.2.4-.5.8-.8 1-.1-.4-.4-1-.4-1.3a82 82 0 0 1 .8-6.2c.2-1.2-.2-2-.8-2.8L106 132c-.2-.2-.4-.5-.4-.8s.2-.5.2-.8c.2.1.6.2.7.3l2 2.4z"/><path d="M111.7 192.8c-.4.8-.8 1.3-1 2-.6 1.8-.7 3.7-.4 5.7.1.4-.2.8-.3 1.2-.3-.3-.8-.6-.8-1-.4-2.6-.2-5 1-7.5.4-.8 1-1.5 1.8-1.4 1 .1 1.3 1 1.5 1.7.3 1 .5 2.3.7 3.5l1-1.6c.4-.6.8-1.3 1.3-1.8 1-1 2.2-.6 2.4.8.2 1.5.1 3 0 4.6 0 .6-.2 1.2-.4 2.2l2.2-2.7c.6-.7 1.3-1.4 2.3-1s1 1.5 1 2.5c0 .3.3.5.4.8s.3.8.2 1c-.3.5-.7 1-1 1.3-.2.2-.7.3-1 .1-.2-.1-.3-.6-.2-1 .1-.6.3-1.2.4-1.8s0-1.2 0-1.8l-.3-.2c-.6.6-1.2 1-1.6 1.7l-2.3 3.2c-.3.3-.8.4-1.2.6-.1-.5-.4-1-.3-1.4.3-1.6.8-3.2 1-5 .2-1 0-2.2 0-3.3l-.4-.1c-.3.4-.8.8-1 1.3l-1.8 3.8c-.1.3-.2.7-.4 1-.2.2-.6.5-1 .5-.2 0-.4-.5-.4-.8v-3.3c-.1-1.2-.1-2.5-1-3.8M82.3 169c2.4.3 4.8-.1 7-1 .3-.1.7.2 1 .3-.2.4-.4 1-.7 1-1 .4-2 1-3.2 1l-7.3.1c-.3 0-.6-.5-1-.8.3-.2.7-.5 1-.6 1-.1 2 0 3 0m-2 34.4c-.3 1-.4 1.7-.8 2.5-.1.3-.7.5-1 .7-.2-.3-.5-.7-.5-1 0-.7.2-1.4.5-2 .2-.4.6-.7 1-1l1 1m-5.8 2.4c-.1-.4-.2-.6-.1-.8.2-.4.6-.8 1-1 .4.3 1 .6 1.2 1 .2.7.3 1.4.2 2-.1.4-.7.7-1 1-.4-.3-1-.6-1-1-.2-.4 0-1 0-1.2"/></g><path d="M159.3 153c-.3 0-.7.1-1 0-.3-.1-.5-.3-.8-.5.2-.2.5-.4.7-.5 1.3-.2 2.6-.4 4-.6a13 13 0 0 0 5.6-2.6c.2-.2.4-.4.6-.5.3-.1.8-.2 1 .1.4.5.1 1-.3 1.2-2 1.4-4.2 2.5-6.5 3-1 .2-2.2.4-3.3.6h0" class="C"/><path d="M151 159.7l-2.2 10.6c-.1.3-.4.5-.6.8-.2-.3-.5-.7-.4-1l2-10.5c.1-.3.4-.6.6-1l.5 1M140.5 195l1-5.8c.1-.3.5-.5.8-.8.2.4.6.8.5 1.2-.3 1.8-.6 3.6-1 5.4-.1.3-.4.6-.7.8l-.7-.8" class="B"/><path d="M134 73h7l7-5 14-4 4 3 5 29-40 6-4-24z" class="C"/><g class="B"><path d="M115.3 242c1.7-3 3.7-6 4.4-9.6l.1-.8c0-1-.6-1.6-1.5-1l-5.2 3c-1.6 1.2-3 2.8-4.3 4.2-.2.2-.4.5-.6.6s-.6.2-1 .1c-.1 0-.2-.6-.1-.8.2-.6.6-1 1-1.6a53 53 0 0 0 7-15.3c.2-1 .2-2 .2-2.8 0-1-.6-1-1.3-.7-.5.2-1 .5-1.3.8-3 2.6-5.5 5.5-7.2 9l-3.5 7c-.2.4-.6.6-1 .8-.2-.4-.5-.8-.4-1l1-7.8c.4-4.8 1.3-9.6 1-14.5-.1-1-.4-2.2-.6-3.2l-.4-.1-1 1c-2.8 4-4.5 8.3-5.6 13-.4 1.6-.6 3-.8 4.7-.1.6-.3 1-1 1-.8-.1-.8-.5-1-1.2l-1.5-8.5-1-4.5c-.1-.4.1-.8.2-1.2.3.3.8.5 1 1l2.2 10c.1.2.1.5.4.7.2-.8.3-1.5.5-2.3 1.2-4.7 2.8-9.2 5.7-13.2.6-.8 1.2-2 2.5-1.6 1 .3 1.4 1.5 1.5 2.5l.2 5.8-1.4 14c0 .4-.1.8.1 1.3l1.7-3c2-4 4.6-7.4 8-10.2.5-.5 1-1 1.8-1 1.5-.6 2.7.2 2.8 1.8a10 10 0 0 1-.3 3.4c-.8 3.3-2 6.4-3.6 9.4-.4.7-.7 1.5-1 2.4l1-.6 3.8-2.6c1-.5 2-.6 3-.8.8-.1 1.5.4 1.6 1.3.1 1 .1 2.2-.2 3.2-.6 2-1.5 3.7-2.3 5.5-.2.4-.4.7-.5 1.2 3-2 6-2.2 9.7-1l-1-2.6c-1-2.7-1.6-5.4-1.3-8.3.3-2 1.6-2.6 3-1.2l3.7 4.2 1 1.2-1-8c0-.5.2-1.2.5-1.4.6-.4 1 .2 1.4.7l2.7 3.3-.5-2.3c-1.2-4-1.5-8-1.3-12.2 0-1 .2-1.8.5-2.7.3-1.2 1.5-1.6 2.3-.6 1 1.3 1.7 2.7 2.3 4.2a81 81 0 0 1 4.1 15l1.4 6.7c0 .2.1.3.3.8.4-1.8.8-3.4 1.2-5a28 28 0 0 1 3.2-7.8c.4-.7 1-1.3 1.5-2 .8-.8 2-.5 2.2.6.3 1 .6 2.2.7 3.3a68 68 0 0 1-1.1 15.1c-.1.5 0 1-.1 1.4h-1.2c.2-1.5.4-3 .5-4.6l.7-11c0-1.2-.3-2.5-.5-3.7l-.5-.1-1.7 2.5a36 36 0 0 0-4 16.9h-1.6c-.1-1-.1-2-.3-3l-2.6-13c-1-5-2.3-10-4.7-14.5-.2-.3-.4-.7-.6-1h-.3c-.1.4-.3.8-.3 1.3a32 32 0 0 0 1 12.7c1.2 4.4 2.2 8.8 4.7 12.7 0 .1.1.1.1.2l-.1 1c-.3-.1-.7-.1-1-.3-.3-.3-.6-.8-.8-1.2l-6-10.2c-.2-.3-.5-.6-.8-1h-.2c.2 1.4.3 2.8.6 4.2l2.2 8c.1.5.3 1-.5 1.4l-1.2-1.8c-2-3.2-3.7-6.6-6.5-9.2l-1-.6c-.1.4-.4.8-.4 1.2-.1 3.6 1 7 2.5 10l.4.8c.2.8-.1 1-1 1l-2-.6c-3-1-5.8-.5-8.2 1.8h-3zm64.4-214.7c-1.4.4-3 1-4 1.7-4 2.4-5.4 2.3-8.7-1-1.6-1.6-3-1.7-5-.5l-2 1.6c-1 1-2.4 1.6-3.7 1.2l-5-2c-1-.4-2-1-2.8-.8-2 .8-3.8 1.8-5.5 3-1.5 1.2-1.4 3-.2 4.5 2.2 2.7 4.4 3.2 8 1.3 2.7-1.4 5.2-1 7.6.6 1.8 1.3 3.8 1.2 5.7.7 1-.3 2.2-1 3.3-1.4 2-.8 4-1 5.8.6 1 .8 2 1.6 3 2 2.4.7 6.5-1.2 7.8-3.4.7-1 1.2-2.4 1.8-3.6-.7-4.2-2.4-5.6-6-4.7zm4 11c-1.7 1.2-4 1.8-6 2.4-2.2.6-3.8-.7-5.3-2-1.4-1.4-3-1-4.6-.5a23 23 0 0 1-6 1.6c-1.4.1-3-.5-4.3-1.2-2-1-3.8-1.5-6-.4-1.4.7-3 1-4.6 1.2-3 .3-5-1.7-6.2-4-1.8-3.3-.1-6 3.5-8 .4-.2 1-.2 1.3-.4 2.5-2.2 5-1.2 7.3.3.8.5 1.7 1 2.6 1.2 1.5.5 2.8.4 4-1 .4-.5 1-1 1.6-1.3 2.6-2 5-1.7 7.2.6 2.6 2.6 3.3 2.5 6.4.8 2-1 4.2-2 6.4-2.3 3.4-.6 5.7 1.6 6 5.2V32c0 2.8-1.4 5-3.4 6.4zm-1 179.2c-2.2 3-5.4 4.6-8.7 6-.4.2-1 .2-1.4 0-.6-.3-1.5-.8-1.6-1.4-.2-.7.1-1.8.6-2.2 1-.8 2.2-1.3 3.3-1.6.4-.1 1 .4 1.7.6-.4.4-.8.8-1.3 1l-3.2 1.4c2.5.6 7.2-2 8.5-4.4-4.3-.1-8 .7-11 3.6-.5.5-.8 1.8-.5 2.3.5 1 1.4 2 2.3 2 4 .6 10-2 12.2-5.3.8-1 .7-2-.8-2.2m-6 13.7l5.4-3.4c.5-.3 1.2-.2 1.8-.2-.3.6-.5 1.3-1 1.6l-5 3.3c-1 .6-1.2 1.3-1 2.3l.7 3c0 .4-.4 1-.7 1.4-.3-.4-1-.7-1-1l-2-10c-.1-.3-.2-.7-.3-1h-2.5c-2.4.1-3.6-1.3-4.5-3-.8-1.6-.3-3.3 1.2-4.8 3.2-3 11.3-4.8 15-3 2.5 1 3 2.8 1.2 5-1.7 2.2-3.8 4-6.5 4.7-1.7.5-2 1.5-1.8 3l.4 2.6m-8.2-22c1.2.1 3.2 3 2.8 3.8-.1.2-1 .4-1.2.3l-2-3c-.1-.2.3-.7.4-1"/><path d="M175.3 210l-1 1.8c-.4-.6-1-1.2-1.2-1.8s-.3-1.2-.2-1.8c0-.4.4-1 .6-1.3.4.3 1 .5 1.2 1 .3.6.2 1.3.3 2h.3m2.4-.5l1-1.6c.3.5.8 1 .8 1.6 0 .5-.5 1-.7 1.6l-1-1.7"/></g></g><g transform="translate(416 98)"><mask id="T" class="C"><use xlink:href="#J"/></mask><path d="M107.3 17.7l-.6.6-1.2-.1c-10.5-1-21-2.2-31.6-1-2.3.3-4.5 1-7 .2-4.3-1.2-8.6-.8-12.7 1-4.7 2-5.4 4-2.6 8.5.1.2.1.4.2.6-3.4 3.7-6.6 7.6-8.2 12.5-.6 2-1.5 2.6-3.5 2.6-7.8.4-15.5 1.3-23 3.7-3.5 1-6.7 3-9 5.7A37 37 0 0 0 .1 79c.1 1.4.6 1.8 2 2 11.2 1.5 22.6 1.5 34 1.4h3.8c.3 1 .4 2 .7 2.7 1 2.8 3.8 4 6.4 2.4 1.5-1 3-2.3 3.8-3.8.8-1.3 1.7-1.8 3.2-2L85 79.7c.6 2.2 1 4.2 1.7 6 1 2 2.4 4.2 5 4.4 2.6.2 4.2-1.8 5.2-4a38 38 0 0 0 2.4-6.7c.3-1.2.6-1.7 2-1.8l16.5-2.5 2 6.5c-1 .2-1.8.3-2.7.6-.4.2-.8 1-.8 1.3 0 .3.7.7 1 1 .4.1 1-.1 1.4-.2l11.2-2 1.7 2.4c.5-.8 1.3-1.5 1.4-2.3l2.3-13.6c.4-3 .4-3 3.6-2.4-.1 1.2-.1 2.4-.3 3.6l-1.8 12c-.1.6 0 1.2.3 1.7.1.2 1 .4 1.2.2 1-1.5 2.3-.5 3.4-.2 2 .5 4.2 1.2 6.3 1.6.6.1 1.3-.5 2-.8-.4-.5-.8-1.2-1.4-1.4-1.4-.5-2.8-.8-4.4-1.2l1-4c1-5 2.5-10 3-15 .8-10.4-1.2-20.5-5.5-30-2.5-5.4-5-11-9.3-15l-8.4-7c.2-2 .7-4 .5-6-.3-2.7-2.5-3.6-4.7-2-.8.5-1.4 1.2-1.7 1.4-1.5-1.3-2.6-3.2-4-3.5-2.4-.5-2.6 2.3-3.5 4-2-1-4-3.3-6.4-1.8-2 1.3-.7 3.2-.4 5-.5.1-.8.3-1.2.3-2.5.4-3.2 1.6-2.5 4 .7 2.3 2.7 3.3 4.6 4.3.7.4 1.3 1.2 2 1.7" mask="url(#T)" class="C"/><path d="M127 73.2l-1.8 7.4c1.6-1.2 2-3.4 1.8-7.4M107 17c-.6-.6-1-.6-1.6-1-2-1-3.8-2-4.6-4.3-.8-2.4 0-3.6 2.5-4 .4-.1.7-.2 1.2-.3-.2-1.8-1.7-3.7.4-5 2.5-1.5 4.3.7 6.4 1.8 1-1.6 1-4.5 3.5-4 1.5.3 2.7 2.2 4 3.5.3-.3 1-1 1.7-1.4 2.2-1.6 4.5-.7 4.7 2 .2 2-.3 4-.5 6l8.4 7c4.3 4.3 7 9.7 9.3 15C147 42 149 52 148 62.5c-.4 5-2 10-3 15l-1 4c1.6.4 3 .7 4.4 1.2.6.2 1 1 1.4 1.4-.7.3-1.4 1-2 .8-2-.4-4.2-1-6.3-1.6-1-.3-2.3-1.3-3.4.2-.1.2-1 .1-1.2-.2-.3-.5-.4-1-.3-1.7l1.8-12c.2-1.2.2-2.4.3-3.6-3.2-.5-3-.5-3.6 2.4L133 82.4c-.2.8-1 1.5-1.4 2.3l-1.7-2.4-11.2 2c-.5.1-1 .3-1.4.2-.4-.1-1-.6-1-1 0-.5.4-1.2.8-1.3 1-.4 1.8-.4 2.7-.6l-2-6.5-16.5 2.5c-1.3.1-1.6.7-2 1.8a38 38 0 0 1-2.4 6.7c-1 2-2.6 4-5.2 4-2.6-.2-4-2.3-5-4.4-.8-1.7-1-3.7-1.7-6L54 82c-1.5.1-2.4.5-3.2 2-1 1.5-2.3 3-3.8 3.8-2.6 1.6-5.3.4-6.4-2.4-.3-.8-.4-1.7-.7-2.7-1.3 0-2.6 0-3.8 0-11.3.1-22.6.1-34-1.4-1.3-.2-2-.6-2-2a37 37 0 0 1 8.1-27c2.3-2.8 5.5-4.6 9-5.7 7.5-2.4 15.2-3.3 23-3.7 2-.1 3-.7 3.5-2.6 1.6-4.8 4.7-8.8 8.2-12.5-.1-.2-.1-.4-.2-.6-2.8-4.3-2.2-6.4 2.6-8.5 4-1.8 8.4-2.2 12.7-1 2.5.7 4.7.1 7-.2 10.6-1.3 21-.2 31.6 1l1.2.1.6-.6-.3-.7zM42.5 82.4c.1 1.7.2 3 2 3.4 1.5.3 3.5-1.5 4-3.7l-6 .3zM116 46c3.7.4 4 .3 4.5-3.3l.7-4.2-4.2-.4-1 8zm6.2 34h1c.5-1.7 1.2-3.4 1.4-5 .2-2.5 0-5-.1-7.4 0-.5-.8-1-1.2-1.5-.4.3-1 .6-1 1-1.2 3.4-1.8 7-1 10.5.2 1 .8 1.7 1.3 2.5M60 26l.7-.3-.8-2.6c-.1-.6 0-1.3 0-2 .6.2 1.4.2 2 .5 1 .6 2 1.4 3.3 2.5l-.2-4.5c-4.4-.5-8 .1-10.8 2-.7.4-1.6 1.7-1.4 2 1 2 2.6 4 4 6l.7-.4c-.5-1.2-1-2.3-1.3-3.5-.2-1 0-1.8-.1-2.7.8.4 1.6.7 2.3 1.2s1.2 1.2 1.8 2M106 14c1-4.3 2.5-5.6 6.5-5.8 2.7-.1 5.3.4 8 .7.6 0 1.6.1 1.8-.2 1-1.4 1.4-3 .4-4.5-1.7 1-3.3 2.6-4.7 2.4-1.3-.2-2.3-2.4-3.5-3.7-.1.2-.3.5-.4 1-1 3.4-2.2 3.8-5.2 1.8l-2.2-1.2c0 1.5.4 3-.1 4-.6 1-2.2 1.5-3.7 2.5l3.2 3M119 27h-.7l-2 2.3c-2 2-3 1.8-4.3-.6l-3.4-6.6v10c0 .4.5 1 .8 1.2 3.6 1 7.3 1.8 11 2.6.7.1 1.5-.3 2.3-.4l-.1-.6c-.6.1-1.3.5-1.7.3-.4-.2-1-1-1-1.4.1-.6.8-1 1-1.7.4-.8.3-1.4-.8-1.4-1.4 0-1.8-.6-1.2-2 .2-.5 0-1 0-1.7m10.2 52.5c1.6.4 2-.4 2-1.5l1.5-9.4c.7-4.6.7-4.6 5.4-5 3-.2 3.5.3 3 3.3l-1.5 11c-.3 1.8.1 2.6 2 2.7 2-6.4 4.2-12.8 4-20l-4.2.4c-3.7.3-3.7.3-5.3-2.8 0-.1-.2-.1-.6-.3 1 5-3 3.5-5.5 4v8.5c-.1 3-.5 5.8-1 8.8m7.3-54c-2.7 6-6.2 10.4-12.2 12.2-.3.1-.8.4-.8.7-.4 2.3-.8 4.7-1.2 7.2 8.2-.7 13.8-5 17.4-11.8.2-.4.4-1 .3-1.5l-3.5-6.8M97.3 76c0-3.7-.3-6.7-2.2-9.4-1.4-2-2-2-3.6-.2-.3.3-.6.6-.7 1-1 3-2.4 6-3 9-.5 3.4-.4 7 2 9.8 1.6 1.8 2.5 2 4-.1 2.3-3.2 3.3-6.8 3.2-10.2m36.2-54.7c-3-4.3-7-7.3-11.6-9.4-3.3-1.5-7-2-10.5-1-2 .4-2.8 1.4-2.6 3.4.6 5 3.2 9.2 5.6 14l3-3.8c1-1 1.7-1.2 2.5.3.5 1 1.3 1.8 2 2.8 2.3-1.7 3.8-4 4.5-6.5.3-1 .2-2.2 1.6-1.7.5.2 1 1.7.8 2.3l-4.3 7c-.4.6-1.2 1.5-1 1.8.4.8 1.3 1.4 2 2 .3-5.7 5-7.6 8-11m-5 25.8c5.6-2 9.7-5.8 13-11a62 62 0 0 1 4 16.6l.3 4.7c0 .4-.7.8-1 1.2 0 0-.1 0-.2 0-5 .6-5 .6-7.2-4-.2-.4-.3-.8-.6-1-.6-.5-1.3-1-2-1.3-.4.6-1 1-1 1.8-.3 1-.3 2-.4 3.2-.1 2.7-.1 2.7-3.2 2.5L128.6 47zm-81.3-4.8h-1.8c1.7-5 4.5-9 8-12.5 4 4.3 5.7 2.4 6.3-1.3 2 .2 3-.7 3.3-2.6 3.6.3 4 0 4.5-3.5.1-.5 1-1.2 1.4-1.3 4-.7 7.7-1.7 11.6-1.7l23.5 1.2c1.3.1 2 .6 1.8 2V32l-6-2c-.6-.2-1.4.2-2 .3.4.6.7 1.6 1.3 1.8 4.4 1.7 9 3.3 13.4 4.7 1.4.4 2 1 2 2.5-.6 7.7-.8 7-7 5.3-.3-.1-.6-.3-1-.3-3.8-1-7.2-2.5-11.5-2.4l-47.3.3z" class="E"/><path d="M38.3 58.4v.4l-4.6.4c-.6.1-1.2 1-1.7 1.5.7.3 1.3.7 2 .8.6.1 1.3-.2 2-.1l15.7 1c.7 0 1.4-.6 2-1-.5-.5-1-1.3-1.6-1.4l-13.8-1.7m63 1.6h-.2l.3 4.2c.2 1.8 1 3 3 3 1.7-.1 2.8-1.5 3-3.4.3-3.5-2.2-5.7-4-8.2-.6-1-2.2-.1-2.4 1-.1 1 0 2.3 0 3.4M55 58.6l1.3-1c-.5-.5-1-1.4-1.4-1.5-7-2.3-14.4-1.6-21.6-.7-.5.1-.8.8-1.2 1.3.6.3 1 1 1.7 1 7-.7 14-1.3 21.4 1M68 67h0c.3 0 .7.1 1 0 2.7-.6 5.4-1.3 6.7-4 1.2-2.4.8-4.7-.8-7-2.6-3.7-8.8-5-12.5-2.4-2.4 1.6-4.4 3.8-4 7 .4 2.7 2 4.5 4.7 5.3 1.5.5 3 .7 4.7 1m-48.2-1.7c1.6-.3 3.3-.5 5-1 4-1.3 6.2-5 5.6-8.6-.7-3.7-3.8-6-8.2-6-3 .1-6 1-8 3.3-1 1-2 3-2 4.6-.3 4.5 3 7.3 7.7 7.6m22.2 3v-.3c-4 0-8.2 0-12.3 0-2.4 0-3 .4-3 3-.3 3.7-.1 4 3.6 4.4l1.4.1 21.6.6c3.7.1 4.4-.6 4-4.3 0-.4-.2-.8-.2-1.2 0-1.7-1-2.3-2.5-2.3H42m58 7c-.2-4.3-.7-8-3.3-11-1.7-2-3.4-2.4-5.6-.8-2.3 1.7-3 4.3-4 6.7a18 18 0 0 0-.8 2.5c-1 4.4-1 4.4-5.7 4.8-19.2 2-38.4 2.6-57.7 2.3L5 78.8c-1.6-.1-2-.7-2-2.4-.2-8.5 2.2-16.2 7.7-22.6 2-2.3 5-4.2 8-5a85 85 0 0 1 17-3.3c20.2-1.5 40.5-2 60.7-1 2.3.1 4.8.4 7 1.2 7.2 2.7 14.5 3.5 22 2 .3 0 .5 0 1 0a89 89 0 0 1 1.6 22.1h-.6c-.1-.6-.1-1.2-.3-1.7-.5-1.3-.8-2.8-1.7-3.8-1.8-2-4.5-1.5-5.4 1-.6 1.7-1 3.6-1.4 5.3-.2.6-.7 1.5-1.2 1.6l-17.2 3" class="D"/><path d="M129 47.3c5.6-2 9.6-6 12.8-11.3a69 69 0 0 1 4 17l.3 4.7c0 .4-.7 1-1 1.3h-.2c-5 .6-5 .6-7-4.2-.2-.4-.3-.8-.5-1-.6-.5-1.2-1-2-1.3-.4.6-1 1-1 1.8a17 17 0 0 0-.3 3.3c-.1 2.8-.1 2.8-3 2.5l-2-12.8m-12.6-27.6l-.6.1c-.6-1-1-1.8-1.8-2.6-.3-.3-1-.5-1.6-.4-.3.1-.6 1-.6 1.3.8 4 4 5 6.7 2.8 1.6 0 3.4.5 4-.1 1-.8 1-2.5 1.2-3.8.1-.3-.7-1-1-1-.3-.1-1 .5-1 1-.3.6-.2 1.3-.3 2l-.5.2c-.6-.8-1.2-1.6-2-2.3-.4-.4-1-.6-1.6-1-.2.6-.6 1-.7 1.7-.2.8-.1 1.6-.2 2.4m17.6 2c-3 3.4-7.7 5.4-8 11-.7-.7-1.6-1.3-2-2-.2-.3.7-1.2 1-1.8l4.3-7c.3-.5-.3-2-.8-2.3-1.3-.4-1.3.8-1.6 1.7-.7 2.6-2.2 4.8-4.6 6.5-.8-1-1.6-1.8-2-2.8-.8-1.4-1.6-1.3-2.5-.3l-3 3.8c-2.4-4.7-5-8.8-5.6-14-.2-2 .7-3 2.6-3.4 3.7-.8 7.3-.4 10.6 1a27 27 0 0 1 11.7 9.4M98 75.6c.1 3.3-1 6.8-3.4 10-1.5 2-2.5 2-4.2.1-2.7-2.8-2.7-6.3-2.2-9.6.5-3 2-6 3-8.8.1-.4.4-.7.7-1 1.7-1.8 2.3-1.7 3.7.2 2 2.6 2.4 5.6 2.3 9.2M136.4 26l3.6 6.8c.2.4 0 1-.3 1.5-3.7 7-9.3 11-17.7 11.8l1.2-7.2c.1-.3.5-.6.8-.7 6-1.8 9.6-6.2 12.3-12" class="C"/><path d="M129 79c.3-3 .7-5.7 1-8.6.1-2.8 0-5.5 0-8.3 2.7-.6 6.7.8 5.7-4 .4.2.6.2.6.3 1.7 3 1.7 3 5.5 2.8l4.3-.4c.2 7-2 13-4 19.4-2-.1-2.5-1-2-2.6l1.6-10.8c.4-3-.1-3.5-3-3.3-4.8.3-4.8.3-5.5 4.8l-1.5 9.2c-.2 1-.5 2-2.2 1.5M106 14l-3-3c1.5-1 3-1.5 3.6-2.5s.1-2.5.1-4l2.2 1.2c3 2 4 1.6 5.2-1.8.1-.4.3-.7.4-1 1.2 1.3 2 3.5 3.4 3.7 1.3.2 3-1.4 4.6-2.4 1 1.5.4 3-.4 4.4-.2.3-1 .2-1.7.2-2.6-.2-5.3-.7-8-.7-4 .1-5.3 1.5-6.4 5.7" class="D"/><path d="M60 26.5c-.6-.6-1-1.3-1.7-1.8S57 24 56 23.5c0 1-.2 1.8.1 2.7.3 1.2.8 2.3 1.3 3.4l-.7.4c-1.3-2-2.7-3.8-3.7-6-.2-.4.7-1.6 1.3-2 2.7-1.8 6.2-2.4 10.4-2l.2 4.5c-1.4-1-2.2-2-3.2-2.5-.5-.3-1.2-.3-2-.5v2c.2 1 .5 1.7.7 2.5l-.6.3zM121.6 80c-.4-.8-1-1.6-1.3-2.5-.7-3.6-.2-7 1-10.5.2-.4.7-.7 1-1 .4.5 1.2 1 1.2 1.5.2 2.5.4 5 .1 7.4-.1 1.7-1 3.4-1.4 5h-1m-5.2-34l1-7.8 4 .4-.7 4.2c-.6 3.5-.8 3.7-4.3 3.2M42 82.3l6-.3c-.6 2.3-2.6 4.3-4 4-1.7-.4-1.8-2-2-3.7m93-57l-2.7 4.6-2.3-1 4.4-4 .6.4M127 73c.3 3.8-.2 6-2 7l2-7" class="C"/><path d="M54.3 73.6c.5-2.7.3-3-2-3l-23-.2c-.2 0-.5.1-.8.2V73l25.7.6m-12.7-5.4H54c1.7 0 2.6.6 2.5 2.3a5 5 0 0 0 .2 1.2c.4 3.7-.4 4.4-4 4.2l-23-.7c-3.8-.5-4-.7-3.6-4.4.2-2.5.7-3 3-3l12.4.3m-21.8-5.3L25 61c1.8-1 2.7-2.7 2.4-4.8-.3-2-1.4-3-3.2-3.6-2.7-1-7.7.6-9.3 3-.4.6-.6 1.3-.7 2-.2 3 2 5 5.5 5.3m-.2 2.2c-4.8-.3-7.8-3-7.6-7.3.1-1.5 1-3.3 2-4.4 2-2 4.8-3 7.8-3.2 4.3-.1 7.4 2 8 5.7.6 3.5-1.7 7-5.5 8.3-1.5.5-3.2.7-4.8 1" class="B"/><path d="M67.4 64.4c.5 0 .8.1 1 0 2-.6 4-.8 4.7-3 .3-1.2.1-3.2-.8-4-3-3.7-8.3-4.2-11.4.4-1 1.3-.8 2.7.1 4 1.6 2.4 4 2.3 6.3 2.7h0zm.1 2.6c-1.6-.3-3.2-.6-4.7-1-2.6-.8-4.3-2.7-4.7-5.4-.5-3.3 1.4-5.5 4-7.2 3.8-2.6 10-1.3 12.6 2.5 1.5 2.2 2 4.6.8 7-1.4 2.7-4 3.4-6.8 4-.3.1-.7 0-1 0v.2z" fill="#434e5e"/><path d="M54.8 59c-7.2-2.3-14-1.6-21-1-.5 0-1-.6-1.6-1 .4-.4.8-1.2 1.2-1.3 7.2-1 14.3-1.5 21.3.7.6.2 1 1 1.4 1.5l-1.2 1" class="B"/><path d="M103.6 60.2l.5 4.6c1.8-1.5 1.6-2.8-.5-4.6m-2.4-.3v-3.4c.1-1.2 2-2 2.5-1 1.8 2.5 4.5 4.6 4.2 8.2-.2 2-1.4 3.3-3.2 3.4-2.2.2-3-1-3.4-3L101 60h.2" class="E"/><path d="M37.5 58l14 1.7c.6.1 1 1 1.6 1.4-.7.3-1.4 1-2 1l-16-1c-.7 0-1.4.2-2 .1-.7-.1-1.3-.5-2-.8.6-.5 1-1.4 1.7-1.5 1.5-.3 3-.3 4.7-.4V58m48.8-30.5l-15.3.1c-.6 0-1 .8-1.7 1.3l.3.8h15.7c1.5 0 1.3-1 1-2.2m-7-2.5h7c2.4-.1 2.7.2 2.8 2.6V29c-.3 2.8-.6 3-3.4 3-5.3 0-10.7-.1-16-.2-2.3 0-2.7-.6-2.4-3 .3-3.3 1-4 4.3-4 .7 0 1.4-.1 2 0 2 .2 3.4-.2 4-2.4.2-1 .8-2.2 2-1.4.4.2.2 1.5.1 2.4 0 .4-.2.7-.4 1.4" class="B"/><path d="M107.6 40l-9.8-3.8c-.4-.2-.5-1-.7-1.5.5-.2 1.2-.8 1.6-.7l9.5 3.3c.4.2.8 1 .8 1.5 0 .3-.8.7-1.4 1.2m-2.6 2l-8-2c-.5-.1-.7-1-1-1.4.5-.2 1-.7 1.6-.6l7.4 1.8c.5.1.8 1 1 1.4 0 .2-.8.6-1 .7m11.7-25.3c.1-.5.5-1 .7-1.6.5.3 1.2.5 1.6.8l2 2.2.5-.2c.1-.6.1-1.2.3-1.8.2-.4.8-1 1-1 .5.1 1.2.7 1 1-.2 1.3-.4 2.8-1.2 3.6-.7.6-2.4.1-4 .1-2.7 2.2-6 1-6.7-2.6-.1-.4.3-1 .6-1.2.5-.1 1.2 0 1.6.4.7.7 1.2 1.6 1.7 2.4l.6-.1.2-2.2z" class="E"/><path d="M53.8 74L28 73.4v-2.2c.3-.1.6-.2.8-.2l23 .2c2.2 0 2.4.3 2 2.8m-34-11c-3.8-.4-6-2.4-5.8-5.6.1-.7.3-1.5.7-2 1.7-2.4 7-4 9.8-3 2 .6 3 2 3.4 3.8.3 2.2-.6 4-2.5 5-1.7 1-3.7 1.3-5.6 2M67 65c-2.2-.4-4.7-.3-6.3-2.7-1-1.3-1-2.7-.1-4 3-4.6 8.3-4 11.5-.4.8 1 1 3 .8 4-.6 2-3 2.4-4.8 3-.3.1-.5 0-1 0m36-5c2.5 2 2.6 3.3.6 5l-.6-5M86.8 28c.3 1 .5 2-1 2H70.3l-.3-.8c.5-.4 1-1.2 1.6-1.2h15.2" class="C"/></g><path d="M509 110c-13.3-8-20.8-16.3-22.6-25.2-2.7-13.2 8-31.8 13.3-20 3.5 8 5 16 4 23.8 2.7-20.3 7.5-31 14.6-31.8 5.8-.7 4.8 11-3.2 35.6l-6 17.4z" stroke="#e5f4f4" stroke-width="3"/><path d="M462 140c-.3-3.3 5-11 7-12l1 1v11h-8z" class="D"/></g></svg>