<svg xmlns="http://www.w3.org/2000/svg" xmlns:xlink="http://www.w3.org/1999/xlink" width="431" height="282"><style><![CDATA[.B{fill:#3d4758}.C{fill:#fff}]]></style><defs><path id="A" d="M.16.4h29.7v29.33H.16z"/><path id="B" d="M.34.18h33.34v5.37H.34z"/><path id="C" d="M.13.14H10.3V3.3H.13z"/><path id="D" d="M.13.13h2.9V9.8H.13z"/><path id="E" d="M0 .05h71.98V83H0z"/><path id="F" d="M48.24 117.46c1.22.1 3.24 3 2.84 3.78a1.4 1.4 0 0 1-1.19.27c-.76-.95-1.46-1.96-2.04-3.02-.13-.23.28-.75.4-1.03"/><path id="G" d="M55.26 118.1l-1.08 1.8c-.4-.6-.9-1.16-1.15-1.8a3.9 3.9 0 0 1-.22-1.81c.05-.45.4-.86.62-1.3.42.3 1.05.53 1.23.93.26.6.2 1.32.3 2l.3.18"/><path id="H" d="M57.74 117.4l.88-1.57c.28.54.76 1.1.77 1.64.01.54-.47 1.1-.73 1.65l-.92-1.7"/></defs><g transform="translate(-17 -3)" fill="none" fill-rule="evenodd"><path d="M140.34 141.5c11.54-10.84 27.07-17.5 44.16-17.5 6.07 0 11.94.84 17.5 2.4C202.05 67.08 250.16 19 309.5 19c36.85 0 69.37 18.54 88.74 46.8C428.16 84.9 448 118.38 448 156.5c0 59.37-48.13 107.5-107.5 107.5a107 107 0 0 1-62.82-20.25C268.35 267.88 244.93 285 217.5 285c-22.14 0-41.68-11.16-53.3-28.16A64.2 64.2 0 0 1 126.5 269a64.5 64.5 0 1 1 0-129c4.75 0 9.38.5 13.84 1.5z" fill="#e5f4f4"/><g transform="translate(106 39)"><path d="M34 205.46l-.4.54c-.2-.23-.57-.43-.6-.7l-.74-5.55c-.1-.66-.23-1.32-.26-1.98-.01-.25.24-.52.37-.78.2.2.53.36.58.6.2.87.3 1.77.42 2.66l.62 5.2" class="B"/><g transform="translate(278 130)"><mask id="I" class="C"><use xlink:href="#A"/></mask><path d="M12.82 11.33l3.28-3.66c1.67-1.57 3.68-1.8 5.82-1.05 1 .35 1.54 1.16 1.45 2.12-.14 1.56-.27 3.2-.84 4.62-1.18 2.98-2.65 5.84-4 8.76-.23.5-.44 1.02-.46 1.66l.73-.8 5.57-5.48c.62-.57 1.5-.95 2.32-1.2a2.2 2.2 0 0 1 3.14 2.47 13.5 13.5 0 0 1-.66 2.98l-1.4 3.88a7.6 7.6 0 0 0-.36 1.54c-.14 1.14.03 1.28 1.5 1.08-.27.57-.37 1.2-.68 1.33-.7.3-1.53.1-1.8-.65-.25-.73-.36-1.62-.18-2.36.34-1.47.93-2.88 1.4-4.32.32-1 .68-2 .88-3.04.3-1.6-.54-2.3-2-1.57a11.2 11.2 0 0 0-2.83 2l-4.86 5.16c-.4.44-.8.9-1.3 1.22-.26.17-.77.2-1.05.06-.23-.12-.4-.6-.38-.9a4.7 4.7 0 0 1 .41-1.52l3.9-8.57c.7-1.6 1.33-3.28 1.7-4.98.4-1.95-.25-2.98-2.8-2.65-2.35.3-3.82 2.03-4.8 3.95-.85 1.66-1.24 3.56-1.82 5.36-.1.27-.04.6-.17.82-.12.2-.43.5-.6.47-.24-.06-.57-.34-.6-.57-.1-.44-.02-.9.03-1.37a41.4 41.4 0 0 0-.7-12c-.1-.52-.23-1.04-.46-1.5-.17-.35-.5-.6-.78-.9-.27.26-.68.47-.78.78L7.14 8c-.56 3.26-.18 6.54.26 9.8.04.28.16.57.1.83-.06.3-.27.58-.4.87-.3-.2-.74-.32-.85-.6-.4-1-.7-2.07-1.07-3.1L3.6 11.78c-.2-.44-.67-.75-1.02-1.12-.28.46-.76.9-.8 1.4l-.1 6.2c.12 1.6.68 3.16.98 4.75.05.3-.2.63-.3.95-.3-.18-.8-.3-.86-.54-.97-3.9-1.92-7.83-.9-11.9.08-.3.2-.6.33-.9.73-1.56 2.1-1.76 3.13-.4.55.72.95 1.56 1.58 2.64 0-.6-.04-.94.01-1.27.35-2.6.65-5.23 1.13-7.83.16-.86.67-1.7 1.2-2.45C8.92 0 10.5.1 11.06 1.6c.63 1.7.98 3.52 1.3 5.3.27 1.48.3 3 .45 4.43" mask="url(#I)" class="B"/></g><g transform="translate(64)"><path d="M172.76 123.12c-14.8-.5-29.58.3-44.3 1.68-10.54 1-21.07 2.14-31.54 3.67-13.34 1.96-26.55 4.7-39.13 9.8a32.4 32.4 0 0 0-13.47 10.41c-.85 1.1-1.4 2.78-1.4 4.18a18.4 18.4 0 0 0 2.71 9.68c3.77 6.1 9.3 10.28 14.86 14.5 8.5 6.48 18.23 10.34 28.05 14.14 10.65 4.12 21.14 8.68 32.22 11.54l31.65 8 40.64 8.96c4.1.86 8.33 1.06 12.5 1.58.86.1 1.73.2 2.54.46.4.13.7.6 1.04.92-.45.25-.9.67-1.36.7-.67.04-1.35-.27-2.04-.32-12.73-1-25.08-4.1-37.46-7.08-10.58-2.56-21.25-4.68-31.8-7.32-9.2-2.3-18.44-4.68-27.42-7.76-10.63-3.64-21-8.05-31.46-12.17-10.67-4.2-19.9-10.78-28.2-18.65-4.75-4.5-8.1-10.03-8.2-17.05a8.8 8.8 0 0 1 2.34-6.21c5.32-6.1 11.94-9.9 19.54-12.34 14.56-4.68 29.5-7.37 44.58-9.27 19.1-2.4 38.26-3.85 57.5-4 10.93-.08 21.87.35 32.8.54 1.67.03 3.34-.05 5 .07.57.04 1.1.53 1.65.82-.54.3-1.08.84-1.62.83l-30.2-.3" class="B"/><path d="M204.8 129.17c.4.02.87-.04 1.17.16.38.24.62.7.92 1.08-.4.22-.8.63-1.2.62-8.52-.1-17.05-.73-25.54-.3-10.1.5-20.16 1.78-30.2 2.96-4.58.54-9.12 1.6-13.65 2.55-1.38.3-2.63 1.2-4 1.53-3.48.83-3.67 5.24-1.06 7.25a30.5 30.5 0 0 0 11.38 5.52c13.7 3.43 27.64 5.42 41.57 7.43l28.56 3.9c1.53.2 3.1.2 4.6.48.53.1.98.7 1.47 1.1-.53.2-1.1.62-1.6.56l-28.43-3.5-28-4.33c-7.26-1.3-14.45-3.07-21.64-4.8-3.7-.88-6.8-3.08-9.6-5.66-3.1-2.84-2.48-7.28 1.23-9.13 4.75-2.37 9.8-3.53 15.02-4.12l30.35-3.37c4.2-.4 8.46-.07 12.7-.07v-.46l15.95.6z" fill="#353f4e"/><path d="M96.2 124.56c-.92 0-1.85-.1-2.75.02-2.46.3-4.5-.6-6.6-1.9-1.44-.9-3.3-1-4.9-1.62-2.56-1-5.08-1.46-7.65-.1-.82.44-1.7.8-2.45 1.33-1.52 1.07-2.83.7-4.03-.53-4.7-4.8-9.74-4.12-14.23-1.7l-6.62 3.5c-2.35 1.34-4.37.44-6.5-.68-3.7-1.95-7.45-3.75-11.2-5.57-.38-.18-.93-.2-1.34-.06l-15.8 5.04c-3.5 1.17-6.92 2.6-10.4 3.78-.47.16-1.14-.35-1.72-.55.42-.38.8-.92 1.27-1.1l16.7-6.24c3.27-1.13 6.64-1.94 10-2.72a4.3 4.3 0 0 1 2.64.48 467.2 467.2 0 0 1 11.16 5.67c1.5.8 2.9 1.1 4.57.27 3.45-1.76 6.92-3.57 10.52-4.9 4.32-1.6 8.24-.18 11.58 3 1.03.97 1.83 1.3 3.16.5 1.42-.87 3-1.57 4.6-1.9 1.28-.28 2.7-.03 4.03.17 1.18.18 2.35.55 3.5.97 1.66.6 3.28 1.37 4.94 2 1.12.42 2.26.95 3.42 1.02 3.26.2 6.53.12 9.8.26.5.02.97.55 1.46.85-.5.3-.97.85-1.47.88-1.9.1-3.78.04-5.68.04v-.14zm56.48-82.7c8.27.58 14.48-6.82 15.05-13.03.34-3.74.2-7.44-3.3-9.62-5.24-3.26-11.03-5.14-17.15-3.88-4.7.97-9.43 2.6-10.74 8.37a41.2 41.2 0 0 0-.73 3.93c-.8 6.37 3.56 11.78 8.77 13.02 2.65.63 5.4.8 8.1 1.2m-.1 1.82c-3.37-.58-6.97-.57-10.05-1.86-5.67-2.38-9.12-7.62-8.4-14.37.16-1.5.4-3.02.88-4.43.76-2.18 1.4-4.54 3.53-5.82 3.83-2.3 7.78-4.22 12.4-4 5.18.25 10.03 1.6 14.4 4.5a9.1 9.1 0 0 1 4.13 7.1 16.9 16.9 0 0 1-7.1 15.91c-2.54 1.9-5.06 2.58-9.8 2.97m43.35 14.2l-.1-.3c-.92.3-2.33.36-2.65.98-.57 1.13-.9 2.72-.54 3.85.25.77 1.93 1.57 2.9 1.48 1.87-.16 3.7-.88 5.5-1.48 1.48-.5 2.75-.4 3.95.7 1.5 1.4 2.63 1.48 4.28.45 1.84-1.14 3.62-1.7 5.7-.28 1.3.9 2.9.67 4.2-.2 1.24-.83 1.34-2.15 1.07-3.53-.5-2.52-3.2-3.83-5.56-2.6-2.42 1.25-4.72 1.9-7.14-.07-.9-.73-1.9-.78-3.05.15-.9.72-2.27 1.04-3.46 1.1-1.7.1-3.4-.16-5.1-.26m-.33-1.74l4.25.35a5.2 5.2 0 0 0 4.36-1.39c1.33-1.25 3.1-.55 4.24.36 1.84 1.46 3.44 1.13 5.17.1a5.5 5.5 0 0 1 4.9-.47c2.88 1.06 4.34 4.8 3.07 7.57-1.18 2.57-4.85 3.73-7.5 2.13-1.44-.87-2.54-.6-3.78.13-2.64 1.56-4.02 1.38-6.5-.47-.55-.4-1.58-.42-2.32-.27-2.1.4-4.12 1.2-6.22 1.43-1.84.2-3.7-.66-4.32-2.45-.67-1.94-.58-4.22.94-5.8.82-.86 2.32-1.06 3.5-1.56l.18.37m-93.8 149.06l-1.1 5.46c-.08.4 0 .85-.14 1.22-.32.85-.72 1.66-1.1 2.5-.77-.4-1.64-.7-2.3-1.26l-5.55-5.16-.46.18.64 3.84c.14.75.47 1.47.53 2.22.03.34-.4.72-.6 1.08-.32-.2-.87-.37-.92-.62l-1.14-7.96c-.1-1.34 1.1-1.4 2-.83.96.62 1.8 1.43 2.66 2.22l4.33 4.16 1.26-6.24a8.9 8.9 0 0 1 .6-2.02c.38-.74.94-1.38 1.43-2.06.56.6 1.33 1.13 1.62 1.85.76 1.9 1.33 3.87 1.94 5.83.3 1 .52 2 .85 3.33l3.7-4.7c.43-.5 1.2-.67 1.8-1 .15.7.43 1.4.4 2.1-.03 1.1-.18 2.23-.44 3.3-.12.5-.63.93-.96 1.4-.24-.47-.53-.93-.7-1.43-.1-.35-.02-.77-.4-1.34l-2.35 3.5c-.35.47-.92.78-1.4 1.17-.34-.5-.83-.93-1-1.48l-2.2-7.97c-.12-.44-.33-.85-.5-1.27h-.53m79.7-20.6l-12.97-2.43c-8.93-1.7-17.85-3.45-26.42-6.6-1.17-.43-2.46-.53-3.66-.88-.4-.12-.74-.55-1.1-.84.5-.27 1.05-.86 1.46-.77 2.28.5 4.53 1.2 6.8 1.8 5.3 1.4 10.57 2.93 15.92 4.1 6.6 1.45 13.25 2.57 19.87 3.9.44.1.78.65 1.17.98l-1.06.75" class="B"/><g transform="translate(205.09 186.26)"><mask id="J" class="C"><use xlink:href="#B"/></mask><path d="M32.35 5.55l-20.78-2.3L2.7 2c-.46-.07-.98-.03-1.34-.25-.4-.25-.68-.74-1-1.12.45-.16.9-.5 1.34-.45l5.46.76L31.98 3.8c.6.07 1.13.64 1.7.98l-1.33.77" mask="url(#J)" class="B"/></g><path d="M185.06 139.83l1.78-3.16c.24-.36.78-.67 1.2-.7.24-.01.62.58.73.97l.94 3.93c2.64-1.9 3.18-1.68 3.7 1.46.17 1 .36 2 .37 3 0 .45-.42.9-.65 1.35-.32-.38-.82-.7-.92-1.14-.27-1.13-.37-2.3-.54-3.45l-.57-.47c-.17.4-.24.92-.54 1.18-.47.42-1.1.67-1.64 1-.32-.6-.76-1.18-.93-1.83-.22-.83-.22-1.72-.3-2.58l-.43-.07-.94 2.56c-.2.4-.55 1-.87 1.03-.36.03-.85-.43-1.12-.8-.42-.57-.7-1.25-1.5-1.9l-.4 2.46c-.1.4-.52.73-.8 1.1-.26-.37-.8-.8-.75-1.1.25-1.47.5-2.98 1.08-4.34.44-1.05 1.4-1.04 2.13-.08.33.43.58.92 1 1.57m-71.24 25.88c-1.56 1.55-2.82.4-3.96-.35-4.76-3.12-7.8-7.62-9.96-12.75-.4-.98-.42-2.12-.6-3.2 1.17-.44 1.63-.33 1.92.85a19.4 19.4 0 0 0 1.81 4.87c2.46 4.4 5.72 8.07 10.47 10.17.1.04.14.17.33.42M110.6 42.86l-.78-.76c.32-.37.6-.96.97-1.07l5.86-1.42 9.5-2.5c.4-.1.94.32 1.42.5-.33.4-.6 1.1-1 1.2l-15.38 3.94c-.1.03-.23.04-.6.12m34.5 7.43c.08.62.4 1.34.2 1.86-1.27 3.16-2.7 6.27-4 9.4-.56 1.33-.93 2.73-1.52 4.04-.2.47-.84.77-1.28 1.15-.13-.54-.52-1.17-.35-1.6 1.36-3.48 2.84-6.93 4.26-10.4.46-1.12.85-2.27 1.3-3.4.16-.4.45-.73.68-1.1l.7.03M179.2 29.6c-1.05 0-2.1.1-3.14-.04-.58-.08-1.1-.56-1.65-.86.5-.3 1-.83 1.53-.86l9.94-.44c.93-.04 1.86-.25 2.78-.18.38.03.73.6 1.1.9-.32.28-.63.76-.97.8l-9.57.76v-.08m-58.27 101.44a18.2 18.2 0 0 0-.64-.47c.28-.36.5-.94.86-1.03a38.2 38.2 0 0 1 4.58-.93l7.93-.86c.37-.03.77.4 1.16.63-.3.34-.55.93-.9 1l-13 1.67m-6.32-122.8l3.18 1.3 8.1 4.55c.4.24.57.92.85 1.4-.56.04-1.23.3-1.67.07l-7.4-4.04c-1.06-.57-2.2-.97-3.26-1.56-.3-.18-.57-.7-.6-1.1-.01-.2.53-.44.77-.63m-.16 124.97l-5.27 1.78c-2.4.74-4.2 2.26-5.74 4.26-.36.47-1 .7-1.68.87-.1-2.42 1.45-3.88 2.96-4.76 2.58-1.5 5.47-2.43 8.3-3.46.42-.16 1.1.44 1.67.7l-.23.62M60.4 72l4-3.02c.45-.28 1.2-.04 1.83-.04-.3.5-.53 1.1-.94 1.47l-3.23 2.75c-1.83 1.64-2.8 1.36-3.45-1l-1.2-3.76c-.14-.5-.04-1.1-.05-1.63.56.26 1.32.38 1.64.82.43.6.52 1.45.75 2.2l.66 2.2m-16.94 9.9l3.08-3.8c.42-.43 1.26-.45 1.9-.65-.2.57-.3 1.2-.6 1.7l-3.2 4.76c-.73 1.2-1.43 1.3-2.17.08-.76-1.24-1.46-2.52-2.07-3.84-.16-.34.15-.9.24-1.36.42.16 1 .2 1.24.5.57.72.97 1.58 1.56 2.58m128.5-41.5l.64.2 10.3 3.9c.5.2.82.85 1.22 1.3-.57.13-1.22.5-1.7.35-3.36-1.14-6.68-2.4-10-3.63-.38-.14-.76-.4-1.04-.7-.16-.18-.25-.62-.14-.82.14-.27.5-.42.72-.6" class="B"/><g transform="translate(211.55 221.7)"><mask id="K" class="C"><use xlink:href="#C"/></mask><path d="M9.23 3.3L1.2 2.02C.8 1.94.48 1.36.13 1 .5.7.9.1 1.24.14l8.22 1.15c.32.06.56.8.84 1.2l-1.07.8" mask="url(#K)" class="B"/></g><path d="M138.3 126.1l9.2.03c.36.01.7.4 1.07.6-.28.28-.55.8-.85.8l-8.18.2c-.5-.01-.98-.68-1.46-1.04l.24-.6" class="B"/><g transform="translate(159.87)"><mask id="L" class="C"><use xlink:href="#D"/></mask><path d="M3.02.98L1.58 9c-.06.32-.58.54-.9.8-.2-.37-.6-.78-.56-1.1L1.5.75c.06-.28.67-.7.92-.6.3.1.47.64.6.84" fill="#000" mask="url(#L)"/></g><path d="M75.23 78l2.8-1.34c.3-.1.73.22 1.1.35-.13.34-.17.82-.4 1-1 .7-2 1.47-3.1 1.9-.5.2-1.28-.34-1.9-.64-.17-.1-.16-.53-.3-.77-.33-.57-1.35-1.14-.3-1.72.34-.2 1.23.63 1.87 1 .1.05.16.15.25.23m86.55-19.5c-.62-.83-1-1.18-1.18-1.62l-1.53-4.34c-.1-.4.27-.97.43-1.47.36.3.9.5 1.06.88a47 47 0 0 1 1.69 4.65c.12.4-.22.93-.47 1.9m-7.66 66.75l1.7.82-1.66.74c-.2.08-.5.12-.7.06l-1.7-.66 1.47-.68c.2-.08.46-.04.7-.05l.18-.23" class="B"/><path d="M152.7 42l-8.15-1.2c-5.23-1.25-9.6-6.7-8.8-13.13.17-1.33.44-2.66.74-3.97 1.32-5.84 6.08-7.47 10.78-8.45 6.15-1.28 11.97.62 17.23 3.9 3.52 2.2 3.67 5.93 3.33 9.7-.57 6.26-6.8 13.73-15.12 13.14m42.94 16.5c1.73.1 3.46.4 5.18.27 1.2-.08 2.6-.4 3.5-1.16 1.16-.96 2.18-.92 3.1-.15 2.45 2.05 4.8 1.37 7.24.07a3.8 3.8 0 0 1 5.64 2.71c.27 1.43.18 2.8-1.08 3.67-1.33.9-2.96 1.15-4.27.22-2.1-1.5-3.9-.9-5.76.3-1.67 1.06-2.8.97-4.34-.47-1.2-1.14-2.5-1.23-4-.72-1.84.62-3.7 1.37-5.6 1.54-.98.1-2.68-.75-2.93-1.54-.38-1.18-.04-2.84.54-4 .32-.64 1.75-.7 2.68-1.02l.1.32" class="C"/></g><g transform="translate(41 102)"><mask id="M" class="C"><use xlink:href="#E"/></mask><path d="M47.67 12.9h-.1l-.44 1.32-.4 1.53c-.05.17-.24.3-.37.43-.13-.14-.3-.26-.37-.42-.1-.24-.16-.5-.24-.76l-.63-2.03c-.05-.13-.2-.26-.33-.32-.04-.02-.2.14-.27.25l-1.85 3.3c-.1.2-.2.43-.45.33-.15-.06-.28-.27-.33-.43l-.63-2.52c-.02-.1-.1-.24-.17-.24-.1 0-.23.07-.3.15-.06.05-.1.15-.12.23-.13.32-.23.66-.4.97-.55 1.02-1.17 2-1.96 2.85l-2.54 3.02a41.8 41.8 0 0 0-2.16 3.24c-.55.9-1 1.86-1.52 2.77-.76 1.3-1.35 2.7-1.92 4.1-.35.86-.6 1.76-.94 2.63l-1.1 2.86-1.3 4.7c-.2.77-.27 1.57-.4 2.36-.05.34-.06.68-.08 1.02-.02.35-.1.72-.01 1.04.16.6.4 1.2.62 1.8l.55 1.38c-.04.1-.1.23-.18.35-.15.25-.44.3-.56.07-.23-.4-.48-.82-.65-1.25l-1.13-3.16-1-3.5-.87-4.14a21 21 0 0 0-1.49-4.34l-2.72-6.67c-.2-.6-.5-1.14-.75-1.7l-.13.03-.27 1.03-.62 3.62c-.1.5-.1 1.06-.53 1.4l-2.17 1.62c-.85.53-1.8.93-2.65 1.44-.64.38-1.33.57-2 .4-1.18-.3-2.33-.7-3.5-1.08l-2.1-.8c-.12-.04-.36.03-.42.13-.06.08.01.34.1.42.63.52.9 1.24 1.22 1.96l1.95 4.18 2.27 3.96c.53.97 1.2 1.87 1.4 3l.22 1.32.43 2.75.4 3.4.5 3.5c.1 1.02.12 2.04.16 3.06l.08 2.7a17.3 17.3 0 0 1 .01 3.61l-.16 1.42c-.02.46.08.93.06 1.4l-.22 3.5-.02 1.18-.2 2.63-.03 1.78-.14 2.7c-.01.28.15.4.4.45l2.1.38c.52.1.85-.06.9-.48l.4-2.83.46-3.03.44-2.54 1.15-9c.06-.5.1-1 .23-1.48.38-1.37.58-2.83 1.63-3.9.23-.24.6-.36.9-.5.18-.08.38-.12.57-.16.15-.03.33-.1.47-.05.77.24 1.25.8 1.56 1.52a6.1 6.1 0 0 1 .28.77c.1.4.24.8.26 1.23.02.32-.08.64.12.8l.06.56.07.88c.01.15-.03.3-.02.45l.14 1.15.15 3.67-.07 11.22c0 .13.02.26-.01.38-.02.1-.1.2-.14.3-.04.16-.06.32-.1.54l.24-.13c.02.68.1.74.75.78.52.03 1.04.08 1.56.17.5.08.78-.14.8-.64l.15-2.07.37-3.83.67-7.1c.07-1.34.4-2.62.64-3.92l2.14-10.48 1.65-5.83c1.12-3.36 2.32-6.7 3.55-10.02.7-1.92 1.44-3.86 2.6-5.57.32-.48.76-.97 1.27-1.2.9-.4 1.8-.23 2.53.48.7.68 1.36 1.36 1.82 2.26.6 1.18 1.08 2.4 1.34 3.7.17.87.22 1.77.34 2.65.03.23.1.45.16.7h.1c-.03.15-.08.3-.06.42.05.43.1.87.2 1.3.06.3.22.56.25.84.08.74.18 1.5.15 2.23-.07 1.42.2 2.8.32 4.2l.45 5.65c.08 1.35-.01 2.7.15 4.07.15 1.26.17 2.54.24 3.8l.16 2.65c.03.46.1.92.14 1.4a30.6 30.6 0 0 1 .08 1.4c.01.4-.02.78.01 1.16.08 1 .2 1.98.3 2.96.06.5.13 1 .23 1.48.17.8 1.48 1.14 2.14.5.53-.52.47-1.16.42-1.78-.06-.93-.2-1.85-.3-2.78-.07-.78-.1-1.56-.16-2.34l-.53-7.43-.15-4.07c-.01-1.2.04-2.4.07-3.58l.08-2.47a13.2 13.2 0 0 1 .08-1.13c.1-.9.24-1.8.37-2.7l.46-3.04c.04-.2.13-.5.3-.6.62-.4 1.83-.15 2.2.5a11.5 11.5 0 0 1 .91 2.21c.25.8.4 1.65.56 2.48.06.3.02.63.07.94l.42 2.56.4 2.8c.12.97.2 1.95.3 2.92l.75 7.56.53 6.55c.05.62.08 1.23.16 1.85.13.94.3 1.88.45 2.8.03.2.06.5.2.57a1.4 1.4 0 0 0 .8.18c.63-.06 1.24-.2 1.88-.3l-.67-3.27-.84-4.75c-.2-1.22-.36-2.45-.52-3.68-.12-.95-.23-1.9-.3-2.84l-.3-3.8c-.01-.16-.04-.32-.05-.5-.01-.57-.05-1.15-.03-1.72.02-.58.1-1.16.14-1.74.04-.57.01-1.15.07-1.7.07-.6.23-1.17.3-1.77.15-1.2.28-2.42.42-3.63l.1.32c.26-.88.43-1.75.63-2.6.12-.52.32-1 .44-1.53.2-.85.35-1.7.54-2.56l1.3-5.8.7-3.43c.32-1.4.53-2.8 1.02-4.15.43-1.2.8-2.4 1.2-3.6.2-.6.45-1.16.62-1.76.13-.45.15-.94.25-1.4.2-.9.44-1.8.68-2.7.18-.65.45-1.3.6-1.94.37-1.52.75-3.04.77-4.62.01-.42.05-.84.04-1.26 0-.2-.07-.4-.1-.6-.12-.54-.1-1.12-.5-1.57L66.6 6.1c-.1-.13-.23-.25-.36-.36-.56-.5-1.28-.48-1.95-.5-.63-.02-1.27.1-1.9.22-1 .2-2.08.3-2.93.98-.35.28-1.1.4-.68 1.16.01.01 0 .02 0 .04.03.53.05 1.06.1 1.6.08.75.2 1.5.28 2.23l.7 6.13c.1.82.23 1.64.3 2.47.06.9.05 1.78.08 2.67.02.44.07.9.08 1.33l.07 8c-.03 2.06-.2 4.12-.3 6.18-.03.55-.06 1.1-.15 1.64a49.3 49.3 0 0 1-.46 2.52c-.12.6-.08 1.26-.54 1.76-.1-.03-.2-.1-.3-.1-.33-.01-.5-.2-.6-.5-.06-.16-.1-.34-.15-.5-.44-1.36-.75-2.75-1.26-4.1-.38-1-.47-2.1-.64-3.18-.22-1.4-.6-2.74-.78-4.14-.2-1.5-.43-2.98-.76-4.44-.48-2.2-1.05-4.36-1.6-6.53l-1.78-6.73c-.1.07-.2.1-.2.15l-.95 2.27c-.1.22-.23.44-.4.6-.05.05-.36-.02-.4-.1-.24-.6-.44-1.22-.66-1.83l-.8-2.17M23.94 25.54c.3.38.12.68.04.94l-1.3 4.03c-.03.1.02.35.08.36.14.03.34.02.44-.06.52-.43 1.02-.88 1.52-1.33.08-.07.14-.16.23-.2.1-.04.3-.08.35-.02s.08.26.04.35c-.18.35-.4.68-.6 1.02l-1.2 2.07c-.08.14-.14.4-.08.47.1.1.33.16.5.14.53-.06 1.05-.17 1.57-.26.13-.02.27-.02.4-.03l.07.1c-.1.14-.2.3-.3.42-.4.4-.8.8-1.27 1.15-.42.3-.5.7-.43 1.16l.83 4.8c.04.3.13.52.46.54.34.02.46-.24.52-.5.34-1.4.6-2.83 1-4.22.76-2.7 1.7-5.32 2.8-7.9.8-1.86 1.73-3.65 2.73-5.4.63-1.1 1.46-2.1 2.14-3.17.93-1.46 2.14-2.67 3.28-3.94.32-.36.54-.83.76-1.27l2.5-4.98c.08-.15.24-.25.37-.38.1.15.27.3.3.46l.72 3.8c.02.08.04.17.08.32l.82-1.5 1.27-2.43c.04-.08.07-.17.13-.23.14-.13.3-.25.44-.37.1.17.26.33.3.52l.66 2.63c.03.12.07.23.2.34l.94-3.26c.05-.18.24-.3.36-.47.13.14.3.26.37.43l1.52 4.1c.08-.15.13-.24.17-.34l1.46-3.65c.07-.16.25-.27.38-.4.1.16.27.3.3.47.86 4.05 1.66 8.12 2.73 12.13.46 1.74.74 3.53 1.25 5.25.32 1.08.26 2.2.5 3.27.3 1.32.5 2.65.75 3.98l.7 3.5c.07.35.2.7.3 1.04.03.08.13.13.2.2.06-.08.16-.15.17-.24.16-.95.34-1.9.45-2.84.1-.77.1-1.54.12-2.32V27.8c0-.72-.03-1.45-.06-2.17-.02-.44-.06-.88-.07-1.32-.01-.5.03-1.02-.01-1.53l-.38-4.1c-.1-.86-.25-1.7-.37-2.56l-.38-2.66c-.1-.55-.2-1.1-.3-1.65-.07-.43-.1-.87-.15-1.3l-.14-1.58c-.02-.42.02-.85-.03-1.27-.03-.23-.12-.5-.27-.67a61.9 61.9 0 0 0-1.96-2.02c-.24-.24-.24-.4-.01-.66.22-.26.45-.47.72-.68.3-.23.45-.13.62.1.26.34.5.7.78 1.03.3.4.65.76.92 1.08l2.48-1.4-.97-2.14c-.13-.28-.32-.56-.1-.85.26-.34.66-.47 1.07-.47.1 0 .28.17.33.3.3.74.58 1.5.85 2.25.12.34.3.5.7.36a6.4 6.4 0 0 1 1.01-.24c.33-.06.43-.26.44-.56L63.8.53c0-.35.12-.5.5-.48 1.04.02 1.06.01 1.04 1.07a64.9 64.9 0 0 1-.07 2.06c-.01.28.04.5.33.6.24.1.45.28.7.38.26.1.46.08.58-.26.24-.7.54-1.37.8-2.05.2-.48.5-.58.94-.3.6.36.6.38.38 1.04-.3.86-.54 1.73-.87 2.56-.2.48.1.76.27 1.1.01.01.02.01.03.02.53.5.52.5.87-.18l1.48-2.72c.07-.13.2-.23.3-.35.3.18.56.3.8.5.1.07.16.28.12.38-.37.86-.77 1.7-1.16 2.56-.15.32-.25.67-.42.98-.5.93-.56 1.9-.46 2.95.08.83-.08 1.66-.27 2.48L67 24.17c-.16.63-.4 1.24-.57 1.86-.05.17-.03.36-.08.52l-.74 2.5c-.17.65-.28 1.32-.43 1.97l-4.1 17.6c-.16.7-.2 1.4-.3 2.12l-.3 2.7c-.1.9-.2 1.8-.23 2.7a58.9 58.9 0 0 0-.07 4.07c.03.92.2 1.84.32 2.76l.34 2.46.28 2.12c.03.23.01.46.05.68.08.43.2.86.28 1.3l.46 2.5.74 3.76a30.1 30.1 0 0 1 .31 1.92c.03.26-.12.46-.4.48l-3.23.15c-.42.02-.8-.08-1.12-.4-.05-.05-.12-.1-.2-.12-.5-.08-.64-.43-.68-.88-.05-.6-.13-1.2-.2-1.8l-.3-2.54c-.06-.6-.1-1.2-.17-1.8l-.44-4.85-.4-3.66-.53-5.2c-.08-.9-.08-1.82-.16-2.73-.1-1-.23-2-.38-2.98s-.34-1.97-.53-2.96a32.3 32.3 0 0 0-.4-1.86c-.03-.1.02-.37-.3-.33-.07.01-.2-.38-.3-.6-.03-.07 0-.17 0-.25-.53-.07-.52-.06-.6.43-.33 1.7-.5 3.42-.46 5.16.03 1.1 0 2.2.01 3.3 0 .25.1.5.12.74.02.16.06.34.02.5-.3.93-.1 1.9-.12 2.83-.01.85.08 1.7.13 2.56l.52 8.58c.08 1.32.1 2.64.17 3.96l.15 2.7c.02.3-.01.55-.45.5-.3-.03-.6.16-.9.1-.45-.07-.9-.07-1.33-.36-.3-.2-.74-.14-1.13-.16-.5-.02-.98-.01-1.56-.01l-.18-1.53-.56-6.7-.66-7.53a96 96 0 0 1-.38-8.27c-.01-.47.1-.94.06-1.4-.06-.8-.18-1.62-.27-2.43l-.17-1.72-.3-2.58c-.06-.5-.1-1-.16-1.5-.1-.64-.22-1.28-.32-1.92-.07-.43-.1-.87-.2-1.3-.43-1.56-.77-3.16-1.63-4.57-.15-.24-.38-.43-.58-.64-.14-.15-.32-.28-.43-.45-.34-.53-.83-.67-1.4-.56-.62.12-.97.55-1.18 1.13-.17.47-.38.92-.58 1.38l-.72 1.67c-.08.18-.13.38-.2.56l-1.17 2.82c-.28.67-.6 1.34-.83 2.03a112.4 112.4 0 0 0-1.29 3.91 81.4 81.4 0 0 0-.98 3.46c-.2.74-.3 1.5-.5 2.23-.08.32-.34.6-.42.9-.16.63-.26 1.27-.4 1.9l-.6 2.9c-.17.8-.37 1.6-.52 2.4l-.57 3.2-.64 3.84c-.2 1.3-.36 2.63-.53 3.94-.12.92-.2 1.85-.3 2.77L29 76.14l-.3 3.32-.3 2.88c-.03.3-.7.7-1.07.66l-3.26-.2c-.28-.02-.57-.04-.84-.13-.4-.14-.67-.75-.6-1.24.03-.2.06-.42.07-.63l.08-3.46.08-6.87c.01-.62.1-1.24.06-1.86-.04-1.13-.14-2.27-.22-3.4l-.08-1.52c-.03-.75-.03-1.5-.08-2.24-.04-.55-.08-1.1-.24-1.63-.17-.55-.7-.8-1.28-.78-.52.02-1.07.4-1.2.93-.2.77-.33 1.56-.46 2.35l-.84 5.38-1.12 8.08c-.1.84-.2 1.7-.33 2.53-.1.5.02 1.04-.34 1.47-.06.07-.02.22-.03.34-.03.52-.01 1.04-.1 1.55-.05.37-.68.68-1.05.65a14 14 0 0 0-1.7-.04c-.93.04-1.85-.06-2.76-.24-.07-.01-.18-.04-.2-.1-.2-.4-.55-.7-.5-1.25.1-1.34.1-2.68.17-4.02l.53-10.23c.05-.9.16-1.82.14-2.73-.04-1.24-.2-2.48-.28-3.73l-.46-5.46-.3-2.88-.5-3.84c-.07-.55-.15-1.1-.25-1.64-.03-.15-.16-.34-.3-.4-.1-.04-.3.1-.38.22l-2.2 2.86c-.1.1-.25.2-.4.22-.26.03-.4-.16-.28-.4l1.93-3.95c.25-.48.35-.95.34-1.46-.01-.37-.35-.53-.72-.36l-3.5 1.63c-.2.1-.4.22-.56-.04-.15-.25.04-.4.22-.53l2.92-2.13c.18-.13.38-.27.52-.44.1-.1.18-.33.13-.44-.23-.52-.5-1-1.14-1.12l-4.92-1c-.15-.03-.35-.24-.36-.4-.02-.2.17-.3.4-.28l2.95.22c.4.03.83.06 1.24.04.1 0 .2-.2.25-.34.02-.07-.06-.2-.12-.27-.84-1.1-1.27-2.38-1.8-3.6-.46-1.04-.98-1.96-2-2.55-.47-.27-.9-.63-1.33-.97s-.36-.86.13-1.07c.42-.18.84-.18 1.3-.03.84.28 1.72.46 2.57.7l5.22 1.5c.7.22 1.27.1 1.83-.34.24-.2.54-.3.83-.4a11.7 11.7 0 0 0 2.63-1.46c.47-.33.7-.7.8-1.27.2-1.27.5-2.52.73-3.8.18-1.02.32-2.05.47-3.08.03-.2.04-.4.1-.6.08-.27.17-.56.53-.6.38-.03.6.15.75.5l2.8 7.04c.1.24.18.5.3.73.05.1.17.3.24.28.14-.02.32-.1.4-.23L23.43 26c.12-.2.33-.3.5-.47" mask="url(#M)" class="B"/><path d="M17.8 36.74c.14-.16.28-.25.34-.38.08-.2.2-.45.13-.6l-1.53-3.16c-.03-.05-.1-.1-.15-.12-.36-.06-.7.33-.53.66l1.74 3.6m-4.34 2.83c.5-.36.55-.78.28-1.23l-1-1.8c-.14-.26-.27-.53-.45-.76-.1-.12-.3-.26-.43-.24-.5.08-.67.5-.4.95l1.2 2c.24.38.54.72.8 1.1m8.7 7.38c.2-.33.18-.4-.1-.55-.35-.2-.7-.42-.82-.86l-.5-1.66c-.34-1.18-.93-2.23-1.58-3.25L18.1 39.1c-.2-.3-.45-.52-.85-.46-.42.07-.6.4-.65.75-.1.7-.16 1.4-.15 2.1l.15 2.75a9.7 9.7 0 0 0 .14 1.07l.6 3.27c.03.2-.06.47-.16.68-.12.27-.35.5-.42.77s-.03.6-.01.9c.01.15.1.3.17.56.16-.2.3-.3.34-.42.18-.6.3-1.2.7-1.77a9.6 9.6 0 0 1 1.61-1.78c.23-.2.55-.3.78-.5.53-.47 1.2-.5 1.8-.05m25.83-34.3l.82 2.16.66 1.82c.03.08.34.14.4.1.17-.17.3-.4.4-.6l.96-2.27c.02-.05.1-.08.2-.15l.57 2.2 1.2 4.5 1.6 6.5.76 4.42c.18 1.4.56 2.74.78 4.12.17 1.07.27 2.18.64 3.17.5 1.34.82 2.72 1.26 4.07l.15.5c.1.28.27.48.6.48.1 0 .2.06.3.1.46-.5.42-1.15.55-1.75l.46-2.5a16.6 16.6 0 0 0 .15-1.63l.3-6.16-.07-7.98-.08-1.32-.08-2.66c-.06-.82-.2-1.64-.3-2.46l-.16-1.53-.82-6.8-.1-1.6c0-.01.01-.03 0-.04-.43-.76.33-.87.68-1.15.85-.67 1.92-.76 2.93-.97A8.2 8.2 0 0 1 64.61 5c.67.02 1.4 0 1.95.5.13.1.24.23.36.36l1.47 1.68c.4.45.37 1.03.5 1.56.05.2.1.4.1.6l-.04 1.25c-.02 1.57-.4 3.1-.77 4.6-.16.66-.43 1.28-.6 1.94l-.7 2.7c-.1.46-.12.94-.25 1.4-.17.6-.43 1.17-.62 1.75l-1.2 3.6c-.5 1.35-.7 2.75-1.03 4.14L61.25 42.8c-.12.5-.32 1-.44 1.52l-.63 2.6-.1-.32-.42 3.62-.3 1.76c-.06.57-.04 1.14-.07 1.7l-.14 1.73c-.02.57.01 1.14.03 1.72 0 .16.03.32.05.5l.3 3.8.3 2.83.53 3.67.84 4.74.68 3.26-1.88.3a1.4 1.4 0 0 1-.8-.18c-.13-.08-.16-.37-.2-.57l-.45-2.8c-.08-.6-.1-1.23-.16-1.84l-.54-6.53-.3-2.73-.16-1.72-.6-6-.4-2.78-.42-2.55c-.05-.3-.01-.63-.07-.94l-.56-2.47c-.23-.76-.53-1.5-.9-2.2-.36-.65-1.57-.9-2.2-.5-.16.1-.25.38-.3.6l-.84 5.73c-.05.37-.07.75-.08 1.13l-.15 6.02.15 4.05.68 9.74.3 2.76c.04.62.1 1.25-.42 1.77-.66.64-1.97.3-2.14-.5-.1-.5-.17-.98-.23-1.48l-.3-2.95c-.03-.38 0-.77-.01-1.16l-.08-1.4-.14-1.38-.4-6.44c-.16-1.35-.07-2.7-.15-4.06l-.45-5.63c-.1-1.4-.38-2.78-.32-4.2.03-.74-.07-1.48-.15-2.22-.03-.28-.2-.55-.25-.84-.1-.43-.14-.86-.2-1.3-.01-.13.04-.27.06-.4h-.1l-.16-.7-.34-2.64c-.26-1.3-.74-2.5-1.34-3.67-.46-.9-1.13-1.58-1.82-2.25-.72-.7-1.64-.87-2.53-.48-.5.22-.95.72-1.27 1.2-1.16 1.7-1.9 3.63-2.6 5.55a331.4 331.4 0 0 0-3.55 9.99 72.7 72.7 0 0 0-1.65 5.81L29.3 63.5c-.25 1.3-.57 2.57-.64 3.9L27.6 78.28l-.15 2.07c-.03.5-.32.72-.8.64a16.2 16.2 0 0 0-1.56-.17c-.65-.04-.73-.1-.75-.78l-.24.13.1-.54c.03-.1.12-.2.14-.3.03-.12.01-.25.01-.38l.07-11.18-.15-3.66c-.02-.38-.1-.77-.14-1.15-.02-.15.02-.3.02-.45l-.07-.87-.06-.55c-.2-.15-.1-.47-.12-.8-.02-.4-.16-.82-.26-1.22-.07-.26-.17-.5-.28-.76-.3-.73-.8-1.28-1.56-1.5-.14-.04-.3.02-.47.05-.2.04-.4.08-.57.16-.32.15-.68.26-.9.5-1.05 1.07-1.25 2.52-1.63 3.9-.13.48-.17.98-.23 1.47l-.54 4.35-.6 4.6-.44 2.53-.85 5.84c-.06.42-.4.58-.9.48l-2.1-.38c-.25-.04-.42-.18-.4-.45l.14-2.68.03-1.77.2-2.62c.02-.4 0-.8.02-1.18l.22-3.5c.02-.46-.07-.93-.06-1.4.02-.47.1-.94.16-1.42.1-1.2.13-2.4-.01-3.6 0-.04 0-.08 0-.1L12.7 59l-.16-3.05-.5-3.48-.4-3.4L11 45c-.2-1.12-.88-2.02-1.4-2.98L7.3 38.08a69.4 69.4 0 0 1-1.96-4.16c-.32-.72-.6-1.44-1.23-1.96-.1-.08-.16-.33-.1-.42.06-.1.3-.17.42-.12l2.1.8 3.5 1.07c.7.17 1.38-.02 2.02-.4l2.66-1.43c.76-.47 1.47-1.05 2.17-1.62.43-.35.44-.9.53-1.4l.62-3.6c.06-.35.18-.68.27-1.02l.13-.03.75 1.7a65.3 65.3 0 0 0 2.72 6.65c.64 1.4 1.17 2.83 1.5 4.33l.87 4.13a49.9 49.9 0 0 0 .99 3.47 55.1 55.1 0 0 0 1.13 3.14c.17.44.42.84.65 1.25.13.22.42.17.57-.07.08-.13.14-.27.18-.35l-.55-1.38-.62-1.78c-.08-.32-.01-.7.01-1.04l.08-1 .4-2.35 1.3-4.68c.3-.97.75-1.9 1.12-2.85l.94-2.6c.57-1.4 1.16-2.77 1.92-4.07l1.53-2.76 2.17-3.23c.8-1.05 1.65-2.05 2.54-3 .8-.86 1.42-1.82 1.97-2.84.16-.3.26-.64.4-.96.03-.08.06-.18.12-.23.1-.07.2-.15.3-.15.06 0 .15.15.17.24l.63 2.5c.05.17.18.38.33.43.24.1.34-.13.45-.33l1.86-3.3c.06-.1.23-.27.27-.24.13.07.28.2.33.32l.63 2.03c.08.25.13.52.24.75.08.16.24.28.37.42.13-.14.32-.26.37-.42.16-.5.26-1.02.4-1.52l.44-1.32h.1" class="C"/><g fill="#000"><path d="M19.62 46.62v.1l-1.18.9c-.05.04-.06.1-.1.17.07.02.14.06.2.04.08-.02.16-.08.23-.13l1.32-.96c.28-.18.3-.38.23-.64l-.42-1.25a8.7 8.7 0 0 0-1.96-3.54c-.13-.15-.4-.28-.6-.26-.15.01-.36.25-.4.42-.07.27-.02.56-.01.85l.1 2.68c.07.8.23 1.6.4 2.38.03.16.2.36.35.4.13.04.35-.08.48-.2l1-.93c.08-.07.26-.03.4-.04m2.24.8a1.4 1.4 0 0 0-1.85.05c-.24.2-.56.3-.8.5a9.8 9.8 0 0 0-1.65 1.81c-.4.57-.53 1.18-.72 1.8-.04.13-.18.23-.35.42-.1-.26-.17-.4-.18-.56-.02-.3-.07-.62.01-.9s.3-.5.43-.78c.1-.2.2-.47.16-.7l-.62-3.3a9.7 9.7 0 0 1-.15-1.09L16 41.9a16.8 16.8 0 0 1 .16-2.12c.05-.37.24-.7.67-.76.4-.07.66.17.87.46l1.07 1.54a12.6 12.6 0 0 1 1.62 3.29l.52 1.7c.13.44.48.67.84.87.3.17.33.23.1.56M13.65 40l-.63-1.08-.93-1.97c-.2-.44-.07-.86.32-.95.1-.02.26.1.34.23.14.23.24.5.35.76l.78 1.78c.2.45.18.87-.22 1.22"/><path d="M17.57 37l-1.54-3.38c-.14-.3.15-.67.47-.62.05.01.1.06.13.1l1.35 2.96c.06.14-.04.38-.1.56-.05.12-.17.2-.3.36"/></g></g><g class="B"><use xlink:href="#F"/><use xlink:href="#G"/><use xlink:href="#H"/><path d="M5.63 184.98a23.3 23.3 0 0 0 1.27 5.24c.17.5.93 1.22.02 1.57-.78.3-.98-.64-1.13-1.17l-1.3-5.42c-.14-.7-.32-1.65.57-2.02.94-.38 1.4.5 1.9 1.1.54.64 1 1.36 1.7 2 0-.95-.1-1.9.02-2.84.17-1.4.3-2.83.76-4.15.6-1.75 2.1-1.9 3.18-.38 1.4 1.98 1.73 4.32 1.98 6.67l.1 1.13c.01.06.07.1.2.3.2-.42.3-.8.5-1.12.8-1.2 1.46-2.53 2.47-3.5 1.54-1.5 3.27-.92 3.58 1.22.26 1.74.05 3.56.02 5.34-.01.4-.12.8-.2 1.36l4.83-6.5c.45-.6.9-1.22 1.46-1.74.24-.23.7-.24 1.05-.34-.06.4 0 .86-.2 1.15l-5.97 8.17c-.75 1.06-1.26 2.3-1.95 3.4-.2.32-.66.47-1 .7-.13-.4-.43-.86-.35-1.24l1.3-6.3a13.3 13.3 0 0 0-.14-3.8c-.17-1.1-.9-1.35-1.65-.52a16.6 16.6 0 0 0-2.17 3.22c-.45.84-.6 1.84-1 2.7-.2.44-.67.75-1.03 1.12-.28-.46-.75-.9-.8-1.38l-.52-5.15c-.26-1.37-.84-2.68-1.34-4-.1-.27-.5-.6-.74-.57s-.53.43-.6.72c-.23 1.04-.5 2.1-.53 3.15l.14 5.9c0 .4-.3.8-.48 1.2-.3-.27-.7-.48-.9-.82l-2.6-4.6-.4.18M61.3 220c1.73-3.08 3.67-6.06 4.38-9.6a4.5 4.5 0 0 0 .1-.8c-.04-1.04-.6-1.57-1.5-1.1-1.8.92-3.6 1.92-5.2 3.15-1.58 1.22-2.9 2.77-4.33 4.18-.22.2-.4.5-.65.64s-.63.16-.9.07c-.1-.04-.18-.56-.08-.78.25-.56.58-1.07.9-1.6 2.96-4.8 5.62-9.74 6.94-15.27.22-.9.23-1.88.22-2.83-.01-.9-.63-1.07-1.35-.74a5.4 5.4 0 0 0-1.26.85c-2.96 2.57-5.46 5.52-7.22 9.05l-3.52 7.03c-.18.35-.64.56-.97.83-.16-.37-.48-.76-.44-1.1l.85-7.8c.44-4.82 1.35-9.6.94-14.47-.1-1.1-.4-2.16-.63-3.25l-.36-.1c-.34.34-.72.64-1 1.02-2.8 3.9-4.46 8.32-5.6 12.95-.38 1.55-.57 3.15-.82 4.73-.1.65-.3 1.08-1.1 1-.77-.1-.82-.52-.92-1.18a227.7 227.7 0 0 0-1.53-8.45c-.3-1.5-.75-2.98-1.07-4.48-.08-.36.14-.78.22-1.18.3.3.8.53.88.87l2.24 9.88c.06.25.13.5.37.74.17-.77.32-1.55.52-2.3 1.24-4.7 2.85-9.25 5.75-13.22.6-.84 1.22-1.95 2.47-1.63 1.14.3 1.4 1.52 1.5 2.48a30.9 30.9 0 0 1 .24 5.81c-.35 4.65-.9 9.3-1.36 13.93-.04.4-.08.8.08 1.3.57-1.05 1.2-2.07 1.7-3.15a31.2 31.2 0 0 1 7.98-10.24 6.6 6.6 0 0 1 1.8-1.14c1.47-.58 2.74.18 2.84 1.76a11.9 11.9 0 0 1-.31 3.43c-.8 3.3-2.02 6.43-3.6 9.42a10.4 10.4 0 0 0-.96 2.37c.3-.2.63-.36.93-.57 1.27-.86 2.47-1.84 3.8-2.55a8.1 8.1 0 0 1 2.9-.75c.82-.1 1.5.44 1.56 1.3a8.8 8.8 0 0 1-.18 3.21c-.62 1.9-1.5 3.7-2.3 5.55-.15.36-.37.7-.5 1.2 2.96-2.06 6.14-2.25 9.72-1.14l-.94-2.6c-.9-2.7-1.6-5.44-1.27-8.3.25-2.13 1.57-2.63 3.14-1.15 1.35 1.28 2.46 2.8 3.65 4.25.32.38.57.83 1.1 1.2l-.94-7.98c-.04-.46.17-1.18.5-1.38.62-.38 1.02.25 1.36.72l2.47 3.45.24-.1c-.18-.77-.33-1.56-.55-2.32a36.5 36.5 0 0 1-1.32-12.24 12.7 12.7 0 0 1 .46-2.71c.35-1.25 1.54-1.6 2.3-.56a20 20 0 0 1 2.26 4.2c1.96 4.85 3.12 9.92 4.12 15.04.43 2.24.95 4.46 1.44 6.7.04.18.14.34.33.8l1.15-4.9a27.3 27.3 0 0 1 3.25-7.79 9.8 9.8 0 0 1 1.53-1.9c.85-.8 1.9-.52 2.24.6a14.2 14.2 0 0 1 .66 3.29 67.9 67.9 0 0 1-1.1 15.06c-.08.46-.04.95-.06 1.42h-1.2c.18-1.52.4-3.04.52-4.56l.7-11c.05-1.24-.32-2.5-.5-3.74l-.52-.13c-.58.84-1.27 1.62-1.73 2.52A36 36 0 0 0 92.79 220h-1.64c-.1-1.05-.1-2.12-.28-3.15l-2.6-12.9c-1.05-5-2.33-9.94-4.67-14.53-.18-.35-.42-.66-.63-1l-.3.01c-.1.43-.28.85-.33 1.28-.55 4.3-.05 8.52 1.07 12.65 1.18 4.36 2.16 8.8 4.67 12.68.04.06.1.12.1.18a16.3 16.3 0 0 1-.13.94c-.3-.08-.68-.07-.87-.25-.33-.32-.57-.76-.8-1.17l-5.93-10.24c-.2-.35-.5-.63-.77-.95l-.25.12c.2 1.4.26 2.85.6 4.22a174.6 174.6 0 0 0 2.17 8.07c.15.53.3 1-.5 1.36-.4-.58-.84-1.16-1.22-1.78-1.94-3.24-3.66-6.63-6.53-9.2-.28-.25-.67-.37-1-.55-.13.4-.36.8-.36 1.2-.08 3.6.88 6.93 2.46 10.1.14.27.3.54.4.83.23.77-.12 1.12-.9.9-.72-.2-1.43-.43-2.14-.65a7.8 7.8 0 0 0-8.2 1.77h-2.9zm67.54-24.5c-2.18 3.1-5.36 4.64-8.73 5.9-.42.16-1.04.2-1.4.01-.64-.34-1.48-.82-1.62-1.4a2.5 2.5 0 0 1 .6-2.16 10.4 10.4 0 0 1 3.33-1.63c.45-.14 1.1.35 1.67.55-.42.37-.78.84-1.26 1.1-.88.48-1.83.83-3.2 1.43 2.45.6 7.22-2.05 8.46-4.35-4.25-.1-8.06.72-11.12 3.6-.5.48-.78 1.76-.5 2.33.46.9 1.43 2 2.32 2.12 3.94.6 9.9-1.9 12.23-5.3.75-1.1.67-1.97-.8-2.2m-5.77 13.6l5.4-3.44c.5-.28 1.22-.15 1.84-.22-.3.55-.46 1.28-.92 1.62a59.1 59.1 0 0 1-4.87 3.27c-1 .6-1.24 1.28-.87 2.34a12.7 12.7 0 0 1 .75 2.88c.05.45-.43.95-.67 1.42-.35-.37-.92-.7-1-1.12l-1.97-9.97c-.07-.34-.2-.66-.33-1.06-.85 0-1.68-.03-2.5.01-2.35.12-3.62-1.33-4.53-3.12-.82-1.62-.33-3.26 1.2-4.76 3.24-3.15 11.3-4.8 15.1-3.07 2.53 1.14 2.98 2.8 1.25 5-1.7 2.18-3.84 3.9-6.55 4.66-1.74.5-2.08 1.48-1.77 3 .16.78.27 1.57.43 2.55"/><use xlink:href="#F" x="66" y="70"/><use xlink:href="#G" x="66" y="70"/><use xlink:href="#H" x="66" y="70"/><path d="M2.68 146.05c-.4.78-.76 1.32-.95 1.93-.6 1.85-.74 3.74-.43 5.68.06.37-.16.8-.26 1.2-.3-.32-.77-.6-.83-.95-.43-2.58-.25-5.1.9-7.48.37-.78.87-1.5 1.8-1.42.88.08 1.27.87 1.48 1.67.3 1.12.46 2.28.7 3.54l.9-1.57c.42-.63.82-1.3 1.34-1.83.97-.97 2.17-.62 2.35.8.2 1.52.06 3.1 0 4.65-.02.62-.24 1.24-.44 2.2l2.2-2.72c.63-.68 1.32-1.45 2.3-1.04 1.03.43.87 1.53.95 2.48.02.28.3.5.4.8.12.34.33.8.2 1.03a4.5 4.5 0 0 1-1.12 1.33c-.23.2-.7.26-.95.14-.18-.08-.27-.62-.23-.92.08-.6.34-1.16.4-1.75.07-.6.02-1.22.02-1.84l-.3-.16-1.64 1.73-2.3 3.2c-.27.34-.8.42-1.23.62-.1-.48-.36-1-.28-1.44l1-4.9c.15-1.08 0-2.2-.01-3.3l-.42-.13c-.35.43-.78.8-1.03 1.3l-1.8 3.8c-.13.3-.17.65-.37.86-.22.24-.57.48-.86.48-.15 0-.4-.53-.42-.83l-.02-3.3c-.05-1.23-.14-2.48-1.07-3.83"/></g></g><g fill="#e5f4f4" fill-rule="nonzero" stroke="#fff" stroke-width="3"><path d="M98.9 149.53l-8.04-7.76a48.3 48.3 0 0 1-5.12-5.66c-1.27-1.7-2.2-3.46-2.8-5.28s-.96-3.78-1.1-5.9l-.4-7.64-.43-22.36c-.06-4.8-2.04-9.1-5.94-12.86-3.8-3.67-8.1-5.4-12.9-5.2s-9.06 2.22-12.76 6.05c-4 4.13-5.87 8.86-5.66 14.2a23.1 23.1 0 0 0 5.74 14.38L29.8 128.98c-4.1-5.1-7.08-10.35-8.93-15.75s-2.6-10.8-2.23-16.26S20.44 86.2 22.92 81s6-10.16 10.56-14.88c4.27-4.42 8.87-7.92 13.8-10.48s9.93-4.1 15.02-4.6 10.17.18 15.25 2.05 9.9 5 14.48 9.42c3.2 3.1 5.6 6.27 7.2 9.5a38.2 38.2 0 0 1 3.3 10.03c.62 3.45.93 7.03.93 10.73l-.12 18.54a23.2 23.2 0 0 0 .65 5.32c.4 1.63 1.12 3.22 2.15 4.8a30.6 30.6 0 0 0 4.32 5.03l5.55 5.36-17.08 17.7zm17.37 22.62c-3.2-3.08-4.8-6.9-4.85-11.43a16 16 0 0 1 4.66-11.7c3.06-3.17 6.83-4.88 11.3-5.13s8.32 1.15 11.5 4.23 4.8 6.9 4.85 11.43a16 16 0 0 1-4.66 11.7 16.2 16.2 0 0 1-5.27 3.66 17.9 17.9 0 0 1-6.05 1.47c-2.05.13-4.08-.16-6.1-.87a14.7 14.7 0 0 1-5.42-3.37z"/><path d="M121.8 120.34l-3.64-10.56a48.3 48.3 0 0 1-2-7.37c-.36-2.1-.4-4.1-.1-5.98s.86-3.8 1.7-5.74l3.12-6.98 9.76-20.12c2.13-4.3 2.3-9.03.55-14.15-1.72-5-4.77-8.5-9.14-10.5s-9.08-2.14-14.12-.4c-5.43 1.87-9.26 5.23-11.5 10.08a23.1 23.1 0 0 0-1.41 15.41l-25.47 6.62c-1.34-6.4-1.6-12.44-.8-18.1s2.6-10.8 5.4-15.5 6.48-8.78 11.05-12.3 9.96-6.33 16.16-8.46c5.8-2 11.5-3.03 17.04-3.08s10.7.86 15.46 2.73 8.98 4.78 12.66 8.74 6.55 8.95 8.62 14.97c1.45 4.22 2.15 8.14 2.1 11.74a38.2 38.2 0 0 1-1.61 10.43c-1 3.36-2.36 6.68-4.04 9.98l-5.4 10.45c-1.24 2.3-2.28 4.3-3.13 6.02a23.2 23.2 0 0 0-1.84 5.04c-.38 1.63-.46 3.38-.25 5.24a30.6 30.6 0 0 0 1.57 6.44l2.5 7.3-23.25 8zm5.2 28.04c-1.44-4.2-1.16-8.32.86-12.38a16 16 0 0 1 9.46-8.31c4.16-1.43 8.3-1.25 12.4.56s6.9 4.8 8.33 9 1.16 8.32-.86 12.38a16 16 0 0 1-9.46 8.31 16.2 16.2 0 0 1-6.35.87 17.9 17.9 0 0 1-6.06-1.43c-1.88-.82-3.56-2-5.04-3.54a14.7 14.7 0 0 1-3.3-5.46z"/><path d="M155.08 108.55l1.17-11.1a48.3 48.3 0 0 1 1.31-7.52c.56-2.05 1.37-3.87 2.43-5.46s2.4-3.08 3.97-4.48l5.78-5 17.35-14.1c3.75-3 5.9-7.2 6.48-12.6.55-5.25-.73-9.7-3.85-13.37s-7.33-5.77-12.63-6.33c-5.7-.6-10.6.83-14.67 4.28a23.1 23.1 0 0 0-7.79 13.37l-25.88-4.76c1.5-6.38 3.8-11.96 6.9-16.73s6.93-8.7 11.44-11.77 9.58-5.22 15.2-6.47 11.7-1.53 18.22-.84c6.1.64 11.7 2.1 16.74 4.4s9.33 5.3 12.86 9 6.12 8.13 7.78 13.27 2.15 10.88 1.5 17.2c-.47 4.44-1.5 8.28-3.07 11.52a38.2 38.2 0 0 1-5.87 8.78c-2.34 2.6-4.96 5.06-7.88 7.34L187.9 88.5a23.2 23.2 0 0 0-3.8 3.79c-1.03 1.32-1.85 2.87-2.45 4.64a30.6 30.6 0 0 0-1.3 6.5l-.8 7.68-24.46-2.57zm-7.13 27.6c.46-4.4 2.47-8.03 6-10.86a16 16 0 0 1 12.09-3.53c4.38.46 8.05 2.38 11 5.75s4.2 7.27 3.75 11.68-2.47 8.03-6 10.86a16 16 0 0 1-12.09 3.53 16.2 16.2 0 0 1-6.13-1.9 17.9 17.9 0 0 1-4.88-3.86c-1.36-1.54-2.38-3.3-3.07-5.34a14.7 14.7 0 0 1-.68-6.34z"/></g></g></svg>