<svg xmlns="http://www.w3.org/2000/svg" xmlns:xlink="http://www.w3.org/1999/xlink" width="444" height="269"><style><![CDATA[.B{fill:#3d4758}.C{fill:#fff}.D{fill:#e5f4f4}]]></style><defs><path id="A" d="M.16.4h29.7v29.33H.16z"/><path id="B" d="M.34.18h33.34v5.37H.34z"/><path id="C" d="M.13.14H10.3V3.3H.13z"/><path id="D" d="M.13.13h2.9V9.8H.13z"/><path id="E" d="M0 .1h236.6v208.08H0z"/><path id="F" d="M.3.38h37.3v86H.3z"/><path id="G" d="M.3.27h10.05v63.47H.3z"/><path id="H" d="M.37.26H4.6v30.58H.37z"/><path id="I" d="M.13.12h2.02v11.2H.13z"/><path id="J" d="M.48.25h1.76v4.7H.48z"/></defs><g fill="none" fill-rule="evenodd"><path d="M63.16 213.8C26.72 203.63 0 170.18 0 130.5A86.5 86.5 0 0 1 86.5 44c2.2 0-22.58 3-24.5 4-3.43 1.78-12.6 6.58-11 9 .56.84 11 0 41-7-6.05 3.02-37 20-34 31 1.9 6.92 41-20 44-21 0 .9-1.74 4.4 1 7 .9.85 2.4.83 4.1.47l.24-1.05c.56-2.35 6.9-.14 7.66-2.42.98-3-4.2-6.1-3-9 7 0 47 1 48-6s-26-11-45-8c.94-2.57 40-11 39-17s-32.63 6.7-31.4 5.4c1.68-1.8 2.34-3.7 4.4-5.4 16.6-13.8 45.23-24 64.5-24 21.17 0 40.56 7.6 55.6 20.23A107 107 0 0 1 305.5 3c36.85 0 69.37 18.54 88.74 46.8C424.16 68.9 444 102.38 444 140.5c0 59.37-48.13 107.5-107.5 107.5a107 107 0 0 1-62.82-20.25C264.35 251.88 240.93 269 213.5 269c-22.14 0-41.68-11.16-53.3-28.16A64.2 64.2 0 0 1 122.5 253c-26.64 0-49.5-16.15-59.34-39.2z" class="D"/><g transform="translate(48 1)"><path d="M88 227.46l-.4.54c-.2-.23-.57-.43-.6-.7l-.74-5.55c-.1-.66-.23-1.32-.26-1.98-.01-.25.24-.52.37-.78.2.2.53.36.58.6.2.87.3 1.77.42 2.66l.62 5.2" class="B"/><g transform="translate(332 152)"><mask id="K" class="C"><use xlink:href="#A"/></mask><path d="M12.82 11.33l3.28-3.66c1.67-1.57 3.68-1.8 5.82-1.05 1 .35 1.54 1.16 1.45 2.12-.14 1.56-.27 3.2-.84 4.62-1.18 2.98-2.65 5.84-4 8.76-.23.5-.44 1.02-.46 1.66l.73-.8 5.57-5.48c.62-.57 1.5-.95 2.32-1.2a2.2 2.2 0 0 1 3.14 2.47 13.5 13.5 0 0 1-.66 2.98l-1.4 3.88a7.6 7.6 0 0 0-.36 1.54c-.14 1.14.03 1.28 1.5 1.08-.27.57-.37 1.2-.68 1.33-.7.3-1.53.1-1.8-.65-.25-.73-.36-1.62-.18-2.36.34-1.47.93-2.88 1.4-4.32.32-1 .68-2 .88-3.04.3-1.6-.54-2.3-2-1.57a11.2 11.2 0 0 0-2.83 2l-4.86 5.16c-.4.44-.8.9-1.3 1.22-.26.17-.77.2-1.05.06-.23-.12-.4-.6-.38-.9a4.7 4.7 0 0 1 .41-1.52l3.9-8.57c.7-1.6 1.33-3.28 1.7-4.98.4-1.95-.25-2.98-2.8-2.65-2.35.3-3.82 2.03-4.8 3.95-.85 1.66-1.24 3.56-1.82 5.36-.1.27-.04.6-.17.82-.12.2-.43.5-.6.47-.24-.06-.57-.34-.6-.57-.1-.44-.02-.9.03-1.37a41.4 41.4 0 0 0-.7-12c-.1-.52-.23-1.04-.46-1.5-.17-.35-.5-.6-.78-.9-.27.26-.68.47-.78.78L7.14 8c-.56 3.26-.18 6.54.26 9.8.04.28.16.57.1.83-.06.3-.27.58-.4.87-.3-.2-.74-.32-.85-.6-.4-1-.7-2.07-1.07-3.1L3.6 11.78c-.2-.44-.67-.75-1.02-1.12-.28.46-.76.9-.8 1.4l-.1 6.2c.12 1.6.68 3.16.98 4.75.05.3-.2.63-.3.95-.3-.18-.8-.3-.86-.54-.97-3.9-1.92-7.83-.9-11.9.08-.3.2-.6.33-.9.73-1.56 2.1-1.76 3.13-.4.55.72.95 1.56 1.58 2.64 0-.6-.04-.94.01-1.27.35-2.6.65-5.23 1.13-7.83.16-.86.67-1.7 1.2-2.45C8.92 0 10.5.1 11.06 1.6c.63 1.7.98 3.52 1.3 5.3.27 1.48.3 3 .45 4.43" mask="url(#K)" class="B"/></g><g transform="translate(118 22)"><path d="M172.76 123.12c-14.8-.5-29.58.3-44.3 1.68-10.54 1-21.07 2.14-31.54 3.67-13.34 1.96-26.55 4.7-39.13 9.8a32.4 32.4 0 0 0-13.47 10.41c-.85 1.1-1.4 2.78-1.4 4.18a18.4 18.4 0 0 0 2.71 9.68c3.77 6.1 9.3 10.28 14.86 14.5 8.5 6.48 18.23 10.34 28.05 14.14 10.65 4.12 21.14 8.68 32.22 11.54l31.65 8 40.64 8.96c4.1.86 8.33 1.06 12.5 1.58.86.1 1.73.2 2.54.46.4.13.7.6 1.04.92-.45.25-.9.67-1.36.7-.67.04-1.35-.27-2.04-.32-12.73-1-25.08-4.1-37.46-7.08-10.58-2.56-21.25-4.68-31.8-7.32-9.2-2.3-18.44-4.68-27.42-7.76-10.63-3.64-21-8.05-31.46-12.17-10.67-4.2-19.9-10.78-28.2-18.65-4.75-4.5-8.1-10.03-8.2-17.05a8.8 8.8 0 0 1 2.34-6.21c5.32-6.1 11.94-9.9 19.54-12.34 14.56-4.68 29.5-7.37 44.58-9.27 19.1-2.4 38.26-3.85 57.5-4 10.93-.08 21.87.35 32.8.54 1.67.03 3.34-.05 5 .07.57.04 1.1.53 1.65.82-.54.3-1.08.84-1.62.83l-30.2-.3" class="B"/><path d="M204.8 129.17c.4.02.87-.04 1.17.16.38.24.62.7.92 1.08-.4.22-.8.63-1.2.62-8.52-.1-17.05-.73-25.54-.3-10.1.5-20.16 1.78-30.2 2.96-4.58.54-9.12 1.6-13.65 2.55-1.38.3-2.63 1.2-4 1.53-3.48.83-3.67 5.24-1.06 7.25a30.5 30.5 0 0 0 11.38 5.52c13.7 3.43 27.64 5.42 41.57 7.43l28.56 3.9c1.53.2 3.1.2 4.6.48.53.1.98.7 1.47 1.1-.53.2-1.1.62-1.6.56l-28.43-3.5-28-4.33c-7.26-1.3-14.45-3.07-21.64-4.8-3.7-.88-6.8-3.08-9.6-5.66-3.1-2.84-2.48-7.28 1.23-9.13 4.75-2.37 9.8-3.53 15.02-4.12l30.35-3.37c4.2-.4 8.46-.07 12.7-.07v-.46l15.95.6z" fill="#353f4e"/><path d="M96.2 124.56c-.92 0-1.85-.1-2.75.02-2.46.3-4.5-.6-6.6-1.9-1.44-.9-3.3-1-4.9-1.62-2.56-1-5.08-1.46-7.65-.1-.82.44-1.7.8-2.45 1.33-1.52 1.07-2.83.7-4.03-.53-4.7-4.8-9.74-4.12-14.23-1.7l-6.62 3.5c-2.35 1.34-4.37.44-6.5-.68-3.7-1.95-7.45-3.75-11.2-5.57-.38-.18-.93-.2-1.34-.06l-15.8 5.04c-3.5 1.17-6.92 2.6-10.4 3.78-.47.16-1.14-.35-1.72-.55.42-.38.8-.92 1.27-1.1l16.7-6.24c3.27-1.13 6.64-1.94 10-2.72a4.3 4.3 0 0 1 2.64.48 467.2 467.2 0 0 1 11.16 5.67c1.5.8 2.9 1.1 4.57.27 3.45-1.76 6.92-3.57 10.52-4.9 4.32-1.6 8.24-.18 11.58 3 1.03.97 1.83 1.3 3.16.5 1.42-.87 3-1.57 4.6-1.9 1.28-.28 2.7-.03 4.03.17 1.18.18 2.35.55 3.5.97 1.66.6 3.28 1.37 4.94 2 1.12.42 2.26.95 3.42 1.02 3.26.2 6.53.12 9.8.26.5.02.97.55 1.46.85-.5.3-.97.85-1.47.88-1.9.1-3.78.04-5.68.04v-.14zm56.48-82.7c8.27.58 14.48-6.82 15.05-13.03.34-3.74.2-7.44-3.3-9.62-5.24-3.26-11.03-5.14-17.15-3.88-4.7.97-9.43 2.6-10.74 8.37a41.2 41.2 0 0 0-.73 3.93c-.8 6.37 3.56 11.78 8.77 13.02 2.65.63 5.4.8 8.1 1.2m-.1 1.82c-3.37-.58-6.97-.57-10.05-1.86-5.67-2.38-9.12-7.62-8.4-14.37.16-1.5.4-3.02.88-4.43.76-2.18 1.4-4.54 3.53-5.82 3.83-2.3 7.78-4.22 12.4-4 5.18.25 10.03 1.6 14.4 4.5a9.1 9.1 0 0 1 4.13 7.1 16.9 16.9 0 0 1-7.1 15.91c-2.54 1.9-5.06 2.58-9.8 2.97m43.35 14.2l-.1-.3c-.92.3-2.33.36-2.65.98-.57 1.13-.9 2.72-.54 3.85.25.77 1.93 1.57 2.9 1.48 1.87-.16 3.7-.88 5.5-1.48 1.48-.5 2.75-.4 3.95.7 1.5 1.4 2.63 1.48 4.28.45 1.84-1.14 3.62-1.7 5.7-.28 1.3.9 2.9.67 4.2-.2 1.24-.83 1.34-2.15 1.07-3.53-.5-2.52-3.2-3.83-5.56-2.6-2.42 1.25-4.72 1.9-7.14-.07-.9-.73-1.9-.78-3.05.15-.9.72-2.27 1.04-3.46 1.1-1.7.1-3.4-.16-5.1-.26m-.33-1.74l4.25.35a5.2 5.2 0 0 0 4.36-1.39c1.33-1.25 3.1-.55 4.24.36 1.84 1.46 3.44 1.13 5.17.1a5.5 5.5 0 0 1 4.9-.47c2.88 1.06 4.34 4.8 3.07 7.57-1.18 2.57-4.85 3.73-7.5 2.13-1.44-.87-2.54-.6-3.78.13-2.64 1.56-4.02 1.38-6.5-.47-.55-.4-1.58-.42-2.32-.27-2.1.4-4.12 1.2-6.22 1.43-1.84.2-3.7-.66-4.32-2.45-.67-1.94-.58-4.22.94-5.8.82-.86 2.32-1.06 3.5-1.56l.18.37m-93.8 149.06l-1.1 5.46c-.08.4 0 .85-.14 1.22-.32.85-.72 1.66-1.1 2.5-.77-.4-1.64-.7-2.3-1.26l-5.55-5.16-.46.18.64 3.84c.14.75.47 1.47.53 2.22.03.34-.4.72-.6 1.08-.32-.2-.87-.37-.92-.62l-1.14-7.96c-.1-1.34 1.1-1.4 2-.83.96.62 1.8 1.43 2.66 2.22l4.33 4.16 1.26-6.24a8.9 8.9 0 0 1 .6-2.02c.38-.74.94-1.38 1.43-2.06.56.6 1.33 1.13 1.62 1.85.76 1.9 1.33 3.87 1.94 5.83.3 1 .52 2 .85 3.33l3.7-4.7c.43-.5 1.2-.67 1.8-1 .15.7.43 1.4.4 2.1-.03 1.1-.18 2.23-.44 3.3-.12.5-.63.93-.96 1.4-.24-.47-.53-.93-.7-1.43-.1-.35-.02-.77-.4-1.34l-2.35 3.5c-.35.47-.92.78-1.4 1.17-.34-.5-.83-.93-1-1.48l-2.2-7.97c-.12-.44-.33-.85-.5-1.27h-.53m79.7-20.6l-12.97-2.43c-8.93-1.7-17.85-3.45-26.42-6.6-1.17-.43-2.46-.53-3.66-.88-.4-.12-.74-.55-1.1-.84.5-.27 1.05-.86 1.46-.77 2.28.5 4.53 1.2 6.8 1.8 5.3 1.4 10.57 2.93 15.92 4.1 6.6 1.45 13.25 2.57 19.87 3.9.44.1.78.65 1.17.98l-1.06.75" class="B"/><g transform="translate(205.09 186.26)"><mask id="L" class="C"><use xlink:href="#B"/></mask><path d="M32.35 5.55l-20.78-2.3L2.7 2c-.46-.07-.98-.03-1.34-.25-.4-.25-.68-.74-1-1.12.45-.16.9-.5 1.34-.45l5.46.76L31.98 3.8c.6.07 1.13.64 1.7.98l-1.33.77" mask="url(#L)" class="B"/></g><path d="M185.06 139.83l1.78-3.16c.24-.36.78-.67 1.2-.7.24-.01.62.58.73.97l.94 3.93c2.64-1.9 3.18-1.68 3.7 1.46.17 1 .36 2 .37 3 0 .45-.42.9-.65 1.35-.32-.38-.82-.7-.92-1.14-.27-1.13-.37-2.3-.54-3.45l-.57-.47c-.17.4-.24.92-.54 1.18-.47.42-1.1.67-1.64 1-.32-.6-.76-1.18-.93-1.83-.22-.83-.22-1.72-.3-2.58l-.43-.07-.94 2.56c-.2.4-.55 1-.87 1.03-.36.03-.85-.43-1.12-.8-.42-.57-.7-1.25-1.5-1.9l-.4 2.46c-.1.4-.52.73-.8 1.1-.26-.37-.8-.8-.75-1.1.25-1.47.5-2.98 1.08-4.34.44-1.05 1.4-1.04 2.13-.08.33.43.58.92 1 1.57m-71.24 25.88c-1.56 1.55-2.82.4-3.96-.35-4.76-3.12-7.8-7.62-9.96-12.75-.4-.98-.42-2.12-.6-3.2 1.17-.44 1.63-.33 1.92.85a19.4 19.4 0 0 0 1.81 4.87c2.46 4.4 5.72 8.07 10.47 10.17.1.04.14.17.33.42M110.6 42.86l-.78-.76c.32-.37.6-.96.97-1.07l5.86-1.42 9.5-2.5c.4-.1.94.32 1.42.5-.33.4-.6 1.1-1 1.2l-15.38 3.94c-.1.03-.23.04-.6.12m34.5 7.43c.08.62.4 1.34.2 1.86-1.27 3.16-2.7 6.27-4 9.4-.56 1.33-.93 2.73-1.52 4.04-.2.47-.84.77-1.28 1.15-.13-.54-.52-1.17-.35-1.6 1.36-3.48 2.84-6.93 4.26-10.4.46-1.12.85-2.27 1.3-3.4.16-.4.45-.73.68-1.1l.7.03M179.2 29.6c-1.05 0-2.1.1-3.14-.04-.58-.08-1.1-.56-1.65-.86.5-.3 1-.83 1.53-.86l9.94-.44c.93-.04 1.86-.25 2.78-.18.38.03.73.6 1.1.9-.32.28-.63.76-.97.8l-9.57.76v-.08m-58.27 101.44a18.2 18.2 0 0 0-.64-.47c.28-.36.5-.94.86-1.03a38.2 38.2 0 0 1 4.58-.93l7.93-.86c.37-.03.77.4 1.16.63-.3.34-.55.93-.9 1l-13 1.67m-6.32-122.8l3.18 1.3 8.1 4.55c.4.24.57.92.85 1.4-.56.04-1.23.3-1.67.07l-7.4-4.04c-1.06-.57-2.2-.97-3.26-1.56-.3-.18-.57-.7-.6-1.1-.01-.2.53-.44.77-.63m-.16 124.97l-5.27 1.78c-2.4.74-4.2 2.26-5.74 4.26-.36.47-1 .7-1.68.87-.1-2.42 1.45-3.88 2.96-4.76 2.58-1.5 5.47-2.43 8.3-3.46.42-.16 1.1.44 1.67.7l-.23.62M60.4 72l4-3.02c.45-.28 1.2-.04 1.83-.04-.3.5-.53 1.1-.94 1.47l-3.23 2.75c-1.83 1.64-2.8 1.36-3.45-1l-1.2-3.76c-.14-.5-.04-1.1-.05-1.63.56.26 1.32.38 1.64.82.43.6.52 1.45.75 2.2l.66 2.2m-16.94 9.9l3.08-3.8c.42-.43 1.26-.45 1.9-.65-.2.57-.3 1.2-.6 1.7l-3.2 4.76c-.73 1.2-1.43 1.3-2.17.08-.76-1.24-1.46-2.52-2.07-3.84-.16-.34.15-.9.24-1.36.42.16 1 .2 1.24.5.57.72.97 1.58 1.56 2.58m128.5-41.5l.64.2 10.3 3.9c.5.2.82.85 1.22 1.3-.57.13-1.22.5-1.7.35-3.36-1.14-6.68-2.4-10-3.63-.38-.14-.76-.4-1.04-.7-.16-.18-.25-.62-.14-.82.14-.27.5-.42.72-.6" class="B"/><g transform="translate(211.55 221.7)"><mask id="M" class="C"><use xlink:href="#C"/></mask><path d="M9.23 3.3L1.2 2.02C.8 1.94.48 1.36.13 1 .5.7.9.1 1.24.14l8.22 1.15c.32.06.56.8.84 1.2l-1.07.8" mask="url(#M)" class="B"/></g><path d="M138.3 126.1l9.2.03c.36.01.7.4 1.07.6-.28.28-.55.8-.85.8l-8.18.2c-.5-.01-.98-.68-1.46-1.04l.24-.6" class="B"/><g transform="translate(159.87)"><mask id="N" class="C"><use xlink:href="#D"/></mask><path d="M3.02.98L1.58 9c-.06.32-.58.54-.9.8-.2-.37-.6-.78-.56-1.1L1.5.75c.06-.28.67-.7.92-.6.3.1.47.64.6.84" fill="#000" mask="url(#N)"/></g><path d="M75.23 78l2.8-1.34c.3-.1.73.22 1.1.35-.13.34-.17.82-.4 1-1 .7-2 1.47-3.1 1.9-.5.2-1.28-.34-1.9-.64-.17-.1-.16-.53-.3-.77-.33-.57-1.35-1.14-.3-1.72.34-.2 1.23.63 1.87 1 .1.05.16.15.25.23m86.55-19.5c-.62-.83-1-1.18-1.18-1.62l-1.53-4.34c-.1-.4.27-.97.43-1.47.36.3.9.5 1.06.88a47 47 0 0 1 1.69 4.65c.12.4-.22.93-.47 1.9m-7.66 66.75l1.7.82-1.66.74c-.2.08-.5.12-.7.06l-1.7-.66 1.47-.68c.2-.08.46-.04.7-.05l.18-.23" class="B"/><path d="M152.7 42l-8.15-1.2c-5.23-1.25-9.6-6.7-8.8-13.13.17-1.33.44-2.66.74-3.97 1.32-5.84 6.08-7.47 10.78-8.45 6.15-1.28 11.97.62 17.23 3.9 3.52 2.2 3.67 5.93 3.33 9.7-.57 6.26-6.8 13.73-15.12 13.14m42.94 16.5c1.73.1 3.46.4 5.18.27 1.2-.08 2.6-.4 3.5-1.16 1.16-.96 2.18-.92 3.1-.15 2.45 2.05 4.8 1.37 7.24.07a3.8 3.8 0 0 1 5.64 2.71c.27 1.43.18 2.8-1.08 3.67-1.33.9-2.96 1.15-4.27.22-2.1-1.5-3.9-.9-5.76.3-1.67 1.06-2.8.97-4.34-.47-1.2-1.14-2.5-1.23-4-.72-1.84.62-3.7 1.37-5.6 1.54-.98.1-2.68-.75-2.93-1.54-.38-1.18-.04-2.84.54-4 .32-.64 1.75-.7 2.68-1.02l.1.32" class="C"/></g><path d="M162.16 68.86l-.23-.1c.1-.4.24-.78.24-1.17 0-.33-.17-.66-.27-1-.28.2-.74.34-.8.6-.7 2.68-1.94 5.22-1.88 8.1l.04 5.62c.08 1.3.1 2.36-1.4 2.74-.23.06-.35.58-.52.88.36.06.73.2 1.07.16.93-.12 1.88-.57 2.76-.43 1 .16 1.9.86 2.88 1.26.32.13.73.07 1.1.1l-.47-1.12c-.07-.14-.27-.22-.42-.3-.65-.3-.78-.8-.65-1.47l.68-3.75.64-6.3c.02-1.24-.48-2.46.4-3.6.1-.15-.1-.55-.16-.84-.3.1-.62.13-.85.32-.24.2-.37.53-.55.8l-.3-.16c.2-.4.44-.8.55-1.25.1-.42.1-.88.14-1.32-.4.24-.87.4-1.16.73-.37.42-.58.98-.86 1.48m-11.27 11.7l-.26-1.15-2.22-7.37c-.12-.38-.63-.63-.97-.94-.26.34-.64.64-.77 1.03l-1.32 4.46a2.2 2.2 0 0 1-1.83 1.84c-.97.2-1.97.4-2.86.82-1.57.74-2.8.4-3.9-.87-.1-.13-.25-.24-.4-.35l-2.6-1.87c-.26-.16-.76-.15-1.02.01-.2.12-.22.6-.2.94.01.38.16.76.23 1.14l1.27 6.13c-1.3 0-2.48-.04-3.66.03-.28.02-.54.38-.8.6.27.2.52.56.8.6 1.1.1 2.18.07 3.27.17.3.03.55.35.83.54-.23.2-.43.5-.7.6l-3.3 1.1c-.24.1-.34.58-.5.9.32.08.67.28.95.2l3.14-.94c.3-.08.67.15 1 .24-.15.34-.2.82-.45 1l-2.8 1.78c-.5.3-1.4.5-.94 1.3.47.8 1.08.03 1.57-.25l3.1-1.9.36 1.43c.35.9.16 1.5-.66 2.03-.48.3-.87.8-1.2 1.28-.13.18-.01.56 0 .85.28-.03.57-.01.82-.1.17-.06.3-.3.44-.44 2.6-2.5 4.85-2.5 8.03-.75.86.47 1.27.46 1.7-.36a9 9 0 0 1 .5-.8c1.26-1.82 2.28-2 4.05-.74l.4.32c.72.5 1.13.32 1.32-.54.37-1.67.78-1.97 2.42-2.02.34-.01.67-.35 1-.54-.33-.23-.66-.64-1-.65-.72-.03-1.46.14-2.22.24 0-.82-.12-1.66.08-2.4.06-.22 1.06-.1 1.6-.25.26-.07.46-.4.68-.62-.2-.2-.4-.5-.65-.55-.43-.1-.9 0-1.32-.08-.2-.04-.4-.28-.6-.43.15-.2.26-.5.46-.6l2.1-.86c.53-.26 1.6-.28 1.3-1.15-.3-.9-1.12-.2-1.68-.01-.73.23-1.44.55-2.45.95.1-.77 0-1.42.26-1.68.9-.9 1.96-1.63 2.9-2.5.26-.24.3-.72.46-1.1-.37.03-.82-.07-1.1.12-.9.63-1.72 1.36-2.7 2.15m-74.17 11.5c.33-8.4 3.97-13.7 10.37-16.8 3.9-1.9 7.94-1.35 11.7.9 1.24.74 2.43 1.58 3.7 2.3 2.42 1.36 3.95.97 5.57-1.3.6-.85 1.22-1.7 1.9-2.5a6.7 6.7 0 0 1 9.55-1.32c.23.15.7.3.8.2.22-.24.4-.65.4-1-.04-2.38.55-4.55 1.98-6.44 1.92-2.54 4.47-3.88 7.56-3.7 3.98.22 7.6 1.5 10.1 4.97.63.87 1.05 1.9 1.62 2.82.2.32.56.54.85.8.2-.3.5-.56.6-.88.72-2.14 2.24-3.7 3.62-5.35a14.3 14.3 0 0 1 11.5-5.32 11.3 11.3 0 0 1 10.96 9.31c.2 1 .28 2.03.5 3.03.1.4.33 1.03.6 1.1.36.08.9-.2 1.2-.48 3.4-3.1 7.3-4.18 11.7-3 .94.25 1.8.8 2.7 1.27.7.37 1.12.26 1.4-.55 2.4-6.94 9.4-11.86 16.52-11.63 5.43.18 10.04 4.65 9.93 9.8-.03 1.27-.58 2.52-.84 3.8-.1.44 0 .9 0 1.37.42-.05.9.03 1.24-.18 5.67-3.54 13.78-1.28 17.63 4.67 1.83 2.84 3.4 5.73 3.67 9.2.56 7.53-3.3 13.3-9.74 15.84-2.46.97-5.05 1.18-7.66 1.18-1.36 0-1.44.1-1.48 1.5-.1 2.9-.66 5.7-1.7 8.36-1.75 4.44-7.45 7.05-11.84 5.28-2.18-.88-4.18-2.2-6.26-3.34-.24-.13-.45-.32-.68-.47-1.1-.7-1.48-.5-1.67.82-.16 1.15-.36 2.3-.65 3.43-1.35 5.12-4.96 7.7-9.65 8.9-1.78.45-3.64.65-5.47.75-1.1.06-1.73.5-2.28 1.44-2.83 4.8-7 7.58-12.28 8.76-9.75 2.17-17.73-5.75-18.98-13.7-.27-1.74-.12-3.6.05-5.37.24-2.43-.35-3.23-2.72-3.56-3.6-.5-6.74.96-9.96 2.2-2.8 1.08-5.6 2.27-8.5 2.92-1.9.43-4.04.23-6-.14-2.34-.44-3.38-2.45-3.9-4.7-.52-2.18.14-4.28.53-6.38.3-1.62.88-3.2 1.15-4.82.5-2.98-1.13-5-4.07-5.23-2.5-.2-4.8.48-7 1.57-1.85.9-3.72 1.8-5.48 2.86-3.58 2.2-7.33 2.32-11.27 1.4-3.05-.7-5.77-2-7.9-4.38-.86-.96-1.7-2.1-2.08-3.34-.75-2.5-1.18-5.1-1.55-6.82" class="C"/><path d="M74.52 205.28c0 .27-.08.7.02 1.1.1.33.4.6.6.9.2-.32.5-.63.53-.97a6.9 6.9 0 0 0-.09-1.96c-.06-.33-.42-.6-.64-.9l-.5 1.07c-.06.18.03.4.06.76m5.04-1.87l-.62-.87c-.22.32-.54.6-.65.97-.2.6-.3 1.2-.33 1.83-.01.3.22.63.35.94.26-.2.66-.37.76-.65.23-.64.3-1.34.5-2.23m79.1-9.67l-.7-5.42-.5-2.77c-.06-.25-.44-.42-.67-.62-.15.27-.44.55-.43.82.03.7.2 1.38.3 2.06l.85 5.78c.05.27.46.48.7.72l.45-.57m-76.5-24.45c-.96 0-1.92-.04-2.87.02-.34.02-.65.32-.98.5.3.23.58.64.87.65l7.16-.1c1.07-.07 2.12-.5 3.15-.88.3-.1.45-.58.67-.88-.35-.1-.76-.33-1.04-.23a15.3 15.3 0 0 1-6.96.91m29.53 22.85c.97 1.33 1.06 2.55 1.12 3.76l.03 3.25c.01.3.28.8.44.8.3 0 .66-.23.9-.47.2-.2.24-.57.38-.85l1.86-3.73c.26-.48.7-.85 1.07-1.28l.44.13c.02 1.08.17 2.2.01 3.25-.24 1.62-.75 3.2-1.05 4.8-.08.44.2.94.3 1.4.43-.2 1-.28 1.28-.6.86-1 1.57-2.1 2.4-3.13.5-.62 1.13-1.13 1.7-1.7l.3.15c0 .6.06 1.2-.02 1.8-.08.58-.35 1.14-.43 1.72-.04.3.06.82.24.9.27.12.75.05 1-.14.45-.35.88-.8 1.16-1.3.13-.22-.1-.68-.2-1-.1-.28-.4-.5-.4-.78-.08-.93.1-2-1-2.43-1.03-.4-1.75.35-2.4 1.02-.53.54-1 1.15-1.48 1.73l-.8.94c.2-.94.43-1.54.45-2.15.06-1.52.2-3.07 0-4.57-.2-1.4-1.44-1.74-2.44-.8-.54.5-.96 1.17-1.4 1.8-.34.5-.62 1-.93 1.54l-.73-3.48c-.22-.78-.62-1.56-1.54-1.64-.96-.1-1.48.64-1.86 1.4-1.18 2.33-1.37 4.8-.92 7.35.06.35.56.63.86.94.1-.4.33-.8.27-1.18a11.3 11.3 0 0 1 .45-5.58c.2-.6.58-1.12 1-1.9m-2.37-59.42l-.28.1-1.85-2.47c-.16-.2-.5-.24-.75-.35-.1.27-.28.56-.26.82.03.3.23.58.4.82l1.4 1.8c.63.83 1.07 1.66.86 2.84-.38 2.1-.6 4.22-.8 6.34-.04.42.24.88.37 1.32l.8-1.15c.05-.08.03-.2.04-.3l1.75-12.56c.24-1.7.27-1.65 1.97-1.94.55-.1 1.48.22 1.44-.8-.01-.15-1.03-.43-1.56-.38-3.6.36-4.04.1-5.08-3.46-.24-.82-.67-.98-1.36-.45-.5.38-.9.9-1.4 1.2-1.5.9-2.95 1.95-4.57 2.5-3.47 1.2-7.64-1.3-8.58-4.94-1.03-3.97.62-8.05 4.06-10.12.2-.13.3-.47.44-.72-.28-.13-.64-.44-.82-.36-.76.36-1.6.72-2.18 1.3-2.56 2.46-3 5.65-2.87 9.05.13 3.74 5.18 8.83 10.1 7.04 1.8-.66 3.44-1.8 5.14-2.74.32-.18.58-.45.98-.77.53 1.8 1.34 3.2 3.1 3.75.1.03.2.35.2.52l-.67 4.1m-25.83 56.55l.4-.18 2.6 4.66c.2.34.6.55.9.82.17-.4.48-.8.47-1.2-.01-2-.17-3.98-.14-5.97.02-1.07.3-2.13.53-3.18.06-.3.37-.7.6-.73s.64.3.74.58c.5 1.33 1.08 2.66 1.34 4.04.32 1.7.3 3.48.52 5.2.07.5.53.93.8 1.4.35-.37.82-.7 1.02-1.14.4-.88.54-1.9 1-2.75.6-1.15 1.3-2.3 2.16-3.26.75-.85 1.48-.6 1.64.52.2 1.26.3 2.6.14 3.85-.3 2.14-.9 4.23-1.28 6.36-.07.38.23.83.35 1.25.34-.23.8-.4 1-.7.7-1.12 1.2-2.37 1.94-3.45l5.95-8.27c.2-.3.14-.77.2-1.16-.35.1-.8.12-1.04.35-.54.53-1 1.15-1.45 1.76l-4.82 6.6c.1-.58.2-.98.2-1.38.03-1.8.23-3.64-.02-5.4-.3-2.17-2.03-2.75-3.57-1.24-1 1-1.67 2.34-2.46 3.55-.2.32-.32.7-.5 1.13-.12-.2-.18-.24-.2-.3l-.1-1.15c-.25-2.37-.57-4.74-1.98-6.75-1.08-1.53-2.57-1.4-3.17.38-.45 1.33-.6 2.78-.76 4.2-.1.94-.02 1.9-.02 2.87-.7-.64-1.15-1.36-1.7-2.02-.5-.6-.95-1.5-1.88-1.1-.9.37-.7 1.33-.57 2.04a70.5 70.5 0 0 0 1.3 5.48c.15.54.35 1.5 1.13 1.2.9-.35.15-1.07-.02-1.6-.58-1.73-1.1-3.47-1.27-5.3m-16.22 36.57c-.13-1.42-.18-2.93-.44-4.4-.3-1.78-.65-3.58-1.26-5.27-.54-1.5-2.08-1.58-3-.28-.5.73-1 1.57-1.16 2.42-.46 2.57-.75 5.17-1.1 7.76-.04.33-.01.68-.01 1.26-.62-1.07-1-1.9-1.53-2.62-1-1.34-2.33-1.15-3.04.4-.13.28-.24.58-.32.9-1 4.03-.08 7.92.86 11.8.06.23.55.36.83.54.1-.3.36-.66.3-.94-.3-1.58-.83-3.13-.95-4.7-.15-2.04-.02-4.1.1-6.14.03-.47.5-.92.76-1.38.34.37.8.68 1 1.1.57 1.3 1.05 2.65 1.53 4 .36 1.02.64 2.07 1.04 3.07.1.27.54.4.82.58.14-.3.34-.56.4-.86.05-.26-.07-.55-.1-.83-.42-3.23-.8-6.48-.25-9.72.3-1.84.93-3.63 1.47-5.43.1-.3.5-.52.75-.78.26.3.6.55.76.9a6.2 6.2 0 0 1 .45 1.5c.74 3.93 1.07 7.9.68 11.9-.04.45-.1.92-.03 1.35.04.23.36.5.6.57.15.04.45-.26.57-.47.12-.23.08-.55.16-.8.56-1.78.94-3.67 1.77-5.3.96-1.9 2.38-3.6 4.66-3.92 2.47-.33 3.1.7 2.7 2.63a27 27 0 0 1-1.64 4.94c-1.2 2.86-2.53 5.66-3.8 8.5-.2.47-.36 1-.4 1.5-.02.3.15.76.37.88.27.14.76.12 1.02-.06.48-.32.87-.78 1.26-1.2 1.57-1.7 3.07-3.48 4.7-5.12.8-.8 1.75-1.48 2.75-1.98 1.4-.7 2.23-.03 1.94 1.55-.2 1.02-.54 2.02-.85 3.02-.45 1.43-1.02 2.83-1.35 4.3-.17.73-.07 1.6.18 2.34.25.75 1.06.94 1.73.64.3-.13.4-.76.66-1.32-1.43.2-1.6.06-1.46-1.07a7.6 7.6 0 0 1 .35-1.53c.43-1.3.95-2.55 1.35-3.85a13.6 13.6 0 0 0 .64-2.96c.14-1.96-1.2-3.04-3.04-2.45a6 6 0 0 0-2.24 1.2c-1.86 1.75-3.6 3.6-5.4 5.44-.25.25-.47.52-.7.78a4.3 4.3 0 0 1 .45-1.65c1.3-2.9 2.72-5.73 3.87-8.68.55-1.42.68-3.04.82-4.58.08-.94-.44-1.75-1.4-2.1-2.07-.74-4.02-.5-5.64 1.04-1.13 1.1-2.1 2.37-3.18 3.62" class="D"/><mask id="O" class="C"><use xlink:href="#E"/></mask><path d="M159.53 152.3l.01.1 3.52-.56a20 20 0 0 0 6.98-2.8c.47-.3.8-.7.33-1.16-.2-.2-.74-.12-1.1-.06-.25.04-.46.28-.7.44-1.83 1.26-3.82 2.12-6 2.5l-4.24.6c-.27.04-.5.3-.76.45.28.16.53.4.83.46.36.08.74.02 1.12.02zM65.37 92.44l.26 1.08 2.5 9.9c.2.82.52 1 1.26.87l9.53-1.55c-3.42-3.5-3.88-7.75-3.76-12.28l-9.8 1.96zm-8.5-25.1l3.63 9.94c.24.65.68.58 1.16.47l7.37-1.8c.58-.15 1.13-.42 1.8-.67l-4.1-10.62c-.07-.17-.5-.34-.7-.27l-9.15 2.95zM83.3 114.5c-.02-.25 0-.4-.04-.52l-2.7-9.22c-.2-.7-.65-.82-1.26-.73l-10.68 1.67 2.03 10.14c.14.72.65.6 1.12.52l11.53-1.87zM61.2 79.18l.35 1.17 3 9.46c.43 1.38.42 1.43 1.86 1.17 2.45-.46 4.9-.97 7.34-1.48 1.5-.3 2-1.15 1.6-2.68-.1-.4-.25-.8-.4-1.2l-2.84-7.06c-.27-.67-.57-1.32-.83-1.9L61.2 79.18zm9.94 38.55l1.22 8.6c.13 1.18.72 1.7 1.73 1.73 3.9.13 7.72-.15 11.28-2 .55-.28.72-.6.56-1.23l-1.63-6.92c-.5-2.13-.53-2.18-2.65-1.87l-10.5 1.7zm15.24 9.2c-4.3 2.27-8.83 2.54-13.46 2.3-.01.18-.04.3-.02.44l1.85 11.45c.12.76.6.88 1.17.85 1.94-.1 3.9-.05 5.8-.38 2.4-.4 4.76-1.12 7.2-1.72l-2.54-12.96zm56.76 25.13c.18-.7.3-1.05.37-1.4l2.73-16.8c.2-1.08.02-1.93-.52-2.86-1.15-2-2-4.14-2.05-6.5a95.1 95.1 0 0 1 .07-5.54c.02-.63-.15-1.06-.78-1.1-1.32-.07-2.67-.28-3.95-.07-3.95.63-7.45 2.62-11.1 4.12-.3.12-.6.67-.6 1.03-.06 2.02-.1 4.05 0 6.07.23 4.08 1.15 7.94 3.26 11.52 2.26 3.82 5.5 6.5 9 8.98l3.6 2.56zm-96.7-119.6c-.7.78-1.03.72-1.5-.25-1.88-3.93-4.08-7.65-7.06-10.83-2.63-2.8-5.6-5.13-9.13-6.58-.78-.32-2-.53-2.58-.12-.85.6-.34 1.8-.04 2.72 1.3 3.92 3.52 7.32 6.13 10.43 2.08 2.48 4.34 4.8 6.48 7.25.25.3.26.8.37 1.22-.38-.12-.8-.16-1.13-.37-.86-.57-1.6-1.3-2.5-1.8-3.86-2.13-7.9-3.78-12.18-4.84-5.5-1.36-11.02-2.08-16.64-1.1-1.62.28-3.2.9-4.72 1.6-1.04.47-1.16 1.3-.52 2.25.38.56.84 1.18 1.4 1.47 2.03 1.04 4.05 2.24 6.22 2.85 4.74 1.32 9.55 2.37 14.35 3.43 4.46.98 8.85 2.4 13.48 2.48.3 0 .57.36.85.55-.3.2-.62.53-.94.54-1.6.06-3.2-.05-4.8.04-4.67.26-9.17 1.38-13.58 2.92-4.26 1.5-8.46 3.16-12.2 5.77-1.02.7-1.92 1.67-2.72 2.65-.64.78-.34 1.45.63 1.7a4.3 4.3 0 0 0 1.71.22c3.13-.47 6.3-.8 9.36-1.57 7.38-1.9 14.68-4.07 22.04-6 2.53-.66 5.17-.94 7.77-1.34.3-.05.64.24.96.37-.2.32-.37.72-.65.94-.37.3-.84.46-1.3.63-4.27 1.6-8.28 3.75-12.2 6.08a65.1 65.1 0 0 0-13.13 10.11c-2.44 2.47-4.68 5.16-6.86 7.88-.8 1-1.3 2.3-1.7 3.54-.67 2.03.24 3.2 2.3 3.2a11.2 11.2 0 0 0 2.13-.23c4.26-.9 8.2-2.68 11.9-4.9 5.57-3.37 10.94-7.1 16.4-10.66l9.44-6.05c.6-.38 1.26-.7 1.93-.97.2-.1.54-.03.74.1.1.06.1.53-.01.63-.7.64-.35 1.38-.2 2.05.4 1.6.9 3.14 1.3 4.73.17.7.44.84 1.07.64l8.43-2.6c.6-.18.6-.52.44-1.04l-1.9-6.2c-.2-.65-.4-1.35-1.25-1.48-.13-.02-.33-.33-.3-.47.03-.2.2-.45.38-.54.23-.12.53-.14.8-.15l13.4-.28 20.18-.18c3.75-.12 7.48-.8 11.02-2.2a11.5 11.5 0 0 0 2.6-1.44c1.13-.84 1.23-1.78.28-2.85-.6-.7-1.32-1.4-2.13-1.75-2.42-1.03-4.85-2.1-7.37-2.78-11.14-2.95-22.37-2.9-33.64-.77a12.6 12.6 0 0 1-2.13.26c-.27 0-.7-.27-.76-.5-.06-.23.2-.65.42-.83.4-.3.9-.5 1.35-.73 6-2.88 12.4-4.58 18.65-6.68l15.23-5.25c1.23-.44 2.34-1.28 3.43-2.05.42-.3.9-1 .82-1.4-.08-.4-.8-.92-1.27-1-1.88-.24-3.8-.6-5.68-.4-9.84.96-19.25 3.35-27.5 9.3-.32.23-.9.1-1.35.13.2-.42.3-.95.63-1.23 1.08-.96 2.3-1.75 3.34-2.75l9.8-9.84a214.9 214.9 0 0 0 7.3-7.79c1.65-1.87 3.1-3.92 3.76-6.4.5-1.98-.24-2.9-2.18-2.54-1.33.24-2.72.54-3.92 1.15-10.4 5.2-18.04 13.1-22.5 24.1-.1.26-.46.42-.7.63-.2-.28-.5-.55-.53-.86-.06-.36.1-.75.18-1.13C65.53 19.9 66.7 14.52 66.32 9a32.4 32.4 0 0 0-1.16-6.23c-.32-1.2-1.12-1.27-2.03-.42-.3.28-.62.58-.8.94-.92 1.7-1.94 3.38-2.68 5.17-2.43 5.9-2.54 12.08-1.92 18.33.04.42.01.97-.23 1.24-.14.17-.74-.08-1.17-.14-.1.36-.16.83-.37 1.2-.13.25-.5.36-.75.54-.07-.28-.2-.56-.2-.83.01-.94.2-1.9.07-2.8a51.9 51.9 0 0 0-1.23-6.25c-1.4-4.97-3.66-9.47-7.42-13.04-1.76-1.67-3.7-3.1-6.15-3.57-1.85-.36-2.78.14-3.37 1.96-.63 1.95-.37 3.93.32 5.75 1.04 2.76 2.15 5.52 3.6 8.08 2.78 4.94 4.63 10.44 8.43 14.78.16.18-.01.66-.03 1-.3-.02-.73.1-.9-.08-.66-.65-1.23-1.38-1.9-2.15zm29.83 59.45c.37 1.7.8 4.27 1.55 6.73.37 1.2 1.22 2.34 2.08 3.3 2.13 2.34 4.85 3.63 7.9 4.32 3.94.9 7.7.8 11.27-1.4 1.75-1.06 3.63-1.93 5.48-2.83 2.2-1.08 4.52-1.75 7.02-1.55 2.94.24 4.57 2.22 4.07 5.16-.27 1.6-.84 3.15-1.15 4.75-.4 2.07-1.06 4.15-.53 6.3.54 2.2 1.58 4.2 3.92 4.63 1.95.37 4.08.56 6 .13 2.9-.64 5.7-1.8 8.5-2.88 3.22-1.23 6.37-2.67 9.96-2.18 2.37.32 2.96 1.1 2.72 3.5-.17 1.75-.33 3.58-.05 5.3 1.25 7.84 9.24 15.66 19 13.5 5.27-1.16 9.45-3.9 12.28-8.64.55-.9 1.17-1.36 2.28-1.42 1.83-.1 3.7-.3 5.47-.74 4.7-1.18 8.3-3.72 9.66-8.78a29.6 29.6 0 0 0 .65-3.38c.2-1.3.57-1.5 1.67-.8.23.15.44.34.68.46 2.08 1.12 4.1 2.43 6.27 3.3 4.4 1.75 10.1-.82 11.84-5.2 1.05-2.64 1.62-5.4 1.7-8.25.05-1.38.12-1.48 1.48-1.48 2.6 0 5.2-.2 7.66-1.17A14.8 14.8 0 0 0 235.34 87c-.26-3.42-1.84-6.28-3.67-9.08-3.85-5.88-11.96-8.1-17.64-4.6-.33.2-.82.12-1.24.18-.01-.45-.1-.92 0-1.35.26-1.25.82-2.5.84-3.74.1-5.1-4.5-9.5-9.94-9.68-7.12-.23-14.12 4.63-16.52 11.48-.28.8-.7.9-1.4.55-.88-.46-1.75-1-2.7-1.25-4.4-1.16-8.3-.1-11.7 2.97-.32.3-.86.56-1.2.48-.27-.06-.5-.67-.6-1.08-.2-1-.3-2-.5-3-1.05-5.34-5.64-9.18-10.97-9.2a14.4 14.4 0 0 0-11.5 5.25c-1.38 1.63-2.9 3.17-3.62 5.28-.1.32-.4.58-.6.87-.3-.26-.65-.48-.85-.8-.57-.9-1-1.92-1.62-2.78-2.52-3.43-6.13-4.7-10.1-4.9-3.1-.17-5.64 1.16-7.56 3.67-1.43 1.87-2.02 4-1.98 6.35.01.33-.16.74-.4.98-.1.1-.58-.04-.8-.2-3.36-2.23-6.9-1.76-9.56 1.3-.68.78-1.3 1.63-1.9 2.46-1.63 2.23-3.16 2.62-5.58 1.28-1.26-.7-2.45-1.53-3.7-2.26-3.76-2.2-7.8-2.75-11.7-.88-6.4 3.07-10.05 8.3-10.38 16.6zm56.76 116.26l1.33-7.7 4.4-23.17c.04-.23.01-.47.01-.77-.78.25-1.1.77-1.24 1.52a26.7 26.7 0 0 1-.89 3.32c-.1.3-.57.5-.87.73-.18-.36-.57-.76-.52-1.08.2-1.16.45-2.33.86-3.42.5-1.34.23-2.57-.07-3.83l-.28-.1c-.25.46-.6.9-.7 1.38-.42 1.97-.75 3.96-1.16 5.93-.1.44-.36 1.15-.62 1.2-.77.12-.7-.66-.82-1.17l-1.02-3.94c-.1-.35-.3-.68-.43-1.02h-.34c-.15 1.07-.4 2.14-.43 3.22-.03 1.32.16 2.64.18 3.97.01.38-.23.77-.36 1.16-.26-.3-.7-.56-.76-.9-.38-2.43-.44-4.86.14-7.28.1-.37.24-.73.42-1.06.54-.97 1.4-1 2-.06.24.37.4.8.58 1.22.16.37.3.74.53 1.33.32-1.08.52-1.96.85-2.78.3-.73.66-1.47 1.14-2.08.7-.87 1.65-.68 2.1.35.17.38.25.8.35 1.2.1.36.14.73.2 1.13 1.1-.17 1.7-.62 1.92-1.8.7-3.62 1.6-7.2 2.38-10.8.38-1.74.32-1.78-1.2-2.76-4.52-2.94-9.05-5.85-12.77-9.9-4.4-4.78-6.93-10.52-7.98-16.87-.5-3-.25-6.1-.25-9.17 0-.85-.12-1.23-1.04-1.35-4.63-.57-6.64-4.6-6.04-9.27.3-2.4.95-4.77 1.6-7.12.78-2.84-.38-4.62-3.28-4.7-2.2-.06-4.24.64-6.2 1.6-1.82.88-3.65 1.75-5.4 2.77a14 14 0 0 1-10.66 1.58c-2.2-.53-4.36-1.25-6.64-1.9 5.94 18.8 8.9 38.43 12.2 57.97.2-2.66.28-5.35.64-8 .32-2.3.95-4.57 1.46-6.84a3.1 3.1 0 0 1 .47-1.15c.27-.36.7-.85 1.02-.83s.82.55.9.93c.35 1.56.7 3.14.8 4.73.13 2.2.03 4.4.23 6.63l.38-1.13c.92-2.93 1.92-5.83 3.6-8.4.36-.55.76-1.1 1.24-1.52.82-.7 1.75-.45 1.95.62.23 1.22.38 2.5.25 3.73-.36 3.3-.9 6.56-1.35 9.84-.03.24-.08.47.06.83.2-.28.35-.57.56-.84l4.5-5.67c.23-.3.53-.6.86-.73.57-.22 1.33-.6 1.75-.38.4.2.72 1.1.68 1.66-.08 1.13-.25 2.32-.7 3.36-1.64 3.87-3.4 7.7-5.1 11.53-.16.36-.36.7-.38 1.2 1.07-.83 2.1-1.7 3.23-2.46 1.08-.72 2.2-1.4 3.4-1.9.5-.22 1.46-.18 1.78.16.37.4.55 1.4.32 1.88-.85 1.8-1.9 3.52-2.9 5.25-.3.5-.68.92-1.2 1.6l2.94-.74c.5-.1 1.02-.14 1.52-.12.18.01.5.26.5.4-.01.22-.18.5-.36.63-.2.14-.52.15-.8.2a14.3 14.3 0 0 0-7.16 3.15c-.2.18-.42.4-.67.47-.23.07-.63.04-.72-.1-.13-.2-.16-.64-.03-.83.24-.36.62-.63.96-.93 2.58-2.24 4.64-4.92 6.27-7.94.3-.57.44-1.24.66-1.87l-.3-.26c-.6.27-1.25.47-1.8.8-3.5 2.14-6.47 4.9-8.93 8.2-.37.5-.74 1.4-1.48.88-.8-.56.03-1.17.34-1.68 3.43-5.64 6.55-11.45 8.74-17.73.4-1.1.56-2.3.84-3.44l-.38-.2c-.4.33-.84.64-1.2 1-3.7 3.64-6.05 8.14-7.78 13-.36 1-.55 2.1-.93 3.1-.17.44-.7 1.14-.9 1.1-.8-.2-.5-.93-.36-1.47a29.9 29.9 0 0 1 .71-2.51c1.97-5.92 3.04-12.02 3.65-18.22.1-1.12.02-2.26.02-3.38l-.4-.13c-.33.45-.7.87-1 1.34-2.44 4.12-3.78 8.66-4.62 13.35-.4 2.2-.45 4.43-.7 6.64-.04.38-.35.73-.54 1.1-.26-.34-.76-.7-.76-1.03.02-2.9.08-5.8.23-8.68.2-3.84.52-7.67-.1-11.5a23.8 23.8 0 0 0-.24-1.23c-.01-.05-.1-.1-.26-.24-.15.43-.3.8-.4 1.17a40.2 40.2 0 0 0-1.58 10.74c-.03 4.08.1 8.17.15 12.25 0 .07.03.15.01.2-.2.5-.36 1.42-.6 1.44-.85.08-.65-.8-.74-1.3l-3-18.7c-.05-.3-.13-.6-.18-.8l-5.12 2.1c-.76.28-1.6.4-2.4.45-.3.02-.65-.32-.97-.5.3-.23.54-.56.86-.67 1.9-.66 3.87-1.12 5.7-1.93 1.58-.7 1.68-1.18 1.4-2.9l-1.46-8.88c-.04-.27-.14-.53-.2-.8a33.4 33.4 0 0 1-13.96 2.35l.14 1.14 1.73 9.9c.1.55.3 1.07.4 1.62.04.28.03.7-.13.84s-.58.1-.83-.01c-.37-.16-.67-.48-1.02-.68-.84-.48-1.7-.93-2.54-1.4l-.32.25.9 12.76.24.03.3-1.1c.8-3.12 1.96-6.08 3.53-8.87.32-.57.76-1.08 1.23-1.53.7-.68 1.43-.5 1.55.45.12.94.07 1.95-.14 2.87l-3.68 15.74c-.08.36-.14.72-.25 1.3.76-.6 1.3-1.15 1.95-1.5.5-.25 1.12-.23 1.7-.33.06.55.26 1.12.16 1.64a31.4 31.4 0 0 1-.88 3.54c-.1.3-.46.5-.7.76-.07-.32-.26-.67-.2-.96.25-1.25.56-2.5.92-4-.46.22-.78.27-.95.46-.87.97-1.7 1.98-2.56 2.96-.23.26-.5.48-.76.7-.1-.37-.35-.77-.28-1.1.4-1.83.9-3.64 1.33-5.47l3.25-14.02c.15-.65.16-1.33.23-2l-.34-.13c-.44.7-.9 1.4-1.3 2.13-2.1 3.97-3.08 8.32-4.03 12.67-.1.47-.03.98-.13 1.45-.05.22-.32.4-.48.6-.2-.18-.44-.33-.54-.55-.1-.24-.06-.55-.08-.82l-1.24-20.05c-.03-.4-.16-.8-.24-1.2l-.28-.01c-.18 1.54-.48 3.07-.5 4.62l-.1 14.55c-.01.6-.3 1.73-.42 1.72-.94-.06-.76-1-.87-1.6l-2.5-14.5c-.24-1.35-.76-2.64-1.15-3.96l-.26.05c0 1.04-.1 2.1.02 3.13l2.34 18.13c.05.43-.13.9-.2 1.33-.43-.16-.9-.26-1.27-.5-1.16-.76-2.3-1.6-3.62-2.22.13.3.24.6.4.9l3.67 6.4c.2.35.18.83.26 1.25-.36-.25-.86-.43-1.07-.78a163.3 163.3 0 0 1-3.17-5.49c-.44-.78-.86-1.6-1.16-2.44-.14-.4.04-.9.08-1.35.4.1.87.07 1.2.27 1.2.7 2.36 1.5 3.8 2.14l-.55-3.72c-.8-5.83-1.84-11.64-1.73-17.56a4.4 4.4 0 0 1 .16-1.23c.08-.26.33-.6.54-.65.2-.03.58.26.67.5.77 2.15 1.68 4.27 2.2 6.48.6 2.64.87 5.36 1.3 8.04a2.9 2.9 0 0 0 .36 1.05v-11.15c-1-.08-1.08-.9-1.13-1.77a10.9 10.9 0 0 0-1.41-4.97c-.54-.9-1.22-1.63-2.32-1.65-1.1-.02-1.7.8-2.18 1.66-.4.72-.75 1.48-1.13 2.25-.7-.26-.8-.68-.47-1.3.43-.75.78-1.56 1.3-2.25 1.38-1.86 3.6-1.86 5.07-.07 1.33 1.6 1.8 3.56 2.1 5.58.04.24.07.48.14.7.02.1.13.15.3.34.22-1.07.37-2.07.65-3.02.12-.42.48-.76.74-1.14.3.34.73.63.87 1.03a16.1 16.1 0 0 1 .61 2.52c.1.6.33.97.97 1.16.83.24 1.6.65 2.63 1.08l-.46-3-5.06-30.98c-2.32-13.45-5.24-26.76-9.8-39.64l-4.62-12.75c-.9-2.7-1.53-5.5-2.27-8.25l-.27-.97c-.8.42-1.6.75-2.28 1.2L32.77 72.77c-4.63 3.1-9.48 5.8-14.75 7.6-1.7.58-3.5.97-5.28 1.13-3.05.27-4.37-1.48-3.6-4.5.67-2.6 2.2-4.7 3.9-6.7C18.82 63.4 25.78 58 33.47 53.56c2.4-1.38 4.9-2.56 7.34-4.04-.54.05-1.1.04-1.6.18l-19.5 5.2a200.9 200.9 0 0 1-11.87 2.68c-1.3.25-2.72.06-4.05-.18-1.6-.3-2.17-1.68-1.26-3.07.6-.94 1.4-1.83 2.28-2.5 4.14-3.12 8.87-5.06 13.72-6.6 3.02-.97 6.14-1.6 9.22-2.37l1.26-.32.02-.3-5.1-1.22c-5.02-1.18-10.08-2.2-15.05-3.6-2.36-.66-4.6-1.92-6.77-3.12C1.33 33.83.7 32.87.27 32c-.6-1.2-.17-2.2.92-2.97 1.92-1.34 4.14-1.78 6.4-2.03 8.97-.97 17.43 1 25.57 4.76.3.13.6.24.9.35l.2-.24-1.45-1.74c-3.07-3.5-5.77-7.25-7.4-11.68a9.8 9.8 0 0 1-.58-2.95c-.06-1.58.76-2.3 2.3-2.17 1.86.15 3.44 1.08 5 2.03 4.64 2.84 8.28 6.68 11.04 11.42.2.33.4.65.6.97.02.03.06.03.33.18L36.65 12.8c-1-2.25-1.43-4.73-.83-7.26.66-2.8 2.63-4.06 5.37-3.38 2.53.63 4.6 2.12 6.4 3.96 4.03 4.1 6.42 9.14 7.73 14.74l.5 2.27.42-.04v-1.66c-.16-5.77.9-11.26 3.6-16.36a16.7 16.7 0 0 1 2.54-3.64c1.37-1.46 3.03-1.2 3.78.67a21 21 0 0 1 1.23 5.14c.53 4.23 0 8.43-.68 12.6-.04.27-.07.54.07.9.2-.3.4-.57.6-.87 4.5-7.03 10.05-12.97 17.3-17.06 1.86-1.05 3.95-1.7 5.95-2.5.43-.17.94-.2 1.4-.23 2.6-.2 3.84 1.24 3.27 3.88-.58 2.67-2.07 4.9-3.83 6.84-3.57 3.94-7.3 7.72-11 11.57-1.37 1.44-2.76 2.86-4.03 4.45.18-.07.36-.13.53-.2 6.95-3.12 14.22-4.94 21.8-5.38 1.84-.1 3.77.1 5.56.57 2.43.64 2.8 2.6.87 4.24-1.14.97-2.44 1.86-3.82 2.38-4.7 1.76-9.48 3.36-14.24 4.97L71.3 38.74a2.7 2.7 0 0 0-1.13.68l4.82-.58c9.9-1 19.67-.5 29.23 2.45 2.26.7 4.52 1.7 6.5 3 3.4 2.27 3.12 5.02-.48 6.9-3 1.56-6.28 2.1-9.57 2.6-7.48 1.1-15 .6-22.5.54-4.06-.03-8.13.02-12.2.04-.3 0-.6.07-.98.12C67.7 64.96 72 74.78 75.9 84.85c1.02-1.66 1.83-3.23 2.87-4.63 2.14-2.9 4.76-5.26 8.18-6.4 4.5-1.5 8.77-.84 12.75 1.77a35.7 35.7 0 0 0 3.26 1.96c1.55.8 2.37.52 3.46-.85 1.05-1.32 2.03-2.76 3.27-3.87a7.6 7.6 0 0 1 8.33-1.43c.28.1.56.2.93.34l.17-.97c1.07-6.73 6.83-10.64 13.32-9.1 4.16.98 7.57 2.97 9.65 7.04l3.3-4.22a15.4 15.4 0 0 1 10.79-5.92c2.35-.24 4.68-.17 6.82.9 4.3 2.16 6.94 5.6 7.5 10.57.04.37.13.73.2 1.15l2.87-1.8c2.87-1.8 6-1.6 9.15-1.3.7.06 1.43.01 2.08.01l.93 1.25c1.22-1.82 2.18-3.62 3.48-5.1 3.94-4.44 8.8-6.95 14.8-6.74 5.02.17 9.7 3.98 10.6 8.9.3 1.63.05 3.36.05 5.1-.1.01.03.03.13-.01 5.78-2.62 13.88-.53 18.07 6.03 2.1 3.3 3.67 6.67 3.72 10.68.1 9.04-6.4 15.3-14.02 16.45-1.58.23-3.18.3-4.7.42-.43 2.26-.75 4.5-1.3 6.7-1.3 5.17-5.1 8.32-10.26 8.74-1.65.14-3.22-.2-4.68-.9-1.72-.84-3.4-1.8-5.07-2.73-.32-.18-.63-.4-1.06-.65l-.36 1.83c-1.04 4.87-3.62 8.38-8.3 10.24-2.52 1-5.1 1.47-7.76 1.57-1 .04-1.6.37-2.1 1.27a17.6 17.6 0 0 1-6.58 6.58c-1.87 1.05-4.07 1.53-6.16 2.1-1.27.34-2.63.32-3.93.56-.34.06-.83.43-.9.73a159.3 159.3 0 0 0-1.44 7.48c-.2 1.24.01 1.42 1.24 1.36 3.68-.17 7-1.37 9.94-3.64.68-.52 1.2-.64 1.8.15 1.42 1.88 2.03 2.15-.62 3.9-3.65 2.4-7.76 3.2-12.02 3.3-.88.02-1.32.14-1.46 1.2l-2.78 20.28c-.82 6.53-1.52 13.08-2.2 19.63-.47 4.47-.84 8.95-1.25 13.43h-1.03l2.4-23.28 1.52-13.18c.5-4.4.93-8.8 1.6-13.17.85-5.64 1.9-11.25 2.88-16.87.16-.9.04-1.56-1-1.76-3.5-.68-6.2-2.8-8.7-5.2-.23-.2-.5-.4-.78-.62-.1.26-.15.35-.17.45l-2.88 17.6c-.23 1.4-.7 1.7-1.83.93a122.2 122.2 0 0 1-7.54-5.38c-4.33-3.43-7.12-7.96-8.4-13.38-.82-3.5-.97-7.1-.8-10.7.01-.3-.03-.6-.05-1.03-1.3.17-2.52.42-3.73.47-.8.03-1.03.36-1.14 1.1a29.6 29.6 0 0 0 .46 10.5 32 32 0 0 0 13.36 19.95c2.45 1.7 4.94 3.36 7.43 5 .98.65 1.37 1.43 1.08 2.65L141 172.73 135.5 201c-.46 2.4-.83 4.8-1.24 7.2h-1.23z" mask="url(#O)" class="B"/><g transform="translate(120.33 122.6)"><mask id="P" class="C"><use xlink:href="#F"/></mask><path d="M20.25 72.52l.63.8c.2-.27.54-.5.6-.8l.93-5.13c.05-.34-.3-.73-.45-1.1-.24.25-.63.46-.7.75l-1.02 5.5zm10.62-34.4l-.56-.92c-.23.3-.56.57-.66.9-.26.9-.42 1.83-.6 2.75l-1.53 7.8c-.05.3.3.65.46.98.22-.26.57-.5.65-.8l2.26-10.74zm-17.1 48.3l1.24-7.22 5.5-28.4a308.2 308.2 0 0 1 2.34-10.53c.3-1.22-.1-2-1.08-2.66l-7.42-5.03A32.2 32.2 0 0 1 1.02 12.51C.25 9.04.08 5.5.56 1.96.66 1.22.88.9 1.7.85 2.9.8 4.1.56 5.42.38c.02.43.06.73.05 1.03-.18 3.62-.04 7.24.8 10.76 1.28 5.45 4.06 10 8.4 13.45 2.42 1.93 4.97 3.68 7.53 5.4 1.13.77 1.6.46 1.83-.94l2.87-17.7c.02-.1.07-.2.17-.45.3.23.55.4.78.63 2.52 2.4 5.2 4.54 8.7 5.23 1.04.2 1.16.86 1 1.77l-2.88 16.95c-.66 4.4-1.07 8.82-1.6 13.23L31.53 63l-1.55 14.83-.85 8.57h-2.46l.68-4.67 1.72-10.88 4.33-31.28c.46-3.8.78-7.6 1.2-11.38.2-1.7.48-3.4.65-5.1.03-.27-.33-.6-.5-.88-.22.23-.6.43-.63.68L32.66 33.8 30.7 50.48c-.7 5.37-1.58 10.72-2.35 16.1l-1.2 9.15-1.68 10.67H23.4l.8-9.52c.4-3.86.84-7.72 1.36-11.57.4-2.9.94-5.8 1.4-8.7.1-.6.2-1.22-.83-1.52C23.9 65.4 23 75.9 22.17 86.4h-2.05l.8-9.72c.04-.57.36-1.5-.46-1.56-.9-.08-.62.94-.67 1.46-.35 3.27-.6 6.54-.9 9.82h-5.12z" mask="url(#P)" class="D"/></g><g transform="translate(145.36 144.82)"><mask id="Q" class="C"><use xlink:href="#G"/></mask><path d="M.3 63.75L2.02 53.2 7.7 11.75A531.8 531.8 0 0 1 9.18.94C9.22.7 9.6.5 9.82.27c.18.3.55.6.52.87L9.68 6.2 8.46 17.44 4.02 48.37 1.55 63.75H.3z" mask="url(#Q)" class="B"/></g><g transform="translate(142.94 177.73)"><mask id="R" class="C"><use xlink:href="#H"/></mask><path d="M.37 30.84c.7-10.25 1.5-20.5 3.47-30.58.9.3.8.9.73 1.5-.4 2.83-.88 5.65-1.23 8.5l-1.2 11.3-.7 9.3H.37z" mask="url(#R)" class="B"/></g><g transform="translate(139.71 196.66)"><mask id="S" class="C"><use xlink:href="#I"/></mask><path d="M.13 11.3L1 1.58C1.04 1.06.77.04 1.62.12c.77.07.47.98.43 1.55L1.3 11.3H.13z" mask="url(#S)" class="B"/></g><g transform="translate(71.87 203.24)"><mask id="T" class="C"><use xlink:href="#J"/></mask><path d="M.48 4.94L.72.88c.02-.22.5-.43.76-.64.26.22.76.43.75.65l-.3 4.04H.48z" mask="url(#T)" class="B"/></g><g class="B"><path d="M83.63 188.98a23.3 23.3 0 0 0 1.27 5.24c.17.5.93 1.22.02 1.57-.78.3-.98-.64-1.13-1.17l-1.3-5.42c-.14-.7-.32-1.65.57-2.02.94-.38 1.4.5 1.9 1.1.54.64 1 1.36 1.7 2 0-.95-.1-1.9.02-2.84.17-1.4.3-2.83.76-4.15.6-1.75 2.1-1.9 3.18-.38 1.4 1.98 1.73 4.32 1.98 6.67l.1 1.13c.01.06.07.1.2.3.2-.42.3-.8.5-1.12.8-1.2 1.46-2.53 2.47-3.5 1.54-1.5 3.27-.92 3.58 1.22.26 1.74.05 3.56.02 5.34-.01.4-.12.8-.2 1.36l4.83-6.5c.45-.6.9-1.22 1.46-1.74.24-.23.7-.24 1.05-.34-.06.4 0 .86-.2 1.15l-5.97 8.17c-.75 1.06-1.26 2.3-1.95 3.4-.2.32-.66.47-1 .7-.13-.4-.43-.86-.35-1.24l1.3-6.3a13.3 13.3 0 0 0-.14-3.8c-.17-1.1-.9-1.35-1.65-.52a16.6 16.6 0 0 0-2.17 3.22c-.45.84-.6 1.84-1 2.7-.2.44-.67.75-1.03 1.12-.28-.46-.75-.9-.8-1.38l-.52-5.15c-.26-1.37-.84-2.68-1.34-4-.1-.27-.5-.6-.74-.57s-.53.43-.6.72c-.23 1.04-.5 2.1-.53 3.15l.14 5.9c0 .4-.3.8-.48 1.2-.3-.27-.7-.48-.9-.82l-2.6-4.6-.4.18m25.2-56l.66-4.04c.02-.16-.08-.48-.2-.5-1.73-.53-2.52-1.9-3.04-3.68-.4.32-.65.6-.95.76-1.66.93-3.26 2.05-5.02 2.7-4.8 1.76-9.74-3.25-9.87-6.92-.1-3.34.3-6.48 2.8-8.9.6-.57 1.4-.92 2.14-1.27.18-.08.53.22.8.35-.14.24-.22.58-.43.7-3.36 2.04-4.97 6.04-3.97 9.94.92 3.58 5 6.04 8.4 4.86 1.58-.55 3-1.6 4.46-2.46.5-.3.9-.82 1.38-1.2.68-.52 1.1-.37 1.33.44 1.02 3.5 1.44 3.75 4.97 3.4.52-.05 1.52.22 1.52.37.04 1-.87.7-1.4.8-1.66.3-1.7.24-1.93 1.9l-1.7 12.34c-.01.1.01.23-.04.3-.25.38-.5.76-.77 1.13-.13-.43-.4-.88-.36-1.3.2-2.08.43-4.17.8-6.23.2-1.16-.22-1.97-.84-2.8-.45-.6-.93-1.17-1.38-1.77-.18-.24-.37-.52-.4-.8-.03-.26.16-.54.25-.8.25.1.58.15.73.34.63.78 1.2 1.6 1.8 2.43l.27-.1z"/><path d="M111.7 192.77c-.4.78-.76 1.32-.95 1.93a12 12 0 0 0-.43 5.68c.06.37-.16.8-.26 1.2-.3-.32-.77-.6-.83-.95-.43-2.58-.25-5.1.9-7.48.37-.78.87-1.5 1.8-1.42.88.08 1.27.87 1.48 1.67.3 1.12.46 2.28.7 3.54l.9-1.57c.42-.63.82-1.3 1.34-1.83.97-.97 2.17-.62 2.35.8.2 1.52.06 3.1 0 4.65-.02.62-.24 1.24-.44 2.2l2.2-2.72c.63-.68 1.32-1.45 2.3-1.04 1.03.43.87 1.53.95 2.48.02.28.3.5.4.8.12.34.33.8.2 1.03a4.5 4.5 0 0 1-1.12 1.33c-.23.2-.7.26-.95.14-.18-.08-.27-.62-.23-.92.08-.6.34-1.16.4-1.75.07-.6.02-1.22.02-1.84l-.3-.16-1.64 1.73-2.3 3.2c-.27.34-.8.42-1.23.62-.1-.48-.36-1-.28-1.44l1-4.9c.15-1.08 0-2.2-.01-3.3l-.42-.13c-.35.43-.78.8-1.03 1.3l-1.8 3.8c-.13.3-.17.65-.37.86-.22.24-.57.48-.86.48-.15 0-.4-.53-.42-.83l-.02-3.3c-.05-1.23-.14-2.48-1.07-3.83m-29.4-23.85a13.9 13.9 0 0 0 7.11-1.06c.3-.12.7.17 1.07.27-.23.35-.4.9-.7 1.02-1.05.43-2.13.94-3.22 1.02a81.2 81.2 0 0 1-7.32.1c-.3 0-.6-.5-.9-.75.33-.2.66-.54 1-.57.97-.08 1.95-.03 2.93-.03m-2.3 34.42c-.28.98-.4 1.74-.75 2.45-.15.3-.75.48-1.14.7-.2-.34-.55-.7-.52-1.03a5.4 5.4 0 0 1 .5-2c.17-.4.65-.72 1-1.07l.94.95m-5.53 2.65c-.06-.38-.23-.62-.1-.82.23-.4.6-.77.93-1.15.42.32 1.1.6 1.22.96.24.68.3 1.4.17 2.1-.06.36-.66.7-1 1.04-.4-.32-.97-.62-1.15-.97-.2-.4-.05-.9-.05-1.18"/></g><path d="M159.3 152.93c-.35 0-.7.07-1.04-.02-.28-.07-.52-.32-.77-.5.23-.17.46-.44.7-.48l3.95-.64c2.02-.4 3.88-1.3 5.58-2.65.2-.17.4-.42.64-.46.34-.07.84-.15 1.03.06.43.48.13.92-.3 1.23a17.4 17.4 0 0 1-6.5 2.97l-3.27.6v-.1" class="C"/><g class="B"><path d="M151.02 159.72l-2.16 10.65c-.07.3-.4.52-.62.78-.16-.33-.5-.7-.44-.97l2.05-10.46c.1-.34.42-.6.64-.9l.54.9M140.52 195l1.14-5.78c.07-.3.5-.53.77-.8.18.4.56.8.5 1.16l-1.04 5.4c-.07.3-.44.56-.67.84l-.7-.83m-6.57-116.8l-.3.2.83 3.76c.26.93.1 2.08 1.16 2.7.1.05.14.37.07.46-.73.98.4 1.7.22 2.46l1.22.37-.5 1c-.08.18-.26.37-.22.53l.6 2.5c2.1-.58 3.98-.2 5.77.56.8.34 1.16.23 1.65-.47 1.36-1.93 2.72-2.25 4.9-1.3.17.08.37.1.65.15.12-5.92-.3-11.66-2.64-17.13a45.9 45.9 0 0 0-1.45 4.17c-.22.72-.66 1.15-1.4 1.35-1.46.4-2.96.68-4.35 1.25-1.6.67-2.83.26-4.03-.8-.7-.62-1.47-1.17-2.2-1.76m16.7 2.5c1-.76 1.82-1.46 2.72-2.07.27-.18.73-.08 1.1-.1-.15.36-.2.82-.46 1.05-.94.83-2 1.53-2.92 2.4-.26.25-.16.88-.26 1.62 1.02-.38 1.73-.7 2.47-.92.56-.17 1.38-.85 1.7.01.3.84-.76.85-1.3 1.1-.68.32-1.42.52-2.1.83-.2.1-.3.37-.46.56.2.14.38.37.6.4.44.07.9-.02 1.33.08.24.05.44.34.65.52-.23.2-.42.52-.7.6-.54.14-1.55.04-1.6.24-.2.7-.08 1.52-.08 2.3.77-.1 1.5-.26 2.23-.23.35.01.68.4 1 .63-.34.18-.67.5-1 .52-1.65.05-2.06.34-2.43 1.94-.2.82-.6.98-1.33.52a13.9 13.9 0 0 1-.4-.3c-1.8-1.2-2.8-1.03-4.08.7a8.6 8.6 0 0 0-.51.77c-.45.78-.86.8-1.72.34-3.2-1.67-5.47-1.7-8.1.72-.15.14-.27.36-.44.42-.26.1-.55.07-.83.1-.01-.28-.13-.64 0-.82a4.7 4.7 0 0 1 1.2-1.23c.83-.5 1.02-1.1.67-1.95-.15-.37-.2-.78-.36-1.38l-3.12 1.82c-.5.27-1.1 1-1.58.24-.48-.78.46-.96.94-1.25.94-.57 1.9-1.1 2.8-1.7.25-.18.3-.63.46-.96-.34-.1-.7-.3-1.02-.23-1.07.25-2.1.64-3.16.9-.28.07-.64-.13-.96-.2.16-.3.26-.77.5-.86 1.1-.4 2.23-.68 3.33-1.05.27-.1.47-.38.7-.57-.28-.18-.54-.5-.83-.52-1.1-.1-2.2-.06-3.3-.16-.3-.03-.54-.37-.8-.56.27-.2.54-.55.82-.57 1.2-.06 2.38-.03 3.68-.03l-1.28-5.9c-.08-.37-.22-.73-.24-1.1-.01-.3.02-.8.2-.9.26-.15.77-.16 1.03-.01.9.55 1.76 1.2 2.62 1.8.14.1.28.2.4.33 1.1 1.23 2.36 1.55 3.94.84.9-.4 1.9-.6 2.88-.8 1.02-.2 1.6-.75 1.85-1.77a52.7 52.7 0 0 1 1.33-4.29c.13-.37.5-.66.77-1 .33.3.85.54.97.9.8 2.35 1.5 4.72 2.23 7.1.1.32.15.65.26 1.1m10.2 2.35l1.2-6.15a25.1 25.1 0 0 0 .27-3.98 4.7 4.7 0 0 0-.54-2c-.45-.87-1.3-.9-1.78-.05a5 5 0 0 0-.75 2.04l-.24 8.4c0 1.65.1 1.65 1.84 1.73zm-.13-14.1c.28-.5.5-1.06.87-1.47.3-.33.77-.5 1.17-.72-.04.44-.02.9-.14 1.3-.12.43-.37.83-.56 1.24l.3.16c.18-.27.3-.6.55-.8.22-.18.56-.22.85-.3.06.28.27.7.16.83-.87 1.14-.37 2.36-.4 3.6-.03 2.1-.37 4.18-.65 6.26-.17 1.25-.44 2.5-.7 3.73-.14.67-.01 1.17.65 1.46.16.07.35.15.42.3.2.36.32.74.47 1.12-.37-.03-.77.04-1.1-.1-.98-.4-1.9-1.1-2.9-1.26-.88-.14-1.84.3-2.78.43-.35.04-.72-.1-1.08-.16.17-.3.3-.82.52-.88 1.52-.38 1.5-1.45 1.42-2.73l-.04-5.6c-.06-2.86 1.2-5.4 1.9-8.06.07-.25.53-.4.8-.6.1.33.27.66.27.98 0 .4-.16.78-.24 1.16l.23.1z"/><path d="M142.13 85.06c-.13.2-.2.47-.34.5-.23.04-.62.01-.7-.13a25.1 25.1 0 0 1-1.36-2.5c-.07-.14.1-.5.24-.6.15-.1.55-.05.62.06l1.54 2.66m1.3-4.4c.42.26.66.33.75.47.42.64.85 1.28 1.16 1.96.1.23-.18.57-.28.86-.34-.1-.84-.12-1-.3a8 8 0 0 1-1.12-1.96c-.1-.24.27-.6.48-1.02M115.3 242c1.73-3.08 3.67-6.06 4.38-9.6.05-.27.1-.54.1-.8-.04-1.04-.6-1.57-1.5-1.1-1.8.92-3.6 1.92-5.2 3.15-1.58 1.22-2.9 2.77-4.33 4.18-.22.2-.4.5-.65.64s-.63.16-.9.07c-.1-.04-.18-.56-.08-.78.25-.56.58-1.07.9-1.6 2.96-4.8 5.62-9.74 6.94-15.27.22-.9.23-1.88.22-2.83-.01-.9-.63-1.07-1.35-.74a5.4 5.4 0 0 0-1.26.85c-2.96 2.57-5.46 5.52-7.22 9.05l-3.52 7.03c-.18.35-.64.56-.97.83-.16-.37-.48-.76-.44-1.1l.85-7.8c.44-4.82 1.35-9.6.94-14.47-.1-1.1-.4-2.16-.63-3.25l-.36-.1c-.34.34-.72.64-1 1.02-2.8 3.9-4.46 8.32-5.6 12.95-.38 1.55-.57 3.15-.82 4.73-.1.65-.3 1.08-1.1 1-.77-.1-.82-.52-.92-1.18a227.7 227.7 0 0 0-1.53-8.45c-.3-1.5-.75-2.98-1.07-4.48-.08-.36.14-.78.22-1.18.3.3.8.53.88.87l2.24 9.88c.06.25.13.5.37.74.17-.77.32-1.55.52-2.3 1.24-4.7 2.85-9.25 5.75-13.22.6-.84 1.22-1.95 2.47-1.63 1.14.3 1.4 1.52 1.5 2.48a30.9 30.9 0 0 1 .24 5.81c-.35 4.65-.9 9.3-1.36 13.93-.04.4-.08.8.08 1.3.57-1.05 1.2-2.07 1.7-3.15a31.2 31.2 0 0 1 7.98-10.24 6.6 6.6 0 0 1 1.8-1.14c1.47-.58 2.74.18 2.84 1.76a11.9 11.9 0 0 1-.31 3.43c-.8 3.3-2.02 6.43-3.6 9.42a10.4 10.4 0 0 0-.96 2.37c.3-.2.63-.36.93-.57 1.27-.86 2.47-1.84 3.8-2.55a8.1 8.1 0 0 1 2.9-.75c.82-.1 1.5.44 1.56 1.3a8.8 8.8 0 0 1-.18 3.21c-.62 1.9-1.5 3.7-2.3 5.55-.15.36-.37.7-.5 1.2 2.96-2.06 6.14-2.25 9.72-1.14l-.94-2.6c-.9-2.7-1.6-5.44-1.27-8.3.25-2.13 1.57-2.63 3.14-1.15 1.35 1.28 2.46 2.8 3.65 4.25.32.38.57.83 1.1 1.2l-.94-7.98c-.04-.46.17-1.18.5-1.38.62-.38 1.02.25 1.36.72l2.47 3.45.24-.1c-.18-.77-.33-1.56-.55-2.32a36.5 36.5 0 0 1-1.32-12.24 12.7 12.7 0 0 1 .46-2.71c.35-1.25 1.54-1.6 2.3-.56a20 20 0 0 1 2.26 4.2c1.96 4.85 3.12 9.92 4.12 15.04.43 2.24.95 4.46 1.44 6.7.04.18.14.34.33.8l1.15-4.9a27.3 27.3 0 0 1 3.25-7.79 9.8 9.8 0 0 1 1.53-1.9c.85-.8 1.9-.52 2.24.6a14.2 14.2 0 0 1 .66 3.29 67.9 67.9 0 0 1-1.1 15.06c-.08.46-.04.95-.06 1.42h-1.23c.18-1.52.4-3.04.52-4.56l.7-11c.05-1.24-.32-2.5-.5-3.74l-.52-.13c-.58.84-1.27 1.62-1.73 2.52a36 36 0 0 0-3.99 16.92h-1.64c-.1-1.05-.1-2.12-.28-3.15l-2.6-12.9c-1.05-5-2.33-9.94-4.67-14.53-.18-.35-.42-.66-.63-1l-.3.01c-.1.43-.28.85-.33 1.28-.55 4.3-.05 8.52 1.07 12.65 1.18 4.36 2.16 8.8 4.67 12.68.04.06.1.12.1.18a16.3 16.3 0 0 1-.13.94c-.3-.08-.68-.07-.87-.25-.33-.32-.57-.76-.8-1.17l-5.93-10.24c-.2-.35-.5-.63-.77-.95l-.25.12c.2 1.4.26 2.85.6 4.22a174.6 174.6 0 0 0 2.17 8.07c.15.53.3 1-.5 1.36-.4-.58-.84-1.16-1.22-1.78-1.94-3.24-3.66-6.63-6.53-9.2-.28-.25-.67-.37-1-.55-.13.4-.36.8-.36 1.2-.08 3.6.88 6.93 2.46 10.1.14.27.3.54.4.83.23.77-.12 1.12-.9.9-.72-.2-1.43-.43-2.14-.65a7.8 7.8 0 0 0-8.2 1.77h-2.86zm64.4-214.67a15.2 15.2 0 0 0-4.1 1.7c-3.95 2.43-5.38 2.33-8.72-.93a3.3 3.3 0 0 0-4.91-.46c-.7.48-1.43 1-2.03 1.62-1.07 1.13-2.35 1.6-3.74 1.17-1.73-.53-3.37-1.36-5.07-2-.94-.36-2.1-1.1-2.83-.82a22.7 22.7 0 0 0-5.48 3.1c-1.5 1.15-1.4 3.03-.16 4.53 2.24 2.73 4.4 3.2 8.1 1.33 2.7-1.37 5.2-1.13 7.56.57 1.84 1.33 3.77 1.23 5.72.75 1.15-.28 2.2-.96 3.3-1.4 2-.8 3.94-.95 5.76.6.9.77 1.9 1.65 2.98 1.96 2.35.67 6.5-1.23 7.8-3.4.7-1.15 1.2-2.4 1.8-3.63-.7-4.2-2.4-5.6-6-4.68zm3.9 11.1c-1.72 1.23-3.9 1.84-5.97 2.4-2.16.6-3.85-.7-5.33-2.15-1.43-1.4-2.9-1.13-4.56-.52-1.95.72-3.98 1.45-6.02 1.6-1.4.1-3-.5-4.3-1.22-2-1.1-3.8-1.5-5.95-.4-1.4.7-3.03 1-4.6 1.17-2.98.34-4.95-1.65-6.17-4-1.76-3.35-.1-6.13 3.5-7.9.4-.2.96-.17 1.3-.45 2.52-2.16 4.87-1.16 7.25.3.82.5 1.72.9 2.63 1.23 1.45.5 2.78.38 3.86-.96.43-.53 1.07-.88 1.63-1.28 2.64-1.88 4.92-1.68 7.23.62 2.6 2.6 3.3 2.52 6.4.82 1.98-1.08 4.2-1.9 6.4-2.26 3.36-.56 5.66 1.62 6 5.16L187 32c.03 2.8-1.4 4.98-3.4 6.4zm-.76 179.07c-2.18 3.1-5.36 4.64-8.73 5.9-.42.16-1.04.2-1.4.01-.64-.34-1.48-.82-1.62-1.4a2.5 2.5 0 0 1 .6-2.16 10.4 10.4 0 0 1 3.33-1.63c.45-.14 1.1.35 1.67.55-.42.37-.78.84-1.26 1.1-.88.48-1.83.83-3.2 1.43 2.45.6 7.22-2.05 8.46-4.35-4.25-.1-8.06.72-11.12 3.6-.5.48-.78 1.76-.5 2.33.46.9 1.43 2 2.32 2.12 3.94.6 9.9-1.9 12.23-5.3.75-1.1.67-1.97-.8-2.2m-5.77 13.6l5.4-3.44c.5-.28 1.22-.15 1.84-.22-.3.55-.46 1.28-.92 1.62a59.1 59.1 0 0 1-4.87 3.27c-1 .6-1.24 1.28-.87 2.34a12.7 12.7 0 0 1 .75 2.88c.05.45-.43.95-.67 1.42-.35-.37-.92-.7-1-1.12l-1.97-9.97c-.07-.34-.2-.66-.33-1.06-.85 0-1.68-.03-2.5.01-2.35.12-3.62-1.33-4.53-3.12-.82-1.62-.33-3.26 1.2-4.76 3.24-3.15 11.3-4.8 15.1-3.07 2.53 1.14 2.98 2.8 1.25 5-1.7 2.18-3.84 3.9-6.55 4.66-1.74.5-2.08 1.48-1.77 3 .16.78.27 1.57.43 2.55m-8.8-21.63c1.22.1 3.24 3 2.84 3.78a1.4 1.4 0 0 1-1.19.27c-.76-.95-1.46-1.96-2.04-3.02-.13-.23.28-.75.4-1.03"/><path d="M175.26 210.1l-1.08 1.8c-.4-.6-.9-1.16-1.15-1.8a3.9 3.9 0 0 1-.22-1.81c.05-.45.4-.86.62-1.3.42.3 1.05.53 1.23.93.26.6.2 1.32.3 2l.3.18m2.48-.7l.88-1.57c.28.54.76 1.1.77 1.64s-.47 1.1-.73 1.65l-.92-1.7"/></g></g></g></svg>