<svg xmlns="http://www.w3.org/2000/svg" width="26" height="32" fill="none" fill-rule="evenodd"><g stroke="#3d4758" stroke-width=".85" fill="#fff"><path d="M22.03 24.97L14.97 7.27l-.03-.157V.425H1.02C.69.425.425.69.425 1.02v26.404c0 .33.266.595.595.595h20.415c.33 0 .595-.266.595-.595V24.97z"/><path d="M25.575 11.092h-7.09V3.98H4.565c-.33 0-.595.266-.595.595V30.98c0 .33.266.595.595.595H24.98c.33 0 .595-.266.595-.595V11.092z"/></g><path d="M14.192 10.668v1.182H7.08v-1.182zm8.284 5.926v1.182H7.07v-1.182zm0 4.74v1.182H7.07v-1.182zm0 4.74v1.182H7.07v-1.182z" fill="#3d4758"/><path d="M25.114 10.667L15.545.89" stroke="#3d4758" stroke-width=".85" stroke-linecap="round"/></svg>