<svg xmlns="http://www.w3.org/2000/svg" width="15" height="16" fill="#ffffff" fill-rule="evenodd"><path d="M1.83 12.4l-.96 2.47 2.4-1c.48-.6 2.5-2.7 10.8-11.18.2-.2.3-.46.3-.74s-.1-.54-.3-.74a1 1 0 0 0-1.43-.01L1.83 12.4zM.3 15.77a.3.3 0 0 1-.22-.1.31.31 0 0 1-.07-.35l1.25-3.23c.02-.04.04-.08.07-.1L12.2.75a1.64 1.64 0 0 1 2.3 0c.3.33.48.76.48 1.2a1.7 1.7 0 0 1-.48 1.19L3.7 14.3a.3.3 0 0 1-.16.14l-3.12 1.3c-.04.02-.08.03-.12.03z"/><path d="M4.06 14.48c-.08 0-.16-.03-.22-.1l-1.87-1.94c-.12-.12-.12-.33 0-.45a.3.3 0 0 1 .44 0l1.87 1.94c.12.12.12.33 0 .45-.06.06-.14.1-.22.1"/></svg>