<svg xmlns="http://www.w3.org/2000/svg" width="15" height="16" fill="#fff" fill-rule="evenodd"><path d="M1.83 12.4l-.96 2.47 2.4-1c.48-.6 2.5-2.7 10.8-11.18.2-.2.3-.46.3-.74s-.1-.54-.3-.74a1 1 0 0 0-1.43-.01L1.83 12.4zM.3 15.77a.3.3 0 0 1-.22-.1c-.1-.1-.12-.23-.07-.35l1.25-3.23c.02-.04.04-.08.07-.1L12.2.75c.6-.63 1.7-.63 2.3 0a1.8 1.8 0 0 1 .48 1.2 1.7 1.7 0 0 1-.48 1.19L3.7 14.3a.3.3 0 0 1-.16.14l-3.12 1.3c-.04.02-.08.03-.12.03z"/><path d="M3.12 14.48c-.06 0-.13-.02-.18-.08l-1.5-1.5c-.1-.1-.1-.26 0-.35.05-.05.1-.07.18-.07s.13.03.18.07l1.5 1.5c.1.1.1.26 0 .35-.05.05-.1.08-.18.08"/></svg>