<?xml version="1.0" encoding="UTF-8"?>
<svg width="25px" height="24px" viewBox="0 0 25 24" version="1.1" xmlns="http://www.w3.org/2000/svg" xmlns:xlink="http://www.w3.org/1999/xlink">
    <!-- Generator: sketchtool 55.2 (78181) - https://sketchapp.com -->
    <title>223371E1-CCBF-475E-83C8-60E9FFFA3B08@2x</title>
    <desc>Created with sketchtool.</desc>
    <g id="Estrada-web" stroke="none" stroke-width="1" fill="none" fill-rule="evenodd">
        <g id="Edit-Road-Asset-Data/Traffic/Add-traffic-data/ADT" transform="translate(-472.000000, -772.000000)">
            <g id="form" transform="translate(420.000000, 100.000000)">
                <g id="form/road">
                    <g id="Technical-Class-Copy-3" transform="translate(40.000000, 583.000000)">
                        <g id="icons" transform="translate(11.000000, 32.000000)">
                            <g id="4x4" transform="translate(2.000000, 58.000000)">
                                <path d="M7.76500648,14.7126439 C7.76500648,14.9382377 7.5819158,15.1213284 7.35632193,15.1213284 C7.13072806,15.1213284 6.94763738,14.9382377 6.94763738,14.7126439 C6.94763738,14.48705 7.13072806,14.3039593 7.35632193,14.3039593 C7.5819158,14.3039593 7.76500648,14.48705 7.76500648,14.7126439" id="Fill-25" fill="#000000"></path>
                                <path d="M7.76500648,14.7126439 C7.76500648,14.9382377 7.5819158,15.1213284 7.35632193,15.1213284 C7.13072806,15.1213284 6.94763738,14.9382377 6.94763738,14.7126439 C6.94763738,14.48705 7.13072806,14.3039593 7.35632193,14.3039593 C7.5819158,14.3039593 7.76500648,14.48705 7.76500648,14.7126439 L7.76500648,14.7126439 Z" id="Stroke-27" stroke="#4B5463"></path>
                                <path d="M16.7560666,14.7126439 C16.7560666,14.9382377 16.5729759,15.1213284 16.3473821,15.1213284 C16.1217882,15.1213284 15.9386975,14.9382377 15.9386975,14.7126439 C15.9386975,14.48705 16.1217882,14.3039593 16.3473821,14.3039593 C16.5729759,14.3039593 16.7560666,14.48705 16.7560666,14.7126439" id="Fill-29" fill="#000000"></path>
                                <path d="M16.7560666,14.7126439 C16.7560666,14.9382377 16.5729759,15.1213284 16.3473821,15.1213284 C16.1217882,15.1213284 15.9386975,14.9382377 15.9386975,14.7126439 C15.9386975,14.48705 16.1217882,14.3039593 16.3473821,14.3039593 C16.5729759,14.3039593 16.7560666,14.48705 16.7560666,14.7126439 L16.7560666,14.7126439 Z" id="Stroke-31" stroke="#4B5463"></path>
                                <polyline id="Stroke-33" stroke="#4B5463" stroke-linecap="round" stroke-linejoin="round" points="2.45210731 5.33235256 0.408684552 5.3127357 0.408684552 7.76484301 2.45210731 7.76484301"></polyline>
                                <path d="M0.408684552,15.1213284 L0.408684552,20.6483783 C0.408684552,21.2074588 0.874584941,21.6602812 1.44919542,21.6602812 L3.4550192,21.6602812 C4.02962968,21.6602812 4.49553007,21.2074588 4.49553007,20.6483783 L4.49553007,15.9386975" id="Stroke-35" stroke="#4B5463" stroke-linecap="round" stroke-linejoin="round"></path>
                                <polygon id="Stroke-37" stroke="#4B5463" stroke-linecap="round" stroke-linejoin="round" points="23.2950194 12.6692211 23.2950194 15.1213284 21.6602812 15.9386975 18.3908048 15.9386975 17.5734357 17.5734357 6.13026828 17.5734357 5.31289917 15.9386975 2.04342276 15.9386975 0.408684552 15.1213284 0.408684552 12.6692211"></polygon>
                                <path d="M20.6943144,6.48051094 C20.6943144,6.48051094 14.0777115,5.31330786 11.8520155,5.31330786 C9.62631941,5.31330786 3.00971651,6.48051094 3.00971651,6.48051094" id="Stroke-39" stroke="#4B5463" stroke-linecap="round" stroke-linejoin="round"></path>
                                <path d="M21.2144064,9.01051352 L20.0259517,8.99089666 L19.6172672,12.6690576 L23.2954281,12.6690576 L23.2954281,9.39958122 L21.2144064,9.01051352 L21.2144064,7.4926591 C21.2144064,7.4926591 20.5964754,1.26267179 19.6540488,0.914472553 C18.7108048,0.567090684 11.8522607,0.408521078 11.8522607,0.408521078 C11.8522607,0.408521078 4.99289917,0.567090684 4.04965522,0.914472553 C3.10722865,1.26267179 2.4892976,7.4926591 2.4892976,7.4926591 L2.4892976,9.01051352 L0.409093236,9.39958122 L0.485108563,12.7712288 L4.12648792,12.654345 L3.67856965,8.99089666 L2.4892976,9.01051352" id="Stroke-41" stroke="#4B5463" stroke-linecap="round" stroke-linejoin="round"></path>
                                <polyline id="Stroke-43" stroke="#4B5463" stroke-linecap="round" stroke-linejoin="round" points="21.2515967 5.31289917 23.2950194 5.31289917 23.2950194 7.76500648 21.2515967 7.76500648"></polyline>
                                <path d="M23.2950194,15.1213284 L23.2950194,20.6483783 C23.2950194,21.2074588 22.8291191,21.6602812 22.2545086,21.6602812 L20.2486848,21.6602812 C19.6740743,21.6602812 19.2081739,21.2074588 19.2081739,20.6483783 L19.2081739,15.9386975" id="Stroke-45" stroke="#4B5463" stroke-linecap="round" stroke-linejoin="round"></path>
                                <path d="M7.76500648,8.99106014 C7.76500648,9.66784176 7.21573445,10.2171138 6.53895283,10.2171138 C5.86217121,10.2171138 5.31289917,9.66784176 5.31289917,8.99106014 C5.31289917,8.31427852 5.86217121,7.76500648 6.53895283,7.76500648 C7.21573445,7.76500648 7.76500648,8.31427852 7.76500648,8.99106014 L7.76500648,8.99106014 Z" id="Stroke-47" stroke="#4B5463" stroke-linecap="round" stroke-linejoin="round"></path>
                                <path d="M18.3908048,8.99106014 C18.3908048,9.66784176 17.8415328,10.2171138 17.1647512,10.2171138 C16.4879696,10.2171138 15.9386975,9.66784176 15.9386975,8.99106014 C15.9386975,8.31427852 16.4879696,7.76500648 17.1647512,7.76500648 C17.8415328,7.76500648 18.3908048,8.31427852 18.3908048,8.99106014 L18.3908048,8.99106014 Z" id="Stroke-49" stroke="#4B5463" stroke-linecap="round" stroke-linejoin="round"></path>
                                <path d="M11.851852,9.39974469 L11.851852,11.0344829" id="Stroke-51" stroke="#4B5463" stroke-linecap="round" stroke-linejoin="round"></path>
                                <path d="M14.3039593,9.39974469 L14.3039593,11.0344829" id="Stroke-53" stroke="#4B5463" stroke-linecap="round" stroke-linejoin="round"></path>
                                <path d="M9.39974469,9.39974469 L9.39974469,11.0344829" id="Stroke-24" stroke="#4B5463" stroke-linecap="round" stroke-linejoin="round"></path>
                            </g>
                        </g>
                    </g>
                </g>
            </g>
        </g>
    </g>
</svg>