<?xml version="1.0" encoding="UTF-8"?>
<svg version="1.1" viewBox="0 0 132 120" xmlns="http://www.w3.org/2000/svg">
<title>A43C34D4-A399-459C-BB79-C55E4D11BA8A@2x</title>
<desc>Created with sketchtool.</desc>
<g fill="none" fill-rule="evenodd">
<g transform="translate(-655 -363)">
<g transform="translate(659 367)">
<polygon points="62 0 124 107 0 107" fill="#FFACAF" stroke="#FFACAF" stroke-linejoin="round" stroke-width="7.5"/>
<g transform="translate(31 4)">
<path d="m15.787 110.03v-9.8222l-14.72-21.911v-40.8c1.033-2.0148 2.5824-3.0222 4.6484-3.0222s3.8737 1.0074 5.4231 3.0222v-24.178c1.033-3.5259 3.0989-5.2889 6.1979-5.2889s4.9066 1.2593 5.4231 3.7778c-1.033-6.5481 1.2912-9.8222 6.9726-9.8222s7.7473 3.2741 6.1979 9.8222c1.033-1.5111 3.0989-2.2667 6.1979-2.2667s4.6484 1.763 4.6484 5.2889v9.0666c1.033-2.5185 3.3572-3.7778 6.9726-3.7778 3.6154 0 5.4231 3.2741 5.4231 9.8222v29.467c1.5495 13.6 1.033 22.163-1.5495 25.689-2.5824 3.5259-4.9066 6.0444-6.9726 7.5555v1.5111l-1.5495 7.5555-2.3242 8.3111h-30.989z" fill="#fff"/>
<g transform="translate(2.0328 1.9825)" stroke="#4C4F54" stroke-linecap="round" stroke-linejoin="round" stroke-width="4">
<path d="m14.742 107.05v-6.5778c0-2.1732-0.126-3.8474-2.52-7.3225-2.394-3.4751-12.222-14.366-12.222-19.858v-37.109c0.504-2.3167 2.1-3.4751 4.788-3.4751 4.032 0 6.93 5.0132 6.93 7.4466v19.982c8.6519 2.9786 14.91 7.1984 18.774 12.659"/>
<path d="m28.557 93.175h10.161c9.6115 0 22.895-8.3377 18.265-36.586-0.51934-3.1682 0-22.775 0-31.484s-11.576-8.709-11.576-0.86155v23.386-34.471c0-6.9688-11.319-7.74-11.319 0v28.871-35.84c0-8.2525-12.477-8.2525-12.477 0v35.84-28.871c0-8.7111-11.448-8.7111-11.448 0v22.529"/>
<path d="m49.803 89.211c-1.4193 4.0305-2.3517 7.0482-2.7972 9.0533-0.84559 3.8054-1.2684 7.0654-1.2684 9.7801"/>
</g>
</g>
</g>
</g>
</g>
</svg>
