<?xml version="1.0" encoding="UTF-8"?>
<svg width="85px" height="55px" viewBox="0 0 85 55" version="1.1" xmlns="http://www.w3.org/2000/svg" xmlns:xlink="http://www.w3.org/1999/xlink">
    <!-- Generator: sketchtool 55.2 (78181) - https://sketchapp.com -->
    <title>E0720A5D-3D71-44A3-B75B-1B0B564A1E6F</title>
    <desc>Created with sketchtool.</desc>
    <g id="Estrada-web" stroke="none" stroke-width="1" fill="none" fill-rule="evenodd">
        <g id="Edit-Structures-Asset-Data/Condition/Form" transform="translate(-652.000000, -815.000000)" fill="#3D4758">
            <g id="Form" transform="translate(471.000000, 217.000000)">
                <g id="Photo-1" transform="translate(0.000000, 528.000000)">
                    <g id="Group" transform="translate(85.000000, 70.000000)">
                        <path d="M139.265361,19.9253699 C138.135903,19.8528347 137.004715,20.2385461 136.168569,21.0218909 L120.169903,36.1150805 C118.610032,37.5942131 118.610032,39.978937 120.169903,41.4580696 C121.737772,42.9296556 124.265561,42.9296556 125.833431,41.4580696 L135.000667,32.8021254 L135.000667,55 L111.178571,55 C102.812143,55 96,48.1433333 96,39.7222222 C96,32.2972222 101.294286,26.0883333 108.2825,24.7255556 C109.666786,10.8594444 121.33,0 135.464286,0 C144.553214,0 153.047143,4.66277778 158.104643,12.3016667 C158.645,12.2527778 159.1975,12.2222222 159.75,12.2222222 C171.467857,12.2222222 181,21.8166667 181,33.6111111 C181,45.4055556 171.467857,55 159.75,55 L143,55 L143,33.0115817 L151.021246,41.7974884 C151.707132,42.5410931 152.602983,42.9167285 153.498834,42.9167285 C154.394684,42.9167285 155.290535,42.5410931 155.976421,41.7974884 C157.341193,40.294947 157.341193,37.8724822 155.976421,36.3699407 L141.978754,21.0378851 C141.232652,20.2248277 140.2381,19.8539893 139.265361,19.9253699 Z" id="Fill-526"></path>
                    </g>
                </g>
            </g>
        </g>
    </g>
</svg>