<svg xmlns="http://www.w3.org/2000/svg" width="72" height="72" fill="#0098ae"><path d="M65.045116 67.03a43.7 43.7 0 0 1-11.97-21.96 43.8 43.8 0 0 1 1.75-24.26l3.6 1.3a40 40 0 0 0-1.6 22.16 39.9 39.9 0 0 0 10.93 20.05l-2.7 2.7zm-56.93-.03l-2.7-2.7a44 44 0 0 1 22.12-11.93 44.4 44.4 0 0 1 24.43 1.8l-1.33 3.57a40.5 40.5 0 0 0-22.31-1.65c-7.66 1.6-14.66 5.37-20.2 10.9m28.47-46.48a44.3 44.3 0 0 1-15.14-2.67l1.3-3.58c7.1 2.6 14.8 3.13 22.22 1.56 7.62-1.6 14.57-5.37 20.1-10.87l2.7 2.7a44 44 0 0 1-22 11.9c-3.04.64-6.1.96-9.18.96m-18.14 30.4l-3.6-1.3c2.56-7.07 3.08-14.7 1.5-22.06a39.9 39.9 0 0 0-10.9-19.94l2.7-2.7a43.7 43.7 0 0 1 11.94 21.85 43.8 43.8 0 0 1-1.65 24.15"/><path d="M36.595116 27.47a51.5 51.5 0 0 1-12.1-1.44l.9-3.7a47.8 47.8 0 0 0 23.59-.3 47.3 47.3 0 0 0 21.04-12.15l2.7 2.7a51 51 0 0 1-22.74 13.12 51.4 51.4 0 0 1-13.4 1.77m.01-13.97a36.9 36.9 0 0 1-26.21-10.81l2.7-2.7a33.1 33.1 0 0 0 23.5 9.69 33.1 33.1 0 0 0 23.52-9.68l2.7 2.7a36.9 36.9 0 0 1-26.21 10.8"/><path d="M60.105116 71.95a50.8 50.8 0 0 1-13.21-22.72 51 51 0 0 1-.27-25.46l3.72.9a47.2 47.2 0 0 0 .25 23.56 47 47 0 0 0 12.22 21.02l-2.7 2.7h-.01zm9.93-9.88a36.6 36.6 0 0 1-10.86-26.1 36.6 36.6 0 0 1 10.86-26.1l2.7 2.7c-12.96 12.9-12.96 33.9 0 46.8l-2.7 2.7z"/><path d="M3.165116 62.07l-2.7-2.7c6.33-6.3 14.22-10.85 22.82-13.15a51.7 51.7 0 0 1 25.56-.28l-.9 3.7a47.8 47.8 0 0 0-23.66.25 47.3 47.3 0 0 0-21.1 12.17m56.92 9.88a33.4 33.4 0 0 0-47.01 0l-2.7-2.7a36.9 36.9 0 0 1 26.21-10.81 36.9 36.9 0 0 1 26.21 10.81l-2.7 2.7h-.01z"/><path d="M26.595116 48.08l-3.72-.9a47.2 47.2 0 0 0-.28-23.51 47 47 0 0 0-12.21-20.98l2.7-2.7a50.8 50.8 0 0 1 13.2 22.67 51 51 0 0 1 .31 25.41m-23.43 14l-2.7-2.7c12.96-12.9 12.96-33.9 0-46.8l2.7-2.7a36.6 36.6 0 0 1 10.86 26.1 36.6 36.6 0 0 1-10.86 26.1"/></svg>