<?xml version="1.0" standalone="no"?>
<!DOCTYPE svg PUBLIC "-//W3C//DTD SVG 20010904//EN"
 "http://www.w3.org/TR/2001/REC-SVG-20010904/DTD/svg10.dtd">
<svg version="1.0" xmlns="http://www.w3.org/2000/svg"
 width="700.000000pt" height="700.000000pt" viewBox="0 0 700.000000 700.000000"
 preserveAspectRatio="xMidYMid meet">
<metadata>
Created by potrace 1.11, written by Peter Selinger 2001-2013
</metadata>
<g transform="translate(0.000000,700.000000) scale(0.100000,-0.100000)"
fill="#000000" stroke="none">
<path d="M1136 6869 l-130 -130 80 -82 c44 -45 102 -107 128 -137 27 -30 59
-66 71 -80 23 -27 158 -199 188 -240 81 -115 110 -157 164 -240 257 -401 455
-855 572 -1315 29 -110 74 -325 85 -400 3 -22 8 -51 10 -65 8 -46 26 -195 31
-255 14 -162 16 -213 18 -380 1 -164 -8 -406 -18 -466 -2 -13 -6 -53 -9 -89
-4 -36 -8 -76 -10 -90 -3 -14 -10 -59 -16 -100 -19 -124 -51 -284 -59 -293 -6
-6 -323 -107 -336 -107 -1 0 9 44 22 98 82 336 117 634 118 1002 0 293 -10
419 -61 740 -39 251 -170 696 -270 918 -13 29 -24 54 -24 57 0 9 -116 243
-163 329 -181 331 -413 647 -667 910 l-67 69 -132 -132 -132 -131 45 -46 c362
-367 660 -833 851 -1334 38 -100 131 -397 140 -451 3 -17 14 -68 24 -112 16
-72 26 -124 46 -242 3 -16 8 -59 11 -95 4 -36 8 -68 10 -71 7 -13 18 -254 18
-409 0 -265 -17 -459 -60 -690 -9 -47 -18 -96 -21 -110 -2 -14 -18 -77 -34
-140 -16 -63 -32 -124 -34 -134 -2 -11 -19 -63 -36 -116 l-32 -97 -76 -37
c-88 -42 -235 -120 -304 -160 l-48 -28 27 58 c14 33 31 73 36 89 6 17 14 35
18 40 11 14 118 338 125 376 3 18 8 35 10 39 12 19 66 291 84 420 23 168 33
303 34 486 0 124 -10 337 -18 379 -3 11 -7 45 -10 75 -7 75 -49 310 -70 390
-10 36 -18 70 -20 75 -42 181 -143 450 -250 670 -36 71 -72 143 -82 160 -203
339 -323 501 -536 723 l-71 73 -128 -128 c-70 -70 -128 -130 -128 -133 0 -3
26 -33 58 -66 211 -225 404 -498 535 -759 167 -334 288 -727 322 -1050 3 -33
10 -94 15 -135 9 -75 6 -518 -4 -575 -3 -16 -7 -55 -11 -85 -3 -30 -10 -80
-15 -110 -5 -30 -12 -71 -15 -90 -62 -372 -249 -835 -468 -1165 -40 -61 -167
-236 -177 -245 -3 -3 -40 -45 -82 -95 -42 -49 -94 -108 -117 -130 -23 -21 -41
-42 -41 -46 0 -11 252 -260 261 -257 4 2 38 33 76 69 115 111 245 221 374 318
68 51 131 98 139 104 74 58 350 227 500 308 251 135 655 297 905 364 83 22
209 53 237 59 13 2 43 9 68 15 79 18 311 55 415 67 33 3 74 8 90 10 216 24
631 24 890 -1 151 -15 337 -42 445 -65 25 -5 58 -12 74 -15 39 -6 41 -8 66
-95 21 -75 61 -198 76 -234 8 -20 4 -20 -76 -1 -203 48 -355 75 -493 90 -32 4
-67 8 -78 10 -97 19 -601 27 -790 12 -108 -8 -383 -43 -444 -57 -22 -5 -56
-12 -75 -15 -19 -3 -51 -10 -70 -15 -19 -5 -47 -11 -61 -14 -57 -10 -270 -70
-384 -108 -584 -196 -1140 -528 -1578 -943 l-91 -86 132 -132 131 -131 73 70
c40 38 105 96 143 129 39 33 72 63 75 66 14 15 218 164 310 226 498 333 1117
559 1720 627 278 32 697 28 973 -9 169 -22 430 -77 567 -119 25 -8 77 -24 115
-35 39 -12 75 -25 81 -29 6 -4 36 -59 68 -122 53 -104 77 -150 138 -259 10
-18 18 -35 16 -36 -2 -2 -19 4 -38 14 -136 66 -425 164 -620 210 -306 73 -511
96 -855 96 -121 0 -260 -4 -310 -8 -89 -7 -414 -55 -426 -62 -3 -2 -21 -7 -40
-10 -19 -3 -78 -17 -133 -31 -562 -142 -1151 -468 -1558 -862 l-77 -75 130
-130 130 -130 26 24 c15 13 34 31 43 39 9 8 39 35 66 60 27 25 69 61 94 80 24
19 53 42 63 51 123 109 469 316 682 408 28 12 59 26 70 31 136 63 532 178 675
196 19 2 46 6 60 9 14 3 43 7 65 10 22 3 51 8 65 10 141 24 625 24 750 0 8 -1
38 -6 65 -9 344 -44 725 -163 1035 -323 69 -35 134 -69 145 -76 167 -103 378
-246 405 -276 3 -3 30 -26 60 -51 30 -24 86 -74 123 -110 38 -36 73 -67 78
-68 5 -2 67 54 138 125 l129 129 -90 94 c-565 592 -967 1345 -1146 2150 -28
122 -58 286 -68 365 -2 17 -6 48 -8 70 -10 79 -18 162 -25 260 -8 113 -6 576
3 645 3 25 8 72 11 105 7 77 25 223 30 255 3 14 10 54 15 89 6 36 12 67 14 70
2 3 7 28 10 55 10 71 19 83 83 101 32 9 105 31 163 50 57 19 106 32 108 31 2
-2 -6 -39 -17 -82 -11 -44 -23 -95 -26 -114 -3 -19 -10 -53 -15 -75 -5 -22
-14 -69 -19 -105 -6 -36 -13 -76 -16 -89 -2 -13 -7 -49 -10 -80 -4 -31 -8 -63
-10 -71 -2 -8 -7 -55 -10 -105 -4 -49 -8 -106 -11 -125 -4 -45 -4 -414 1 -500
9 -156 22 -278 51 -455 19 -120 22 -135 45 -235 11 -47 22 -93 24 -103 12 -58
74 -262 116 -379 165 -471 416 -915 732 -1294 115 -138 267 -304 279 -304 10
0 258 247 258 257 0 4 -28 36 -62 72 -396 419 -682 888 -866 1421 -34 98 -87
280 -97 330 -2 8 -8 33 -14 55 -11 41 -46 221 -55 288 -3 20 -8 52 -11 70 -36
239 -41 739 -10 960 6 42 25 182 32 227 18 138 141 591 166 617 7 7 73 43 147
81 74 38 165 85 203 106 37 21 67 36 67 33 0 -3 -16 -43 -36 -89 -69 -159
-131 -339 -178 -518 -26 -101 -29 -113 -51 -230 -22 -122 -28 -161 -41 -275
-19 -171 -24 -497 -11 -670 65 -822 414 -1604 979 -2190 l67 -70 96 95 95 95
0 74 c0 73 0 74 -43 120 -23 25 -60 68 -82 94 -22 27 -45 54 -52 61 -13 14
-162 222 -180 251 -266 432 -400 782 -477 1250 -14 82 -19 126 -32 270 -6 61
-6 382 0 445 2 25 7 81 11 125 3 44 8 87 11 95 2 8 6 35 9 58 10 78 56 282 90
403 132 458 380 902 704 1259 39 44 40 47 41 119 l0 73 -95 96 -96 95 -62 -60
c-81 -78 -152 -142 -207 -188 -25 -21 -47 -41 -50 -44 -21 -30 -412 -308 -535
-380 -431 -256 -838 -425 -1290 -536 -134 -33 -311 -69 -385 -79 -19 -2 -69
-9 -110 -15 -290 -42 -816 -50 -1095 -16 -16 2 -55 6 -85 10 -30 3 -109 15
-175 27 -66 11 -131 21 -143 23 -13 2 -46 9 -72 15 -48 12 -49 13 -65 68 -9
32 -32 106 -52 165 -19 60 -32 111 -29 114 2 3 20 0 39 -6 38 -13 29 -11 192
-44 66 -14 138 -28 160 -31 22 -3 51 -8 65 -11 295 -53 843 -63 1135 -20 17 2
59 7 95 11 36 3 68 8 71 10 3 1 28 6 55 9 27 4 65 10 84 15 19 5 52 11 73 14
148 23 550 144 747 226 41 17 93 38 115 47 123 51 403 199 557 296 210 131
467 329 651 502 l97 91 -133 131 -132 132 -88 -84 c-174 -166 -414 -348 -632
-482 -162 -99 -267 -153 -505 -261 -89 -41 -399 -150 -475 -168 -5 -1 -46 -12
-91 -23 -45 -12 -90 -23 -100 -25 -10 -3 -39 -9 -64 -14 -25 -6 -61 -13 -80
-16 -19 -3 -46 -8 -60 -10 -78 -15 -152 -26 -205 -31 -33 -4 -73 -8 -90 -10
-201 -22 -549 -22 -750 -1 -131 14 -171 19 -176 22 -3 2 -34 6 -70 10 -35 3
-67 8 -70 10 -4 2 -24 6 -45 10 -100 15 -355 81 -489 126 l-70 23 -70 135
c-39 74 -90 171 -114 214 -24 44 -40 77 -35 74 9 -4 49 -22 117 -52 29 -13
168 -65 272 -101 94 -33 261 -77 420 -110 103 -21 252 -43 350 -50 39 -3 93
-8 120 -10 61 -5 413 -5 475 0 208 18 233 21 380 46 342 59 692 175 1004 331
90 45 393 222 406 237 3 3 28 22 55 41 117 80 252 191 368 300 38 36 73 67 78
68 5 2 9 9 9 15 0 15 -241 257 -255 257 -6 0 -39 -27 -75 -61 -217 -201 -502
-400 -765 -532 -255 -128 -633 -252 -890 -291 -234 -37 -288 -41 -540 -41
-264 0 -397 9 -540 35 -27 5 -63 12 -80 15 -305 51 -676 186 -980 355 -83 46
-273 166 -291 185 -9 8 -19 15 -23 15 -4 0 -16 8 -27 18 -10 9 -40 33 -66 53
-74 56 -147 119 -221 189 -38 36 -72 66 -75 67 -4 1 -65 -56 -136 -128z m1679
-2483 c55 -9 127 -19 160 -22 33 -3 71 -7 85 -9 115 -20 674 -27 865 -12 155
13 418 43 443 52 7 2 32 7 57 11 52 7 51 11 31 -96 -8 -41 -17 -100 -20 -130
-4 -30 -8 -68 -11 -85 -22 -150 -30 -301 -30 -600 0 -330 7 -429 47 -700 25
-171 27 -201 11 -198 -26 5 -72 12 -148 23 -44 6 -93 13 -110 16 -16 2 -59 6
-95 9 -36 3 -74 7 -85 10 -107 23 -774 24 -916 0 -13 -2 -53 -6 -89 -9 -36 -4
-75 -8 -85 -10 -11 -2 -45 -7 -75 -11 -30 -4 -62 -9 -70 -10 -8 -1 -35 -6 -60
-10 -25 -4 -53 -9 -63 -11 -13 -2 -17 2 -13 14 3 9 10 46 16 82 5 36 12 76 14
90 2 14 7 51 11 84 4 32 8 68 10 80 33 209 39 849 10 1027 -2 13 -6 49 -10 79
-7 72 -13 115 -20 170 -13 92 -17 116 -25 154 l-8 38 36 -5 c20 -3 82 -13 137
-21z"/>
</g>
</svg>
